<svg width="40" height="41" viewBox="0 0 40 41" fill="none" xmlns="http://www.w3.org/2000/svg">
<path d="M3.83325 20.3995C3.83325 11.4923 11.0927 4.23279 19.9999 4.23279C28.9071 4.23279 36.1666 11.4923 36.1666 20.3995C36.1666 29.3066 28.9071 36.5661 19.9999 36.5661C11.0927 36.5661 3.83325 29.3066 3.83325 20.3995ZM25.9535 26.353C26.6321 25.6744 26.6321 24.5578 25.9535 23.8792L22.4737 20.3995L25.9535 16.9197C26.6321 16.2411 26.6321 15.1245 25.9535 14.4459C25.2749 13.7673 24.1583 13.7673 23.4797 14.4459L19.9999 17.9257L16.5201 14.4459C15.8415 13.7673 14.725 13.7673 14.0464 14.4459C13.3678 15.1245 13.3678 16.2411 14.0464 16.9197L17.5261 20.3995L14.0464 23.8792C13.3678 24.5578 13.3678 25.6744 14.0464 26.353C14.3951 26.7017 14.8411 26.8661 15.2833 26.8661C15.7254 26.8661 16.1714 26.7017 16.5201 26.353L19.9999 22.8732L23.4797 26.353C23.8284 26.7017 24.2745 26.8661 24.7166 26.8661C25.1587 26.8661 25.6048 26.7017 25.9535 26.353Z" fill="#0A0A0A" stroke="white"/>
</svg>
