<svg width="25" height="25" viewBox="0 0 25 25" fill="none" xmlns="http://www.w3.org/2000/svg">
<path d="M19.41 15.5462C19.41 16.8362 20.47 17.8862 21.76 17.8862C21.76 21.6362 20.82 22.5762 17.07 22.5762H7.69C3.94 22.5762 3 21.6362 3 17.8862V17.4262C4.29 17.4262 5.35 16.3662 5.35 15.0762C5.35 13.7862 4.29 12.7262 3 12.7262V12.2662C3.01 8.51617 3.94 7.57617 7.69 7.57617H17.06C20.81 7.57617 21.75 8.51617 21.75 12.2662V13.2062C20.46 13.2062 19.41 14.2462 19.41 15.5462Z" stroke="#0A0A0A" stroke-width="1.5" stroke-linecap="round" stroke-linejoin="round"/>
<path d="M16.7111 7.57602H7.62109L10.5511 4.64602C12.9411 2.25602 14.1411 2.25602 16.5311 4.64602L17.1311 5.24602C16.5011 5.87602 16.3511 6.80602 16.7111 7.57602Z" stroke="#0A0A0A" stroke-width="1.5" stroke-linecap="round" stroke-linejoin="round"/>
<path d="M10.3789 7.57617L10.3789 22.5762" stroke="#0A0A0A" stroke-width="1.5" stroke-linecap="round" stroke-linejoin="round" stroke-dasharray="5 5"/>
</svg>
