<svg width="710" height="523" viewBox="0 0 710 523" fill="none" xmlns="http://www.w3.org/2000/svg">
<path d="M578.832 452.998H567.289L582.293 395.344H593.836L578.832 452.998Z" fill="#C7C7C7"/>
<path d="M209.026 410.922H440.182L463.731 420.691H195.393L209.026 410.922Z" fill="black" fill-opacity="0.1"/>
<path fill-rule="evenodd" clip-rule="evenodd" d="M480.05 385.935V121.885H453.203V376.553L480.05 385.935ZM483.202 119.787V389.429L450.054 377.851V119.787H483.202Z" fill="black"/>
<path fill-rule="evenodd" clip-rule="evenodd" d="M481.7 148.934L479.675 150.03L456.052 163.008L481.7 177.03L479.675 178.127L456.052 191.105L481.7 205.127L479.675 206.225L456.052 219.201L481.7 233.224L479.675 234.321L456.052 247.246L481.7 261.321L479.675 262.421L456.052 275.343L481.7 289.368L479.675 290.517L456.052 303.443L481.7 317.465L479.675 318.564L456.052 331.539L481.7 345.562L479.675 346.661L456.052 359.636L481.7 373.659L479.375 374.957L451.552 377.002L451.252 375.156L476.45 373.26L451.552 359.636L453.577 358.487L477.199 345.562L451.552 331.539L453.577 330.441L477.199 317.465L451.552 303.443L453.577 302.344L477.199 289.418L451.552 275.343L453.577 274.246L477.199 261.321L451.552 247.246L453.577 246.15L477.199 233.224L451.552 219.201L453.577 218.104L477.199 205.127L451.552 191.105L453.577 190.008L477.199 177.03L451.552 163.008L453.577 161.911L477.199 148.934L451.552 134.912L453.577 133.814L478.551 120.139L480.352 121.587L479.675 121.985L456.052 134.912L481.7 148.934Z" fill="black"/>
<path d="M498.25 179.709H157.616C150.422 179.709 144.59 185.541 144.59 192.735V377.055C144.59 384.249 150.422 390.081 157.616 390.081H498.25C505.444 390.081 511.276 384.249 511.276 377.055V192.735C511.276 185.541 505.444 179.709 498.25 179.709Z" fill="black"/>
<path d="M362.126 384.871H293.088V408.318H362.126V384.871Z" fill="black"/>
<path d="M402.508 402.455H253.358V414.179H402.508V402.455Z" fill="black"/>
<path d="M487.178 189.887H168.688C161.494 189.887 155.662 195.719 155.662 202.913V366.874C155.662 374.068 161.494 379.9 168.688 379.9H487.178C494.372 379.9 500.204 374.068 500.204 366.874V202.913C500.204 195.719 494.372 189.887 487.178 189.887Z" fill="#FFEDED"/>
<path d="M509.215 355.385L153.686 289.893L149.747 312.368L505.277 377.86L509.215 355.385Z" fill="#E6B42A"/>
<path d="M162.588 314.725L149.746 312.359L163.161 291.631L176.003 293.996L162.588 314.725Z" fill="black"/>
<path d="M188.218 319.448L175.377 317.083L188.791 296.354L201.632 298.719L188.218 319.448Z" fill="black"/>
<path d="M213.849 324.17L201.007 321.805L214.422 301.076L227.264 303.442L213.849 324.17Z" fill="black"/>
<path d="M239.48 328.891L226.639 326.525L240.053 305.797L252.895 308.162L239.48 328.891Z" fill="black"/>
<path d="M265.112 333.614L252.271 331.249L265.686 310.52L278.527 312.885L265.112 333.614Z" fill="black"/>
<path d="M290.744 338.335L277.902 335.969L291.317 315.24L304.158 317.606L290.744 338.335Z" fill="black"/>
<path d="M316.374 343.058L303.532 340.693L316.947 319.963L329.789 322.329L316.374 343.058Z" fill="black"/>
<path d="M342.005 347.778L329.164 345.413L342.578 324.684L355.42 327.05L342.005 347.778Z" fill="black"/>
<path d="M367.636 352.502L354.794 350.135L368.209 329.406L381.051 331.772L367.636 352.502Z" fill="black"/>
<path d="M393.266 357.224L380.425 354.858L393.84 334.129L406.681 336.495L393.266 357.224Z" fill="black"/>
<path d="M418.898 361.945L406.057 359.579L419.472 338.85L432.313 341.216L418.898 361.945Z" fill="black"/>
<path d="M444.53 366.667L431.688 364.301L445.103 343.572L457.945 345.938L444.53 366.667Z" fill="black"/>
<path d="M470.161 371.388L457.319 369.021L470.734 348.293L483.576 350.659L470.161 371.388Z" fill="black"/>
<path d="M495.791 376.11L482.95 373.744L496.365 353.016L509.206 355.381L495.791 376.11Z" fill="black"/>
<path d="M493.165 295.363L150.905 352.824L154.7 375.339L496.959 317.878L493.165 295.363Z" fill="#E6B42A"/>
<path d="M185.702 355.797C184.693 355.967 183.973 356.405 183.541 357.11C183.107 357.815 182.986 358.731 183.175 359.857C183.367 360.996 183.81 361.823 184.503 362.339C185.208 362.852 186.065 363.024 187.073 362.854C187.609 362.764 188.049 362.616 188.391 362.41C188.747 362.202 189.079 361.978 189.388 361.737C189.641 361.883 189.849 362.077 190.011 362.319C190.184 362.546 190.299 362.829 190.357 363.17C190.447 363.706 190.223 364.215 189.685 364.696C189.157 365.162 188.285 365.497 187.068 365.703C186.191 365.85 185.345 365.865 184.531 365.746C183.717 365.628 182.979 365.362 182.317 364.948C181.653 364.522 181.085 363.945 180.612 363.217C180.15 362.473 179.827 361.552 179.641 360.452C179.469 359.432 179.475 358.508 179.659 357.683C179.854 356.843 180.181 356.108 180.64 355.478C181.113 354.847 181.699 354.331 182.399 353.93C183.098 353.53 183.873 353.258 184.725 353.114C185.929 352.912 186.891 352.951 187.612 353.233C188.345 353.513 188.764 353.961 188.868 354.576C188.925 354.917 188.89 355.226 188.761 355.503C188.633 355.781 188.47 356.01 188.272 356.192C187.894 356.026 187.495 355.898 187.077 355.807C186.67 355.714 186.212 355.711 185.702 355.797ZM193.327 352.411C193.528 352.243 193.841 352.063 194.266 351.869C194.704 351.675 195.152 351.539 195.611 351.462C196.265 351.351 196.857 351.352 197.388 351.465C197.929 351.562 198.306 351.801 198.519 352.183C198.868 352.824 199.257 353.573 199.685 354.43C200.112 355.286 200.544 356.176 200.983 357.098C201.418 358.007 201.846 358.911 202.267 359.81C202.686 360.695 203.054 361.481 203.371 362.167C203.245 362.377 203.034 362.561 202.737 362.718C202.443 362.889 202.08 363.011 201.648 363.084C201.334 363.136 201.061 363.156 200.83 363.141C200.611 363.124 200.421 363.075 200.26 362.994C200.111 362.912 199.977 362.793 199.856 362.639C199.749 362.482 199.644 362.298 199.541 362.086L198.96 360.791L195.406 361.39C195.367 361.8 195.331 362.223 195.297 362.66C195.263 363.097 195.226 363.52 195.188 363.93C195.016 364.027 194.828 364.112 194.625 364.186C194.438 364.272 194.2 364.339 193.912 364.388C193.244 364.5 192.729 364.472 192.364 364.305C192.01 364.123 191.799 363.828 191.73 363.422C191.7 363.239 191.695 363.052 191.716 362.86C191.738 362.668 191.76 362.441 191.784 362.182C191.816 361.813 191.866 361.354 191.935 360.803C192.017 360.251 192.105 359.658 192.2 359.022C192.293 358.374 192.396 357.71 192.511 357.032C192.626 356.353 192.733 355.715 192.835 355.12C192.934 354.511 193.025 353.97 193.107 353.498C193.202 353.025 193.276 352.663 193.327 352.411ZM196.11 354.547C196.02 355.128 195.914 355.779 195.793 356.499C195.683 357.204 195.595 357.919 195.529 358.643L197.963 358.233C197.661 357.557 197.355 356.901 197.046 356.267C196.748 355.618 196.476 355.037 196.228 354.527L196.11 354.547ZM214.679 356.163C214.798 356.87 214.783 357.538 214.634 358.17C214.495 358.785 214.232 359.341 213.845 359.837C213.455 360.32 212.952 360.728 212.335 361.061C211.717 361.394 210.997 361.629 210.173 361.768C209.347 361.907 208.589 361.92 207.898 361.808C207.205 361.696 206.596 361.476 206.07 361.147C205.541 360.805 205.104 360.368 204.758 359.834C204.423 359.285 204.196 358.656 204.077 357.949L202.813 350.45C202.953 350.399 203.176 350.328 203.484 350.235C203.789 350.13 204.085 350.054 204.373 350.005C204.675 349.954 204.941 349.936 205.172 349.951C205.414 349.951 205.624 349.996 205.801 350.088C205.977 350.179 206.123 350.323 206.237 350.519C206.351 350.715 206.437 350.983 206.494 351.323L207.503 357.312C207.609 357.94 207.862 358.402 208.262 358.698C208.675 358.992 209.156 359.092 209.706 359C210.268 358.905 210.69 358.652 210.971 358.241C211.252 357.831 211.339 357.311 211.234 356.683L209.979 349.241C210.119 349.191 210.343 349.12 210.65 349.028C210.955 348.922 211.252 348.845 211.54 348.797C211.841 348.746 212.107 348.728 212.338 348.743C212.58 348.743 212.79 348.788 212.967 348.879C213.144 348.971 213.29 349.114 213.403 349.311C213.517 349.507 213.603 349.776 213.66 350.115L214.679 356.163ZM215.823 351.083C215.707 350.955 215.589 350.773 215.469 350.538C215.348 350.302 215.265 350.047 215.219 349.772C215.133 349.262 215.182 348.877 215.367 348.616C215.565 348.354 215.847 348.192 216.214 348.13L224.774 346.688C224.89 346.816 225.009 346.998 225.129 347.233C225.25 347.469 225.333 347.725 225.379 347.999C225.465 348.509 225.409 348.896 225.211 349.158C225.026 349.419 224.75 349.579 224.383 349.641L222.204 350.008L223.733 359.079C223.596 359.143 223.373 359.22 223.066 359.313C222.771 359.403 222.474 359.473 222.172 359.524C221.871 359.574 221.598 359.593 221.354 359.581C221.125 359.579 220.922 359.533 220.745 359.441C220.568 359.35 220.423 359.206 220.309 359.01C220.196 358.814 220.11 358.545 220.052 358.205L218.768 350.587L215.823 351.083ZM232.247 357.644C232.11 357.708 231.888 357.785 231.58 357.878C231.286 357.968 230.988 358.038 230.687 358.089C230.386 358.14 230.113 358.159 229.869 358.146C229.639 358.144 229.436 358.097 229.26 358.006C229.083 357.915 228.937 357.771 228.823 357.575C228.709 357.379 228.624 357.111 228.567 356.77L226.819 346.404C226.959 346.353 227.183 346.282 227.49 346.189C227.796 346.085 228.092 346.008 228.38 345.959C228.681 345.908 228.947 345.89 229.179 345.905C229.421 345.905 229.63 345.95 229.807 346.042C229.985 346.133 230.13 346.277 230.244 346.473C230.357 346.669 230.443 346.937 230.5 347.278L232.247 357.644ZM233.212 351.424C233.04 350.403 233.044 349.473 233.227 348.635C233.422 347.795 233.75 347.066 234.211 346.45C234.684 345.819 235.269 345.302 235.97 344.902C236.682 344.499 237.477 344.224 238.354 344.076C239.231 343.928 240.066 343.929 240.858 344.078C241.664 344.225 242.393 344.519 243.046 344.961C243.697 345.39 244.246 345.971 244.692 346.703C245.152 347.433 245.468 348.309 245.64 349.329C245.812 350.351 245.808 351.287 245.629 352.138C245.447 352.976 245.12 353.711 244.648 354.342C244.186 354.959 243.599 355.469 242.886 355.871C242.173 356.274 241.371 356.55 240.482 356.7C239.591 356.851 238.744 356.852 237.938 356.705C237.131 356.545 236.407 356.243 235.766 355.799C235.126 355.355 234.583 354.767 234.137 354.034C233.69 353.302 233.382 352.432 233.212 351.424ZM236.746 350.829C236.946 352.019 237.339 352.869 237.923 353.376C238.506 353.883 239.204 354.069 240.015 353.932C240.84 353.793 241.444 353.388 241.829 352.717C242.215 352.047 242.307 351.117 242.106 349.925C241.907 348.747 241.517 347.904 240.933 347.397C240.363 346.888 239.665 346.702 238.84 346.841C238.029 346.978 237.424 347.383 237.026 348.055C236.638 348.713 236.545 349.637 236.746 350.829ZM259.321 352.738C259.169 352.952 258.924 353.135 258.585 353.286C258.263 353.448 257.859 353.57 257.375 353.651C256.891 353.733 256.421 353.738 255.965 353.667C255.508 353.596 255.096 353.309 254.729 352.805L252.117 349.167C251.852 348.794 251.611 348.444 251.395 348.117C251.176 347.777 250.935 347.387 250.673 346.947L250.558 346.987C250.729 347.684 250.877 348.4 251 349.133C251.137 349.863 251.265 350.582 251.384 351.289L251.897 354.333C251.76 354.396 251.544 354.473 251.249 354.563C250.968 354.651 250.683 354.719 250.395 354.767C250.107 354.816 249.849 354.839 249.62 354.837C249.39 354.836 249.194 354.788 249.03 354.694C248.867 354.601 248.729 354.462 248.617 354.279C248.503 354.083 248.419 353.821 248.364 353.494L246.709 343.677C246.848 343.385 247.096 343.141 247.454 342.946C247.812 342.751 248.206 342.618 248.638 342.545C249.123 342.463 249.594 342.465 250.053 342.549C250.522 342.618 250.933 342.898 251.285 343.391L253.916 347.026C254.181 347.399 254.423 347.755 254.642 348.095C254.859 348.422 255.098 348.806 255.361 349.246L255.455 349.21C255.284 348.512 255.132 347.811 255 347.106C254.868 346.401 254.742 345.696 254.623 344.989L254.087 341.808C254.224 341.745 254.434 341.669 254.715 341.581C255.01 341.491 255.301 341.422 255.589 341.374C256.165 341.277 256.62 341.307 256.957 341.466C257.291 341.611 257.512 342.005 257.62 342.646L259.321 352.738Z" fill="black"/>
<path d="M269.673 343.94C269.962 345.654 268.806 347.278 267.092 347.567C265.378 347.856 263.754 346.701 263.464 344.986C263.176 343.272 264.331 341.648 266.045 341.359C267.761 341.07 269.384 342.226 269.673 343.94Z" fill="black"/>
<path d="M282.039 339.563C281.03 339.732 280.31 340.17 279.878 340.876C279.444 341.581 279.323 342.497 279.512 343.623C279.704 344.761 280.147 345.588 280.84 346.104C281.545 346.618 282.402 346.79 283.41 346.62C283.946 346.53 284.386 346.382 284.728 346.176C285.083 345.968 285.416 345.744 285.725 345.503C285.978 345.649 286.186 345.842 286.348 346.085C286.521 346.311 286.636 346.595 286.693 346.935C286.784 347.472 286.56 347.981 286.022 348.462C285.494 348.928 284.622 349.263 283.405 349.468C282.528 349.616 281.682 349.63 280.868 349.512C280.054 349.393 279.316 349.128 278.654 348.714C277.99 348.287 277.421 347.71 276.949 346.982C276.487 346.239 276.164 345.317 275.978 344.218C275.806 343.197 275.812 342.274 275.996 341.449C276.191 340.609 276.518 339.873 276.977 339.244C277.45 338.613 278.036 338.096 278.736 337.696C279.435 337.295 280.211 337.023 281.062 336.88C282.266 336.677 283.228 336.717 283.949 336.999C284.682 337.279 285.101 337.727 285.205 338.342C285.262 338.683 285.227 338.991 285.098 339.269C284.97 339.546 284.807 339.775 284.609 339.957C284.231 339.792 283.832 339.664 283.413 339.573C283.007 339.48 282.549 339.477 282.039 339.563ZM289.665 336.177C289.865 336.009 290.178 335.828 290.603 335.635C291.041 335.44 291.489 335.304 291.948 335.227C292.602 335.117 293.194 335.118 293.725 335.231C294.266 335.328 294.643 335.567 294.856 335.948C295.205 336.589 295.594 337.338 296.021 338.195C296.449 339.052 296.881 339.942 297.32 340.864C297.755 341.773 298.183 342.676 298.604 343.575C299.023 344.46 299.391 345.246 299.708 345.933C299.582 346.143 299.37 346.326 299.074 346.484C298.78 346.655 298.417 346.776 297.985 346.849C297.671 346.902 297.398 346.922 297.166 346.907C296.948 346.89 296.758 346.841 296.597 346.76C296.448 346.677 296.314 346.559 296.193 346.404C296.087 346.248 295.981 346.063 295.878 345.852L295.297 344.556L291.743 345.155C291.705 345.566 291.668 345.989 291.634 346.425C291.6 346.862 291.563 347.286 291.525 347.696C291.353 347.792 291.165 347.878 290.962 347.952C290.775 348.037 290.537 348.104 290.249 348.153C289.581 348.265 289.066 348.238 288.701 348.071C288.347 347.888 288.135 347.594 288.067 347.188C288.036 347.005 288.032 346.817 288.053 346.625C288.075 346.433 288.097 346.207 288.12 345.947C288.153 345.579 288.203 345.119 288.272 344.569C288.354 344.017 288.442 343.423 288.537 342.788C288.63 342.14 288.733 341.476 288.848 340.797C288.963 340.119 289.07 339.481 289.172 338.885C289.271 338.276 289.362 337.736 289.444 337.264C289.539 336.791 289.613 336.428 289.665 336.177ZM292.447 338.313C292.357 338.894 292.251 339.544 292.13 340.265C292.02 340.969 291.932 341.684 291.865 342.409L294.3 341.998C293.998 341.322 293.692 340.667 293.383 340.033C293.085 339.383 292.812 338.803 292.565 338.293L292.447 338.313ZM311.016 339.929C311.135 340.635 311.12 341.304 310.971 341.935C310.832 342.551 310.569 343.106 310.182 343.603C309.792 344.085 309.289 344.494 308.672 344.826C308.054 345.159 307.334 345.395 306.509 345.534C305.685 345.673 304.926 345.686 304.234 345.574C303.542 345.462 302.933 345.241 302.407 344.913C301.878 344.571 301.441 344.133 301.095 343.599C300.76 343.05 300.533 342.422 300.414 341.715L299.15 334.215C299.29 334.164 299.513 334.094 299.821 334.001C300.126 333.896 300.422 333.819 300.71 333.77C301.012 333.72 301.278 333.702 301.509 333.716C301.752 333.716 301.961 333.761 302.138 333.853C302.315 333.944 302.46 334.088 302.574 334.284C302.688 334.48 302.774 334.749 302.831 335.089L303.84 341.077C303.946 341.705 304.199 342.168 304.599 342.463C305.011 342.758 305.493 342.858 306.042 342.766C306.605 342.671 307.027 342.418 307.308 342.007C307.589 341.597 307.676 341.077 307.57 340.448L306.316 333.007C306.456 332.957 306.679 332.885 306.987 332.793C307.292 332.688 307.589 332.611 307.877 332.563C308.178 332.512 308.444 332.494 308.676 332.509C308.917 332.508 309.127 332.554 309.304 332.645C309.481 332.737 309.627 332.88 309.74 333.076C309.854 333.273 309.94 333.541 309.997 333.881L311.016 339.929ZM312.16 334.849C312.044 334.721 311.926 334.539 311.806 334.303C311.685 334.068 311.602 333.813 311.556 333.538C311.47 333.027 311.519 332.642 311.704 332.382C311.902 332.12 312.184 331.958 312.551 331.896L321.111 330.453C321.227 330.582 321.346 330.764 321.466 330.999C321.587 331.235 321.67 331.49 321.716 331.765C321.802 332.275 321.746 332.662 321.548 332.924C321.363 333.184 321.087 333.344 320.72 333.406L318.541 333.774L320.07 342.844C319.933 342.908 319.71 342.986 319.403 343.078C319.108 343.168 318.811 343.238 318.509 343.289C318.208 343.34 317.936 343.359 317.691 343.347C317.462 343.345 317.259 343.298 317.082 343.207C316.905 343.115 316.76 342.971 316.646 342.775C316.532 342.579 316.446 342.311 316.389 341.971L315.105 334.353L312.16 334.849ZM328.584 341.41C328.447 341.473 328.225 341.551 327.917 341.643C327.623 341.733 327.325 341.804 327.024 341.854C326.723 341.905 326.45 341.924 326.206 341.912C325.976 341.91 325.773 341.863 325.597 341.772C325.42 341.681 325.274 341.537 325.16 341.341C325.046 341.145 324.961 340.876 324.904 340.536L323.157 330.169C323.296 330.119 323.52 330.048 323.827 329.955C324.133 329.85 324.429 329.773 324.717 329.725C325.018 329.674 325.284 329.656 325.516 329.67C325.758 329.67 325.967 329.715 326.144 329.807C326.322 329.898 326.467 330.042 326.581 330.238C326.694 330.434 326.78 330.703 326.837 331.043L328.584 341.41ZM329.549 335.19C329.377 334.169 329.382 333.239 329.564 332.401C329.759 331.561 330.087 330.832 330.548 330.216C331.021 329.584 331.606 329.068 332.306 328.667C333.019 328.265 333.814 327.989 334.691 327.842C335.568 327.694 336.403 327.694 337.195 327.844C338.001 327.991 338.73 328.285 339.384 328.727C340.034 329.155 340.583 329.736 341.029 330.468C341.489 331.198 341.805 332.074 341.977 333.095C342.149 334.116 342.145 335.052 341.966 335.903C341.784 336.742 341.457 337.477 340.984 338.108C340.523 338.724 339.936 339.234 339.223 339.637C338.51 340.04 337.709 340.316 336.819 340.466C335.928 340.616 335.081 340.618 334.275 340.47C333.468 340.311 332.743 340.009 332.103 339.564C331.464 339.121 330.92 338.533 330.474 337.8C330.027 337.068 329.719 336.198 329.549 335.19ZM333.083 334.594C333.284 335.785 333.676 336.634 334.26 337.142C334.843 337.649 335.541 337.835 336.352 337.698C337.177 337.559 337.781 337.154 338.166 336.483C338.552 335.813 338.644 334.882 338.443 333.691C338.244 332.513 337.854 331.67 337.27 331.163C336.699 330.653 336.002 330.468 335.177 330.607C334.366 330.744 333.761 331.148 333.363 331.821C332.975 332.479 332.882 333.403 333.083 334.594ZM355.658 336.503C355.506 336.718 355.26 336.901 354.922 337.052C354.6 337.214 354.196 337.336 353.712 337.417C353.228 337.499 352.757 337.504 352.302 337.433C351.845 337.362 351.433 337.075 351.066 336.571L348.454 332.932C348.189 332.56 347.948 332.21 347.732 331.883C347.513 331.543 347.272 331.153 347.01 330.713L346.895 330.752C347.066 331.45 347.214 332.166 347.337 332.898C347.474 333.629 347.602 334.348 347.721 335.055L348.234 338.098C348.097 338.162 347.88 338.238 347.586 338.328C347.305 338.416 347.02 338.485 346.732 338.533C346.444 338.582 346.186 338.605 345.956 338.603C345.727 338.601 345.531 338.554 345.367 338.46C345.204 338.367 345.066 338.228 344.954 338.045C344.84 337.849 344.756 337.587 344.701 337.26L343.046 327.443C343.185 327.151 343.433 326.907 343.791 326.712C344.149 326.517 344.543 326.383 344.976 326.31C345.46 326.229 345.931 326.23 346.39 326.314C346.859 326.383 347.27 326.664 347.622 327.156L350.253 330.792C350.518 331.165 350.76 331.521 350.979 331.861C351.196 332.188 351.435 332.571 351.698 333.012L351.793 332.975C351.621 332.278 351.469 331.576 351.337 330.871C351.205 330.167 351.079 329.461 350.96 328.755L350.424 325.574C350.561 325.511 350.771 325.434 351.052 325.347C351.347 325.257 351.638 325.188 351.926 325.139C352.502 325.042 352.957 325.073 353.294 325.231C353.628 325.377 353.849 325.77 353.957 326.412L355.658 336.503Z" fill="black"/>
<path d="M363.156 331.366C364.889 331.228 366.182 329.712 366.045 327.979C365.907 326.246 364.39 324.953 362.657 325.09C360.924 325.228 359.631 326.745 359.769 328.478C359.907 330.211 361.423 331.504 363.156 331.366Z" fill="black"/>
<path d="M378.377 323.33C377.369 323.5 376.649 323.938 376.216 324.643C375.783 325.349 375.661 326.264 375.851 327.39C376.043 328.529 376.485 329.356 377.178 329.872C377.884 330.386 378.741 330.558 379.748 330.388C380.285 330.298 380.725 330.149 381.067 329.943C381.422 329.736 381.754 329.512 382.064 329.271C382.317 329.417 382.525 329.611 382.687 329.852C382.86 330.079 382.975 330.362 383.032 330.703C383.123 331.24 382.899 331.748 382.361 332.23C381.833 332.695 380.961 333.031 379.744 333.236C378.867 333.384 378.021 333.398 377.207 333.279C376.393 333.161 375.655 332.895 374.993 332.482C374.329 332.055 373.76 331.478 373.288 330.75C372.826 330.007 372.503 329.085 372.317 327.986C372.145 326.965 372.151 326.041 372.335 325.216C372.53 324.376 372.857 323.641 373.316 323.012C373.789 322.38 374.375 321.864 375.075 321.463C375.774 321.063 376.55 320.791 377.4 320.648C378.605 320.445 379.567 320.484 380.288 320.767C381.021 321.047 381.44 321.495 381.543 322.11C381.601 322.45 381.566 322.759 381.437 323.036C381.309 323.314 381.146 323.543 380.947 323.725C380.57 323.559 380.171 323.432 379.752 323.34C379.346 323.247 378.888 323.244 378.377 323.33ZM386.004 319.945C386.204 319.777 386.517 319.596 386.941 319.403C387.38 319.208 387.828 319.072 388.286 318.995C388.941 318.884 389.533 318.886 390.064 318.998C390.605 319.095 390.982 319.335 391.195 319.716C391.545 320.357 391.933 321.106 392.36 321.963C392.788 322.819 393.22 323.709 393.658 324.631C394.094 325.541 394.522 326.445 394.943 327.343C395.362 328.228 395.73 329.014 396.047 329.701C395.921 329.91 395.709 330.094 395.413 330.252C395.119 330.422 394.756 330.544 394.323 330.617C394.009 330.67 393.737 330.689 393.505 330.674C393.287 330.657 393.097 330.608 392.935 330.528C392.787 330.445 392.653 330.326 392.532 330.172C392.425 330.015 392.32 329.831 392.217 329.619L391.635 328.324L388.082 328.923C388.043 329.333 388.007 329.757 387.972 330.193C387.939 330.63 387.902 331.053 387.864 331.464C387.692 331.56 387.504 331.645 387.301 331.72C387.113 331.806 386.876 331.872 386.588 331.921C385.92 332.033 385.404 332.005 385.04 331.839C384.686 331.656 384.475 331.361 384.407 330.956C384.375 330.773 384.371 330.585 384.392 330.393C384.414 330.201 384.436 329.975 384.46 329.715C384.492 329.346 384.542 328.887 384.611 328.337C384.693 327.784 384.781 327.191 384.876 326.556C384.969 325.907 385.072 325.244 385.187 324.565C385.301 323.886 385.409 323.249 385.511 322.653C385.61 322.044 385.701 321.504 385.783 321.032C385.878 320.558 385.951 320.196 386.004 319.945ZM388.786 322.081C388.695 322.661 388.59 323.312 388.469 324.032C388.359 324.737 388.271 325.452 388.204 326.176L390.639 325.766C390.337 325.091 390.031 324.435 389.722 323.8C389.424 323.151 389.151 322.571 388.904 322.061L388.786 322.081ZM407.355 323.696C407.474 324.403 407.459 325.072 407.31 325.703C407.171 326.318 406.908 326.874 406.52 327.37C406.131 327.853 405.627 328.261 405.011 328.594C404.393 328.927 403.673 329.163 402.848 329.301C402.024 329.441 401.265 329.454 400.573 329.342C399.881 329.23 399.272 329.009 398.746 328.681C398.217 328.339 397.78 327.901 397.434 327.367C397.099 326.818 396.872 326.19 396.753 325.483L395.489 317.983C395.629 317.933 395.852 317.861 396.159 317.769C396.465 317.664 396.761 317.587 397.05 317.538C397.351 317.487 397.616 317.47 397.848 317.485C398.091 317.484 398.3 317.53 398.477 317.621C398.654 317.712 398.799 317.856 398.913 318.052C399.026 318.248 399.112 318.516 399.17 318.857L400.179 324.845C400.285 325.473 400.537 325.935 400.937 326.232C401.35 326.525 401.832 326.626 402.381 326.533C402.944 326.438 403.366 326.185 403.647 325.775C403.928 325.364 404.015 324.844 403.909 324.216L402.655 316.775C402.795 316.725 403.018 316.654 403.326 316.561C403.631 316.456 403.928 316.379 404.215 316.33C404.517 316.28 404.783 316.261 405.015 316.276C405.256 316.276 405.466 316.321 405.643 316.413C405.82 316.504 405.965 316.648 406.079 316.844C406.193 317.04 406.279 317.309 406.336 317.649L407.355 323.696ZM408.499 318.617C408.383 318.488 408.265 318.307 408.145 318.071C408.024 317.836 407.941 317.58 407.895 317.305C407.809 316.795 407.858 316.41 408.043 316.149C408.241 315.888 408.523 315.725 408.89 315.664L417.45 314.221C417.566 314.35 417.684 314.532 417.805 314.767C417.925 315.002 418.009 315.258 418.055 315.533C418.141 316.043 418.085 316.429 417.887 316.691C417.702 316.952 417.426 317.113 417.059 317.175L414.88 317.541L416.409 326.612C416.272 326.676 416.049 326.754 415.742 326.846C415.447 326.936 415.15 327.006 414.849 327.057C414.547 327.108 414.275 327.127 414.03 327.114C413.801 327.112 413.598 327.066 413.421 326.975C413.244 326.883 413.099 326.74 412.985 326.543C412.871 326.347 412.785 326.079 412.728 325.739L411.444 318.121L408.499 318.617ZM424.923 325.177C424.786 325.241 424.564 325.319 424.256 325.411C423.962 325.501 423.664 325.571 423.363 325.622C423.062 325.673 422.789 325.692 422.544 325.679C422.315 325.677 422.113 325.631 421.936 325.539C421.758 325.448 421.613 325.304 421.499 325.108C421.385 324.912 421.3 324.644 421.243 324.304L419.496 313.937C419.635 313.887 419.859 313.815 420.166 313.723C420.471 313.618 420.768 313.541 421.056 313.492C421.357 313.441 421.624 313.424 421.855 313.439C422.097 313.438 422.306 313.484 422.483 313.575C422.66 313.666 422.806 313.81 422.92 314.006C423.033 314.202 423.119 314.47 423.176 314.811L424.923 325.177ZM425.888 318.957C425.716 317.937 425.721 317.007 425.903 316.168C426.097 315.328 426.426 314.6 426.887 313.983C427.36 313.352 427.945 312.836 428.645 312.435C429.358 312.032 430.153 311.757 431.03 311.609C431.907 311.461 432.741 311.462 433.534 311.611C434.34 311.758 435.069 312.053 435.722 312.494C436.373 312.923 436.922 313.504 437.368 314.236C437.828 314.967 438.144 315.842 438.316 316.863C438.488 317.884 438.484 318.82 438.305 319.671C438.123 320.51 437.795 321.245 437.323 321.876C436.862 322.492 436.275 323.002 435.562 323.404C434.849 323.807 434.048 324.084 433.158 324.234C432.267 324.384 431.42 324.385 430.614 324.239C429.807 324.078 429.082 323.776 428.442 323.333C427.802 322.888 427.259 322.3 426.812 321.568C426.366 320.836 426.058 319.965 425.888 318.957ZM429.422 318.362C429.623 319.553 430.015 320.402 430.599 320.91C431.182 321.417 431.88 321.602 432.691 321.465C433.516 321.327 434.12 320.922 434.506 320.251C434.891 319.58 434.983 318.65 434.782 317.459C434.583 316.28 434.192 315.438 433.609 314.93C433.038 314.421 432.341 314.235 431.516 314.375C430.705 314.511 430.1 314.916 429.702 315.589C429.314 316.246 429.221 317.171 429.422 318.362ZM451.997 320.272C451.845 320.485 451.599 320.668 451.261 320.819C450.939 320.981 450.535 321.103 450.051 321.185C449.567 321.267 449.096 321.272 448.64 321.2C448.184 321.129 447.772 320.842 447.405 320.339L444.792 316.7C444.528 316.327 444.287 315.977 444.071 315.651C443.852 315.311 443.611 314.92 443.349 314.48L443.234 314.52C443.405 315.217 443.553 315.933 443.676 316.666C443.813 317.397 443.941 318.116 444.06 318.822L444.573 321.866C444.436 321.929 444.219 322.006 443.925 322.096C443.644 322.184 443.359 322.252 443.071 322.3C442.783 322.349 442.525 322.373 442.295 322.371C442.067 322.369 441.87 322.321 441.706 322.228C441.542 322.134 441.404 321.996 441.293 321.813C441.179 321.616 441.094 321.355 441.04 321.028L439.385 311.211C439.524 310.918 439.772 310.674 440.13 310.48C440.487 310.284 440.882 310.151 441.314 310.078C441.798 309.996 442.27 309.998 442.728 310.082C443.197 310.151 443.608 310.432 443.961 310.925L446.592 314.56C446.857 314.932 447.099 315.288 447.318 315.628C447.534 315.955 447.774 316.339 448.037 316.779L448.132 316.743C447.96 316.045 447.808 315.344 447.676 314.639C447.544 313.935 447.418 313.229 447.299 312.522L446.763 309.341C446.9 309.278 447.11 309.203 447.391 309.115C447.686 309.025 447.977 308.955 448.265 308.907C448.84 308.81 449.296 308.84 449.633 308.999C449.967 309.145 450.188 309.538 450.296 310.179L451.997 320.272Z" fill="black"/>
<path d="M461.826 313.804C462.827 312.383 462.486 310.419 461.065 309.418C459.643 308.417 457.68 308.758 456.679 310.18C455.678 311.601 456.019 313.564 457.44 314.566C458.862 315.567 460.825 315.226 461.826 313.804Z" fill="black"/>
<path fill-rule="evenodd" clip-rule="evenodd" d="M454.193 322.363L399.744 186.994L282.902 252.167L280.502 249.093L399.444 182.347C399.894 181.972 400.493 181.822 401.098 182.047C401.697 182.196 402.147 182.572 402.446 183.171L457.794 320.938L454.193 322.363Z" fill="#757474"/>
<path fill-rule="evenodd" clip-rule="evenodd" d="M394.545 251.42C391.093 250.072 389.445 246.171 390.866 242.721L392.292 239.197L394.617 240.171L393.191 243.621C392.292 245.796 393.341 248.272 395.516 249.095C397.619 249.997 400.089 248.946 400.994 246.847L403.092 241.597C403.991 239.497 402.942 237.022 400.766 236.123L394.545 233.647L404.741 128.256L407.067 129.23L397.841 232.222L401.743 233.798C405.189 235.221 406.842 239.123 405.417 242.572L403.318 247.747C401.893 251.195 397.991 252.846 394.545 251.42Z" fill="black"/>
<path fill-rule="evenodd" clip-rule="evenodd" d="M284.736 162.094C287.743 154.512 296.264 150.729 303.904 153.584L510.634 230.825C518.495 233.763 522.411 242.584 519.314 250.384L493.581 315.218C490.573 322.796 482.057 326.577 474.418 323.725L267.681 246.551C259.819 243.616 255.901 234.795 258.995 226.994L284.736 162.094Z" fill="#2F2E29"/>
<mask id="mask0_8624_828" style="mask-type:luminance" maskUnits="userSpaceOnUse" x="275" y="170" width="231" height="126">
<path d="M505.29 252.349L291.739 170.334L275.336 213.044L488.887 295.059L505.29 252.349Z" fill="white"/>
</mask>
<g mask="url(#mask0_8624_828)">
<path d="M350.923 193.588L354.061 194.793L350.788 203.314C350.519 204.013 350.376 204.674 350.357 205.294C350.34 205.909 350.447 206.477 350.679 206.997C350.918 207.521 351.279 207.988 351.764 208.402C352.251 208.809 352.868 209.155 353.613 209.441C354.353 209.725 355.039 209.879 355.673 209.903C356.317 209.923 356.898 209.817 357.419 209.586C357.946 209.357 358.41 209.008 358.809 208.541C359.21 208.066 359.545 207.48 359.814 206.78L363.087 198.259L366.225 199.464L362.807 208.362C362.417 209.378 361.891 210.235 361.228 210.935C360.566 211.634 359.794 212.156 358.912 212.499C358.031 212.842 357.053 212.992 355.979 212.951C354.911 212.912 353.771 212.659 352.557 212.193C351.343 211.727 350.322 211.149 349.496 210.461C348.677 209.776 348.055 209.01 347.63 208.165C347.204 207.321 346.98 206.417 346.956 205.454C346.933 204.491 347.116 203.501 347.506 202.485L350.923 193.588ZM370.034 200.927L373.171 202.132L380.873 210.882L382.811 205.834L385.949 207.039L380.008 222.509L376.871 221.304L379.596 214.208L371.883 205.487L367.231 217.602L364.093 216.397L370.034 200.927ZM390.324 208.72L395.995 210.898C397.65 211.533 399.02 212.264 400.105 213.089C401.188 213.915 402.001 214.813 402.543 215.786C403.095 216.756 403.383 217.79 403.408 218.889C403.442 219.985 403.231 221.123 402.777 222.304C402.347 223.426 401.753 224.39 400.997 225.198C400.242 225.998 399.331 226.595 398.265 226.988C397.2 227.374 395.981 227.53 394.609 227.457C393.239 227.378 391.726 227.02 390.07 226.384L384.382 224.189L390.324 208.72ZM391.867 223.951C392.804 224.311 393.671 224.508 394.468 224.541C395.268 224.569 395.987 224.451 396.625 224.189C397.27 223.929 397.831 223.531 398.31 222.996C398.788 222.46 399.176 221.806 399.472 221.035C399.764 220.276 399.907 219.548 399.903 218.85C399.9 218.144 399.743 217.49 399.43 216.885C399.127 216.276 398.666 215.721 398.048 215.218C397.431 214.716 396.654 214.285 395.717 213.926L392.412 212.656L388.562 222.682L391.867 223.951ZM408.871 215.842L422.044 220.902L420.987 223.653L410.951 219.799L409.766 222.887L418.653 226.3L417.661 228.884L408.773 225.47L407.12 229.775L417.363 233.709L416.31 236.45L402.93 231.312L408.871 215.842ZM425.735 222.32L433.604 225.342C434.791 225.798 435.772 226.318 436.547 226.904C437.325 227.482 437.91 228.116 438.304 228.805C438.698 229.494 438.904 230.228 438.923 231.007C438.948 231.789 438.797 232.606 438.47 233.457C438.25 234.031 437.97 234.552 437.632 235.02C437.296 235.481 436.899 235.874 436.441 236.198C435.99 236.525 435.481 236.776 434.913 236.952C434.349 237.121 433.73 237.205 433.057 237.204L434.521 243.445L430.681 241.97L429.459 236.458L429.369 236.424L424.623 234.59L422.932 238.994L419.795 237.789L425.735 222.32ZM430.474 233.725C431.069 233.953 431.613 234.083 432.108 234.114C432.61 234.147 433.057 234.096 433.451 233.96C433.85 233.825 434.192 233.608 434.473 233.307C434.765 233.003 434.995 232.629 435.165 232.188C435.497 231.323 435.456 230.542 435.042 229.846C434.631 229.143 433.828 228.562 432.633 228.103L427.824 226.256L425.665 231.878L430.474 233.725ZM279.3 204.753C279.724 203.651 280.326 202.704 281.106 201.914C281.889 201.117 282.808 200.519 283.862 200.122C284.924 199.719 286.1 199.535 287.39 199.569C288.686 199.605 290.053 199.898 291.492 200.451C292.752 200.935 293.857 201.507 294.807 202.168C295.767 202.823 296.598 203.586 297.302 204.454L294.945 206.275C294.742 205.993 294.49 205.714 294.187 205.438C293.89 205.166 293.559 204.906 293.192 204.659C292.834 204.408 292.45 204.174 292.042 203.956C291.64 203.741 291.231 203.554 290.816 203.394C289.813 203.009 288.87 202.791 287.989 202.74C287.11 202.683 286.314 202.775 285.601 203.016C284.896 203.252 284.283 203.626 283.761 204.137C283.249 204.645 282.85 205.268 282.566 206.006C282.272 206.772 282.148 207.53 282.192 208.282C282.237 209.034 282.443 209.749 282.81 210.427C283.187 211.102 283.721 211.724 284.411 212.292C285.111 212.856 285.962 213.33 286.965 213.715C287.42 213.89 287.885 214.031 288.359 214.137C288.833 214.243 289.299 214.32 289.758 214.368C290.226 214.411 290.685 214.428 291.135 214.419C291.588 214.404 292.019 214.365 292.429 214.303L292.962 217.234C291.91 217.45 290.769 217.501 289.542 217.385C288.317 217.263 287.081 216.962 285.834 216.483C284.244 215.872 282.927 215.133 281.883 214.262C280.842 213.385 280.057 212.432 279.528 211.404C279.002 210.369 278.721 209.285 278.688 208.151C278.663 207.014 278.867 205.881 279.3 204.753ZM297.917 211.959C298.366 210.792 298.991 209.805 299.793 209C300.594 208.194 301.513 207.594 302.551 207.198C303.599 206.797 304.737 206.613 305.966 206.646C307.201 206.682 308.479 206.953 309.799 207.459C311.112 207.964 312.239 208.616 313.181 209.417C314.123 210.218 314.845 211.116 315.348 212.112C315.861 213.104 316.146 214.167 316.202 215.302C316.258 216.436 316.062 217.587 315.613 218.756C315.163 219.93 314.534 220.927 313.727 221.745C312.924 222.557 311.997 223.166 310.947 223.573C309.903 223.982 308.762 224.176 307.521 224.154C306.283 224.125 305.008 223.859 303.694 223.354C302.375 222.847 301.245 222.19 300.306 221.383C299.376 220.572 298.657 219.663 298.15 218.658C297.649 217.656 297.372 216.584 297.318 215.443C297.267 214.295 297.467 213.134 297.917 211.959ZM301.055 213.164C300.748 213.963 300.614 214.736 300.652 215.485C300.697 216.236 300.885 216.937 301.218 217.588C301.561 218.234 302.032 218.812 302.63 219.323C303.236 219.836 303.948 220.249 304.766 220.563C305.585 220.878 306.387 221.046 307.173 221.067C307.966 221.092 308.703 220.977 309.384 220.724C310.066 220.463 310.676 220.069 311.212 219.541C311.748 219.012 312.169 218.349 312.476 217.551C312.783 216.752 312.912 215.981 312.866 215.235C312.819 214.491 312.625 213.803 312.284 213.172C311.945 212.535 311.471 211.967 310.86 211.467C310.256 210.97 309.545 210.565 308.727 210.25C307.908 209.936 307.105 209.761 306.317 209.723C305.536 209.688 304.803 209.792 304.118 210.037C303.443 210.277 302.839 210.658 302.305 211.18C301.778 211.704 301.362 212.366 301.055 213.164ZM322.031 212.396L325.168 213.601L332.87 222.35L334.808 217.303L337.945 218.508L332.004 233.977L328.867 232.772L331.593 225.676L323.88 216.956L319.228 229.07L316.09 227.865L322.031 212.396ZM338.869 231.333C339.308 231.865 339.765 232.369 340.241 232.847C340.725 233.321 341.243 233.766 341.795 234.182C342.349 234.592 342.948 234.973 343.592 235.327C344.243 235.683 344.954 236.009 345.727 236.305C346.657 236.663 347.471 236.908 348.17 237.04C348.872 237.165 349.467 237.201 349.958 237.147C350.457 237.089 350.856 236.947 351.155 236.721C351.46 236.497 351.68 236.211 351.814 235.861C352.029 235.3 351.965 234.768 351.62 234.265C351.278 233.755 350.619 233.312 349.643 232.938C349.214 232.773 348.751 232.629 348.253 232.506C347.758 232.377 347.253 232.251 346.74 232.129C346.233 232.011 345.731 231.889 345.232 231.766C344.744 231.639 344.292 231.495 343.876 231.336C343.183 231.07 342.551 230.725 341.979 230.301C341.414 229.879 340.953 229.396 340.595 228.849C340.243 228.305 340.025 227.711 339.94 227.064C339.855 226.419 339.95 225.74 340.223 225.027C340.385 224.604 340.602 224.207 340.874 223.835C341.152 223.465 341.489 223.14 341.885 222.86C342.288 222.576 342.754 222.35 343.281 222.181C343.81 222.006 344.404 221.908 345.062 221.889C345.728 221.872 346.459 221.94 347.255 222.094C348.06 222.245 348.941 222.503 349.898 222.871C350.591 223.137 351.272 223.444 351.941 223.792C352.612 224.133 353.251 224.5 353.858 224.892C354.47 225.286 355.047 225.7 355.584 226.134C356.124 226.561 356.613 226.994 357.049 227.434L354.7 229.44C354.338 229.081 353.937 228.727 353.497 228.376C353.058 228.018 352.588 227.675 352.086 227.346C351.584 227.017 351.052 226.706 350.49 226.415C349.937 226.119 349.358 225.855 348.751 225.622C347.886 225.29 347.15 225.079 346.541 224.989C345.938 224.901 345.434 224.893 345.028 224.965C344.625 225.029 344.31 225.158 344.085 225.352C343.868 225.541 343.714 225.755 343.623 225.992C343.446 226.454 343.508 226.913 343.809 227.369C344.113 227.819 344.691 228.208 345.542 228.535C345.886 228.667 346.287 228.794 346.747 228.918C347.216 229.037 347.705 229.161 348.217 229.289C348.734 229.42 349.256 229.56 349.782 229.709C350.316 229.853 350.825 230.019 351.306 230.204C352.217 230.553 352.983 230.965 353.604 231.438C354.231 231.913 354.709 232.434 355.037 232.999C355.367 233.557 355.551 234.154 355.587 234.789C355.626 235.417 355.518 236.064 355.262 236.731C354.92 237.622 354.407 238.337 353.723 238.877C353.047 239.412 352.234 239.774 351.284 239.962C350.343 240.145 349.286 240.156 348.114 239.994C346.945 239.825 345.701 239.487 344.381 238.98C343.51 238.646 342.68 238.262 341.892 237.831C341.102 237.407 340.362 236.948 339.672 236.456C338.992 235.96 338.358 235.441 337.772 234.898C337.195 234.35 336.677 233.796 336.219 233.234L338.869 231.333ZM366.194 232.514L360.483 230.321L361.54 227.569L376.099 233.161L375.043 235.912L369.331 233.719L364.447 246.437L361.31 245.232L366.194 232.514ZM379.453 234.449L387.322 237.471C388.51 237.927 389.491 238.448 390.266 239.033C391.043 239.612 391.628 240.246 392.022 240.935C392.416 241.623 392.623 242.358 392.642 243.137C392.667 243.919 392.516 244.736 392.189 245.587C391.969 246.161 391.689 246.682 391.351 247.149C391.014 247.611 390.617 248.004 390.159 248.328C389.709 248.654 389.199 248.905 388.632 249.081C388.067 249.251 387.449 249.335 386.775 249.333L388.239 255.574L384.399 254.1L383.177 248.588L383.089 248.554L378.341 246.719L376.65 251.123L373.513 249.918L379.453 234.449ZM384.193 245.855C384.787 246.083 385.332 246.212 385.826 246.244C386.328 246.277 386.776 246.226 387.169 246.089C387.569 245.955 387.91 245.737 388.192 245.437C388.484 245.132 388.714 244.759 388.883 244.317C389.215 243.453 389.174 242.672 388.76 241.976C388.349 241.273 387.546 240.692 386.352 240.233L381.542 238.386L379.383 244.008L384.193 245.855ZM397.417 241.348L400.554 242.553L397.282 251.074C397.013 251.774 396.869 252.434 396.85 253.055C396.834 253.67 396.941 254.237 397.173 254.758C397.412 255.281 397.773 255.749 398.258 256.162C398.745 256.569 399.361 256.916 400.107 257.202C400.846 257.486 401.533 257.64 402.167 257.664C402.81 257.684 403.393 257.578 403.913 257.346C404.44 257.117 404.904 256.769 405.302 256.301C405.704 255.827 406.039 255.24 406.307 254.541L409.58 246.019L412.717 247.224L409.301 256.122C408.91 257.138 408.384 257.996 407.722 258.696C407.06 259.395 406.287 259.916 405.407 260.259C404.525 260.602 403.547 260.753 402.473 260.712C401.405 260.672 400.264 260.42 399.05 259.954C397.836 259.487 396.816 258.91 395.991 258.222C395.171 257.536 394.549 256.771 394.123 255.926C393.699 255.082 393.475 254.178 393.451 253.214C393.426 252.251 393.61 251.262 394 250.246L397.417 241.348ZM412.674 255.975C413.097 254.873 413.699 253.927 414.479 253.136C415.262 252.339 416.181 251.742 417.234 251.344C418.297 250.942 419.473 250.758 420.762 250.791C422.059 250.827 423.426 251.121 424.864 251.673C426.125 252.158 427.23 252.73 428.18 253.39C429.14 254.046 429.971 254.808 430.675 255.677L428.318 257.497C428.116 257.215 427.863 256.937 427.56 256.661C427.264 256.388 426.932 256.128 426.564 255.882C426.207 255.63 425.824 255.396 425.415 255.179C425.013 254.964 424.604 254.776 424.188 254.617C423.186 254.232 422.243 254.014 421.362 253.963C420.483 253.906 419.686 253.997 418.974 254.238C418.27 254.475 417.656 254.849 417.135 255.36C416.622 255.867 416.223 256.491 415.939 257.229C415.645 257.994 415.521 258.753 415.566 259.505C415.61 260.256 415.816 260.972 416.184 261.65C416.561 262.325 417.094 262.946 417.785 263.514C418.484 264.078 419.335 264.552 420.338 264.938C420.794 265.113 421.258 265.253 421.732 265.359C422.206 265.466 422.673 265.543 423.131 265.591C423.599 265.634 424.059 265.651 424.508 265.642C424.961 265.626 425.393 265.588 425.802 265.526L426.334 268.456C425.282 268.673 424.143 268.723 422.916 268.608C421.69 268.486 420.454 268.185 419.207 267.706C417.617 267.095 416.3 266.355 415.256 265.484C414.215 264.608 413.43 263.655 412.901 262.627C412.375 261.592 412.095 260.508 412.061 259.374C412.036 258.236 412.241 257.103 412.674 255.975ZM438.759 260.383L433.049 258.19L434.105 255.439L448.664 261.03L447.607 263.781L441.897 261.588L437.013 274.306L433.875 273.101L438.759 260.383ZM451.623 262.167L454.781 263.379L448.84 278.848L445.683 277.636L451.623 262.167ZM454.925 272.259C455.374 271.091 455.998 270.104 456.8 269.299C457.601 268.494 458.521 267.893 459.559 267.497C460.606 267.096 461.744 266.913 462.974 266.945C464.209 266.981 465.486 267.252 466.806 267.759C468.12 268.264 469.247 268.916 470.188 269.717C471.13 270.517 471.852 271.415 472.356 272.412C472.868 273.403 473.152 274.467 473.209 275.601C473.265 276.736 473.07 277.887 472.621 279.055C472.17 280.229 471.541 281.226 470.735 282.044C469.93 282.856 469.003 283.465 467.954 283.872C466.911 284.282 465.769 284.475 464.528 284.453C463.291 284.425 462.015 284.158 460.702 283.654C459.382 283.147 458.253 282.49 457.314 281.683C456.384 280.871 455.665 279.963 455.157 278.957C454.656 277.955 454.379 276.883 454.326 275.742C454.274 274.594 454.473 273.433 454.925 272.259ZM458.062 273.464C457.755 274.262 457.621 275.036 457.659 275.785C457.704 276.536 457.893 277.237 458.226 277.887C458.568 278.533 459.038 279.112 459.638 279.622C460.243 280.135 460.956 280.549 461.774 280.863C462.592 281.177 463.394 281.345 464.181 281.367C464.974 281.391 465.71 281.277 466.391 281.023C467.074 280.763 467.683 280.369 468.219 279.841C468.755 279.312 469.177 278.649 469.484 277.85C469.79 277.052 469.92 276.28 469.873 275.535C469.826 274.79 469.632 274.103 469.291 273.472C468.953 272.834 468.479 272.267 467.868 271.767C467.264 271.27 466.553 270.864 465.735 270.55C464.917 270.236 464.113 270.059 463.325 270.022C462.543 269.987 461.81 270.091 461.126 270.336C460.451 270.576 459.846 270.957 459.313 271.479C458.786 272.004 458.369 272.665 458.062 273.464ZM479.039 272.695L482.176 273.9L489.877 282.65L491.816 277.602L494.953 278.807L489.012 294.276L485.874 293.071L488.6 285.975L480.887 277.256L476.235 289.369L473.098 288.164L479.039 272.695Z" fill="white"/>
</g>
<path fill-rule="evenodd" clip-rule="evenodd" d="M423.702 131.746H423.775V123.045H405.55H387.402V131.746H387.48C387.402 131.819 387.402 131.896 387.402 131.971V139.394L398.352 144.868C400.605 145.995 403.081 146.594 405.55 146.594C408.103 146.594 410.578 145.995 412.826 144.868L423.776 139.394V131.971C423.775 131.896 423.702 131.819 423.702 131.746Z" fill="black"/>
<path fill-rule="evenodd" clip-rule="evenodd" d="M447.561 90.1534H472.984V53.1038L447.561 90.1534ZM476.136 93.3031H441.562L476.136 42.9062V93.3031Z" fill="black"/>
<path fill-rule="evenodd" clip-rule="evenodd" d="M177.355 92.5519L177.056 90.9008L474.71 42.0801L474.938 42.2299L562.834 90.9764L562.008 92.477L474.411 43.8034L177.355 92.5519Z" fill="black"/>
<path fill-rule="evenodd" clip-rule="evenodd" d="M481.763 46.6535C481.763 50.8544 478.311 54.2288 474.11 54.2288C469.987 54.2288 466.535 50.8544 466.535 46.6535C466.535 42.4552 469.987 39.0781 474.11 39.0781C478.312 39.0781 481.763 42.4552 481.763 46.6535Z" fill="black"/>
<path d="M484.238 84.3027H437.887V91.501H484.238V84.3027Z" fill="black"/>
<path fill-rule="evenodd" clip-rule="evenodd" d="M164.08 120.149H560.88V93.3021H178.179L164.08 120.149ZM564.033 123.301H158.83L176.228 90.1523H564.033V123.301Z" fill="black"/>
<path fill-rule="evenodd" clip-rule="evenodd" d="M520.234 121.8L518.586 119.775L499.084 96.1517L478.012 121.8L476.364 119.775L456.861 96.1517L435.79 121.8L434.141 119.775L414.64 96.1517L393.567 121.8L391.919 119.775L372.495 96.1517L351.344 121.8L349.691 119.775L330.273 96.1517L309.196 121.8L307.47 119.775L288.046 96.1517L266.974 121.8L265.323 119.775L245.824 96.1517L224.752 121.8L223.101 119.775L203.602 96.1517L182.529 121.8L180.579 119.474L177.504 91.6512L180.279 91.3516L183.129 116.55L203.602 91.6512L205.328 93.6767L224.752 117.299L245.824 91.6512L247.475 93.6767L266.974 117.299L288.046 91.6512L289.697 93.6767L309.121 117.299L330.273 91.6512L331.921 93.6767L351.344 117.299L372.495 91.6512L374.143 93.6767L393.567 117.299L414.64 91.6512L416.288 93.6767L435.79 117.299L456.861 91.6512L458.51 93.6767L478.012 117.299L499.084 91.6512L500.732 93.6767L520.234 117.299L541.306 91.6512L542.955 93.6767L563.505 118.65L561.33 120.451L560.731 119.775L541.306 96.1517L520.234 121.8Z" fill="black"/>
<path d="M436.846 451.695H425.304L440.308 394.041H451.85L436.846 451.695Z" fill="#C7C7C7"/>
<path opacity="0.15" d="M620.183 451.805H415.242C421.613 454.549 428.476 455.965 435.413 455.965H640.354C633.983 453.221 627.12 451.805 620.183 451.805Z" fill="black"/>
<path d="M598.015 454.387H609.557L594.553 396.732H583.011L598.015 454.387Z" fill="#E8F4FD"/>
<path d="M581.278 396.732L596.283 454.387H598.014L583.01 396.732H581.278Z" fill="#B9B9B9"/>
<path d="M439.902 396.732L454.907 454.387H456.637L441.633 396.732H439.902Z" fill="#B9B9B9"/>
<path d="M456.637 454.387H468.179L453.175 396.732H441.633L456.637 454.387Z" fill="#E8F4FD"/>
<path opacity="0.15" d="M583.011 396.732L583.489 398.572H595.032L594.553 396.732H583.011Z" fill="black"/>
<path opacity="0.15" d="M441.633 396.732L442.112 398.572H453.654L453.175 396.732H441.633Z" fill="black"/>
<path d="M609.624 374.502H428.561V396.646H609.624V374.502Z" fill="#E6B42A"/>
<path d="M423.35 396.646H428.56V374.502H423.35V396.646Z" fill="#C49921"/>
<path d="M439.097 374.502L428.617 396.732H440.16L450.64 374.502H439.097Z" fill="#202021"/>
<path d="M469.976 374.502L459.496 396.732H471.038L481.518 374.502H469.976Z" fill="#202021"/>
<path d="M500.855 374.502L490.375 396.732H501.917L512.397 374.502H500.855Z" fill="#202021"/>
<path d="M531.733 374.502L521.253 396.732H532.795L543.276 374.502H531.733Z" fill="#202021"/>
<path d="M562.611 374.502L552.132 396.732H563.674L574.154 374.502H562.611Z" fill="#202021"/>
<path d="M593.491 374.502L583.011 396.732H594.553L605.033 374.502H593.491Z" fill="#202021"/>
<path d="M455.087 372.034C462.498 372.034 468.505 366.027 468.505 358.616C468.505 351.205 462.498 345.197 455.087 345.197C447.677 345.197 441.669 351.205 441.669 358.616C441.669 366.027 447.677 372.034 455.087 372.034Z" fill="#B9B9B9"/>
<path d="M459.57 369.488H452.628V374.699H459.57V369.488Z" fill="#B9B9B9"/>
<path d="M459.568 369.488H454.357V374.699H459.568V369.488Z" fill="#E8F4FD"/>
<path d="M456.963 372.034C464.374 372.034 470.381 366.027 470.381 358.616C470.381 351.205 464.374 345.197 456.963 345.197C449.553 345.197 443.545 351.205 443.545 358.616C443.545 366.027 449.553 372.034 456.963 372.034Z" fill="#E8F4FD"/>
<path d="M464.65 366.302C468.896 362.056 468.896 355.172 464.65 350.927C460.404 346.681 453.52 346.681 449.274 350.927C445.028 355.172 445.028 362.056 449.274 366.302C453.52 370.548 460.404 370.548 464.65 366.302Z" fill="#DA6D44"/>
<path d="M465.843 357.982V357.955C465.831 353.691 462.613 350.03 458.363 349.682C457.719 349.63 457.058 349.641 456.386 349.723C452.133 350.237 448.68 353.639 448.111 357.884C448.084 358.089 448.063 358.294 448.048 358.497C447.321 368.614 461.66 371.255 465.174 361.741C465.606 360.57 465.843 359.304 465.843 357.982Z" fill="#DA6D44"/>
<path d="M447.197 359.168C447.197 353.217 452.022 348.393 457.973 348.393C459.966 348.393 461.826 348.944 463.427 349.887C461.619 348.545 459.388 347.742 456.963 347.742C450.959 347.742 446.091 352.61 446.091 358.614C446.091 363.251 448.998 367.199 453.085 368.762C449.593 366.98 447.197 363.357 447.197 359.168Z" fill="#DA6D44"/>
<path d="M577.981 372.034C585.392 372.034 591.399 366.027 591.399 358.616C591.399 351.205 585.392 345.197 577.981 345.197C570.57 345.197 564.562 351.205 564.562 358.616C564.562 366.027 570.57 372.034 577.981 372.034Z" fill="#B9B9B9"/>
<path d="M582.462 369.488H575.521V374.699H582.462V369.488Z" fill="#B9B9B9"/>
<path d="M582.462 369.488H577.252V374.699H582.462V369.488Z" fill="#E8F4FD"/>
<path d="M579.857 372.034C587.267 372.034 593.275 366.027 593.275 358.616C593.275 351.205 587.267 345.197 579.857 345.197C572.446 345.197 566.438 351.205 566.438 358.616C566.438 366.027 572.446 372.034 579.857 372.034Z" fill="#E8F4FD"/>
<path d="M587.542 366.305C591.788 362.059 591.788 355.174 587.542 350.929C583.296 346.683 576.413 346.683 572.167 350.929C567.921 355.174 567.921 362.059 572.167 366.305C576.413 370.55 583.296 370.55 587.542 366.305Z" fill="#C84A2B"/>
<path d="M588.736 357.982V357.955C588.724 353.691 585.506 350.03 581.256 349.682C580.613 349.63 579.952 349.641 579.279 349.723C575.027 350.237 571.574 353.639 571.005 357.884C570.978 358.089 570.957 358.294 570.942 358.497C570.215 368.614 584.553 371.255 588.068 361.741C588.5 360.57 588.736 359.304 588.736 357.982Z" fill="#DA6D44"/>
<path d="M570.091 359.168C570.091 353.217 574.916 348.393 580.867 348.393C582.86 348.393 584.721 348.944 586.322 349.887C584.514 348.545 582.281 347.742 579.857 347.742C573.852 347.742 568.984 352.61 568.984 358.614C568.984 363.251 571.892 367.199 575.978 368.762C572.486 366.98 570.091 363.357 570.091 359.168Z" fill="#AF3B28"/>
<path opacity="0.15" d="M436.146 470.783C451.108 470.783 463.237 467.909 463.237 464.364C463.237 460.819 451.108 457.945 436.146 457.945C421.183 457.945 409.055 460.819 409.055 464.364C409.055 467.909 421.183 470.783 436.146 470.783Z" fill="black"/>
<path d="M447.765 462.277C444.771 460.253 437.56 458.824 429.134 458.824C420.707 458.824 413.496 460.253 410.502 462.277H409.021V464.365C409.021 467.425 418.025 469.906 429.134 469.906C440.242 469.906 449.247 467.425 449.247 464.365V462.277H447.765Z" fill="#FF6F4B"/>
<path d="M429.134 467.818C440.242 467.818 449.247 465.338 449.247 462.277C449.247 459.217 440.242 456.736 429.134 456.736C418.025 456.736 409.021 459.217 409.021 462.277C409.021 465.338 418.025 467.818 429.134 467.818Z" fill="#CF5E30"/>
<path d="M411.052 461.777C411.052 460.625 412.128 459.547 413.993 458.631C410.9 459.605 409.021 460.88 409.021 462.276C409.021 465.335 418.025 467.816 429.134 467.816C429.485 467.816 429.834 467.814 430.181 467.809C419.53 467.655 411.052 465.013 411.052 461.777Z" fill="url(#paint0_linear_8624_828)"/>
<path d="M431.965 419.111H429.134H426.303L413.978 462.277C413.978 464.584 420.764 466.453 429.134 466.453C437.505 466.453 444.291 464.584 444.291 462.277L431.965 419.111Z" fill="#FF6F4B"/>
<path d="M429.81 419.111C428.129 419.111 426.646 420.213 426.162 421.822L413.977 462.277C413.977 462.277 429.81 458.824 429.81 419.111Z" fill="#FF6F4B"/>
<path d="M438.405 441.665L435.822 432.619C433.713 432.805 431.466 432.906 429.133 432.906C426.801 432.906 424.553 432.805 422.444 432.619L419.861 441.665C422.678 442.028 425.818 442.232 429.133 442.232C432.449 442.232 435.589 442.028 438.405 441.665Z" fill="white"/>
<path d="M429.134 449.888C424.97 449.888 421.08 449.567 417.765 449.012L415.242 457.847C419.025 458.701 423.862 459.214 429.134 459.214C434.406 459.214 439.243 458.701 443.026 457.847L440.503 449.012C437.187 449.567 433.297 449.888 429.134 449.888Z" fill="white"/>
<path d="M437.613 438.889L435.822 432.619C435.422 432.654 435.012 432.684 434.601 432.713C435.289 435.598 435.903 438.743 436.278 441.902C437.005 441.833 437.715 441.754 438.405 441.665L437.613 438.889Z" fill="#D0DCE0"/>
<path d="M440.503 449.012C439.286 449.216 437.988 449.388 436.63 449.524C436.482 453.086 435.813 456.391 434.353 459.04C437.582 458.822 440.534 458.409 443.026 457.847L440.503 449.012Z" fill="#D0DCE0"/>
<path d="M431.965 419.11C431.965 419.541 430.698 419.891 429.134 419.891C427.57 419.891 426.303 419.542 426.303 419.11C426.303 418.68 427.57 418.33 429.134 418.33C430.698 418.33 431.965 418.68 431.965 419.11Z" fill="#E2794D"/>
<path d="M438.406 441.666C437.715 441.755 437.006 441.834 436.279 441.903C436.585 444.478 436.732 447.062 436.63 449.524C437.988 449.388 439.286 449.216 440.504 449.012L438.406 441.666Z" fill="#FF6F4B"/>
<path d="M431.965 419.111L430.641 419.772C430.641 419.772 432.857 425.41 434.601 432.714C435.011 432.685 435.421 432.655 435.822 432.62L431.965 419.111Z" fill="#FF6F4B"/>
<path d="M443.026 457.846C440.534 458.408 437.583 458.822 434.353 459.039C431.616 464.002 426.1 466.658 416.014 464.366C418.636 465.613 423.528 466.452 429.134 466.452C437.505 466.452 444.291 464.583 444.291 462.277L443.026 457.846Z" fill="#FF6F4B"/>
<path opacity="0.15" d="M555.666 470.783C570.628 470.783 582.757 467.909 582.757 464.364C582.757 460.819 570.628 457.945 555.666 457.945C540.704 457.945 528.575 460.819 528.575 464.364C528.575 467.909 540.704 470.783 555.666 470.783Z" fill="black"/>
<path d="M567.285 462.277C564.292 460.253 557.081 458.824 548.654 458.824C540.227 458.824 533.016 460.253 530.023 462.277H528.541V464.365C528.541 467.425 537.546 469.906 548.654 469.906C559.762 469.906 568.767 467.425 568.767 464.365V462.277H567.285Z" fill="#FF6F4B"/>
<path d="M548.654 467.818C559.762 467.818 568.767 465.338 568.767 462.277C568.767 459.217 559.762 456.736 548.654 456.736C537.546 456.736 528.541 459.217 528.541 462.277C528.541 465.338 537.546 467.818 548.654 467.818Z" fill="#CF5E30"/>
<path d="M530.572 461.777C530.572 460.625 531.648 459.547 533.513 458.631C530.42 459.605 528.541 460.88 528.541 462.276C528.541 465.335 537.546 467.816 548.654 467.816C549.005 467.816 549.354 467.814 549.701 467.809C539.051 467.655 530.572 465.013 530.572 461.777Z" fill="url(#paint1_linear_8624_828)"/>
<path d="M551.486 419.111H548.655H545.823L533.498 462.277C533.498 464.584 540.284 466.453 548.655 466.453C557.027 466.453 563.812 464.584 563.812 462.277L551.486 419.111Z" fill="#FF6F4B"/>
<path d="M549.331 419.111C547.65 419.111 546.168 420.213 545.683 421.822L533.498 462.277C533.498 462.277 549.331 458.824 549.331 419.111Z" fill="#FF6F4B"/>
<path d="M557.926 441.665L555.343 432.619C553.234 432.805 550.987 432.906 548.654 432.906C546.321 432.906 544.074 432.805 541.965 432.619L539.382 441.665C542.199 442.028 545.339 442.232 548.653 442.232C551.968 442.232 555.109 442.028 557.926 441.665Z" fill="white"/>
<path d="M548.654 449.888C544.491 449.888 540.601 449.567 537.285 449.012L534.763 457.847C538.545 458.701 543.382 459.214 548.654 459.214C553.927 459.214 558.764 458.701 562.546 457.847L560.024 449.012C556.708 449.567 552.818 449.888 548.654 449.888Z" fill="white"/>
<path d="M557.133 438.889L555.343 432.619C554.942 432.654 554.531 432.684 554.121 432.713C554.81 435.598 555.424 438.743 555.799 441.902C556.526 441.833 557.236 441.754 557.925 441.665L557.133 438.889Z" fill="#D0DCE0"/>
<path d="M560.023 449.012C558.805 449.216 557.508 449.388 556.15 449.524C556.002 453.086 555.333 456.391 553.872 459.04C557.103 458.822 560.054 458.409 562.546 457.847L560.023 449.012Z" fill="#D0DCE0"/>
<path d="M551.487 419.11C551.487 419.541 550.219 419.891 548.655 419.891C547.092 419.891 545.824 419.542 545.824 419.11C545.824 418.68 547.092 418.33 548.655 418.33C550.219 418.33 551.487 418.68 551.487 419.11Z" fill="#E2794D"/>
<path d="M557.925 441.666C557.236 441.755 556.525 441.834 555.799 441.903C556.104 444.478 556.251 447.062 556.15 449.524C557.508 449.388 558.805 449.216 560.023 449.012L557.925 441.666Z" fill="#FF6F4B"/>
<path d="M551.486 419.111L550.162 419.772C550.162 419.772 552.379 425.41 554.122 432.714C554.532 432.685 554.943 432.655 555.344 432.62L551.486 419.111Z" fill="#FF6F4B"/>
<path d="M562.546 457.846C560.054 458.408 557.103 458.822 553.872 459.039C551.136 464.002 545.619 466.658 535.533 464.366C538.155 465.613 543.047 466.452 548.654 466.452C557.025 466.452 563.811 464.583 563.811 462.277L562.546 457.846Z" fill="#FF6F4B"/>
<defs>
<linearGradient id="paint0_linear_8624_828" x1="409.021" y1="463.224" x2="430.181" y2="463.224" gradientUnits="userSpaceOnUse">
<stop stop-color="#D8744E"/>
<stop offset="1" stop-color="#CF5E30"/>
</linearGradient>
<linearGradient id="paint1_linear_8624_828" x1="528.541" y1="463.224" x2="549.701" y2="463.224" gradientUnits="userSpaceOnUse">
<stop stop-color="#D8744E"/>
<stop offset="1" stop-color="#CF5E30"/>
</linearGradient>
</defs>
</svg>
