<svg width="20" height="20" viewBox="0 0 20 20" fill="none" xmlns="http://www.w3.org/2000/svg">
    <path d="M7.5 18.3333H12.5C16.6667 18.3333 18.3333 16.6666 18.3333 12.5V7.49996C18.3333 3.33329 16.6667 1.66663 12.5 1.66663H7.5C3.33333 1.66663 1.66666 3.33329 1.66666 7.49996V12.5C1.66666 16.6666 3.33333 18.3333 7.5 18.3333Z" stroke="white" stroke-linecap="round" stroke-linejoin="round"/>
    <path d="M7.5 8.33333C8.42048 8.33333 9.16667 7.58714 9.16667 6.66667C9.16667 5.74619 8.42048 5 7.5 5C6.57953 5 5.83334 5.74619 5.83334 6.66667C5.83334 7.58714 6.57953 8.33333 7.5 8.33333Z" stroke="white" stroke-linecap="round" stroke-linejoin="round"/>
    <path d="M2.225 15.7917L6.33333 13.0333C6.99167 12.5917 7.94167 12.6417 8.53333 13.15L8.80833 13.3917C9.45833 13.95 10.5083 13.95 11.1583 13.3917L14.625 10.4167C15.275 9.85834 16.325 9.85834 16.975 10.4167L18.3333 11.5833" stroke="white" stroke-linecap="round" stroke-linejoin="round"/>
</svg>
