<svg viewBox="0 0 24 25" fill="none" xmlns="http://www.w3.org/2000/svg">
    <path d="M11.8375 2.38892C6.16969 2.38892 1.57903 6.97958 1.57903 12.6474C1.57903 17.1868 4.51551 21.0209 8.59325 22.3801C9.10618 22.4699 9.29852 22.1621 9.29852 21.8928C9.29852 21.6492 9.2857 20.8413 9.2857 19.9822C6.70826 20.4566 6.04146 19.3539 5.83629 18.7768C5.72088 18.4819 5.22078 17.5715 4.7848 17.3278C4.42575 17.1355 3.91283 16.661 4.77197 16.6482C5.57983 16.6354 6.15687 17.3919 6.34921 17.6997C7.27248 19.2513 8.74713 18.8153 9.33699 18.546C9.42675 17.8792 9.69604 17.4304 9.99097 17.1739C7.70846 16.9175 5.32337 16.0327 5.32337 12.1088C5.32337 10.9932 5.72088 10.0699 6.37486 9.35185C6.27228 9.09539 5.91323 8.0439 6.47745 6.63336C6.47745 6.63336 7.33659 6.36407 9.29852 7.68485C10.1192 7.45404 10.9912 7.33863 11.8631 7.33863C12.7351 7.33863 13.6071 7.45404 14.4278 7.68485C16.3897 6.35125 17.2488 6.63336 17.2488 6.63336C17.8131 8.0439 17.454 9.09539 17.3514 9.35185C18.0054 10.0699 18.4029 10.9804 18.4029 12.1088C18.4029 16.0455 16.005 16.9175 13.7225 17.1739C14.0944 17.4945 14.4149 18.11 14.4149 19.0718C14.4149 20.4438 14.4021 21.5466 14.4021 21.8928C14.4021 22.1621 14.5945 22.4827 15.1074 22.3801C17.1439 21.6926 18.9135 20.3838 20.1672 18.6378C21.4208 16.8919 22.0955 14.7968 22.096 12.6474C22.096 6.97958 17.5053 2.38892 11.8375 2.38892Z" fill="#050505"/>
</svg>
