<svg viewBox="0 0 30 30" fill="none" xmlns="http://www.w3.org/2000/svg">
    <path d="M11.8445 8.86972C11.8445 9.72571 11.1025 10.4196 10.1873 10.4196C9.27208 10.4196 8.53014 9.72571 8.53014 8.86972C8.53014 8.01374 9.27208 7.31982 10.1873 7.31982C11.1025 7.31982 11.8445 8.01374 11.8445 8.86972Z" fill="#050505"/>
    <path d="M8.75674 11.5588H11.5895V20.1429H8.75674V11.5588Z" fill="#050505"/>
    <path d="M16.1503 11.5589H13.3175V20.143H16.1503C16.1503 20.143 16.1503 17.4406 16.1503 15.751C16.1503 14.7368 16.4966 13.7181 17.8783 13.7181C19.4398 13.7181 19.4305 15.0453 19.4231 16.0736C19.4136 17.4175 19.4363 18.7891 19.4363 20.143H22.2691V15.6125C22.2451 12.7197 21.4913 11.3867 19.0114 11.3867C17.5387 11.3867 16.6258 12.0554 16.1503 12.6602V11.5589Z" fill="#050505"/>
</svg>
