<svg width="102" height="102" viewBox="0 0 102 102" fill="none" xmlns="http://www.w3.org/2000/svg">
    <path d="M0.659134 101.591L0.659134 70.6496H31.6006L31.6006 101.591H0.659134ZM7.13622 77.1267L7.13622 95.129H25.1385L25.1385 77.1267H7.13622Z" fill="black"/>
    <path d="M12.2552 82.2496L12.2552 89.9868H19.9924V82.2496H12.2552Z" fill="black"/>
    <path d="M70.5867 101.22V70.2784H101.547V101.22H70.5867ZM77.0638 76.7554V94.7578H95.0661V76.7554H77.0638Z" fill="black"/>
    <path d="M82.1909 81.8819V89.6191H89.9281V81.8819H82.1909Z" fill="black"/>
    <path d="M0.658752 31.0558L0.658752 0.114294L31.6002 0.114294L31.6002 31.0558L0.658752 31.0558ZM7.13584 6.59138L7.13584 24.5937L25.1382 24.5937L25.1382 6.59138L7.13584 6.59138Z" fill="black"/>
    <path d="M12.2552 11.7144L12.2552 19.4517H19.9924V11.7144H12.2552Z" fill="black"/>
    <path d="M34.2782 94.4802V101.22H41.0028V94.4802H34.2782Z" fill="black"/>
    <path d="M41.0031 94.4802V101.22H47.7277V94.4802H41.0031Z" fill="black"/>
    <path d="M47.7275 94.4802V101.22H54.4522V94.4802H47.7275Z" fill="black"/>
    <path d="M34.2782 81.0007V87.7404H41.0028V81.0007H34.2782Z" fill="black"/>
    <path d="M41.0031 81.0007V87.7404H47.7277V81.0007H41.0031Z" fill="black"/>
    <path d="M47.7275 81.0007V87.7404H54.4522V81.0007H47.7275Z" fill="black"/>
    <path d="M54.4524 74.2614V81.001H61.1771V74.2614H54.4524Z" fill="black"/>
    <path d="M34.2782 67.5179V74.2576H41.0028V67.5179H34.2782Z" fill="black"/>
    <path d="M47.7275 67.5179V74.2576H54.4522V67.5179H47.7275Z" fill="black"/>
    <path d="M0.651459 60.7785L0.651459 67.5181H7.37608L7.37608 60.7785H0.651459Z" fill="black"/>
    <path d="M14.1004 60.7785L14.1004 67.5181H20.825V60.7785H14.1004Z" fill="black"/>
    <path d="M20.8253 60.7785V67.5181H27.55V60.7785H20.8253Z" fill="black"/>
    <path d="M27.5498 60.7785V67.5181H34.2744V60.7785H27.5498Z" fill="black"/>
    <path d="M54.4524 60.7785V67.5181H61.1771V60.7785H54.4524Z" fill="black"/>
    <path d="M7.37593 54.0387L7.37593 60.7783H14.1005V54.0387H7.37593Z" fill="black"/>
    <path d="M20.8253 54.0387V60.7783H27.55V54.0387H20.8253Z" fill="black"/>
    <path d="M34.2782 54.0387V60.7783H41.0028V54.0387H34.2782Z" fill="black"/>
    <path d="M41.0031 54.0387V60.7783H47.7277V54.0387H41.0031Z" fill="black"/>
    <path d="M47.7275 54.0387V60.7783H54.4522V54.0387H47.7275Z" fill="black"/>
    <path d="M14.1004 47.2988L14.1004 54.0385H20.825V47.2988H14.1004Z" fill="black"/>
    <path d="M34.2782 47.2951H41.0028V54.0385H34.2782" fill="black"/>
    <path d="M47.7275 47.2988V54.0385H54.4522V47.2988H47.7275Z" fill="black"/>
    <path d="M54.4524 47.2988V54.0385H61.1771V47.2988H54.4524Z" fill="black"/>
    <path d="M0.651459 40.5557L0.651459 47.2953H7.37608L7.37608 40.5557H0.651459Z" fill="black"/>
    <path d="M14.1004 40.5557L14.1004 47.2953H20.825V40.5557H14.1004Z" fill="black"/>
    <path d="M27.5498 40.5557V47.2953H34.2744V40.5557H27.5498Z" fill="black"/>
    <path d="M47.7275 40.5557V47.2953H54.4522V40.5557H47.7275Z" fill="black"/>
    <path d="M0.651459 33.8162L0.651459 40.5558H7.37608L7.37608 33.8162H0.651459Z" fill="black"/>
    <path d="M14.1004 33.8162L14.1004 40.5558H20.825V33.8162H14.1004Z" fill="black"/>
    <path d="M20.8253 33.8162V40.5558H27.55V33.8162H20.8253Z" fill="black"/>
    <path d="M27.5498 33.8162V40.5558H34.2744V33.8162H27.5498Z" fill="black"/>
    <path d="M34.2782 33.8162V40.5558H41.0028V33.8162H34.2782Z" fill="black"/>
    <path d="M41.0031 33.8162V40.5558H47.7277V33.8162H41.0031Z" fill="black"/>
    <path d="M47.7275 33.8162V40.5558H54.4522V33.8162H47.7275Z" fill="black"/>
    <path d="M54.4524 33.8162V40.5558H61.1771V33.8162H54.4524Z" fill="black"/>
    <path d="M34.2782 27.0763V33.8159H41.0028V27.0763H34.2782Z" fill="black"/>
    <path d="M54.4524 27.0763V33.8159H61.1771V27.0763H54.4524Z" fill="black"/>
    <path d="M47.7275 27.0763V33.8159H54.4522V27.0763H47.7275Z" fill="black"/>
    <path d="M41.0031 20.337V27.0767H47.7277V20.337H41.0031Z" fill="black"/>
    <path d="M41.0031 6.85376V13.5934L47.7277 13.5934V6.85376L41.0031 6.85376Z" fill="black"/>
    <path d="M54.4524 6.85376V13.5934L61.1771 13.5934V6.85376L54.4524 6.85376Z" fill="black"/>
    <path d="M34.2782 0.114261V6.85388L41.0028 6.85388V0.114261L34.2782 0.114261Z" fill="black"/>
    <path d="M47.7275 0.114261V6.85388L54.4522 6.85388V0.114261L47.7275 0.114261Z" fill="black"/>
    <path d="M61.1769 94.4802V101.22H67.9016V94.4802H61.1769Z" fill="black"/>
    <path d="M61.1769 81.0007V87.7404H67.9016V81.0007H61.1769Z" fill="black"/>
    <path d="M61.1769 74.2614V81.001H67.9016V74.2614H61.1769Z" fill="black"/>
    <path d="M61.1769 67.5179V74.2576H67.9016V67.5179H61.1769Z" fill="black"/>
    <path d="M67.901 60.7785V67.5181H74.6256V60.7785H67.901Z" fill="black"/>
    <path d="M81.3547 60.7785V67.5181H88.0793V60.7785H81.3547Z" fill="black"/>
    <path d="M88.0791 60.7785V67.5181H94.8038V60.7785H88.0791Z" fill="black"/>
    <path d="M94.8036 60.7785V67.5181H101.528V60.7785H94.8036Z" fill="black"/>
    <path d="M61.1769 54.0387V60.7783H67.9016V54.0387H61.1769Z" fill="black"/>
    <path d="M94.8036 54.0387V60.7783H101.528V54.0387H94.8036Z" fill="black"/>
    <path d="M61.1769 47.2988V54.0385H67.9016V47.2988H61.1769Z" fill="black"/>
    <path d="M74.6297 47.2988V54.0385H81.3544V47.2988H74.6297Z" fill="black"/>
    <path d="M81.3547 47.2988V54.0385H88.0793V47.2988H81.3547Z" fill="black"/>
    <path d="M88.0791 47.2988V54.0385H94.8038V47.2988H88.0791Z" fill="black"/>
    <path d="M74.6297 40.5557V47.2953H81.3544V40.5557H74.6297Z" fill="black"/>
    <path d="M61.1769 33.8162V40.5558H67.9016V33.8162H61.1769Z" fill="black"/>
    <path d="M74.6297 33.8162V40.5558H81.3544V33.8162H74.6297Z" fill="black"/>
    <path d="M81.3547 33.8162V40.5558H88.0793V33.8162H81.3547Z" fill="black"/>
    <path d="M88.0791 33.8162V40.5558H94.8038V33.8162H88.0791Z" fill="black"/>
    <path d="M67.901 27.0763V33.8159H74.6256V27.0763H67.901Z" fill="black"/>
    <path d="M74.6297 27.0763V33.8159H81.3544V27.0763H74.6297Z" fill="black"/>
    <path d="M88.0791 27.0763V33.8159H94.8038V27.0763H88.0791Z" fill="black"/>
    <path d="M67.901 20.337V27.0767H74.6256V20.337H67.901Z" fill="black"/>
    <path d="M81.3547 20.337V27.0767H88.0793V20.337H81.3547Z" fill="black"/>
    <path d="M94.8036 20.337V27.0767H101.528V20.337H94.8036Z" fill="black"/>
    <path d="M61.1769 13.5969V20.3365H67.9016V13.5969H61.1769Z" fill="black"/>
    <path d="M74.6297 13.5969V20.3365H81.3544V13.5969H74.6297Z" fill="black"/>
    <path d="M81.3547 13.5969V20.3365H88.0793V13.5969H81.3547Z" fill="black"/>
    <path d="M88.0791 13.5969V20.3365H94.8038V13.5969H88.0791Z" fill="black"/>
    <path d="M61.1769 6.85376V13.5934L67.9016 13.5934V6.85376L61.1769 6.85376Z" fill="black"/>
    <path d="M81.3547 6.85376V13.5934L88.0793 13.5934V6.85376L81.3547 6.85376Z" fill="black"/>
    <path d="M94.8036 6.85376V13.5934L101.528 13.5934V6.85376L94.8036 6.85376Z" fill="black"/>
    <path d="M61.1769 0.114261V6.85388L67.9016 6.85388V0.114261L61.1769 0.114261Z" fill="black"/>
    <path d="M67.901 0.114261V6.85388L74.6256 6.85388V0.114261L67.901 0.114261Z" fill="black"/>
    <path d="M74.6297 0.114261V6.85388L81.3544 6.85388V0.114261L74.6297 0.114261Z" fill="black"/>
</svg>
