<svg width="289" height="509" viewBox="0 0 289 509" fill="none" xmlns="http://www.w3.org/2000/svg">
    <path fill-rule="evenodd" clip-rule="evenodd" d="M0.763519 0.806335V154.005H29.3786C31.4473 154.005 33.1243 155.682 33.1243 157.751C33.1243 159.819 31.4473 161.496 29.3786 161.496H0.763519V378.389V378.416H11.8891C12.635 378.421 13.3518 378.659 13.8981 379.084C14.4443 379.508 14.7805 380.088 14.8404 380.71C14.888 381.047 14.8517 381.388 14.7337 381.713C14.6157 382.037 14.4185 382.338 14.1546 382.595C13.8907 382.853 13.5658 383.062 13.2004 383.21C12.835 383.357 12.437 383.44 12.0315 383.452H0.789394V383.479V508.439V508.466H17.9729L18.0053 508.439C18.0053 501.369 24.445 495.645 32.354 495.645C40.2629 495.645 46.6768 501.369 46.6897 508.439V508.466H54.8316V508.439C54.8316 501.369 61.3038 495.645 69.1804 495.645C77.057 495.645 83.5032 501.369 83.5226 508.439V508.466H91.6645V508.439C91.6645 501.369 98.1367 495.645 106.013 495.645C107.385 495.65 108.747 495.833 110.052 496.186C115.993 497.739 120.336 502.645 120.349 508.46V508.487H128.484V508.46C128.484 501.39 134.911 495.667 142.82 495.667C150.729 495.667 157.156 501.39 157.169 508.46V508.487H165.311V508.46C165.311 501.39 171.744 495.667 179.653 495.667C187.562 495.667 193.982 501.39 194.002 508.46V508.487H202.144V508.46C202.144 501.39 208.571 495.667 216.479 495.667C224.388 495.667 230.815 501.39 230.828 508.46V508.487H238.964V508.46C238.964 501.39 245.39 495.667 253.299 495.667C261.208 495.667 267.622 501.39 267.635 508.46V508.487H287.867V508.46V383.501V383.474H276.34C275.583 383.423 274.876 383.136 274.361 382.669C273.846 382.203 273.56 381.591 273.56 380.956C273.56 380.321 273.846 379.709 274.361 379.243C274.876 378.776 275.583 378.489 276.34 378.438H288.236V378.411V161.497H259.511C257.442 161.497 255.765 159.82 255.765 157.751C255.765 155.682 257.442 154.005 259.511 154.005H288.236V0.827995L0.763519 0.806335ZM263.454 378.432C263.86 378.445 264.258 378.528 264.623 378.675C264.988 378.823 265.313 379.032 265.577 379.289C265.841 379.547 266.038 379.848 266.156 380.172C266.274 380.497 266.311 380.838 266.263 381.175C266.203 381.796 265.867 382.377 265.321 382.801C264.774 383.226 264.058 383.464 263.312 383.469H226.058C225.301 383.418 224.594 383.13 224.079 382.664C223.564 382.197 223.278 381.585 223.278 380.951C223.278 380.316 223.564 379.704 224.079 379.237C224.594 378.771 225.301 378.483 226.058 378.432H263.454ZM213.172 378.432C213.577 378.446 213.975 378.529 214.34 378.677C214.705 378.824 215.029 379.034 215.293 379.291C215.557 379.549 215.754 379.849 215.872 380.173C215.991 380.497 216.028 380.838 215.981 381.175C215.92 381.797 215.582 382.377 215.035 382.802C214.488 383.226 213.77 383.464 213.023 383.469H175.776C175.001 383.439 174.27 383.16 173.734 382.691C173.199 382.222 172.9 381.599 172.9 380.951C172.9 380.302 173.199 379.679 173.734 379.21C174.27 378.741 175.001 378.462 175.776 378.432H213.172ZM162.741 378.432C163.487 378.437 164.204 378.675 164.75 379.1C165.297 379.524 165.633 380.104 165.693 380.726C165.74 381.062 165.704 381.403 165.587 381.727C165.469 382.052 165.272 382.352 165.009 382.61C164.746 382.867 164.422 383.076 164.057 383.224C163.692 383.372 163.295 383.455 162.89 383.469H125.475C124.718 383.418 124.011 383.13 123.496 382.664C122.981 382.197 122.694 381.585 122.694 380.951C122.694 380.316 122.981 379.704 123.496 379.237C124.011 378.771 124.718 378.483 125.475 378.432H162.741ZM112.459 378.432C113.205 378.438 113.921 378.677 114.467 379.101C115.013 379.525 115.349 380.105 115.411 380.726C115.457 381.063 115.42 381.404 115.302 381.728C115.184 382.052 114.986 382.352 114.723 382.61C114.459 382.867 114.134 383.076 113.77 383.224C113.405 383.372 113.007 383.455 112.602 383.469H75.2059C74.431 383.439 73.6998 383.16 73.1641 382.691C72.6284 382.222 72.3296 381.599 72.3296 380.951C72.3296 380.302 72.6284 379.679 73.1641 379.21C73.6998 378.741 74.431 378.462 75.2059 378.432H112.459ZM62.1711 378.432C62.917 378.437 63.6337 378.675 64.18 379.1C64.7263 379.524 65.0625 380.104 65.1223 380.726C65.171 381.062 65.1355 381.404 65.0182 381.728C64.901 382.053 64.7045 382.353 64.4411 382.611C64.1777 382.869 63.8532 383.078 63.4881 383.226C63.123 383.373 62.7252 383.456 62.3199 383.469H24.9175C24.1602 383.418 23.4536 383.13 22.9384 382.664C22.4232 382.197 22.1371 381.585 22.1371 380.951C22.1371 380.316 22.4232 379.704 22.9384 379.237C23.4536 378.771 24.1602 378.483 24.9175 378.432H62.1711ZM44.6359 154.005C42.5672 154.005 40.8902 155.682 40.8902 157.751C40.8902 159.82 42.5672 161.497 44.6359 161.497H83.0966C85.1653 161.497 86.8423 159.82 86.8423 157.751C86.8423 155.682 85.1653 154.005 83.0966 154.005H44.6359ZM94.6093 157.751C94.6093 155.682 96.2863 154.005 98.355 154.005H136.816C138.884 154.005 140.561 155.682 140.561 157.751C140.561 159.82 138.884 161.497 136.816 161.497H98.355C96.2863 161.497 94.6093 159.82 94.6093 157.751ZM152.073 154.005C150.005 154.005 148.328 155.682 148.328 157.751C148.328 159.82 150.005 161.497 152.073 161.497H190.534C192.603 161.497 194.28 159.82 194.28 157.751C194.28 155.682 192.603 154.005 190.534 154.005H152.073ZM202.047 157.751C202.047 155.682 203.724 154.005 205.792 154.005H244.253C246.322 154.005 247.999 155.682 247.999 157.751C247.999 159.82 246.322 161.497 244.253 161.497H205.792C203.724 161.497 202.047 159.82 202.047 157.751Z" fill="white"/>
</svg>
