<svg width="100" height="40" viewBox="0 0 100 40" fill="none" xmlns="http://www.w3.org/2000/svg">
<g clip-path="url(#clip0_8885_803)">
<path fill-rule="evenodd" clip-rule="evenodd" d="M15.5035 23.8024L15.543 23.4457C15.9836 21.2246 14.9429 20.2727 11.659 20.2727C8.49512 20.2727 7.0936 21.2246 6.69328 23.4457L6.61355 23.8419C6.17295 26.0637 7.61475 27.0559 10.4572 27.0559C13.3811 27.0559 15.1427 25.7062 15.5035 23.8024ZM26.6754 22.1765L30.4402 1.0723C30.4738 0.883898 30.5725 0.7133 30.7192 0.590374C30.8659 0.467447 31.0511 0.400022 31.2425 0.399902L35.6353 0.399902C35.7543 0.400019 35.8718 0.426175 35.9796 0.476533C36.0874 0.526891 36.1829 0.600232 36.2593 0.691408C36.3358 0.782584 36.3913 0.889387 36.4221 1.00432C36.4529 1.11925 36.4582 1.23953 36.4376 1.35672L35.2054 8.33308C36.7269 7.22255 38.4087 6.42931 41.4929 6.42931C47.4993 6.42931 49.8617 10.3955 49.0208 15.1154L47.6193 22.89C46.6181 28.5618 43.2947 31.2991 35.886 31.2991C28.9187 31.2991 25.7145 27.4521 26.6754 22.1765ZM41.7732 21.9381L42.8944 15.7106C43.3342 13.2511 42.3733 11.5858 39.1296 11.5858C35.8465 11.5858 34.3242 13.2511 33.8836 15.7106L32.7624 21.9381C32.3218 24.3975 33.2835 26.0637 36.5666 26.0637C39.8102 26.0637 41.3326 24.3975 41.7732 21.9381ZM73.6884 20.5103H58.2717L57.9511 22.414C57.5902 24.5167 58.2306 26.4205 62.0759 26.4205C65.3993 26.4205 67.0014 25.4686 67.3614 23.4859C67.3725 23.4298 67.4027 23.3792 67.447 23.343C67.4912 23.3067 67.5467 23.2869 67.6039 23.287H72.4061C72.5054 23.2871 72.6035 23.3086 72.6938 23.35C72.784 23.3915 72.8643 23.4519 72.929 23.5272C72.9938 23.6025 73.0415 23.6909 73.069 23.7864C73.0965 23.8818 73.1031 23.982 73.0883 24.0802C72.2474 28.7607 68.9232 31.2991 61.595 31.2991C54.3466 31.2991 51.2238 27.3724 52.1444 22.3351L53.426 14.9971C54.5069 9.28496 57.8311 6.42931 65.239 6.42931C72.3674 6.42931 75.5305 10.2763 74.6099 15.4336L73.6884 20.5103ZM59.1923 15.3933L58.9926 16.623H68.5632L68.8032 15.3538C69.2438 12.8155 68.2031 11.3079 64.7589 11.3079C61.1947 11.3079 59.6329 12.9741 59.1923 15.3933ZM87.7044 24.2389C90.9883 24.2389 92.5099 22.5727 92.9504 20.193L93.7116 15.7903C94.1514 13.3703 93.1905 11.7444 89.9468 11.7444C86.7032 11.7444 85.1817 13.3703 84.7411 15.7903L83.9807 20.193C83.5401 22.5727 84.4608 24.2389 87.7044 24.2389ZM90.5074 6.42931C97.4756 6.42931 100.76 10.356 99.7978 15.7106L97.2356 30.0694C96.033 36.6142 92.3093 39.0342 85.7826 39.0342H85.1019C79.2953 39.0342 75.5305 36.1382 76.1314 31.4183C76.1541 31.2959 76.2188 31.1854 76.3145 31.1058C76.4101 31.0262 76.5306 30.9827 76.655 30.9826H81.938C81.6175 32.8067 82.9392 34.0758 85.7423 34.0758C89.3065 34.0758 90.7877 32.4499 91.1881 30.1886L91.7487 27.2137C90.228 28.404 88.5856 29.078 85.3822 29.078C79.8559 29.078 77.0126 25.31 77.9332 20.1141L78.8144 15.076C79.8156 9.40415 83.139 6.42931 90.5074 6.42931ZM18.1529 3.52681C18.2768 3.52694 18.3991 3.55532 18.5104 3.6098C18.6218 3.66428 18.7192 3.74343 18.7954 3.84122C18.8715 3.93901 18.9244 4.05288 18.9499 4.17416C18.9755 4.29545 18.973 4.42096 18.9428 4.54117L18.3353 6.95293C22.0097 8.14484 23.7976 11.2586 23.1112 15.1154L21.6702 23.2073C20.7825 28.1582 17.8972 30.4615 13.4115 31.1265L12.8772 33.2431C12.8329 33.4193 12.7311 33.5756 12.5878 33.6873C12.4446 33.799 12.2681 33.8596 12.0865 33.8596H7.28924C7.16513 33.8597 7.04266 33.8314 6.93114 33.7769C6.81963 33.7224 6.72202 33.6432 6.64576 33.5453C6.56949 33.4474 6.51658 33.3334 6.49106 33.2119C6.46553 33.0905 6.46807 32.9648 6.49847 32.8445L6.92509 31.1552C2.5216 30.4426 0.0522997 27.7184 0.565231 23.9216L0.645788 23.3659C1.2064 19.0422 4.16972 16.5038 11.0976 16.5038C13.7403 16.5038 15.7025 16.9008 16.6239 17.4162L16.984 15.3144C17.4246 13.0136 16.3839 11.4666 13.4198 11.4666C10.9373 11.4666 9.13546 12.2993 8.77542 14.4011H3.00823C3.69214 9.58664 6.32009 6.98417 11.9673 6.50905L12.5649 4.14167C12.6095 3.96582 12.7115 3.80987 12.8547 3.69851C12.9979 3.58714 13.1742 3.52672 13.3556 3.52681H18.1529Z" fill="#050505"/>
</g>
<defs>
<clipPath id="clip0_8885_803">
<rect width="99.4627" height="38.6343" fill="white" transform="translate(0.5 0.399902)"/>
</clipPath>
</defs>
</svg>
