<svg width="177" height="51" viewBox="0 0 177 51" fill="none" xmlns="http://www.w3.org/2000/svg">
<g clip-path="url(#clip0_8885_757)">
<path fill-rule="evenodd" clip-rule="evenodd" d="M25.1122 0.127023C24.8666 0.264004 24.2378 0.863885 23.7847 1.39377C23.1276 2.16198 22.9138 2.40717 22.7231 2.612C22.6129 2.73009 22.293 3.10066 22.0116 3.43517C21.7301 3.76968 21.3784 4.17246 21.2301 4.32963C21.0814 4.48722 20.8288 4.77707 20.6681 4.97373C20.5071 5.17083 20.288 5.42204 20.1809 5.53239C20.0743 5.64232 19.9867 5.7471 19.9867 5.7647C19.9867 5.78231 19.9283 5.85402 19.8575 5.92401C19.7867 5.994 19.5791 6.22503 19.3964 6.43715C19.2141 6.64928 19.0065 6.88202 18.9357 6.95416C18.8645 7.0263 18.8065 7.09801 18.8065 7.1139C18.8065 7.12978 18.7079 7.25088 18.5875 7.38313L18.368 7.6236L17.2781 7.53128C16.679 7.48061 15.5993 7.39172 14.8794 7.33375C14.1594 7.27578 12.981 7.18046 12.2611 7.12206C8.37991 6.80773 8.4162 6.80816 7.83121 7.10016C7.5812 7.22511 7.4458 7.35651 7.31703 7.59913C7.01613 8.1668 7.01569 8.13159 7.3396 11.8979C7.39978 12.5966 7.49801 13.7401 7.55819 14.4387C7.61793 15.1374 7.71041 16.1847 7.76351 16.7665C7.85865 17.8031 7.85776 17.8254 7.70997 17.9242C7.62722 17.9792 7.44004 18.1316 7.29402 18.2621C7.02011 18.5082 6.94975 18.5662 6.26786 19.1081C6.04528 19.285 5.73066 19.5474 5.56827 19.6912C5.40631 19.8351 5.10762 20.0807 4.90452 20.2366C4.70185 20.3924 4.44299 20.605 4.32927 20.7089C4.21554 20.8128 4.0912 20.8978 4.0527 20.8978C4.01421 20.8978 3.98235 20.9219 3.98235 20.9515C3.9819 20.9807 3.71685 21.2143 3.39294 21.4702C3.06903 21.7262 2.80353 21.9598 2.80353 21.989C2.80308 22.0186 2.75574 22.0426 2.69821 22.0426C2.64069 22.0426 2.58272 22.0718 2.56944 22.1079C2.55573 22.1436 2.29642 22.3741 1.99331 22.6198C1.68975 22.8658 1.40346 23.1024 1.35611 23.1454C1.3092 23.1883 1.04946 23.4137 0.77909 23.646C-0.304593 24.5761 -0.313885 25.535 0.752097 26.4638C0.92069 26.6107 1.11052 26.7816 1.17468 26.8438C1.2384 26.9061 1.57293 27.1792 1.91764 27.451C2.26235 27.7224 2.56104 27.9633 2.58139 27.9861C2.60175 28.0088 2.96681 28.3111 3.39294 28.6577C3.81862 29.0042 4.17837 29.3159 4.19165 29.3507C4.20537 29.3859 4.26068 29.4143 4.31466 29.4143C4.36865 29.4143 4.42396 29.4426 4.43768 29.4778C4.45095 29.5126 4.71114 29.7406 5.01514 29.9845C5.31958 30.2284 5.76429 30.5943 6.00369 30.7978C6.24308 31.0014 6.52805 31.2319 6.6369 31.311C6.74576 31.3895 7.06657 31.6549 7.34933 31.9005L7.86351 32.3471L7.77059 33.117C7.71926 33.5409 7.67678 34.0643 7.6759 34.2807C7.67501 34.4972 7.62412 35.1735 7.56261 35.7837C7.50111 36.3938 7.40199 37.4729 7.34181 38.1815C7.28207 38.89 7.19844 39.872 7.15596 40.3641C6.9378 42.8993 7.39137 43.4116 9.68794 43.2248C10.1804 43.1849 11.1809 43.1042 11.9111 43.0453C13.1408 42.9462 15.4767 42.7503 17.46 42.5803C18.268 42.5112 18.5853 42.5571 18.5853 42.743C18.5853 42.7731 18.6433 42.856 18.7145 42.9273C18.7853 42.9985 18.9928 43.2296 19.1751 43.44C19.3579 43.6508 19.5734 43.8956 19.6548 43.9836C19.8548 44.2005 20.2584 44.6707 20.7261 45.2306C20.9398 45.4865 21.1536 45.7283 21.2018 45.7674C21.25 45.8069 21.5169 46.113 21.7956 46.4475C22.2673 47.0139 22.5112 47.2917 22.7926 47.582C22.855 47.6469 23.0541 47.877 23.2346 48.0935C23.6112 48.5452 23.5621 48.4898 24.1904 49.1721C25.221 50.292 26.5352 50.4749 27.1455 49.5835C27.1946 49.5118 27.6933 48.9424 27.911 48.7088C27.9942 48.6195 28.2114 48.3743 28.3942 48.1634C28.5765 47.953 28.784 47.722 28.8548 47.6507C28.9261 47.5795 28.984 47.5047 28.984 47.485C28.984 47.4652 29.042 47.3909 29.1132 47.3197C29.184 47.2484 29.3916 47.0169 29.5739 46.8061C29.7566 46.5948 29.9642 46.3724 30.035 46.3114C30.1058 46.2509 30.1642 46.1598 30.1642 46.1096C30.1642 46.0589 30.189 46.0177 30.2195 46.0177C30.2496 46.0177 30.4407 45.8176 30.6434 45.5733C30.8461 45.3294 31.0952 45.0447 31.1965 44.9408C31.3855 44.7471 31.4368 44.6883 32.0076 44.0128C32.1899 43.7972 32.4316 43.5237 32.5448 43.4056C32.6581 43.2875 32.8741 43.035 33.0245 42.8444L33.2984 42.4974L33.667 42.5399C33.8701 42.5631 34.3179 42.6001 34.6626 42.6215C35.0073 42.6426 35.9698 42.7216 36.8017 42.7967C37.6331 42.8719 38.9606 42.9844 39.7514 43.0466C40.5426 43.1093 41.5723 43.1926 42.0396 43.2321C44.4738 43.4374 44.8016 42.8796 44.441 39.1476C44.3782 38.4979 44.276 37.3707 44.214 36.6425C44.1521 35.9142 44.0326 34.6466 43.9485 33.8251C43.8644 33.0037 43.8233 32.3093 43.8569 32.2818C43.891 32.2544 44.1007 32.089 44.3233 31.9147C44.5459 31.7399 44.795 31.5308 44.8764 31.4497C44.9578 31.3685 45.257 31.1233 45.5411 30.9043C45.8247 30.6853 46.1415 30.4294 46.2451 30.3358C46.3482 30.2422 46.6137 30.021 46.8349 29.8441C47.0562 29.6672 47.2743 29.4898 47.3199 29.4503C47.3655 29.4108 47.5615 29.2498 47.7558 29.0922C47.9496 28.9346 48.1447 28.7736 48.189 28.7341C48.2332 28.6946 48.4523 28.519 48.6753 28.3438C48.8983 28.1686 49.1342 27.9753 49.1992 27.9148C49.4045 27.7233 49.7307 27.4566 50.1501 27.138C52.2494 25.544 52.2648 24.6972 50.224 23.0535C49.92 22.8083 49.5882 22.5356 49.4864 22.4467C49.3851 22.3583 49.0213 22.062 48.6784 21.7884C48.3354 21.5149 47.9704 21.2148 47.8673 21.1211C47.7642 21.0275 47.4642 20.7819 47.2004 20.5758C46.9367 20.3692 46.6362 20.1236 46.5331 20.03C46.3694 19.8819 46.0141 19.5912 45.3636 19.0729C45.2645 18.9939 45.1229 18.8732 45.049 18.8045C44.9747 18.7354 44.8994 18.6791 44.8817 18.6791C44.864 18.6791 44.7065 18.5541 44.5317 18.4017C44.3565 18.2488 44.1189 18.0466 44.0029 17.9517L43.7923 17.7791L43.9445 16.3504C44.0277 15.5646 44.1485 14.2777 44.2127 13.4906C44.2768 12.7031 44.3804 11.5437 44.4428 10.9141C44.8189 7.1242 44.5131 6.68621 41.6692 6.93913C41.2431 6.97692 40.2474 7.05807 39.4567 7.11948C38.0292 7.22984 36.5167 7.35436 34.4188 7.53429L33.3272 7.6279L32.9829 7.23112C32.7935 7.01299 32.5656 6.75405 32.4767 6.65572C32.3873 6.55739 32.1767 6.31563 32.0076 6.11896C31.6036 5.6479 31.1045 5.07722 31.012 4.97975C30.9713 4.93724 30.7886 4.72554 30.6062 4.50998C30.4239 4.29398 30.2084 4.03892 30.127 3.94273C30.046 3.84697 29.9297 3.71557 29.869 3.65116C29.808 3.58632 29.577 3.3261 29.3549 3.07275C29.1332 2.8194 28.8778 2.5317 28.788 2.43337C28.6982 2.33503 28.4199 2.01298 28.1694 1.71754C27.9185 1.42254 27.684 1.17005 27.6481 1.15674C27.6123 1.14386 27.5826 1.10564 27.5826 1.07215C27.5826 0.973813 26.8853 0.307803 26.6149 0.147635C26.2888 -0.045169 25.4418 -0.056763 25.1122 0.127023ZM26.3374 6.85239C26.5866 7.1577 26.8193 7.41792 26.8547 7.43123C26.8901 7.44411 26.9189 7.48447 26.9189 7.52055C26.9189 7.55661 26.9773 7.64507 27.0481 7.71721C27.3592 8.03326 27.6565 8.39224 27.6565 8.45193C27.6565 8.48757 27.6835 8.51634 27.7163 8.51634C27.749 8.51634 27.938 8.73104 28.1362 8.99298C28.8654 9.957 29.0433 10.0695 29.3991 9.79425C29.4451 9.75861 29.7938 9.57397 30.1735 9.38374C30.5536 9.19351 31.047 8.93286 31.2696 8.80447C31.4926 8.67651 31.7413 8.54253 31.8227 8.50732C31.9041 8.47211 32.2364 8.30035 32.5608 8.12601C32.8856 7.95167 33.1705 7.80696 33.1944 7.80481C33.2365 7.80095 33.3126 8.01694 33.5321 8.76711C33.7511 9.51514 33.8754 9.92479 33.9993 10.3057C34.0697 10.5221 34.1768 10.8605 34.237 11.0571C34.2976 11.2538 34.4064 11.5986 34.479 11.8236L34.6109 12.232L35.2082 12.1942C35.537 12.1732 36.153 12.1092 36.5778 12.0521C37.0021 11.9945 37.7486 11.9168 38.2372 11.8786C38.7252 11.8408 39.2186 11.7901 39.3332 11.7665L39.5416 11.7231L39.497 12.3205C39.4562 12.8632 39.4116 13.3004 39.1646 15.5659C39.0483 16.6291 39.0213 16.5488 39.5487 16.7013C39.8023 16.7743 40.1921 16.8911 40.4151 16.9598C40.9006 17.1101 41.3608 17.2419 42.4436 17.5416C42.8896 17.6648 43.3454 17.7975 43.456 17.837L43.6573 17.9083L43.352 18.4545C43.1843 18.7551 42.9378 19.1944 42.8051 19.4306C42.6719 19.6667 42.4772 20.021 42.3714 20.2177C42.2661 20.4148 42.1046 20.7046 42.013 20.8618C41.9214 21.0194 41.7373 21.3406 41.6037 21.5759L41.3608 22.0036L41.5701 22.1736C41.6856 22.2672 41.8502 22.4012 41.9365 22.4716C42.0227 22.5416 42.3201 22.7718 42.5975 22.983C42.8746 23.1939 43.1856 23.4429 43.2887 23.5357C43.3918 23.6284 43.6171 23.8028 43.7892 23.9234C43.9618 24.0441 44.1029 24.1691 44.1029 24.2021C44.1029 24.2348 44.1525 24.2614 44.2136 24.2614C44.2742 24.2614 44.3242 24.2872 44.3242 24.3189C44.3242 24.3507 44.522 24.5195 44.7636 24.6947C45.2941 25.0785 45.2875 25.0326 44.8578 25.3504C44.6649 25.4934 44.4242 25.6793 44.3233 25.7635C43.9109 26.1065 43.8224 26.1774 43.2914 26.5883C42.9874 26.8241 42.7051 27.0521 42.6648 27.095C42.6241 27.1384 42.3816 27.3265 42.1258 27.5137C41.3178 28.1054 41.3333 28.0698 41.644 28.6207C41.7904 28.8801 41.9971 29.2532 42.1033 29.4499C42.209 29.647 42.3144 29.8239 42.3369 29.8437C42.3595 29.8634 42.4444 30.0081 42.5254 30.1657C42.8064 30.7111 43.4587 31.8838 43.5591 32.0246C43.7082 32.2325 43.6883 32.2655 43.3839 32.3192C43.2317 32.3458 42.9909 32.4081 42.8489 32.4579C42.7073 32.5073 42.3254 32.6176 42.0011 32.7031C41.6763 32.7885 41.2948 32.9015 41.1528 32.9539C41.0107 33.0063 40.6789 33.1046 40.4151 33.1724C40.1514 33.2403 39.8107 33.3403 39.658 33.3944C39.5049 33.449 39.3142 33.4936 39.2337 33.4936C39.0615 33.4936 39.0562 33.5688 39.1593 34.5178C39.3478 36.25 39.4558 37.2999 39.4983 37.8165L39.5447 38.382L39.1505 38.333C38.9337 38.306 38.3907 38.2545 37.9447 38.2188C37.4986 38.1827 36.8844 38.1213 36.5804 38.0823C36.276 38.0432 35.7078 37.9904 35.3175 37.965L34.6078 37.9187L34.5166 38.1574C34.4662 38.2888 34.3989 38.5087 34.3671 38.6465C34.3347 38.7843 34.2741 38.9935 34.2321 39.1116C34.1896 39.2296 34.0361 39.7127 33.89 40.1851C33.7445 40.6574 33.5803 41.189 33.5254 41.3659C33.4705 41.5433 33.3869 41.8267 33.3396 41.9959C33.2396 42.3527 33.198 42.3523 32.524 41.986C32.301 41.8645 32.0023 41.7056 31.8603 41.6322C31.7182 41.5592 31.37 41.375 31.0859 41.2238C30.8018 41.0722 30.3208 40.8249 30.0164 40.6742C29.7124 40.5234 29.446 40.3779 29.4252 40.3508C29.161 40.012 28.9743 40.1159 28.2415 41.0082C27.9021 41.4213 27.6052 41.7756 27.5813 41.7953C27.5579 41.8151 27.341 42.0719 27.0994 42.3656C26.8583 42.6593 26.6109 42.95 26.5503 43.0119C26.4892 43.0737 26.3233 43.2751 26.1817 43.4597C25.8303 43.9158 25.852 43.9239 25.1861 43.0836C24.983 42.8281 24.7675 42.5696 24.7064 42.5099C24.6458 42.4502 24.4135 42.1762 24.1909 41.9014C23.9679 41.6266 23.7355 41.3475 23.6745 41.2809C23.6134 41.2144 23.3975 40.9511 23.1948 40.6956C22.9917 40.4401 22.7828 40.2134 22.7302 40.1915C22.6483 40.1572 21.9377 40.4603 21.8301 40.5754C21.8102 40.5969 21.6107 40.7077 21.3876 40.8215C21.1646 40.9352 20.7332 41.1585 20.4292 41.3178C20.1247 41.4776 19.7433 41.6725 19.5809 41.7511C19.4185 41.8301 19.2694 41.9126 19.249 41.9345C19.2287 41.9564 19.0384 42.0607 18.8265 42.1668L18.441 42.3587L18.3565 42.0594C18.3096 41.8945 18.2304 41.6309 18.18 41.4733C18.0782 41.1568 17.9609 40.7686 17.6277 39.6483C17.5047 39.2352 17.3574 38.7521 17.3003 38.5748C17.2432 38.3979 17.1755 38.1613 17.1503 38.0496C17.1193 37.9127 17.0697 37.859 16.9994 37.8852C16.9414 37.9066 16.6361 37.9431 16.3201 37.9659C16.0042 37.9891 15.3143 38.0531 14.7873 38.1089C13.0173 38.2957 12.158 38.3734 12.1332 38.3489C12.1195 38.3356 12.1566 37.9058 12.2155 37.3939C12.6487 33.6448 12.6589 33.4936 12.4801 33.4936C12.4044 33.4936 12.196 33.449 12.0164 33.3949C11.8367 33.3403 11.4907 33.2386 11.2473 33.1681C11.0039 33.0981 10.6221 32.9848 10.399 32.9165C10.176 32.8487 9.79414 32.7366 9.55077 32.6674C9.30739 32.5987 8.98348 32.4987 8.83038 32.4454C8.67727 32.3922 8.49275 32.3484 8.42018 32.3484C8.15203 32.3484 8.02989 32.19 8.1445 31.9907C8.20114 31.8924 8.33566 31.6506 8.44363 31.4539C8.55116 31.2573 8.71488 30.9674 8.80737 30.8098C8.89941 30.6522 9.12508 30.2499 9.30872 29.9154C9.93618 28.7714 10.03 28.6061 10.0981 28.5267C10.3366 28.248 10.2751 28.0784 9.7968 27.6966C9.53971 27.4918 9.24677 27.2552 9.14544 27.171C9.0441 27.0865 8.7286 26.8426 8.44452 26.6287C8.16088 26.4144 7.8852 26.1976 7.8321 26.1461C7.779 26.095 7.53031 25.9013 7.27897 25.7162C6.55637 25.1833 6.4338 25.0515 6.5692 24.9523C7.00374 24.6337 7.64669 24.1463 7.71351 24.0849C7.75731 24.0441 7.93697 23.8981 8.11264 23.7603C8.28831 23.6224 8.46797 23.4773 8.51222 23.4374C8.55603 23.3974 8.74144 23.2527 8.92419 23.1157C9.1065 22.9792 9.32244 22.8074 9.40341 22.7348C9.48439 22.6618 9.69148 22.5038 9.86317 22.3827C10.2765 22.0925 10.2982 21.9847 10.0366 21.5308C9.91539 21.3204 9.73219 20.9872 9.62909 20.7905C9.52643 20.5934 9.27509 20.1425 9.07065 19.7883C8.86666 19.434 8.64851 19.0475 8.58656 18.9294C8.52417 18.8114 8.3777 18.5395 8.26088 18.3248C8.01927 17.8813 8.02459 17.8486 8.35336 17.7855C8.48479 17.7602 8.74144 17.6936 8.92419 17.6374C9.1065 17.5811 9.60431 17.4377 10.0304 17.3187C10.4561 17.2002 11.0039 17.0418 11.2473 16.9671C11.4907 16.8923 11.8978 16.7717 12.1522 16.6995L12.6151 16.5677L12.5739 16.067C12.5239 15.4641 12.3483 13.8118 12.2084 12.6322C12.1522 12.1603 12.112 11.7691 12.1195 11.7631C12.1385 11.7463 13.3709 11.8666 14.7873 12.0224C15.4767 12.0989 16.2808 12.1783 16.5741 12.1998L17.1073 12.2389L17.1525 12.0418C17.1777 11.9331 17.2405 11.7154 17.2923 11.5583C17.3441 11.4007 17.4392 11.0945 17.5038 10.8781C17.7224 10.1442 18.0755 8.9831 18.1786 8.65976C18.2348 8.48242 18.3021 8.23336 18.3282 8.10583C18.3946 7.78034 18.4512 7.77046 18.8942 8.00835C19.1097 8.12429 19.5349 8.34071 19.8389 8.48972C20.1433 8.63872 20.438 8.79416 20.4942 8.83539C20.6212 8.92857 21.7354 9.51771 22.2558 9.7672C22.7112 9.98534 22.7412 9.97503 23.1678 9.44686C23.3426 9.23044 23.528 9.02733 23.5798 8.99599C23.6316 8.96464 23.674 8.89207 23.674 8.83496C23.674 8.77785 23.7006 8.73104 23.7325 8.73104C23.7648 8.73104 23.9117 8.57817 24.0586 8.39138C24.2055 8.20416 24.4117 7.95467 24.517 7.83659C24.6223 7.7185 24.9489 7.32602 25.2423 6.96446C25.887 6.17006 25.7887 6.18037 26.3374 6.85239ZM122.46 11.1825C122.319 11.3388 122.314 11.4822 122.294 16.0142L122.275 20.6853L121.889 20.4053C121.481 20.1095 120.547 19.6543 120.176 19.571C120.054 19.5435 119.805 19.4795 119.623 19.4284C118.833 19.2081 117.591 19.09 116.441 19.1261C115.186 19.1656 114.538 19.2747 113.465 19.6277C112.378 19.9849 110.855 21.0005 110.318 21.727C110.189 21.9009 110.057 22.0426 110.023 22.0426C109.989 22.0426 109.962 22.0912 109.962 22.15C109.962 22.2093 109.937 22.2578 109.906 22.2578C109.855 22.2582 109.715 22.4622 109.462 22.9015C109.309 23.1685 108.807 24.3425 108.757 24.5478C108.734 24.6461 108.647 24.9682 108.564 25.2632C107.99 27.3162 108.05 31.5497 108.679 33.3171C108.735 33.476 108.783 33.6529 108.784 33.7109C108.785 33.7684 108.851 33.9445 108.929 34.1021C109.008 34.2593 109.073 34.4117 109.074 34.4405C109.082 34.6122 109.818 35.9258 109.906 35.9266C109.937 35.9266 109.962 35.964 109.962 36.0091C109.962 36.5506 112.75 38.6465 113.47 38.6465C113.533 38.6465 113.644 38.677 113.716 38.7144C114.422 39.0815 117.238 39.2022 118.775 38.9316C120.268 38.6684 120.952 38.4121 121.772 37.8083L122.262 37.4472L122.291 37.886C122.342 38.659 122.31 38.6465 124.285 38.6465C125.867 38.6465 125.974 38.6379 126.113 38.5035C126.259 38.3614 126.26 38.2648 126.26 24.6908V11.0215H124.433C122.63 11.0215 122.604 11.0236 122.46 11.1825ZM149.711 11.2379C149.47 11.4715 149.522 34.8948 149.765 35.6845C150.483 38.0191 151.933 38.8612 155.238 38.8612C156.96 38.8612 156.824 39.0089 156.849 37.1183C156.875 35.2203 156.938 35.3302 155.795 35.28C154.775 35.2349 154.371 35.1301 154.034 34.8226C153.512 34.346 153.548 35.2611 153.548 22.5425V11.0928H151.704C149.95 11.0928 149.853 11.1001 149.711 11.2379ZM73.4787 12.0813C73.1482 12.2118 72.6442 12.6051 72.6442 12.7327C72.6442 12.7756 72.615 12.8104 72.5791 12.8104C72.4973 12.8104 72.1322 13.5447 71.7964 14.385C71.7256 14.562 71.6402 14.7715 71.6065 14.8501C71.5733 14.9291 71.4742 15.1704 71.3866 15.3868C71.299 15.6033 71.1994 15.845 71.1654 15.9236C71.1313 16.0026 71.0313 16.2439 70.9437 16.4604C70.856 16.6768 70.668 17.1277 70.5251 17.4626C70.3826 17.7971 70.2388 18.135 70.2051 18.2141C70.1719 18.2926 70.0728 18.5344 69.9852 18.7508C69.898 18.9672 69.7985 19.2086 69.764 19.2876C69.7299 19.3662 69.6312 19.6079 69.5449 19.8243C69.4586 20.0408 69.3453 20.3143 69.2931 20.4324C69.2082 20.6247 68.9657 21.1916 68.8033 21.5776C68.7701 21.6562 68.671 21.8979 68.5829 22.1144C68.4949 22.3308 68.3767 22.6095 68.321 22.7336C68.2648 22.8577 68.2192 22.9916 68.2192 23.032C68.2192 23.0719 68.1701 23.196 68.1103 23.3072C68.0024 23.5082 67.9426 23.6456 67.6338 24.4044C67.5457 24.6208 67.4439 24.8626 67.4081 24.9411C67.3196 25.1344 66.8368 26.2865 66.6585 26.7305C66.5797 26.9271 66.4872 27.1526 66.454 27.2316C66.4204 27.3102 66.3363 27.5193 66.2669 27.6966C66.1974 27.8736 66.0974 28.1153 66.0452 28.2334C65.8651 28.6379 65.4301 29.6646 65.2721 30.0584C65.185 30.2748 65.0863 30.5166 65.0527 30.5951C65.019 30.6737 64.9336 30.8833 64.8628 31.0602C64.792 31.2375 64.6911 31.4789 64.6389 31.5969C64.4871 31.9383 64.0438 32.9921 63.8707 33.4219C63.7836 33.6383 63.6849 33.8801 63.6513 33.9587C63.6181 34.0377 63.5327 34.2468 63.4619 34.4242C63.3911 34.6011 63.2906 34.8428 63.2384 34.9609C63.1866 35.079 63.0871 35.3203 63.0176 35.4977C62.9481 35.6746 62.8326 35.9485 62.7609 36.1057C62.6893 36.2633 62.5238 36.6498 62.3932 36.9645C62.2631 37.2797 62.1056 37.6567 62.0437 37.8023C61.9817 37.9483 61.9268 38.19 61.922 38.3391L61.9136 38.6109L63.7203 38.6311C64.7141 38.6418 65.596 38.6345 65.6806 38.6147C65.8598 38.5722 65.9921 38.3249 66.5625 36.9645C66.7111 36.6103 66.8607 36.256 66.8952 36.1774C66.9293 36.0988 67.0289 35.8571 67.1165 35.6407C67.2041 35.4242 67.3036 35.1825 67.3382 35.1039C67.3731 35.0253 67.4873 34.7514 67.5922 34.4954C67.697 34.2395 67.813 33.966 67.8488 33.8874C68.1391 33.2566 68.4404 32.5215 68.4404 32.4429C68.4404 32.3643 69.4343 32.351 74.1239 32.366L79.8069 32.3845L79.9065 32.5631C79.9609 32.6619 80.1277 33.032 80.2773 33.3863C80.4269 33.7405 80.5919 34.127 80.6437 34.2451C80.6955 34.3632 80.7959 34.6045 80.8667 34.7818C81.0751 35.3032 81.1048 35.3744 81.2561 35.7124C81.3358 35.8893 81.4747 36.2113 81.5654 36.4278C81.6566 36.6442 81.773 36.9181 81.8243 37.0362C81.8756 37.1543 82.0274 37.5086 82.1615 37.8233C82.5451 38.7259 82.3256 38.6517 84.5488 38.6298C86.8644 38.607 86.7785 38.7083 85.9568 36.9645C85.901 36.8464 85.7373 36.4565 85.5926 36.098C85.4479 35.739 85.2612 35.2881 85.1771 35.0957C84.982 34.6483 84.9324 34.5302 84.7753 34.1377C84.7045 33.9604 84.6041 33.7191 84.5523 33.601C84.5001 33.4829 84.401 33.2411 84.3315 33.0642C84.262 32.8869 84.1775 32.6778 84.1434 32.5992C84.1098 32.5202 83.9943 32.2466 83.8872 31.9907C83.7801 31.7348 83.6505 31.429 83.5987 31.311C83.5474 31.1929 83.4469 30.9511 83.3753 30.7742C83.304 30.5969 83.2031 30.3555 83.1509 30.2374C83.0991 30.1194 82.9996 29.8776 82.9301 29.7007C82.8606 29.5233 82.7766 29.3142 82.7429 29.2352C82.7097 29.1566 82.5615 28.8024 82.4137 28.4481C82.0761 27.6395 81.869 27.1491 81.7491 26.8735C81.6973 26.7554 81.5982 26.5141 81.5283 26.3367C81.4588 26.1598 81.3561 25.9103 81.3004 25.7823C81.2446 25.6544 81.1535 25.4448 81.0977 25.3169C81.0419 25.1889 80.9389 24.9394 80.8685 24.7625C80.7198 24.3868 80.4968 23.8582 80.2954 23.4026C80.1361 23.0414 80.091 22.9324 79.9105 22.4721C79.841 22.2951 79.7414 22.0534 79.6897 21.9353C79.6375 21.8172 79.545 21.5918 79.4839 21.4346C79.3689 21.1392 78.9007 20.0249 78.7317 19.6453C78.6794 19.5272 78.5794 19.2859 78.5095 19.1085C78.44 18.9312 78.3405 18.6898 78.2883 18.5718C78.2365 18.4537 78.1352 18.2119 78.0639 18.035C77.9927 17.8576 77.8927 17.6163 77.8422 17.4982C77.7918 17.3801 77.6604 17.0602 77.5497 16.7876C77.4391 16.5149 77.3223 16.2409 77.2904 16.1791C77.2581 16.1173 77.1745 15.9219 77.1041 15.745C77.0342 15.5676 76.9342 15.3263 76.882 15.2082C76.8302 15.0901 76.7307 14.8484 76.6612 14.6715C76.5917 14.4941 76.5072 14.285 76.4736 14.206C76.4395 14.1274 76.324 13.8543 76.216 13.5992C75.6443 12.2449 74.5722 11.6501 73.4787 12.0813ZM74.366 19.2339C74.4407 19.4207 74.5465 19.6702 74.6009 19.7883C74.6558 19.9063 74.854 20.3735 75.0421 20.8261C75.2306 21.2787 75.5169 21.955 75.6788 22.3291C76.0519 23.1913 76.0444 23.1728 76.3652 23.9393C76.7462 24.8497 77.1949 25.9026 77.4095 26.3904C77.6515 26.9413 77.7214 27.1062 77.8418 27.4102C77.9117 27.5876 78.0029 27.7945 78.0445 27.8706C78.0856 27.9466 78.1453 28.0917 78.1768 28.1926C78.2082 28.2939 78.2573 28.4331 78.2861 28.5018C78.3356 28.6203 78.1122 28.6272 74.2005 28.6272C69.7569 28.6272 69.9308 28.6418 70.1339 28.2862C70.1728 28.2179 70.3259 27.8718 70.4742 27.5176C70.6224 27.1633 70.9025 26.5033 71.0968 26.0507C71.291 25.5977 71.5711 24.9377 71.7194 24.5834C71.8676 24.2292 72.0158 23.8749 72.0495 23.7963C72.0826 23.7173 72.1685 23.5082 72.2393 23.3309C72.3105 23.1539 72.4362 22.8641 72.519 22.6868C72.6017 22.5098 72.6951 22.3003 72.7265 22.2217C72.8172 21.9933 73.3137 20.8128 73.4261 20.5578C73.6482 20.0549 73.7367 19.8475 73.8606 19.5379C74.1651 18.7757 74.1788 18.7676 74.366 19.2339ZM165.68 19.0797C164.729 19.1506 163.084 19.5435 162.213 19.9076C161.576 20.1743 160.838 20.532 160.775 20.6046C160.755 20.6282 160.651 20.6913 160.544 20.7445C160.24 20.8966 159.835 21.2744 159.779 21.4595C159.729 21.6244 159.924 22.2565 160.026 22.2582C160.053 22.2586 160.141 22.3956 160.221 22.5627C160.302 22.7293 160.388 22.8821 160.413 22.9015C160.438 22.9212 160.598 23.1849 160.768 23.4872C161.212 24.2751 161.394 24.2996 162.346 23.7006C162.846 23.3863 163.02 23.2969 163.651 23.0324C164.621 22.6249 165.499 22.4768 166.933 22.4776C167.583 22.4781 168.246 22.506 168.408 22.5395C168.571 22.5734 168.877 22.6352 169.089 22.6773C170.716 23.0011 171.758 24.331 171.677 25.979L171.654 26.4441L168.187 26.4861C163.95 26.5377 163.377 26.6231 161.599 27.4738C157.942 29.2215 157.391 34.9042 160.618 37.5846C160.846 37.7744 161.057 37.9298 161.085 37.9303C161.113 37.9307 161.284 38.0273 161.465 38.1454C161.645 38.2635 161.817 38.3601 161.847 38.3601C161.877 38.3601 162.038 38.4206 162.205 38.4941C163.961 39.27 167.352 39.2945 169.22 38.5447C169.932 38.2588 170.953 37.6808 170.953 37.5631C170.953 37.5292 170.988 37.5013 171.032 37.5013C171.076 37.5013 171.23 37.3725 171.376 37.2153C171.664 36.9035 171.764 36.8615 171.764 37.0521C171.764 38.4528 172.59 38.8646 175.396 38.8625L177 38.8612V37.4029C177 35.7295 177.027 35.7965 176.337 35.7175C175.541 35.6265 175.606 36.1079 175.575 30.0227C175.545 24.3155 175.514 23.9222 174.989 22.6155C173.902 19.9098 170.727 18.7036 165.68 19.0797ZM136.954 19.1424C136.893 19.157 136.578 19.2051 136.254 19.2498C135.03 19.4181 133.425 19.9635 132.966 20.3662C132.902 20.4225 132.825 20.4684 132.794 20.4684C132.715 20.4684 131.86 21.1138 131.657 21.3264C131.563 21.4252 131.345 21.651 131.173 21.8279C130.729 22.2857 130.374 22.8353 129.833 23.9037C128.623 26.2929 128.507 31.2766 129.6 33.8874C129.975 34.7823 130.629 35.9271 130.765 35.9271C130.802 35.9271 130.833 35.9632 130.833 36.0078C130.833 36.113 132.042 37.2866 132.151 37.2866C132.197 37.2866 132.234 37.3149 132.234 37.3493C132.234 37.5554 134.117 38.4451 135.184 38.744C136.847 39.209 139.471 39.2065 141.232 38.7384C142.214 38.4769 143.443 38.0045 143.652 37.8079C143.706 37.7572 143.78 37.716 143.816 37.716C144.009 37.716 145.125 36.8804 145.785 36.241C146.81 35.2499 146.814 35.176 145.897 34.3769C145.543 34.0682 145.166 33.7354 145.06 33.6366C144.237 32.8714 144.106 32.8727 143.296 33.6534C141.437 35.4457 138.444 36.01 135.887 35.0507C135.564 34.9291 135.265 34.8037 135.223 34.7711C135.181 34.7389 135.043 34.6316 134.915 34.5324C134.788 34.4336 134.663 34.3524 134.638 34.3524C134.45 34.3524 133.622 33.2922 133.377 32.7383C133.174 32.2771 132.892 31.3204 132.931 31.2225C132.96 31.1504 134.327 31.1319 139.657 31.1319C144.634 31.1319 146.408 31.11 146.589 31.0469C146.918 30.9314 146.933 30.8274 146.877 28.9977C146.815 27.0079 146.681 26.0688 146.266 24.7264C146.082 24.133 145.676 23.2699 145.384 22.8525C145.291 22.7185 145.214 22.5781 145.214 22.5408C145.214 22.503 145.183 22.4721 145.145 22.4721C145.108 22.4721 145.056 22.4094 145.031 22.3325C144.792 21.6012 142.562 20.0558 141.06 19.58C140.037 19.2562 137.582 18.9947 136.954 19.1424ZM96.9445 19.2695C95.3891 19.4739 93.8125 20.2533 92.8943 21.2719L92.5567 21.6467V20.7372V19.8278L92.331 19.7148C91.969 19.5332 89.022 19.589 88.803 19.7814L88.6476 19.9179V29.1639C88.6476 38.0303 88.6534 38.4146 88.7826 38.528C88.9804 38.7015 92.2624 38.7071 92.4408 38.534C92.5439 38.434 92.5567 37.8233 92.5567 32.8929C92.5567 26.3779 92.5576 26.3668 93.2076 25.0485C94.6316 22.1607 99.6876 22.0023 101.108 24.8012C101.748 26.0632 101.77 26.3333 101.773 32.8517C101.775 37.6902 101.789 38.3468 101.89 38.4876C102.003 38.6444 102.029 38.6465 103.752 38.6444L105.5 38.6422L105.631 38.4662C105.804 38.2364 105.789 26.0469 105.615 25.1558C105.375 23.9273 104.96 22.8744 104.381 22.0328C104.053 21.5548 103.232 20.6831 103.11 20.6831C103.074 20.6831 103.026 20.6346 103.002 20.5758C102.979 20.5165 102.909 20.4684 102.847 20.4684C102.785 20.4684 102.734 20.4384 102.734 20.4015C102.734 20.365 102.668 20.3143 102.587 20.2894C102.506 20.2645 102.397 20.2061 102.346 20.1593C102.176 20.006 101.59 19.7548 100.743 19.4722C99.9796 19.2176 98.1016 19.1175 96.9445 19.2695ZM118.812 22.6352C119.075 22.7284 119.39 22.8559 119.512 22.9186C119.634 22.9818 119.839 23.0865 119.967 23.1518C120.733 23.5404 121.733 24.8119 122.148 25.9258C122.401 26.6029 122.406 31.4703 122.156 32.2097C120.756 36.3354 115.287 37.0749 112.93 33.4563C112.879 33.3786 112.804 33.2343 112.762 33.1359C112.721 33.0376 112.658 32.8925 112.622 32.8139C112.237 31.9705 112.101 31.0044 112.103 29.1279C112.107 26.4213 112.517 25.1017 113.76 23.8066C114.935 22.5811 117.183 22.0598 118.812 22.6352ZM138.982 22.6494C141.35 23.0165 142.749 24.5212 142.999 26.9701C143.115 28.1097 143.746 27.9869 137.885 27.9655L132.861 27.947L132.885 27.3746C132.921 26.5244 133.374 25.0966 133.76 24.6199C135.083 22.9856 136.85 22.3188 138.982 22.6494ZM171.573 29.6006C171.751 29.6668 171.746 32.4394 171.568 32.9569C171.288 33.7689 170.697 34.556 170.105 34.9042C169.627 35.1855 168.981 35.4311 168.286 35.5956C167.223 35.8476 164.563 35.6866 164.208 35.3495C164.17 35.3126 164.094 35.283 164.039 35.283C163.831 35.283 162.957 34.5822 162.834 34.3168C162.797 34.2378 162.738 34.1253 162.702 34.066C162.464 33.6735 162.398 33.379 162.398 32.719C162.398 30.7252 163.632 29.7775 166.417 29.632C167.658 29.5671 171.422 29.5444 171.573 29.6006Z" fill="#050505"/>
</g>
<defs>
<clipPath id="clip0_8885_757">
<rect width="177" height="50.1223" fill="white"/>
</clipPath>
</defs>
</svg>
