<svg width="188" height="35" viewBox="0 0 188 35" fill="none" xmlns="http://www.w3.org/2000/svg">
<path d="M18.0525 4.88461C17.0753 3.63144 15.8084 2.63432 14.3607 1.97895C12.824 1.2508 10.8931 0.886719 8.56794 0.886719H0.0619812V26.8359H8.49373C10.5762 26.8359 12.3749 26.5028 13.89 25.8365C15.3373 25.221 16.6241 24.2817 17.6513 23.0908C18.6656 21.8887 19.4147 20.4861 19.8497 18.9746C20.3352 17.3022 20.5743 15.5679 20.5593 13.8265C20.5662 12.2109 20.3802 10.6001 20.0051 9.0286C19.6514 7.52757 18.9896 6.11641 18.0618 4.88461M18.034 19.4384C17.5086 20.7946 16.6815 22.0135 15.6153 23.0027C14.6577 23.8673 13.5227 24.5123 12.2899 24.8926C11.1088 25.2609 9.87926 25.45 8.64215 25.4538H1.66207V2.2781H8.31286C9.02265 2.28364 9.73167 2.32621 10.437 2.40564C11.2411 2.49166 12.0335 2.66506 12.8001 2.92277C13.6098 3.2028 14.3794 3.58795 15.0889 4.06834C15.871 4.61135 16.5385 5.30322 17.053 6.10439C17.6789 7.08561 18.1483 8.15819 18.4444 9.28369C18.8183 10.7682 18.9914 12.2961 18.9592 13.8265C18.9592 16.0806 18.65 17.9512 18.0316 19.4384" fill="#050505"/>
<path d="M35.4591 10.427C34.7758 9.5866 33.9129 8.90991 32.9338 8.44661C31.8444 7.94368 30.6549 7.69546 29.4553 7.72077C28.1685 7.69189 26.8936 7.97263 25.738 8.53937C24.7097 9.06255 23.8101 9.80698 23.1037 10.7192C22.3823 11.6613 21.8457 12.7314 21.5221 13.873C21.1683 15.0953 20.9911 16.3619 20.9957 17.6343C20.9846 18.9174 21.1555 20.1955 21.5036 21.4305C21.8097 22.5406 22.3348 23.5782 23.048 24.4822C23.7431 25.3481 24.6256 26.0451 25.629 26.5206C26.7636 27.0372 28.0003 27.2909 29.2466 27.2627C31.496 27.2627 33.3071 26.6822 34.6799 25.5211C36.0528 24.3601 36.9425 22.6881 37.3491 20.5052H35.9577C35.5449 22.2522 34.792 23.615 33.699 24.5936C32.606 25.5722 31.1242 26.063 29.2536 26.0661C28.2112 26.089 27.1781 25.8649 26.2389 25.4122C25.3947 24.991 24.6585 24.3817 24.0869 23.6312C23.4988 22.8455 23.0609 21.9579 22.7953 21.0131C22.4998 19.9976 22.3521 18.9447 22.357 17.8871V17.6761H37.4766C37.4766 17.581 37.4766 17.4442 37.4929 17.2935C37.5091 17.1427 37.5114 16.9989 37.5114 16.8784C37.521 15.6771 37.3434 14.4816 36.985 13.335C36.6566 12.2776 36.1328 11.2912 35.4406 10.427M22.4126 16.4795C22.4848 15.5122 22.6812 14.5582 22.997 13.6411C23.29 12.7585 23.7462 11.9388 24.342 11.2247C24.9383 10.5257 25.6725 9.95729 26.4986 9.55507C27.42 9.1171 28.4307 8.89956 29.4507 8.91968C30.4139 8.90314 31.3674 9.1145 32.2334 9.53652C33.0365 9.9366 33.7473 10.4997 34.3205 11.1899C34.9011 11.9004 35.3411 12.715 35.6168 13.5901C35.9128 14.5266 36.0836 15.4982 36.1247 16.4795H22.4126Z" fill="#050505"/>
<path d="M60.7334 8.31912C59.9801 8.51136 59.2584 8.81128 58.5907 9.2096C57.9719 9.57986 57.4187 10.05 56.9535 10.601C56.5255 11.0977 56.2092 11.6805 56.0259 12.3101H55.9169V8.15679H54.5256V25.5351C54.2014 25.5918 53.8736 25.6251 53.5446 25.6348C53.2868 25.6511 53.0309 25.5818 52.8165 25.4377C52.6467 25.3002 52.5203 25.1166 52.4524 24.909C52.3791 24.6735 52.3362 24.4296 52.3249 24.1832C52.3249 23.9165 52.3086 23.6498 52.3086 23.3831V12.5188C52.3313 11.8599 52.204 11.2045 51.9365 10.6019C51.669 9.99935 51.2681 9.4654 50.7642 9.04032C49.7346 8.15447 48.0935 7.71233 45.841 7.71387C43.5886 7.71542 41.8563 8.23255 40.6442 9.26526C39.4198 10.2949 38.7597 11.8409 38.6638 13.9032H40.0552C40.1387 12.2273 40.696 10.9805 41.7272 10.1627C42.7584 9.34488 44.1088 8.93287 45.7784 8.92669C46.5874 8.90977 47.3946 9.00736 48.1762 9.21656C48.7578 9.37344 49.3019 9.64549 49.7763 10.0166C50.1664 10.3261 50.4779 10.7234 50.6854 11.1761C50.8824 11.6214 50.982 12.1037 50.9775 12.5907C50.9835 13.1384 50.9471 13.6857 50.8685 14.2278C50.8097 14.6363 50.6172 15.0139 50.3213 15.3015C49.9521 15.6235 49.5093 15.8497 49.0319 15.9601C48.2636 16.1468 47.4794 16.2609 46.6898 16.301L44.5447 16.4842C43.7573 16.5634 42.9747 16.685 42.2003 16.8483C41.4182 17.006 40.6685 17.2953 39.9833 17.704C39.3094 18.1075 38.7411 18.6655 38.3253 19.3319C37.8916 20.0276 37.6736 20.9111 37.6736 22.0033C37.6736 23.7967 38.2186 25.1223 39.3085 25.9804C40.3984 26.8384 41.9374 27.2681 43.9256 27.2697C44.7592 27.2787 45.59 27.1694 46.3929 26.945C47.1064 26.7427 47.7862 26.4364 48.4104 26.036C48.9784 25.6725 49.4874 25.2244 49.9201 24.7072C50.3168 24.234 50.6361 23.701 50.8662 23.128H50.9358V24.1066C50.9339 24.4666 50.9649 24.826 51.0286 25.1803C51.0784 25.4877 51.1965 25.7801 51.3741 26.036C51.564 26.2942 51.8216 26.4949 52.1185 26.6157C52.5414 26.7772 52.9926 26.8513 53.4449 26.8337C53.8125 26.8343 54.1787 26.7883 54.5348 26.6969V26.8337H55.9262V16.6303C55.9406 16.0212 56.0018 15.4142 56.1094 14.8145C56.1933 14.3381 56.327 13.8717 56.5083 13.4232C56.6722 13.0232 56.8857 12.6453 57.1437 12.2985C57.4217 11.9306 57.7197 11.5784 58.0365 11.2433C58.7726 10.4871 59.6934 9.93634 60.7079 9.64557C61.5164 9.4137 62.362 9.33969 63.1985 9.42759V8.03621C62.3711 8.01125 61.5443 8.10338 60.7427 8.30984M50.9381 19.7145C50.9081 20.1827 50.8422 20.6478 50.741 21.1059C50.5752 21.8747 50.2601 22.6035 49.8134 23.2509C49.2645 24.0513 48.5455 24.7204 47.7078 25.2105C46.7802 25.7809 45.5326 26.0662 43.965 26.0662C42.4391 26.0662 41.2402 25.733 40.3683 25.0667C39.4963 24.4004 39.0596 23.3769 39.0581 21.9964C39.0256 21.254 39.2015 20.5174 39.5659 19.8699C39.8939 19.3356 40.3508 18.8923 40.8947 18.5805C41.4659 18.2582 42.0865 18.0325 42.7313 17.9127C43.4084 17.7805 44.0879 17.6808 44.765 17.6066L47.084 17.3863C47.8584 17.3265 48.6283 17.2181 49.3891 17.0616C49.9847 16.968 50.53 16.6725 50.9335 16.2245L50.9381 19.7145Z" fill="#050505"/>
<path d="M72.1611 0.886719H63.2563V26.8359H72.1611C74.3177 26.8359 76.1829 26.5329 77.7567 25.9269C79.2482 25.3786 80.5832 24.4743 81.6456 23.2925C82.7068 22.0622 83.4772 20.6085 83.8997 19.0396C84.4106 17.1504 84.6549 15.199 84.6255 13.2422C84.6255 9.06802 83.5433 5.96757 81.379 3.94079C79.2146 1.91402 76.142 0.895995 72.1611 0.886719ZM80.6856 17.8152C80.4148 18.8133 79.9917 19.7636 79.431 20.6327C78.9728 21.3301 78.3866 21.9344 77.7034 22.4137C77.1011 22.8286 76.448 23.1645 75.7601 23.4131C75.1609 23.6302 74.5382 23.7758 73.9049 23.8468C73.4222 23.9029 72.9369 23.9339 72.4509 23.9395H66.7092V3.7947H72.5252C74.1252 3.7947 75.4695 4.01887 76.5578 4.4672C77.6022 4.88061 78.5223 5.55631 79.2293 6.42904C79.9482 7.3499 80.4571 8.41679 80.7204 9.55501C81.0375 10.9194 81.1894 12.3169 81.1726 13.7175C81.2011 15.0994 81.0372 16.4785 80.6856 17.8152Z" fill="#050505"/>
<path d="M115.985 17.5834C115.382 17.1674 114.721 16.8424 114.024 16.6187C113.278 16.375 112.52 16.1692 111.753 16.0018C111.025 15.8326 110.299 15.6702 109.571 15.5102C108.903 15.3703 108.246 15.1764 107.609 14.9305C107.08 14.7316 106.593 14.4359 106.172 14.0586C105.988 13.8901 105.843 13.6843 105.747 13.4551C105.65 13.2259 105.603 12.9785 105.61 12.7298C105.592 12.3075 105.72 11.8918 105.974 11.5541C106.23 11.2433 106.552 10.9951 106.918 10.8282C107.329 10.6406 107.763 10.5117 108.21 10.4456C108.67 10.3744 109.135 10.338 109.601 10.3366C110.109 10.3367 110.615 10.3919 111.111 10.5013C111.589 10.603 112.048 10.7808 112.47 11.0277C112.909 11.2769 113.277 11.6349 113.538 12.0674C113.8 12.5 113.945 12.9924 113.961 13.4974H117.052C117.016 12.5062 116.768 11.5343 116.324 10.6474C115.936 9.91035 115.367 9.28397 114.671 8.82697C113.947 8.36662 113.143 8.04718 112.301 7.88547C111.33 7.69531 110.342 7.60363 109.353 7.61183C108.514 7.61447 107.679 7.71802 106.865 7.92026C106.067 8.10915 105.305 8.42884 104.611 8.86639C103.951 9.28721 103.396 9.85264 102.988 10.5198C102.541 11.2491 102.313 12.0907 102.329 12.9455C102.329 14.1575 102.632 15.1021 103.238 15.7792C103.865 16.4721 104.641 17.0129 105.508 17.3608C106.465 17.7511 107.459 18.044 108.474 18.235C109.539 18.4414 110.524 18.6687 111.433 18.9307C112.239 19.1391 113.006 19.4766 113.704 19.9302C114.002 20.1287 114.244 20.4017 114.404 20.7222C114.565 21.0427 114.639 21.3995 114.62 21.7575C114.64 22.2703 114.487 22.775 114.186 23.1906C113.895 23.5659 113.513 23.8598 113.075 24.044C112.605 24.2434 112.111 24.3783 111.605 24.4452C111.098 24.5155 110.588 24.552 110.077 24.5542C109.461 24.5559 108.846 24.4945 108.242 24.371C107.68 24.2634 107.139 24.0611 106.645 23.7727C106.175 23.4982 105.781 23.1108 105.499 22.6457C105.196 22.1201 105.037 21.5245 105.035 20.918H99.1219C98.8506 22.1355 98.3079 23.0469 97.4824 23.6451C96.6568 24.2434 95.5669 24.5403 94.259 24.5403C93.3484 24.5618 92.4438 24.3879 91.6061 24.0301C90.8928 23.7214 90.2585 23.2552 89.7509 22.6665C89.2634 22.0956 88.9044 21.4266 88.6981 20.7047C88.4791 19.9465 88.3835 19.158 88.4152 18.3695H102.48C102.521 17.1609 102.417 15.9518 102.169 14.7682C101.922 13.5333 101.45 12.3543 100.778 11.2897C100.109 10.2181 99.201 9.31628 98.1247 8.65537C97.0255 7.95968 95.6396 7.61183 93.9668 7.61183C92.7476 7.59961 91.5397 7.84703 90.4234 8.33767C89.3593 8.81365 88.4066 9.50722 87.6268 10.3737C86.821 11.2748 86.198 12.3238 85.7925 13.4626C85.3423 14.7211 85.12 16.0498 85.1362 17.3863C85.1716 18.7296 85.3853 20.0623 85.7716 21.3494C86.1141 22.4963 86.6905 23.5599 87.4644 24.473C88.2253 25.3537 89.177 26.0493 90.2472 26.5068C91.4842 27.0181 92.8142 27.2661 94.1523 27.2349C96.2827 27.2349 98.0513 26.7015 99.4581 25.6348C100.689 24.7072 101.545 23.3622 102.009 21.6277C102.087 22.412 102.313 23.1745 102.675 23.8747C103.087 24.6617 103.687 25.3353 104.421 25.8366C105.181 26.3488 106.03 26.7131 106.925 26.9103C107.904 27.13 108.904 27.2389 109.907 27.2349C110.865 27.2336 111.819 27.1428 112.76 26.9636C113.67 26.7994 114.544 26.4726 115.338 25.9989C116.093 25.55 116.729 24.9275 117.194 24.1831C117.657 23.4318 117.901 22.4903 117.901 21.3494C117.929 20.5653 117.747 19.788 117.374 19.0977C117.028 18.4978 116.553 17.9822 115.983 17.588M88.879 13.5901C89.1353 12.9646 89.5057 12.3921 89.9712 11.9019C90.438 11.4107 91.0008 11.0208 91.6247 10.7563C92.3082 10.468 93.0442 10.3251 93.7859 10.3366C94.5162 10.3271 95.2405 10.47 95.9124 10.7563C96.5357 11.0224 97.103 11.404 97.5844 11.881C98.0662 12.3661 98.449 12.9403 98.7114 13.5716C98.9901 14.2293 99.1555 14.9295 99.2007 15.6424H88.4152C88.4572 14.9376 88.6139 14.2445 88.879 13.5901Z" fill="#050505"/>
<path d="M121.702 20.1851L122.608 8.88483V0.886719H119.158V8.88483L120.067 20.1851H121.702Z" fill="#050505"/>
<path d="M122.898 22.8008H118.865V26.8358H122.898V22.8008Z" fill="#050505"/>
<path d="M138.191 10.7354H138.154C137.638 9.73613 136.829 8.91874 135.835 8.39328C134.823 7.86702 133.697 7.59859 132.556 7.61179C130.933 7.61179 129.564 7.92099 128.451 8.53938C127.384 9.11195 126.46 9.91908 125.75 10.9001C125.071 11.8678 124.582 12.9552 124.307 14.1049C124.025 15.228 123.878 16.3811 123.871 17.5393C123.864 18.7763 124.043 20.0074 124.4 21.1916C124.724 22.2902 125.261 23.3144 125.979 24.2063C126.692 25.0729 127.586 25.7733 128.597 26.2586C129.747 26.79 131.002 27.051 132.268 27.0215C133.461 27.026 134.637 26.7462 135.7 26.2052C136.779 25.6626 137.633 24.7603 138.117 23.6544H138.191V24.8881C138.199 25.8538 138.095 26.8173 137.88 27.759C137.706 28.5654 137.365 29.3267 136.881 29.9944C136.424 30.6108 135.827 31.1093 135.139 31.4484C134.329 31.8164 133.445 31.9918 132.556 31.9609C132.02 31.9569 131.486 31.901 130.96 31.7939C130.422 31.692 129.902 31.514 129.414 31.2652C128.955 31.0337 128.548 30.7128 128.215 30.3214C127.882 29.9227 127.696 29.4216 127.688 28.9022H124.59C124.608 29.8262 124.887 30.7262 125.397 31.4971C125.877 32.1937 126.504 32.7763 127.234 33.2039C128.001 33.6505 128.836 33.97 129.706 34.15C130.583 34.3396 131.478 34.4368 132.375 34.4399C135.377 34.4399 137.582 33.6769 138.989 32.1511C140.396 30.6252 141.098 28.3201 141.097 25.2359V8.04776H138.191V10.7354ZM137.727 19.675C137.539 20.5051 137.215 21.2982 136.767 22.0218C136.332 22.708 135.74 23.2804 135.039 23.6915C134.247 24.1361 133.348 24.3558 132.44 24.3269C131.546 24.3626 130.661 24.1422 129.889 23.6915C129.222 23.2735 128.665 22.7008 128.266 22.0218C127.844 21.3043 127.549 20.52 127.392 19.7029C127.225 18.8628 127.14 18.0085 127.139 17.152C127.136 16.2829 127.24 15.4168 127.45 14.5733C127.635 13.7909 127.968 13.0511 128.43 12.3935C128.88 11.7672 129.471 11.2556 130.156 10.9001C130.946 10.5037 131.823 10.3101 132.707 10.3366C133.567 10.3107 134.418 10.5114 135.176 10.9186C135.843 11.2943 136.41 11.8239 136.83 12.4631C137.263 13.1238 137.577 13.8553 137.757 14.6243C137.949 15.4225 138.044 16.2408 138.04 17.0616C138.04 17.9401 137.937 18.8156 137.734 19.6704" fill="#050505"/>
<path d="M157.121 9.53627C156.58 8.90777 155.894 8.42129 155.122 8.11938C154.134 7.75263 153.084 7.58018 152.031 7.61153C149.248 7.61153 147.213 8.75014 145.927 11.0274H145.853V8.0475H142.947V26.8311H146.038V16.2242C146.03 15.4268 146.149 14.6332 146.389 13.8727C146.603 13.1912 146.953 12.5601 147.418 12.0176C147.889 11.4767 148.481 11.0548 149.146 10.7862C149.925 10.476 150.759 10.3269 151.597 10.3479C152.782 10.3479 153.717 10.6888 154.394 11.3659C155.071 12.0431 155.412 12.966 155.412 14.1278V26.8357H158.503V14.4803C158.512 13.5436 158.408 12.6092 158.192 11.6975C158.009 10.9027 157.642 10.1618 157.121 9.53395" fill="#050505"/>
<path d="M175.077 11.2827C174.407 10.2121 173.499 9.31059 172.424 8.64834C171.32 7.95265 169.936 7.61176 168.261 7.61176C167.043 7.59951 165.836 7.84695 164.72 8.3376C163.656 8.81327 162.704 9.50781 161.926 10.376C161.12 11.2758 160.497 12.3242 160.092 13.4625C159.643 14.7213 159.42 16.0498 159.435 17.3862C159.471 18.7295 159.684 20.0622 160.071 21.3493C160.413 22.4965 160.989 23.5602 161.764 24.4729C162.524 25.3536 163.476 26.0492 164.546 26.5067C165.784 27.0187 167.115 27.2667 168.454 27.2348C170.587 27.2348 172.356 26.7015 173.76 25.6348C175.163 24.568 176.069 22.9819 176.475 20.8762H173.421C173.157 22.113 172.606 23.0336 171.77 23.6381C170.934 24.2426 169.861 24.5433 168.554 24.5402C167.644 24.5616 166.74 24.3884 165.903 24.0323C165.201 23.7292 164.576 23.2731 164.073 22.6974C163.569 22.1217 163.201 21.4408 162.995 20.7046C162.773 19.9445 162.675 19.1538 162.703 18.3625H176.767C176.809 17.1548 176.706 15.9464 176.459 14.7634C176.209 13.5293 175.738 12.3507 175.067 11.285M162.694 15.6447C162.734 14.9397 162.891 14.2463 163.157 13.5924C163.413 12.9669 163.782 12.3944 164.247 11.9042C164.714 11.4129 165.277 11.023 165.901 10.7586C166.585 10.4701 167.322 10.3272 168.064 10.3389C168.794 10.3293 169.517 10.4723 170.188 10.7586C170.812 11.0246 171.379 11.4063 171.86 11.8833C172.342 12.3687 172.724 12.9428 172.987 13.5738C173.266 14.2318 173.432 14.9318 173.479 15.6447H162.694Z" fill="#050505"/>
<path d="M183.416 8.62996C182.334 9.35348 181.413 10.4789 180.654 12.0064H180.584V8.0479H177.676V26.8315H180.763V18.4832C180.749 17.3993 180.871 16.3179 181.127 15.2645C181.338 14.3974 181.734 13.586 182.286 12.8853C182.846 12.2117 183.574 11.6981 184.397 11.3965C185.41 11.033 186.481 10.8608 187.557 10.8886V7.61193C185.886 7.56092 184.505 7.90026 183.413 8.62996" fill="#050505"/>
</svg>
