<svg width="227" height="25" viewBox="0 0 227 25" fill="none" xmlns="http://www.w3.org/2000/svg">
<g clip-path="url(#clip0_8885_727)">
<path d="M-0.000152588 24.0336V0.477783H17.7464V5.14728H5.77237V10.4173H14.854V15.0378H5.77237V24.0336H-0.000152588Z" fill="#050505"/>
<path d="M26.7058 24.5115C21.2887 24.5115 17.6242 20.896 17.6242 15.7486C17.6242 10.6011 21.3009 6.9856 26.7058 6.9856C32.1106 6.9856 35.8364 10.6624 35.8364 15.7486C35.8364 20.8348 32.1106 24.5115 26.7058 24.5115ZM26.7058 20.4303C29.157 20.4303 30.2477 18.5307 30.2477 15.7486C30.2477 12.9665 29.0467 11.03 26.7058 11.03C24.3649 11.03 23.1516 12.9297 23.1516 15.7118C23.1516 18.4939 24.2914 20.4303 26.7058 20.4303Z" fill="#050505"/>
<path d="M49.612 7.35352H55.1516V24.0338H49.612V21.4355C49.1204 22.4179 48.3502 23.2336 47.3976 23.7807C46.4451 24.3279 45.3524 24.5821 44.2562 24.5118C39.6847 24.5118 38.2508 21.4355 38.2508 17.8813V7.35352H43.7169V16.5332C43.7169 18.8986 44.5013 20.21 46.548 20.21C48.5947 20.21 49.612 18.5554 49.612 15.8959V7.35352Z" fill="#050505"/>
<path d="M70.8392 12.6725C69.9558 12.1989 68.9602 11.9743 67.9591 12.023C65.6672 12.023 64.172 13.3221 64.172 16.1655V24.0337H58.6936V7.35346H64.172V10.4174C64.4942 9.42188 65.1178 8.55103 65.9565 7.92529C66.7952 7.29956 67.8076 6.94984 68.8537 6.9245C69.687 6.88773 70.5105 7.11507 71.2069 7.57407L70.8392 12.6725Z" fill="#050505"/>
<path d="M74.5159 11.1895H72.1628V7.88043L73.3884 7.6966C75.0797 7.40246 75.5577 6.47101 75.9744 4.97579L76.5137 2.78198H79.884V7.35343H84.3942V11.1895H79.8595V18.1141C79.8595 19.5358 80.5213 20.1363 81.845 20.1363C82.7847 20.0837 83.7068 19.8594 84.5658 19.4745V23.0287C83.1534 24.0773 81.4202 24.6016 79.6634 24.5117C76.8936 24.5117 74.4302 23.2861 74.4302 19.6093V11.1895H74.5159Z" fill="#050505"/>
<path d="M92.557 24.0336H87.0786V0.477783H92.557V10.0006C93.0975 9.03388 93.8989 8.23857 94.8698 7.70547C95.8407 7.17237 96.9418 6.92294 98.0476 6.98566C102.619 6.98566 104.176 10.0619 104.176 13.6774V24.0949H98.6849V14.9152C98.6849 12.5498 97.9006 11.2385 95.8538 11.2385C93.8071 11.2385 92.557 12.9543 92.557 15.5648V24.0336Z" fill="#050505"/>
<path d="M118.882 -0.000111846C126.101 -0.000111846 130.011 4.4978 130.427 10.4174L124.9 10.6625C124.532 7.63531 122.792 5.03706 118.772 5.03706C114.752 5.03706 112.644 7.81915 112.644 12.2558C112.644 16.6924 114.985 19.4745 118.772 19.4745C122.559 19.4745 124.545 16.8763 124.9 13.8491L130.427 14.0942C129.913 20.0138 126.052 24.5117 118.882 24.5117C117.263 24.5654 115.651 24.2843 114.146 23.686C112.64 23.0876 111.275 22.1849 110.135 21.0344C108.995 19.8839 108.104 18.5103 107.52 16.9997C106.935 15.4892 106.668 13.8741 106.737 12.2558C106.668 10.6374 106.935 9.02241 107.52 7.51184C108.104 6.00127 108.995 4.62771 110.135 3.47718C111.275 2.32665 112.64 1.42395 114.146 0.825594C115.651 0.227242 117.263 -0.0538616 118.882 -0.000111846Z" fill="#050505"/>
<path d="M148.297 19.5359C148.297 20.4306 148.664 20.7615 149.388 20.7615C149.862 20.7761 150.333 20.6752 150.76 20.4673V23.3597C149.728 24.094 148.484 24.4687 147.218 24.426C146.319 24.4915 145.427 24.2353 144.699 23.7032C143.972 23.1711 143.457 22.3978 143.247 21.5213C142.291 23.421 140.183 24.426 137.597 24.426C134.227 24.426 132.058 22.7714 132.058 19.8668C132.058 16.668 134.509 15.3076 138.186 14.5968L142.88 13.7756V13.4815C142.922 13.1496 142.887 12.8125 142.779 12.4961C142.67 12.1796 142.491 11.8921 142.254 11.6556C142.018 11.4191 141.73 11.2397 141.414 11.1314C141.097 11.023 140.76 10.9884 140.428 11.0303C139.76 10.9963 139.104 11.2243 138.6 11.666C138.097 12.1076 137.786 12.7281 137.732 13.3957L132.609 13.0403C133.161 9.48605 135.869 6.9981 140.735 6.9981C145.11 6.98585 148.297 8.93454 148.297 13.4815V19.5359ZM142.892 16.6312L140.122 17.1705C138.443 17.5259 137.352 17.9426 137.352 19.2417C137.352 20.1854 138.137 20.835 139.276 20.835C139.779 20.8541 140.28 20.7663 140.747 20.5773C141.213 20.3883 141.634 20.1024 141.981 19.7386C142.329 19.3748 142.595 18.9414 142.763 18.467C142.93 17.9926 142.995 17.488 142.953 16.9867L142.892 16.6312Z" fill="#050505"/>
<path d="M158.163 24.0337H152.684V7.35344H158.163V10.0007C158.707 9.02908 159.515 8.23074 160.492 7.69742C161.47 7.1641 162.578 6.91743 163.69 6.98576C168.262 6.98576 169.818 10.062 169.818 13.6775V24.095H164.34V14.9153C164.34 12.5499 163.567 11.2386 161.521 11.2386C159.29 11.2386 158.212 12.9544 158.212 15.5649L158.163 24.0337Z" fill="#050505"/>
<path d="M177.588 24.0338L171.154 7.35352H176.926L180.897 18.1877H181.069L185.064 7.35352H190.42L184.047 23.9848L177.588 24.0338Z" fill="#050505"/>
<path d="M207.051 19.5358C207.051 20.4305 207.419 20.7614 208.13 20.7614C208.608 20.7776 209.084 20.6766 209.515 20.4673V23.3597C208.483 24.094 207.238 24.4686 205.973 24.4259C205.074 24.4914 204.181 24.2352 203.454 23.7031C202.726 23.1711 202.212 22.3977 202.002 21.5213C201.046 23.4209 198.938 24.4259 196.352 24.4259C192.981 24.4259 190.812 22.7714 190.812 19.8667C190.812 16.6679 193.263 15.3075 196.94 14.5967L201.634 13.7756V13.4814C201.676 13.1495 201.641 12.8125 201.533 12.496C201.425 12.1796 201.245 11.8921 201.009 11.6555C200.772 11.419 200.485 11.2397 200.168 11.1313C199.852 11.0229 199.515 10.9884 199.183 11.0302C198.514 10.9962 197.858 11.2242 197.355 11.6659C196.851 12.1075 196.54 12.728 196.487 13.3956L191.364 13.0402C191.915 9.48599 194.624 6.99805 199.489 6.99805C203.877 6.99805 207.063 8.94673 207.063 13.4569L207.051 19.5358ZM201.646 16.6312L198.877 17.1704C197.197 17.5259 196.107 17.9426 196.107 19.2417C196.107 20.1854 196.891 20.835 198.031 20.835C198.529 20.8453 199.023 20.7509 199.482 20.558C199.941 20.3651 200.354 20.0779 200.695 19.7151C201.036 19.3523 201.296 18.922 201.46 18.4519C201.624 17.9819 201.688 17.4827 201.646 16.9866V16.6312Z" fill="#050505"/>
<path d="M215.055 18.4695C215.287 20.075 216.562 20.9207 218.596 20.9207C220.104 20.9207 221.048 20.3937 221.048 19.499C221.048 18.6043 220.496 18.2734 219.111 18.016L216.537 17.6116C212.628 17.0111 210.581 15.7119 210.581 12.3906C210.581 9.06924 213.4 6.8877 217.935 6.8877C222.751 6.8877 225.57 8.95894 225.938 12.5744L221.428 12.746C221.182 11.2753 219.981 10.4419 217.873 10.4419C216.562 10.4787 215.704 11.0302 215.704 11.9616C215.704 12.6112 216.243 13.0279 217.089 13.1872L220.337 13.7265C224.014 14.2535 226.158 15.9203 226.158 19.0578C226.158 22.5507 223.156 24.4994 218.523 24.4994C213.89 24.4994 210.532 22.661 210.164 18.6411L215.055 18.4695Z" fill="#050505"/>
</g>
<defs>
<clipPath id="clip0_8885_727">
<rect width="226.734" height="24.5118" fill="white"/>
</clipPath>
</defs>
</svg>
