<svg width="187" height="51" viewBox="0 0 187 51" fill="none" xmlns="http://www.w3.org/2000/svg">
<g clip-path="url(#clip0_8885_775)">
<path d="M37.1117 0.239275L7.74256 0.122559H7.7032C5.85804 0.122559 4.13033 0.821359 2.79527 2.14145C1.46052 3.42263 0.753632 5.16979 0.753632 6.99445V43.5284C0.753632 45.3531 1.46052 47.1002 2.79527 48.3814C4.09128 49.6626 5.85804 50.4003 7.70351 50.4003H7.74286L37.112 50.3225V48.5756C37.112 39.607 33.6176 31.4154 27.885 25.3198C33.8531 18.9525 37.112 10.7602 37.112 2.02503V0.238975L37.1117 0.239275ZM15.5564 16.8169C12.062 15.4193 8.29233 14.5262 4.32681 14.332V14.2542C9.82386 13.4396 14.1817 9.09145 14.928 3.65577L22.3095 3.69467C21.8775 8.7808 19.4823 13.4396 15.5561 16.8175L15.5564 16.8169ZM5.30858 4.62601C5.93675 4.00472 6.80045 3.65517 7.70351 3.65517H11.2767C10.6092 7.18838 7.82127 9.98358 4.28776 10.7213V6.99445C4.32681 6.10142 4.6804 5.247 5.30858 4.62601ZM4.32681 36.2681V28.9688C13.8681 29.8229 21.4849 37.3939 22.3098 46.8282L14.9283 46.8671C14.143 41.3928 9.82386 37.0836 4.32681 36.2681ZM7.74286 46.8671C6.83981 46.8671 5.97611 46.5175 5.34793 45.8962C4.71945 45.2753 4.36616 44.4208 4.36616 43.5281V39.8399C7.89998 40.5773 10.6876 43.3339 11.3551 46.8668H7.74286V46.8671ZM33.4998 46.7893L25.8434 46.8282C24.9797 35.4528 15.792 26.3289 4.28776 25.4359V17.8652C20.0324 18.7582 32.6361 31.2597 33.4998 46.7899V46.7893ZM25.3326 22.8349C23.3933 21.1528 21.2738 19.6817 19.0112 18.4476C23.0161 14.5265 25.4504 9.32398 25.8824 3.69437L33.5389 3.73328C33.1069 10.8769 30.2409 17.5549 25.3326 22.8349Z" fill="#050505"/>
<path d="M81.3762 18.8012C79.8252 17.9836 78.0752 17.5942 76.126 17.5942C74.1374 17.5942 72.3475 18.0225 70.7961 18.879C69.2451 19.7352 68.0519 20.903 67.2166 22.3823C66.3812 23.8616 65.9834 25.5354 65.9834 27.4038C65.9834 28.7661 66.2223 30.0898 66.7394 31.2575C67.2166 32.4642 67.8926 33.4763 68.7676 34.3717C69.6811 35.2653 70.7798 35.9556 71.9893 36.3957C73.3247 36.8872 74.7397 37.1378 76.166 37.1355C78.1149 37.1355 79.8648 36.7462 81.4162 35.9286C82.9673 35.1112 84.1605 33.9435 85.0358 32.4642C85.9107 30.9849 86.3482 29.2721 86.3482 27.4038C86.3482 25.4965 85.9107 23.7838 85.0358 22.3042C84.0808 20.7863 82.888 19.6185 81.3762 18.8012ZM80.1034 31.5298C79.0295 32.6198 77.6774 33.1648 76.0863 33.1648C74.4557 33.1648 73.1032 32.6201 72.0293 31.4909C70.9554 30.3621 70.4383 28.9998 70.4383 27.3649C70.4383 25.691 70.9554 24.2896 71.9896 23.1996C73.0239 22.0708 74.4157 21.5258 76.0863 21.5258C77.717 21.5258 79.0295 22.0708 80.1034 23.1607C81.1773 24.2507 81.6945 25.6521 81.6945 27.3649C81.7341 29.0387 81.2173 30.4399 80.1034 31.5298Z" fill="#050505"/>
<path fill-rule="evenodd" clip-rule="evenodd" d="M99.9904 17.5942H99.4337C98.2405 17.5942 97.1666 17.8666 96.0927 18.4118C95.0188 18.9565 94.1438 19.7352 93.3881 20.7474H93.3484V17.9058H88.8932V36.8629H93.3478V27.8709C93.3478 26.8199 93.5467 25.9245 93.9445 25.1072C94.3424 24.2896 94.9788 23.6279 95.7742 23.1607C96.5695 22.6938 97.5241 22.4215 98.638 22.4215C99.0355 22.4215 99.4733 22.4215 99.9902 22.4604L99.9904 17.5942Z" fill="#050505"/>
<path d="M115.383 20.1244H115.304C113.832 18.4117 111.843 17.5552 109.298 17.5552C107.985 17.5552 106.752 17.7886 105.599 18.295C104.445 18.8007 103.451 19.4627 102.616 20.319C101.78 21.1755 101.144 22.2265 100.667 23.4332C100.189 24.6788 99.9506 25.9632 99.9506 27.3647C99.9506 28.5325 100.11 29.5835 100.388 30.6346C100.706 31.6467 101.144 32.5418 101.701 33.3205C102.258 34.0989 102.934 34.7606 103.689 35.3445C104.445 35.9284 105.32 36.3567 106.275 36.6293C107.229 36.9016 108.264 37.0573 109.298 37.0573C111.923 37.0573 113.991 36.1232 115.463 34.2157H115.502V36.746H119.758V17.7886H115.304V20.1241L115.383 20.1244ZM113.951 31.5686C112.877 32.6196 111.565 33.1646 110.053 33.1646C108.423 33.1646 107.07 32.6199 106.036 31.5689C105.002 30.5179 104.485 29.1164 104.485 27.4425C104.485 26.5474 104.644 25.7298 104.922 24.9903C105.201 24.2505 105.599 23.6277 106.116 23.1216C106.627 22.6194 107.236 22.2223 107.905 21.9539C108.582 21.6815 109.298 21.5259 110.093 21.5259C111.684 21.5259 112.997 22.1095 114.031 23.2387C115.065 24.3675 115.582 25.7687 115.582 27.4425C115.582 29.1164 115.025 30.5176 113.951 31.5686ZM142.231 22.3043C141.833 21.5648 141.356 20.9417 140.799 20.3579C140.243 19.7743 139.606 19.2679 138.93 18.84C138.254 18.4117 137.498 18.1002 136.663 17.9056C135.827 17.7111 134.992 17.5555 134.117 17.5555C131.532 17.5555 129.463 18.4114 127.952 20.1244H127.872V17.8278H123.418V44.4535H127.872V34.4491H127.912C129.384 36.2007 131.412 37.0959 134.038 37.0959C135.112 37.0959 136.106 36.9402 137.06 36.6679C138.015 36.3567 138.89 35.9281 139.646 35.3831C140.401 34.8384 141.078 34.1376 141.635 33.3591C142.191 32.5804 142.629 31.6853 142.947 30.6732C143.265 29.661 143.385 28.5711 143.385 27.4033C143.385 26.469 143.265 25.5739 143.066 24.6785C142.867 23.7833 142.629 23.0435 142.231 22.304L142.231 22.3043ZM137.379 31.5689C136.344 32.6196 134.992 33.1646 133.361 33.1646C131.77 33.1646 130.418 32.6199 129.344 31.5689C128.27 30.5179 127.714 29.1164 127.714 27.4425C127.714 25.7298 128.23 24.3286 129.304 23.1995C130.338 22.0706 131.731 21.5256 133.361 21.5256C134.952 21.5256 136.265 22.0706 137.339 23.1605C138.413 24.2505 138.93 25.6909 138.93 27.4425C138.93 29.1164 138.413 30.5179 137.379 31.5689ZM160.249 20.1244C158.777 18.4117 156.789 17.5552 154.243 17.5552C152.93 17.5552 151.698 17.7886 150.544 18.295C149.391 18.8007 148.396 19.4627 147.561 20.319C146.726 21.1755 146.089 22.2265 145.612 23.4332C145.135 24.6788 144.896 25.9632 144.896 27.3647C144.896 28.5325 145.055 29.5835 145.334 30.6346C145.652 31.6467 146.089 32.5418 146.646 33.3205C147.203 34.0989 147.879 34.7606 148.635 35.3445C149.391 35.9284 150.266 36.3567 151.22 36.6293C152.175 36.9016 153.209 37.0573 154.243 37.0573C156.868 37.0573 158.936 36.1232 160.408 34.2157H160.448V36.746H164.704V17.7886H160.249V20.1244ZM158.897 31.5686C157.823 32.6196 156.51 33.1646 154.999 33.1646C153.368 33.1646 152.016 32.6199 150.982 31.5689C149.947 30.5179 149.431 29.1164 149.431 27.4425C149.431 26.5474 149.589 25.7298 149.868 24.9903C150.146 24.2505 150.544 23.6277 151.061 23.1216C151.572 22.6193 152.181 22.2223 152.851 21.9539C153.527 21.6815 154.243 21.5259 155.038 21.5259C156.63 21.5259 157.942 22.1095 158.976 23.2387C160.011 24.3675 160.527 25.7687 160.527 27.4425C160.527 29.1164 159.971 30.5176 158.897 31.5686Z" fill="#050505"/>
<path fill-rule="evenodd" clip-rule="evenodd" d="M181.33 17.8666L176.318 30.6347H176.279L170.949 17.8669H166.255L174.13 35.773L170.63 44.4925H175.324L185.984 17.8669L181.33 17.8666ZM66.5797 17.8666H61.3292L53.4146 26.5087H53.3353V9.49805H48.9201V36.8243H53.335V32.3867L56.5964 28.8445H56.676L61.6877 36.8243H66.6993L59.6195 25.5357L66.5797 17.8666Z" fill="#050505"/>
</g>
<defs>
<clipPath id="clip0_8885_775">
<rect width="185.493" height="50.2777" fill="white" transform="translate(0.753632 0.122559)"/>
</clipPath>
</defs>
</svg>
