<svg width="188" height="33" viewBox="0 0 188 33" fill="none" xmlns="http://www.w3.org/2000/svg">
<g clip-path="url(#clip0_8885_761)">
<path d="M11.9331 23.3677C11.8909 22.9632 11.8486 22.5818 11.7987 22.121C12.289 22.0915 12.6435 22.048 12.9955 22.048C15.1485 22.0416 17.2989 22.0019 19.4518 22.0544C24.0778 22.1696 27.9203 19.4099 29.4269 15.7389C31.5939 10.4666 28.664 4.91392 23.5517 3.03872C22.1527 2.52048 20.6724 2.25607 19.1805 2.25792C14.145 2.26176 9.112 2.25792 4.07648 2.25792C3.79104 2.25792 3.50944 2.24512 3.22144 2.26816C2.43808 2.32832 2.33568 2.43328 2.29728 3.17696C2.28704 3.4048 2.29728 3.63136 2.29728 3.86048V31.0144H1.03392C0.780484 30.0838 0.726724 2.4704 0.973764 1.14688C1.36544 1.1008 1.7968 1.00864 2.22304 1.00864C8.0688 0.999681 13.9146 1.05216 19.7629 0.989441C25.0941 0.933121 29.743 4.42624 31.0883 8.97792C32.4144 13.4707 31.2931 17.5194 27.5683 20.7667C25.784 22.3283 23.544 23.168 21.1722 23.319C18.1578 23.5174 15.105 23.3677 11.9331 23.3677Z" fill="#050505"/>
<path d="M3.80859 31.0091V3.65935C4.22459 3.62607 4.57531 3.57615 4.92731 3.57615C9.96283 3.56975 14.9932 3.56591 20.0288 3.57615C23.5577 3.58255 27.0048 6.10926 28.1964 9.0827C28.8242 10.6455 28.9477 12.3653 28.5497 14.0017C27.8457 16.9854 25.9948 19.2408 22.7667 20.2545C22.014 20.4926 21.2051 20.6641 20.4128 20.6808C17.854 20.732 15.2966 20.7064 12.7417 20.7C12.3475 20.7 11.8867 20.7665 11.7945 20.2264C11.7216 19.7797 12.0032 19.4225 12.5241 19.3765C12.9632 19.3368 13.4163 19.3598 13.8604 19.3598C15.888 19.3573 17.9219 19.3163 19.9494 19.3662C23.0854 19.443 25.831 17.3848 26.7206 14.9272C28.2822 10.6021 26.5516 7.49551 22.8921 5.55119C22.192 5.17999 21.2908 4.98799 20.478 4.97775C15.6076 4.92143 10.7372 4.94447 5.86299 4.94191C5.70427 4.94191 5.54555 4.97774 5.24347 5.01742C5.21147 5.4859 5.15131 5.96206 5.15131 6.4331C5.14491 14.0696 5.14747 21.7035 5.14747 29.3387C5.14747 29.6062 5.15899 29.8699 5.14491 30.1387C5.10395 31.0206 5.01179 31.0833 3.80859 31.0065V31.0091Z" fill="#050505"/>
<path d="M7.8847 31.0092H6.53687V6.37687C6.98871 6.33335 7.41622 6.25527 7.8463 6.25527C11.7836 6.24503 15.726 6.34103 19.6607 6.22199C22.9541 6.12343 25.6895 8.68855 26.0389 11.5033C26.3461 13.9673 24.9637 17.0201 21.7599 17.8034C20.9029 18.0193 20.0255 18.1437 19.1423 18.1746C17.1954 18.2322 15.2421 18.1925 13.2953 18.1925H12.1305C11.5813 17.0431 11.7119 16.823 12.8831 16.8153C15.0757 16.8063 17.2684 16.759 19.461 16.8255C21.8777 16.8985 23.7925 15.4726 24.3826 13.614C24.965 11.7797 24.4364 9.90967 22.5804 8.47351C21.733 7.81559 20.7397 7.52887 19.6633 7.52247C16.1305 7.50583 12.6002 7.51223 9.06742 7.52247C8.71542 7.52247 8.36342 7.60183 7.88982 7.65815C7.8847 15.4751 7.8847 23.2101 7.8847 31.0117V31.0092Z" fill="#050505"/>
<path d="M11.8871 15.3047C11.8346 14.2526 11.905 14.1335 12.8304 14.1271C14.9834 14.1066 17.1338 14.1233 19.2867 14.1169C19.6925 14.1169 20.1059 14.1194 20.4976 14.0439C21.0903 13.9287 21.528 13.6087 21.6023 12.9969C21.6483 12.6218 21.6906 12.2378 21.6688 11.8615C21.5984 10.6724 21.0672 10.2052 19.7258 10.1886C17.656 10.1681 15.5837 10.1822 13.5139 10.1822H10.8643C10.8285 10.762 10.7722 11.242 10.7722 11.7194C10.7645 17.61 10.7683 23.4993 10.7683 29.386C10.7683 29.6535 10.7824 29.9172 10.7645 30.186C10.7082 31.0218 10.5674 31.1076 9.4205 30.9681V8.88296C9.80834 8.85224 10.1245 8.81 10.4368 8.81C13.4819 8.80616 16.5258 8.8228 19.5722 8.8036C21.0467 8.79336 22.0989 9.3668 22.8247 10.5623C23.7143 12.0318 23.0653 14.451 21.5165 15.251C21.2655 15.3737 20.9895 15.4368 20.7101 15.4353C17.8711 15.4455 15.0307 15.4391 12.1866 15.4327C12.1123 15.4302 12.0394 15.3751 11.8871 15.3047ZM137.331 7.66184L136.53 8.25832C136.293 8.07656 136.064 7.92808 135.874 7.75016C134.999 6.93096 134.195 6.04008 133.255 5.29256C131.499 3.89096 129.431 3.07432 127.184 2.54056C124.74 1.96072 122.337 2.05544 119.981 2.6916C116.116 3.73864 113.008 5.81096 110.995 9.13384C109.513 11.5735 108.599 14.2142 108.894 17.0442C109.479 22.6353 112.368 26.7774 117.938 29.1748C120.856 30.4292 123.904 30.6673 126.971 30.0938C130.273 29.4769 133.085 27.9076 135.305 25.491C135.516 25.2631 135.682 24.9994 135.894 24.7742C136.284 24.3646 136.691 24.321 137.051 24.6474C137.424 24.9905 137.248 25.2452 136.966 25.6062C135.256 27.7911 132.989 29.29 130.4 30.4126C127.511 31.667 124.438 31.9447 121.371 31.4929C118.189 31.0218 115.303 29.7342 112.91 27.6465C110.745 25.7889 109.135 23.3696 108.257 20.6551C107.41 18.0772 107.289 15.4519 107.946 12.9137C109.133 8.32104 111.947 4.78952 116.537 2.59304C119.966 0.955922 123.59 0.532242 127.292 1.23624C131.406 2.0196 134.749 4.07528 137.223 7.29832C137.261 7.36104 137.264 7.44808 137.331 7.66184Z" fill="#050505"/>
<path d="M135.17 23.6822C131.691 28.431 125.534 30.3151 119.752 28.6025C113.967 26.886 110.191 22.1142 110.183 16.2953C110.179 10.479 113.871 5.84025 119.314 4.12761C125.359 2.22297 131.583 3.96505 135.248 8.99417C134.997 9.20153 134.744 9.41913 134.431 9.67769C134.202 9.51641 133.938 9.39737 133.773 9.20665C132.94 8.22873 132.006 7.36217 130.883 6.67737C129.426 5.78905 127.93 5.03001 126.142 4.89817C125.305 4.83673 124.463 4.52313 123.647 4.59097C118.868 5.00057 115.092 6.92057 112.868 11.0895C111.951 12.8086 111.376 14.6121 111.495 16.5257C111.75 20.5999 113.599 23.8358 117.302 26.1321C120.227 27.9446 123.465 28.1635 126.706 27.6374C129.338 27.2124 131.597 25.8262 133.336 23.8371C133.414 23.7475 133.494 23.6655 133.572 23.5772C134.288 22.7862 134.389 22.7926 135.17 23.6822Z" fill="#050505"/>
<path d="M133.024 10.5033C132.63 10.6876 132.31 10.8322 131.965 10.9935C130.744 9.46901 129.238 8.30293 127.311 7.69877C123.44 6.48661 119.942 7.12149 117.02 9.81077C112.191 14.2575 113.602 21.9669 119.924 24.6537C121.814 25.4631 123.904 25.6812 125.92 25.2793C127.936 24.8774 129.783 23.8743 131.218 22.4021C131.298 22.3202 131.338 22.2037 131.415 22.1218C132.088 21.4114 132.252 21.4178 132.96 22.1743C131.069 25.4997 126.041 27.3109 122.41 26.7004C116.136 25.6431 112.859 20.9365 112.806 16.3733C112.746 11.1932 116.715 6.91541 121.742 6.01045C126.363 5.18101 130.908 7.01141 133.024 10.5033Z" fill="#050505"/>
<path d="M129.917 20.1561C130.923 20.8345 130.948 20.933 130.308 21.5922C125.683 26.3628 117.956 24.3711 115.908 18.9311C114.526 15.2703 116.248 10.679 120.5 8.95992C123.858 7.60312 127.76 8.2892 130.251 10.9823C130.98 11.7644 130.976 11.7913 129.847 12.3647C127.966 10.1119 125.426 9.28504 122.423 9.73688C120.797 9.98008 119.527 10.83 118.429 11.982C116.224 14.2975 116.164 18.6214 118.839 21.0342C120.452 22.487 122.372 23.2012 124.628 22.9926C126.817 22.7878 128.485 21.6998 129.917 20.1561ZM144.979 0.642482H146.164C146.471 1.52568 146.516 30.391 146.214 31.5596H144.975C144.979 21.253 144.979 10.9862 144.979 0.642482ZM140.58 31.5647C140.23 31.5814 139.845 31.598 139.369 31.6172V0.637362H140.568C140.871 1.52824 140.893 30.4319 140.58 31.5647ZM143.402 0.703922V31.47C142.269 31.6543 142.185 31.6044 142.117 30.7058C142.093 30.4025 142.107 30.0991 142.107 29.7945V2.34744C142.107 2.04408 142.093 1.74072 142.121 1.43608C142.195 0.647602 142.308 0.582322 143.402 0.703922ZM148.906 31.5583C147.883 31.5775 147.809 31.5391 147.731 30.8121C147.696 30.4754 147.71 30.1273 147.71 29.7881V2.36024C147.71 2.02104 147.693 1.67288 147.735 1.33624C147.823 0.639922 147.954 0.581042 148.882 0.700082C149.118 1.55768 149.153 30.3334 148.906 31.5583ZM151.035 31.4329C152.019 29.1455 152.974 26.9529 153.899 24.7487C154.644 22.9695 155.335 21.1686 156.073 19.3906C156.815 17.6012 157.59 15.8284 158.338 14.0428C159.129 12.1548 159.901 10.2591 160.69 8.3724C161.696 5.96088 162.699 3.55064 163.716 1.1468C164.071 0.302002 164.838 0.616882 165.634 0.566962C169.999 10.8415 174.247 21.1417 178.635 31.5596H177.048L164.974 2.74168C164.664 3.15384 164.389 3.40856 164.257 3.71448C162.747 7.2716 161.248 10.8262 159.769 14.3948C158.331 17.8649 156.929 21.3465 155.493 24.8204C154.671 26.8121 153.817 28.7884 152.974 30.7724C152.58 31.6902 152.413 31.7516 151.035 31.4329ZM173.383 0.794802C174.488 0.273842 174.95 0.648882 175.286 1.43736C176.636 4.61176 177.988 7.79 179.315 10.9734C180.743 14.4089 182.126 17.8534 183.558 21.2876C184.825 24.3174 186.135 27.333 187.412 30.3602C187.557 30.6994 187.602 31.077 187.694 31.4265C186.459 31.7567 186.37 31.7042 185.99 30.8031C184.691 27.7337 183.361 24.6719 182.073 21.5999C181.152 19.4009 180.299 17.1801 179.378 14.981C178.281 12.3596 177.126 9.7548 176.027 7.13336C175.26 5.31832 174.544 3.48152 173.799 1.66008C173.686 1.38488 173.545 1.12376 173.383 0.794802ZM181.501 31.5814H180.114L167.215 0.773042C168.595 0.337842 168.694 0.568242 169.152 1.56024C169.904 3.18584 170.548 4.85496 171.245 6.50488C172.068 8.45688 172.906 10.3974 173.719 12.3506C174.608 14.4882 175.465 16.6322 176.358 18.7686C177.646 21.8418 178.958 24.9036 180.257 27.973C180.637 28.878 181.02 29.7855 181.372 30.6994C181.462 30.9337 181.447 31.2063 181.501 31.5814ZM184.608 31.5506H183.204C178.894 21.2671 174.611 11.045 170.332 0.824242C171.525 0.412082 171.806 0.481202 172.208 1.39512C172.768 2.67512 173.277 3.97688 173.806 5.26712C174.713 7.4764 175.608 9.68696 176.534 11.8898C177.282 13.669 178.082 15.4265 178.823 17.2044C179.757 19.4342 180.637 21.6806 181.575 23.909C182.505 26.1158 183.478 28.2994 184.409 30.5062C184.536 30.807 184.536 31.15 184.608 31.5506Z" fill="#050505"/>
<path d="M164.864 5.81328C165.75 6.5992 165.927 7.27248 165.457 8.23888C164.606 9.9848 163.933 11.8088 163.18 13.597C162.228 15.8587 161.269 18.1192 160.323 20.3848C159.239 22.9755 158.166 25.5714 157.095 28.1659C156.717 29.0747 156.36 29.9912 155.983 30.8987C155.655 31.6885 155.395 31.7614 154.148 31.4171C157.709 22.9064 161.27 14.4059 164.864 5.81328ZM157.261 31.3685L166.379 9.56624C167.216 10.173 167.491 10.8206 167.166 11.5976C166.118 14.1192 165.041 16.628 163.981 19.1445C163.211 20.9595 162.439 22.7733 161.68 24.5909C160.794 26.7182 159.94 28.8558 159.048 30.9832C158.746 31.7 158.429 31.7627 157.261 31.3685ZM160.346 31.3787L167.906 13.2667C168.757 13.9771 168.975 14.6466 168.623 15.4683C167.007 19.2699 165.378 23.0587 163.76 26.8603C163.215 28.15 162.682 29.445 162.162 30.7451C161.775 31.7128 161.602 31.7922 160.346 31.3787ZM174.598 27.7448H164.405C164.775 26.5019 164.817 26.4584 166.008 26.4558C168.319 26.4482 170.632 26.4482 172.944 26.4558C174.063 26.4622 174.063 26.4763 174.598 27.7448ZM173.211 25.1451C172.918 25.181 172.605 25.2475 172.292 25.2501C170.433 25.2633 168.574 25.2633 166.715 25.2501C165.561 25.2411 165.511 25.1554 165.888 23.9445C166.244 23.9202 166.641 23.8702 167.032 23.8702C168.767 23.8638 170.507 23.8472 172.244 23.8805C173.254 23.901 173.348 24.0597 173.211 25.1451ZM172.235 22.4622H166.825C166.691 21.2642 166.779 21.1528 167.934 21.1362C168.985 21.1198 170.037 21.1198 171.088 21.1362C171.993 21.1515 172.241 21.4434 172.235 22.4622ZM50.6948 30.0923V8.50896C50.6948 7.93552 50.1995 7.46576 49.5812 7.46576H43.5051C42.892 7.46576 42.3915 6.99984 42.3915 6.42128V2.164C42.3915 1.58928 42.8868 1.11952 43.5051 1.11952H65.2049C65.8181 1.11952 66.3198 1.58544 66.3198 2.164V6.42C66.3198 6.99472 65.8232 7.46448 65.2049 7.46448H59.1301C58.5169 7.46448 58.0152 7.92912 58.0152 8.50768V30.0923C58.0152 30.6658 57.5173 31.1355 56.899 31.1355H51.811C51.1966 31.1342 50.6961 30.6658 50.6961 30.091L50.6948 30.0923ZM92.483 31.1368H87.0212C86.814 31.1394 86.61 31.0847 86.4318 30.9787C86.2536 30.8728 86.1081 30.7198 86.0113 30.5365L81.5096 21.5598C80.908 20.4539 79.948 19.8997 78.6385 19.8997H77.548C76.9336 19.8997 76.4318 20.3656 76.4318 20.9442V30.0962C76.4318 30.6683 75.9352 31.1381 75.3182 31.1381H70.4222C69.8091 31.1381 69.3073 30.6734 69.3073 30.0949V2.16784C69.3073 1.5944 69.804 1.12464 70.4222 1.12464H82.531C85.8897 1.12464 88.4165 1.9144 90.1061 3.4888C91.7995 5.0632 92.643 7.3416 92.643 10.3214C92.643 12.5934 92.0657 14.5147 90.9112 16.0891C90.178 17.0927 89.2196 17.9103 88.1131 18.4763C87.4437 18.8219 87.3361 19.7051 87.9275 20.1621C88.6724 20.7394 89.3137 21.5624 89.8488 22.6222L93.484 29.6366C93.8449 30.333 93.3099 31.1368 92.483 31.1368ZM84.8376 13.213C85.5326 12.6754 85.8833 11.7947 85.8833 10.5762C85.8833 9.32816 85.5339 8.42576 84.8376 7.8728C84.1425 7.31856 82.9944 7.04336 81.3944 7.04336H77.4725C76.8593 7.04336 76.3589 7.508 76.3589 8.08656V12.9826C76.3589 13.556 76.8542 14.0258 77.4725 14.0258H81.3969C82.9931 14.0232 84.1438 13.757 84.8401 13.213H84.8376ZM97.1409 30.0936V2.16784C97.1409 1.5944 97.6376 1.12464 98.2571 1.12464H103.271C103.885 1.12464 104.386 1.58928 104.386 2.16784V30.0936C104.386 30.667 103.889 31.1368 103.272 31.1368H98.2571C97.6401 31.1368 97.1409 30.6683 97.1409 30.0936ZM34.6744 0.90064H30.4299C30.2125 0.896776 29.9987 0.956655 29.8149 1.07289C29.6311 1.18912 29.4853 1.35662 29.3956 1.55472L29.1038 2.23312C29.0239 2.41585 29.0016 2.61857 29.0398 2.8143C29.078 3.01003 29.1749 3.18949 29.3176 3.3288C31.0929 5.06448 32.3448 7.2712 32.8478 9.72368C32.858 9.77232 32.8721 9.82608 32.8926 9.87472L35.884 17.419C36.1553 18.1 35.6164 18.8245 34.8395 18.8245H31.6612C31.4829 18.8215 31.3064 18.8602 31.1457 18.9375C30.9851 19.0149 30.8447 19.1287 30.7358 19.2699C28.2833 22.6414 24.1528 24.8584 19.4744 24.8584H19.3336L17.3393 29.4766C17.0436 30.164 17.5825 30.9102 18.3736 30.9102H23.2286C23.6945 30.9102 24.1118 30.6389 24.2744 30.2318L26.2097 25.3717C26.2962 25.167 26.4421 24.9929 26.6285 24.872C26.8149 24.7511 27.0333 24.6888 27.2555 24.6933H37.9883C38.4529 24.6933 38.8715 24.9646 39.0328 25.3717L40.9694 30.2318C41.132 30.6414 41.5467 30.9102 42.0139 30.9102H46.7486C47.5396 30.9102 48.0785 30.1589 47.7828 29.4766L35.6958 1.5496C35.6085 1.35276 35.465 1.18613 35.2832 1.07066C35.1015 0.955189 34.8896 0.896036 34.6744 0.90064Z" fill="#050505"/>
<path d="M11.9331 23.3677C11.8909 22.9632 11.8486 22.5818 11.7987 22.121C12.289 22.0915 12.6435 22.048 12.9955 22.048C15.1485 22.0416 17.2989 22.0019 19.4518 22.0544C24.0778 22.1696 27.9203 19.4099 29.4269 15.7389C31.5939 10.4666 28.664 4.91392 23.5517 3.03872C22.1527 2.52048 20.6724 2.25607 19.1805 2.25792C14.145 2.26176 9.112 2.25792 4.07648 2.25792C3.79104 2.25792 3.50944 2.24512 3.22144 2.26816C2.43808 2.32832 2.33568 2.43328 2.29728 3.17696C2.28704 3.4048 2.29728 3.63136 2.29728 3.86048V31.0144H1.03392C0.780484 30.0838 0.726724 2.4704 0.973764 1.14688C1.36544 1.1008 1.7968 1.00864 2.22304 1.00864C8.0688 0.999681 13.9146 1.05216 19.7629 0.989441C25.0941 0.933121 29.743 4.42624 31.0883 8.97792C32.4144 13.4707 31.2931 17.5194 27.5683 20.7667C25.784 22.3283 23.544 23.168 21.1722 23.319C18.1578 23.5174 15.105 23.3677 11.9331 23.3677Z" fill="#050505"/>
<path d="M3.80859 31.0091V3.65935C4.22459 3.62607 4.57531 3.57615 4.92731 3.57615C9.96283 3.56975 14.9932 3.56591 20.0288 3.57615C23.5577 3.58255 27.0048 6.10926 28.1964 9.0827C28.8242 10.6455 28.9477 12.3653 28.5497 14.0017C27.8457 16.9854 25.9948 19.2408 22.7667 20.2545C22.014 20.4926 21.2051 20.6641 20.4128 20.6808C17.854 20.732 15.2966 20.7064 12.7417 20.7C12.3475 20.7 11.8867 20.7665 11.7945 20.2264C11.7216 19.7797 12.0032 19.4225 12.5241 19.3765C12.9632 19.3368 13.4163 19.3598 13.8604 19.3598C15.888 19.3573 17.9219 19.3163 19.9494 19.3662C23.0854 19.443 25.831 17.3848 26.7206 14.9272C28.2822 10.6021 26.5516 7.49551 22.8921 5.55119C22.192 5.17999 21.2908 4.98799 20.478 4.97775C15.6076 4.92143 10.7372 4.94447 5.86299 4.94191C5.70427 4.94191 5.54555 4.97774 5.24347 5.01742C5.21147 5.4859 5.15131 5.96206 5.15131 6.4331C5.14491 14.0696 5.14747 21.7035 5.14747 29.3387C5.14747 29.6062 5.15899 29.8699 5.14491 30.1387C5.10395 31.0206 5.01179 31.0833 3.80859 31.0065V31.0091Z" fill="#050505"/>
<path d="M7.8847 31.0092H6.53687V6.37687C6.98871 6.33335 7.41622 6.25527 7.8463 6.25527C11.7836 6.24503 15.726 6.34103 19.6607 6.22199C22.9541 6.12343 25.6895 8.68855 26.0389 11.5033C26.3461 13.9673 24.9637 17.0201 21.7599 17.8034C20.9029 18.0193 20.0255 18.1437 19.1423 18.1746C17.1954 18.2322 15.2421 18.1925 13.2953 18.1925H12.1305C11.5813 17.0431 11.7119 16.823 12.8831 16.8153C15.0757 16.8063 17.2684 16.759 19.461 16.8255C21.8777 16.8985 23.7925 15.4726 24.3826 13.614C24.965 11.7797 24.4364 9.90967 22.5804 8.47351C21.733 7.81559 20.7397 7.52887 19.6633 7.52247C16.1305 7.50583 12.6002 7.51223 9.06742 7.52247C8.71542 7.52247 8.36342 7.60183 7.88982 7.65815C7.8847 15.4751 7.8847 23.2101 7.8847 31.0117V31.0092Z" fill="#050505"/>
<path d="M11.8871 15.3045C11.8346 14.2523 11.905 14.1333 12.8304 14.1269C14.9834 14.1064 17.1338 14.123 19.2867 14.1166C19.6925 14.1166 20.1059 14.1192 20.4976 14.0437C21.0903 13.9285 21.528 13.6085 21.6023 12.9966C21.6483 12.6216 21.6906 12.2376 21.6688 11.8613C21.5984 10.6722 21.0672 10.205 19.7258 10.1883C17.656 10.1678 15.5837 10.1819 13.5139 10.1819H10.8643C10.8285 10.7618 10.7722 11.2418 10.7722 11.7192C10.7645 17.6098 10.7683 23.499 10.7683 29.3858C10.7683 29.6533 10.7824 29.917 10.7645 30.1858C10.7082 31.0216 10.5674 31.1074 9.4205 30.9678V8.88272C9.80834 8.852 10.1245 8.80976 10.4368 8.80976C13.4819 8.80592 16.5258 8.82256 19.5722 8.80336C21.0467 8.79312 22.0989 9.36656 22.8247 10.5621C23.7143 12.0315 23.0653 14.4507 21.5165 15.2507C21.2655 15.3735 20.9895 15.4366 20.7101 15.435C17.8711 15.4453 15.0307 15.4389 12.1866 15.4325C12.1123 15.4299 12.0394 15.3749 11.8871 15.3045Z" fill="#050505"/>
</g>
<defs>
<clipPath id="clip0_8885_761">
<rect width="186.88" height="32" fill="white" transform="translate(0.813599 0.122559)"/>
</clipPath>
</defs>
</svg>
