<svg width="187" height="45" viewBox="0 0 187 45" fill="none" xmlns="http://www.w3.org/2000/svg">
<g clip-path="url(#clip0_8885_741)">
<path d="M-0.000236511 22.2965V44.5933H10.4773H20.9548V44.0624V43.5315H10.956H0.957101V22.2965V1.06155H10.956H20.9548V0.53067V-0.000202179H10.4773H-0.000236511V22.2965Z" fill="#050505"/>
<path d="M166.044 0.477585V0.955372H176.043H186.042V22.2965V43.6377H176.043H166.044V44.1155V44.5933H176.522H186.999V22.2965V-0.000202179H176.522H166.044V0.477585Z" fill="#050505"/>
<path d="M19.1466 15.8307C18.3594 15.9581 17.1787 16.5527 16.6043 17.1154C15.2747 18.4214 15.2747 20.4705 16.5937 21.7552C17.2851 22.4135 18.168 22.7958 19.4657 22.9975C20.0827 23.0824 20.8911 23.2311 21.274 23.316C22.5079 23.5921 23.1887 24.2504 23.1887 25.1528C23.1887 25.5775 23.1355 25.6731 22.6675 26.1297C22.008 26.7561 21.2953 27.0215 20.2103 27.0109C19.5614 27.0109 19.2849 26.9578 18.7424 26.7136C18.0084 26.3739 17.4659 25.843 17.3702 25.3652C17.3383 25.1953 17.2851 25.0573 17.2638 25.0573C17.2319 25.0573 16.8809 25.2378 16.466 25.4501C15.7746 25.8324 15.7321 25.8748 15.7853 26.1615C15.9448 26.979 17.2213 28.1151 18.4552 28.508C19.4019 28.8159 21.1889 28.8053 22.1462 28.4761C23.3908 28.0408 24.3481 27.1914 24.7949 26.119C24.88 25.9173 24.9438 25.4395 24.9332 25.0573C24.9225 23.5921 23.9758 22.3604 22.4547 21.8189C22.2101 21.734 21.2846 21.5429 20.4018 21.3942C18.6041 21.097 18.0616 20.8634 17.6042 20.1945C16.1682 18.0922 20.6571 16.4571 22.6568 18.3576C22.9015 18.5912 23.1142 18.8991 23.1461 19.0903C23.1887 19.2814 23.2631 19.43 23.3163 19.43C23.4121 19.43 24.0396 19.0903 24.6566 18.7186L24.8906 18.57L24.6353 18.071C23.7737 16.3722 21.5187 15.4485 19.1466 15.8307Z" fill="#050505"/>
<path d="M58.9934 22.063C57.3766 25.5562 56.0576 28.4547 56.0576 28.4866C56.0576 28.5291 56.4831 28.5609 56.9937 28.5609H57.9297L58.4616 27.3611L59.0041 26.172H61.8442H64.6949L65.2055 27.3399L65.7054 28.5078L66.6734 28.5397L67.6414 28.5715L66.8117 26.6816C66.3543 25.6411 65.1098 22.785 64.0354 20.3324C62.9611 17.8797 62.0569 15.8305 62.0144 15.7881C61.9718 15.7456 60.6209 18.5592 58.9934 22.063ZM62.9291 22.1586L63.8971 24.367L61.9293 24.3989C60.8443 24.4095 59.9401 24.3989 59.9082 24.3776C59.855 24.3139 61.8229 19.9607 61.908 19.9607C61.9399 19.9607 62.3973 20.9482 62.9291 22.1586Z" fill="#050505"/>
<path d="M109.838 22.063C108.221 25.5562 106.902 28.4547 106.902 28.4866C106.902 28.5291 107.328 28.5609 107.838 28.5609H108.774L109.317 27.3611L109.859 26.172H112.7H115.55L116.05 27.3399L116.55 28.5078L117.518 28.5397L118.486 28.5715L117.656 26.6816C117.199 25.6411 115.955 22.785 114.88 20.3324C113.806 17.8797 112.902 15.8305 112.859 15.7881C112.817 15.7456 111.466 18.5592 109.838 22.063ZM113.785 22.1586L114.753 24.367L112.774 24.3989C111.7 24.4095 110.785 24.3989 110.753 24.3776C110.7 24.3139 112.668 19.9714 112.753 19.9607C112.785 19.9607 113.242 20.9482 113.785 22.1586Z" fill="#050505"/>
<path d="M125.741 15.8837C124.368 16.1704 123.262 16.9242 122.698 17.9541C122.411 18.4638 122.379 18.623 122.379 19.4299C122.379 20.2263 122.411 20.3961 122.688 20.8952C123.092 21.6171 123.666 22.1374 124.496 22.5196C125.155 22.8275 125.453 22.9019 127.357 23.1992C127.932 23.2841 128.581 23.454 128.804 23.5601C129.283 23.8044 129.846 24.4202 129.942 24.7918C130.112 25.4819 129.623 26.1827 128.634 26.6711C128.017 26.9684 127.815 27.0108 127.123 27.0108C125.687 27.0108 124.656 26.5118 124.23 25.6093C124.102 25.3333 123.985 25.0997 123.975 25.0785C123.932 25.0254 122.549 25.8111 122.486 25.9172C122.369 26.0871 122.943 27.0321 123.443 27.4886C125.411 29.3042 129.049 29.1662 130.836 27.2126C132.623 25.2696 131.453 22.286 128.666 21.6596C128.4 21.6065 127.666 21.4791 127.028 21.3836C125.741 21.1924 125.092 20.9482 124.592 20.4705C124.134 20.0245 123.975 19.5467 124.134 19.0583C124.294 18.5699 125.06 17.9116 125.741 17.6993C126.421 17.4763 127.538 17.4657 128.251 17.6781C128.878 17.8692 129.687 18.5275 129.878 19.0265C129.963 19.2176 130.038 19.3981 130.049 19.4193C130.102 19.4936 131.58 18.6336 131.58 18.5275C131.58 18.4744 131.442 18.1771 131.261 17.8798C130.325 16.2341 127.985 15.3953 125.741 15.8837Z" fill="#050505"/>
<path d="M139.782 15.8836C138.367 16.1809 137.239 16.9772 136.718 18.0284C136.474 18.5274 136.42 18.7716 136.42 19.4299C136.42 20.8208 137.133 21.8613 138.537 22.5196C139.197 22.8275 139.494 22.9018 141.42 23.1991C142.749 23.4008 143.42 23.7512 143.792 24.4307C144.292 25.312 143.856 26.1507 142.622 26.7135C141.75 27.1063 140.569 27.1275 139.643 26.7665C139.058 26.5436 138.175 25.7579 138.175 25.4606C138.175 25.3863 138.133 25.2589 138.08 25.1739C138.005 25.0678 137.835 25.1208 137.229 25.4712C136.814 25.7154 136.474 25.9384 136.474 25.9702C136.474 26.2038 137.08 27.1169 137.463 27.4673C139.452 29.2935 143.079 29.1767 144.866 27.2231C146.377 25.5774 145.855 23.1248 143.792 22.0736C143.111 21.7232 142.686 21.6171 141.069 21.3835C140.441 21.2879 139.718 21.118 139.452 21.0119C138.431 20.5659 137.91 19.7059 138.207 18.9733C138.42 18.4743 139.143 17.9009 139.835 17.678C140.611 17.4338 141.962 17.4975 142.654 17.8054C143.249 18.0708 143.888 18.7079 143.973 19.122C144.015 19.2918 144.079 19.4299 144.132 19.4299C144.175 19.4299 144.536 19.2494 144.919 19.0264C145.536 18.6866 145.621 18.6017 145.568 18.3893C145.472 17.9859 145.036 17.3595 144.536 16.9348C143.377 15.9261 141.494 15.5014 139.782 15.8836Z" fill="#050505"/>
<path d="M158.279 22.1375V28.561H159.183H160.087L160.108 24.675L160.14 20.7784L162.48 23.8256C163.757 25.4926 164.842 26.8516 164.884 26.841C164.927 26.8198 166.023 25.4289 167.31 23.7407L169.66 20.6829V24.6219V28.561H170.511H171.362V22.1268C171.362 18.5912 171.32 15.7245 171.277 15.7563C171.224 15.7882 169.777 17.6463 168.054 19.8972C166.331 22.1481 164.906 23.9849 164.874 23.9849C164.842 23.9955 163.385 22.1268 161.629 19.8547C159.874 17.5825 158.406 15.7245 158.364 15.7139C158.311 15.7139 158.279 18.6018 158.279 22.1375Z" fill="#050505"/>
<path d="M29.89 22.2436V28.561H33.9853H38.0806V27.7116V26.8622H34.8362H31.5919V25.0042V23.1461H34.0385H36.485V22.2436V21.3411H34.0385H31.5919V19.4831V17.625H34.8362H38.0806V16.7756V15.9262H33.9853H29.89V22.2436Z" fill="#050505"/>
<path d="M43.0797 22.233V28.561H43.9307H44.7817V23.093V17.625H46.4623C48.4621 17.625 49.0471 17.7524 49.6641 18.347C50.4725 19.1115 50.4831 20.067 49.7066 20.9271C49.1854 21.5004 48.5259 21.6809 46.6325 21.7552L45.1221 21.8189L47.4835 25.1634L49.8556 28.5079L50.9299 28.5398C51.5256 28.5504 52.0149 28.5398 52.0149 28.5079C52.0149 28.4761 51.2277 27.2976 50.2598 25.8854L48.494 23.316L49.0578 23.1992C50.1321 22.9869 51.249 22.0844 51.7277 21.0439C52.0681 20.3219 52.0574 18.931 51.7064 18.2408C51.3022 17.4021 50.6959 16.8181 49.8024 16.3828L48.994 15.9793L46.0368 15.9475L43.0797 15.9156V22.233Z" fill="#050505"/>
<path d="M72.1198 22.2436V28.561H72.9708H73.8217V25.8536V23.1461H76.8533H79.8849V25.036C79.8849 26.0872 79.9168 27.2976 79.9487 27.7435L80.0231 28.561H80.8528H81.6932V22.2436V15.9262H80.789H79.8849V18.6337V21.3411H76.8533H73.8217V18.6337V15.9262H72.9708H72.1198V22.2436Z" fill="#050505"/>
<path d="M92.9676 22.4031C92.9676 25.9599 92.9996 28.8797 93.0527 28.8691C93.0953 28.8691 93.9569 27.7224 94.9781 26.3209C95.9886 24.93 96.8502 23.7833 96.8927 23.794C96.9246 23.794 97.8075 24.8663 98.8606 26.1829L100.765 28.5612H101.86C102.467 28.5612 102.967 28.54 102.967 28.5187C102.967 28.4975 101.871 27.1172 100.531 25.4503C99.201 23.794 98.0734 22.3818 98.0309 22.3181C97.9777 22.2226 100.531 18.6126 102.307 16.2661L102.562 15.9264H101.467L100.36 15.937L97.5416 19.8124L94.7228 23.6984L94.6909 19.8124L94.6696 15.9264H93.8186H92.9676V22.4031Z" fill="#050505"/>
<path d="M150.94 22.2436V28.561H151.791H152.642V22.2436V15.9262H151.791H150.94V22.2436Z" fill="#050505"/>
</g>
<defs>
<clipPath id="clip0_8885_741">
<rect width="187" height="44.5935" fill="white"/>
</clipPath>
</defs>
</svg>
