<svg width="141" height="48" viewBox="0 0 141 48" fill="none" xmlns="http://www.w3.org/2000/svg">
<g clip-path="url(#clip0_8885_784)">
<path d="M17.309 7.75317C17.0561 7.75317 16.8302 7.91436 16.7488 8.15373L11.9557 22.198C11.7693 22.7447 10.9895 22.7281 10.8268 22.1735L6.71552 8.1782C6.64124 7.92619 6.40977 7.75317 6.1467 7.75317H1.44051C1.0376 7.75317 0.752406 8.14583 0.876439 8.52818L8.0933 30.7713C8.17232 31.0154 8.39986 31.1813 8.6566 31.1813H13.5255C13.7799 31.1813 14.0059 31.0186 14.0872 30.7776L19.0731 15.9884C19.254 15.4527 20.01 15.4496 20.1949 15.9836L25.3103 30.7823C25.3933 31.0209 25.6176 31.1813 25.8705 31.1813H30.5964C30.8539 31.1813 31.0822 31.0146 31.1604 30.7689L38.2858 8.5266C38.4082 8.14425 38.1229 7.75317 37.7215 7.75317H33.3029C33.039 7.75317 32.8067 7.92777 32.7333 8.18139L28.7122 22.1537C28.5518 22.7107 27.7689 22.7297 27.5816 22.1814L22.7949 8.15373C22.7135 7.91436 22.4876 7.75317 22.2347 7.75317H17.309ZM38.7926 24.83C38.7926 28.5336 41.8231 31.9015 46.7298 31.9015C49.3905 31.9015 51.3199 30.959 52.6178 29.7827C53.0594 29.3821 53.9791 29.6776 54.0416 30.2701C54.0612 30.4653 54.0835 30.6288 54.103 30.7623C54.1417 31.0143 54.3591 31.1802 54.6134 31.1802H58.6593C59.0614 31.1802 59.0976 30.8231 59.0936 30.4661C59.0859 29.7866 59.0936 28.7652 59.0936 27.4276V15.7858C59.0936 11.1192 56.3514 7.03004 49.1356 7.03004C43.6125 7.03004 40.0272 10.3323 39.3479 14.1568C39.295 14.4531 39.4947 14.7296 39.7878 14.796L43.7206 15.6863C44.0675 15.7645 44.4017 15.5204 44.4798 15.1736C44.9373 13.1361 46.5291 11.6003 49.1836 11.6003C52.2625 11.6003 53.6092 13.1882 53.6092 15.1602C53.6092 15.9778 53.2245 16.6517 51.8778 16.8445L45.8641 17.7577C41.8711 18.3353 38.7926 20.6445 38.7926 24.83ZM47.7885 27.524C45.5757 27.524 44.3732 26.0806 44.3732 24.4935C44.3732 22.569 45.7683 21.6067 47.5001 21.3176L52.929 20.5054C53.2877 20.4525 53.6092 20.7298 53.6092 21.0916V21.4621C53.6092 26.0324 50.9154 27.524 47.7885 27.524ZM68.4368 31.1799C68.7639 31.1799 69.029 30.9145 69.029 30.5874V0.892809C69.029 0.565741 68.7639 0.300293 68.4368 0.300293H64.0409C63.7138 0.300293 63.4483 0.565741 63.4483 0.892809V30.5874C63.4483 30.9145 63.7138 31.1799 64.0409 31.1799H68.4368ZM78.7993 31.1799C79.1264 31.1799 79.3919 30.9145 79.3919 30.5874V0.892809C79.3919 0.565741 79.1264 0.300293 78.7993 0.300293H74.4034C74.0763 0.300293 73.8109 0.565741 73.8109 0.892809V30.5874C73.8109 30.9145 74.0763 31.1799 74.4034 31.1799H78.7993ZM88.2292 18.2903C87.8956 18.3796 87.554 18.1661 87.5311 17.8222C87.3756 15.4805 88.6886 12.7887 91.796 11.9561C95.2344 11.0348 97.5467 12.5884 98.5088 14.9028C98.6382 15.2125 98.4481 15.5522 98.1234 15.6391L88.2292 18.2903ZM101.485 21.2463C101.161 21.2316 100.889 21.4796 100.845 21.8006C100.548 23.9904 99.2822 25.8876 96.2916 26.689C93.1415 27.533 89.9833 26.0393 88.7394 23.0241C88.6108 22.7126 88.8007 22.3705 89.1256 22.2834L104.718 18.1054C104.935 18.0474 105.074 17.8693 105.043 17.6462C104.997 17.3183 104.9 16.8087 104.751 16.2539C102.834 9.09827 97.5117 5.59328 90.5415 7.46092C84.8257 8.99243 80.7984 15.1515 82.7158 22.3079C84.7703 29.9748 91.4026 32.9791 97.5365 31.3356C102.724 29.9455 105.438 26.0892 105.805 22.0264C105.834 21.7021 105.58 21.429 105.256 21.4138L101.485 21.2463ZM115.203 1.17777C115.203 0.849913 114.939 0.585254 114.611 0.585254H110.745C110.417 0.585254 110.153 0.849913 110.153 1.17777V4.0969C110.153 6.16519 109.046 7.75314 106.545 7.75314H105.934C105.607 7.75314 105.341 8.01778 105.341 8.34565V12.1157C105.341 12.4427 105.607 12.7082 105.934 12.7082H109.079C109.406 12.7082 109.671 12.9728 109.671 13.3007V24.4945C109.671 28.872 112.366 31.4697 116.695 31.4697C118.235 31.4697 119.216 31.2461 119.744 31.0754C119.97 31.0035 120.11 30.787 120.11 30.5501V27.0447C120.11 26.6711 119.767 26.3851 119.396 26.4309C119.032 26.4751 118.589 26.5146 118.186 26.5146C116.117 26.5146 115.203 25.6487 115.203 23.5805V13.3007C115.203 12.9728 115.469 12.7082 115.796 12.7082H119.47C119.797 12.7082 120.063 12.4427 120.063 12.1157V8.34565C120.063 8.01778 119.797 7.75314 119.47 7.75314H115.796C115.469 7.75314 115.203 7.48769 115.203 7.16062V1.17777ZM122.197 24.6949C121.917 24.7731 121.732 25.0426 121.789 25.327C122.329 27.9941 125.008 31.9015 131.381 31.9015C137.346 31.9015 140.233 27.9569 140.233 24.3971C140.233 20.9329 137.924 18.2389 133.498 17.2766L129.938 16.5553C128.495 16.267 127.581 15.3529 127.581 14.1023C127.581 12.6589 128.976 11.4083 130.948 11.4083C133.599 11.4083 134.728 12.9639 135.128 14.258C135.234 14.6016 135.585 14.8315 135.931 14.7335L139.483 13.7183C139.773 13.6354 139.957 13.3486 139.884 13.0563C139.286 10.6862 137.028 7.03004 130.948 7.03004C126.089 7.03004 122.336 10.4943 122.336 14.5826C122.336 17.8059 124.502 20.4999 128.638 21.414L132.103 22.1843C133.979 22.569 134.845 23.5312 134.845 24.7818C134.845 26.2252 133.642 27.4758 131.333 27.4758C128.684 27.4758 127.136 25.9961 126.687 24.1822C126.599 23.8236 126.242 23.5739 125.886 23.6726L122.197 24.6949Z" fill="#050505"/>
<path d="M98.6714 46.1804C98.6714 46.9402 99.2789 47.5479 100.038 47.5479C100.798 47.5479 101.422 46.9402 101.422 46.1804C101.422 45.4212 100.798 44.797 100.038 44.797C99.2789 44.797 98.6714 45.4212 98.6714 46.1804ZM102.398 45.2177C102.398 46.5174 103.461 47.6984 105.183 47.6984C106.044 47.6984 106.687 47.4172 107.139 47.0489C107.333 46.8909 107.735 47.1486 107.786 47.3943C107.808 47.4993 107.871 47.4457 107.978 47.4457H109.139C109.389 47.4457 109.581 47.2165 109.558 46.9684C109.537 46.7494 109.52 46.465 109.52 46.1286V42.045C109.52 40.408 108.558 38.9732 106.026 38.9732C104.168 38.9732 102.935 40.039 102.627 41.3102C102.58 41.5054 102.715 41.6903 102.91 41.7346L103.921 41.9635C104.152 42.0158 104.373 41.8504 104.451 41.6271C104.666 41.0157 105.202 40.5761 106.043 40.5761C107.124 40.5761 107.596 41.1334 107.596 41.8253C107.596 42.1122 107.461 42.3482 106.989 42.4163L104.878 42.7369C103.478 42.9392 102.398 43.7489 102.398 45.2177ZM105.554 46.1624C104.777 46.1624 104.356 45.6563 104.356 45.0991C104.356 44.4244 104.845 44.0871 105.453 43.9852L107.229 43.7198C107.422 43.6906 107.596 43.8406 107.596 44.0366C107.596 45.6396 106.65 46.1624 105.554 46.1624ZM114.697 36.8995C114.766 36.8995 114.829 36.9016 114.889 36.905C115.151 36.9184 115.405 36.7232 115.405 36.4602V35.557C115.405 35.4077 115.319 35.2727 115.174 35.2364C114.978 35.1875 114.695 35.1447 114.376 35.1447C112.688 35.1447 111.507 36.2586 111.507 38.0979V38.8335C111.507 39.0522 111.33 39.2284 111.112 39.2284H110.467C110.249 39.2284 110.072 39.4053 110.072 39.6234V40.5384C110.072 40.7564 110.249 40.9333 110.467 40.9333H111.112C111.33 40.9333 111.507 41.1101 111.507 41.3282V47.0526C111.507 47.2707 111.684 47.4479 111.902 47.4479H113.086C113.305 47.4479 113.481 47.2707 113.481 47.0526V41.3282C113.481 41.1101 113.658 40.9333 113.876 40.9333H114.993C115.212 40.9333 115.388 40.7564 115.388 40.5384V39.6234C115.388 39.4053 115.212 39.2284 114.993 39.2284H113.876C113.658 39.2284 113.481 39.0522 113.481 38.8335V38.1484C113.481 37.1364 114.173 36.8995 114.697 36.8995ZM120.905 39.501C120.905 39.313 120.772 39.1485 120.584 39.1343C120.521 39.1296 120.453 39.1265 120.382 39.1265C119.716 39.1265 119.113 39.3254 118.659 39.6881C118.467 39.8414 118.002 39.6999 118.002 39.4542C118.002 39.3294 117.901 39.2275 117.776 39.2275H116.49C116.272 39.2275 116.096 39.4044 116.096 39.6224V47.052C116.096 47.2701 116.272 47.4469 116.49 47.4469H117.658C117.876 47.4469 118.053 47.2701 118.053 47.052V43.5314C118.053 41.9957 118.745 41.1182 120.264 41.1182C120.324 41.1182 120.385 41.1197 120.447 41.1228C120.689 41.134 120.905 40.9506 120.905 40.7081V39.501ZM123.254 47.4472C123.472 47.4472 123.649 47.2704 123.649 47.0523V39.6227C123.649 39.4047 123.472 39.2278 123.254 39.2278H122.103C121.885 39.2278 121.708 39.4047 121.708 39.6227V47.0523C121.708 47.2704 121.885 47.4472 122.103 47.4472H123.254ZM121.405 36.3425C121.405 37.0512 121.978 37.6082 122.67 37.6082C123.379 37.6082 123.952 37.0512 123.952 36.3425C123.952 35.6332 123.379 35.0596 122.67 35.0596C121.978 35.0596 121.405 35.6332 121.405 36.3425ZM128.907 40.7793C129.923 40.7793 130.48 41.3143 130.754 41.9034C130.852 42.1159 131.089 42.2447 131.309 42.1651L132.318 41.7962C132.509 41.7265 132.618 41.5227 132.547 41.3322C132.1 40.1292 130.911 38.9732 128.891 38.9732C126.528 38.9732 124.689 40.7961 124.689 43.327C124.689 45.8251 126.528 47.6984 128.941 47.6984C130.905 47.6984 132.101 46.5409 132.594 45.367C132.676 45.1734 132.567 44.9594 132.37 44.8875L131.394 44.5335C131.18 44.456 130.947 44.5762 130.843 44.7785C130.558 45.3298 129.974 45.9097 128.941 45.9097C127.709 45.9097 126.646 44.9813 126.646 43.327C126.646 41.6736 127.709 40.7793 128.907 40.7793ZM133.06 45.2177C133.06 46.5174 134.124 47.6984 135.845 47.6984C136.706 47.6984 137.349 47.4172 137.801 47.0489C137.996 46.8909 138.398 47.1486 138.448 47.3943C138.47 47.4993 138.533 47.4457 138.64 47.4457H139.802C140.051 47.4457 140.243 47.2165 140.22 46.9684C140.2 46.7494 140.182 46.465 140.182 46.1286V42.045C140.182 40.408 139.22 38.9732 136.689 38.9732C134.83 38.9732 133.597 40.039 133.29 41.3102C133.242 41.5054 133.376 41.6903 133.572 41.7346L134.583 41.9635C134.814 42.0158 135.036 41.8504 135.114 41.6271C135.328 41.0157 135.865 40.5761 136.705 40.5761C137.786 40.5761 138.258 41.1334 138.258 41.8253C138.258 42.1122 138.124 42.3482 137.65 42.4163L135.541 42.7369C134.14 42.9392 133.06 43.7489 133.06 45.2177ZM136.217 46.1624C135.44 46.1624 135.018 45.6563 135.018 45.0991C135.018 44.4244 135.507 44.0871 136.115 43.9852L137.891 43.7198C138.084 43.6906 138.258 43.8406 138.258 44.0366C138.258 45.6396 137.313 46.1624 136.217 46.1624Z" fill="#050505"/>
</g>
<defs>
<clipPath id="clip0_8885_784">
<rect width="139.386" height="47.7009" fill="white" transform="translate(0.847137 0.300293)"/>
</clipPath>
</defs>
</svg>
