<svg width="36" height="36" viewBox="0 0 36 36" fill="none" xmlns="http://www.w3.org/2000/svg">
<rect x="0.580629" y="0.580629" width="34.8387" height="34.8387" rx="17.4194" stroke="#7D7D7D" stroke-width="1.16126"/>
<path d="M26.4547 25.2223C26.5356 25.3032 26.5998 25.3993 26.6436 25.505C26.6874 25.6107 26.7099 25.724 26.7099 25.8385C26.7099 25.9529 26.6874 26.0662 26.6436 26.1719C26.5998 26.2777 26.5356 26.3737 26.4547 26.4547C26.3737 26.5356 26.2777 26.5998 26.1719 26.6436C26.0662 26.6874 25.9529 26.7099 25.8385 26.7099C25.724 26.7099 25.6107 26.6874 25.505 26.6436C25.3993 26.5998 25.3032 26.5356 25.2223 26.4547L18 19.2313L10.7777 26.4547C10.6142 26.6181 10.3926 26.7099 10.1615 26.7099C9.93035 26.7099 9.7087 26.6181 9.54527 26.4547C9.38185 26.2912 9.29004 26.0696 9.29004 25.8385C9.29004 25.6073 9.38185 25.3857 9.54527 25.2223L16.7687 18L9.54527 10.7777C9.38185 10.6142 9.29004 10.3926 9.29004 10.1615C9.29004 9.93035 9.38185 9.7087 9.54527 9.54527C9.7087 9.38185 9.93035 9.29004 10.1615 9.29004C10.3926 9.29004 10.6142 9.38185 10.7777 9.54527L18 16.7687L25.2223 9.54527C25.3857 9.38185 25.6073 9.29004 25.8385 9.29004C26.0696 9.29004 26.2912 9.38185 26.4547 9.54527C26.6181 9.7087 26.7099 9.93035 26.7099 10.1615C26.7099 10.3926 26.6181 10.6142 26.4547 10.7777L19.2313 18L26.4547 25.2223Z" fill="#7D7D7D"/>
</svg>
