<svg width="137" height="49" viewBox="0 0 137 49" fill="none" xmlns="http://www.w3.org/2000/svg">
<rect x="-0.137571" y="0.763798" width="19.4577" height="8.21783" rx="4.10892" transform="matrix(-0.821252 0.570566 0.570566 0.821252 38.5511 18.861)" fill="#F8AD00" stroke="black" stroke-width="1.09755"/>
<rect x="27.9733" y="12.4669" width="19.4577" height="8.21783" rx="4.10892" transform="rotate(34.7897 27.9733 12.4669)" fill="#38A952" stroke="black" stroke-width="1.09755"/>
<rect x="0.137571" y="-0.763798" width="19.4577" height="8.21783" rx="4.10892" transform="matrix(0.821252 -0.570566 -0.570566 -0.821252 5.0678 29.7488)" fill="#E8443D" stroke="black" stroke-width="1.09755"/>
<rect x="16.7435" y="37.243" width="19.4577" height="8.21783" rx="4.10892" transform="rotate(-145.21 16.7435 37.243)" fill="#3F86F9" stroke="black" stroke-width="1.09755"/>
<path d="M54.6825 23.7074H49.085V7.94652H54.6825C59.6874 7.94652 62.7166 11.1514 62.7166 15.7392C62.7166 20.3269 59.5776 23.7074 54.6825 23.7074ZM52.4216 10.8221V20.8318H54.5069C57.6459 20.8318 59.2923 19.0099 59.2923 15.7392C59.2923 12.6002 57.6459 10.8221 54.5069 10.8221H52.4216Z" fill="white"/>
<path d="M69.9142 23.905C66.4021 23.905 64.0533 21.4684 64.0533 17.8026C64.0533 14.3123 66.4899 11.766 69.8703 11.766C73.5801 11.766 76.0386 14.7733 75.4898 18.5928H67.1704C67.3679 20.5025 68.2899 21.5562 69.8484 21.5562C71.1874 21.5562 72.0874 20.8977 72.4386 19.7343H75.4679C74.8093 22.3903 72.7679 23.905 69.9142 23.905ZM69.8045 14.005C68.3777 14.005 67.4777 14.927 67.2143 16.6611H72.263C72.1752 15.0367 71.2533 14.005 69.8045 14.005Z" fill="white"/>
<path d="M88.3801 11.9855L84.0777 23.7074H80.7411L76.4167 11.9855H79.7094L82.4972 20.2391L85.3069 11.9855H88.3801Z" fill="white"/>
<path d="M93.4216 23.7074H90.085V7.94652H100.27V10.8441H93.4216V14.8172H99.1947V17.6928H93.4216V23.7074Z" fill="white"/>
<path d="M107.914 23.905C104.402 23.905 102.053 21.4684 102.053 17.8026C102.053 14.3123 104.49 11.766 107.87 11.766C111.58 11.766 114.039 14.7733 113.49 18.5928H105.17C105.368 20.5025 106.29 21.5562 107.848 21.5562C109.187 21.5562 110.087 20.8977 110.439 19.7343H113.468C112.809 22.3903 110.768 23.905 107.914 23.905ZM107.804 14.005C106.378 14.005 105.478 14.927 105.214 16.6611H110.263C110.175 15.0367 109.253 14.005 107.804 14.005Z" fill="white"/>
<path d="M125.722 19.9538C125.722 22.4123 123.856 23.9269 120.519 23.9269C117.183 23.9269 115.317 22.3245 115.075 19.7123H117.995C118.017 20.9196 119.048 21.6879 120.563 21.6879C121.748 21.6879 122.648 21.3147 122.648 20.4806C122.648 19.7343 122.165 19.4269 121.046 19.2074L118.939 18.8123C116.831 18.4391 115.558 17.2757 115.558 15.4538C115.558 13.2806 117.424 11.766 120.344 11.766C123.285 11.766 125.304 13.3245 125.524 15.8489H122.604C122.495 14.7075 121.639 14.005 120.344 14.005C119.224 14.005 118.478 14.4221 118.478 15.1684C118.478 15.8709 118.961 16.1562 120.014 16.3538L122.275 16.7709C124.558 17.2099 125.722 18.2635 125.722 19.9538Z" fill="white"/>
<path d="M135.109 20.744V23.4001C134.363 23.7733 133.661 23.9269 132.761 23.9269C130.346 23.9269 128.831 22.544 128.831 19.9099V14.5977H126.461V11.9855H128.831V8.51725H131.861V11.9855H135.219V14.5977H131.861V19.2074C131.861 20.5684 132.475 21.1172 133.573 21.1172C134.144 21.1172 134.67 20.9855 135.109 20.744Z" fill="white"/>
<rect x="50.8937" y="30.9818" width="82.1338" height="17.7439" rx="8.87194" stroke="white" stroke-width="0.548777"/>
<path d="M82.3496 44.3537H77.8497V36.4733H78.6728V43.6183H82.3496V44.3537ZM86.9647 44.3537V43.3C86.6244 44.0244 85.922 44.4635 85.022 44.4635C83.8257 44.4635 83.0464 43.7939 83.0464 42.7513C83.0464 41.6208 83.9464 41.0281 85.7025 41.0281C86.0537 41.0281 86.3171 41.0501 86.8878 41.094V40.611C86.8878 39.6452 86.372 39.0745 85.4939 39.0745C84.55 39.0745 83.9574 39.6562 83.9464 40.6001H83.244C83.2769 39.3159 84.1659 38.4598 85.483 38.4598C86.833 38.4598 87.6232 39.2501 87.6232 40.5891V44.3537H86.9647ZM83.7818 42.7293C83.7818 43.4318 84.3196 43.9037 85.1317 43.9037C86.2074 43.9037 86.8878 43.2013 86.8878 42.1147V41.5988C86.3939 41.5549 86.0537 41.544 85.7354 41.544C84.4183 41.544 83.7818 41.9281 83.7818 42.7293ZM91.3137 46.5927C89.843 46.5927 88.9211 45.8244 88.8552 44.5293H89.5906C89.6564 45.4732 90.271 45.9781 91.3027 45.9781C92.4442 45.9781 93.0479 45.3744 93.0479 44.233V43.0257C92.6966 43.8378 91.9942 44.3098 91.1381 44.3098C89.6784 44.3098 88.7015 43.1354 88.7015 41.3793C88.7015 39.6232 89.6674 38.4598 91.1271 38.4598C91.9942 38.4598 92.7186 38.9537 93.0918 39.7988V38.5696H93.8052V44.222C93.8052 45.7147 92.8942 46.5927 91.3137 46.5927ZM89.4698 41.3793C89.4698 42.7952 90.1393 43.6513 91.2479 43.6513C92.3344 43.6513 93.0588 42.7732 93.0588 41.4342C93.0588 40.0184 92.3454 39.1184 91.2479 39.1184C90.1503 39.1184 89.4698 39.9745 89.4698 41.3793ZM97.6809 44.4635C96.0895 44.4635 94.937 43.2013 94.937 41.4562C94.937 39.722 96.0895 38.4708 97.6809 38.4708C99.2833 38.4708 100.436 39.722 100.436 41.4562C100.436 43.2013 99.2833 44.4635 97.6809 44.4635ZM97.6809 43.7939C98.8114 43.7939 99.6565 42.894 99.6565 41.4562C99.6565 40.0403 98.8114 39.1403 97.6809 39.1403C96.5614 39.1403 95.7163 40.0403 95.7163 41.4562C95.7163 42.894 96.5614 43.7939 97.6809 43.7939ZM105.893 42.7403C105.893 43.8049 105.037 44.4635 103.61 44.4635C102.172 44.4635 101.294 43.7391 101.184 42.5427H101.92C101.974 43.3659 102.622 43.8818 103.61 43.8818C104.554 43.8818 105.124 43.5196 105.124 42.861C105.124 42.2903 104.795 42.0269 103.917 41.8513L103.083 41.6866C101.985 41.4781 101.404 40.9403 101.404 40.1062C101.404 39.1403 102.26 38.4598 103.522 38.4598C104.85 38.4598 105.728 39.1732 105.816 40.3257H105.092C105.015 39.5245 104.433 39.0525 103.522 39.0525C102.71 39.0525 102.15 39.4367 102.15 40.0403C102.15 40.611 102.501 40.8854 103.357 41.0501L104.224 41.2147C105.377 41.4342 105.893 41.9171 105.893 42.7403Z" fill="white"/>
</svg>
