<svg width="17" height="18" viewBox="0 0 17 18" fill="none" xmlns="http://www.w3.org/2000/svg">
<path d="M7.73149 6.2446C7.73149 6.04643 7.79026 5.85271 7.90035 5.68794C8.01045 5.52317 8.16693 5.39474 8.35002 5.31891C8.5331 5.24307 8.73456 5.22323 8.92893 5.26189C9.12329 5.30055 9.30182 5.39598 9.44195 5.53611C9.58207 5.67623 9.6775 5.85477 9.71616 6.04913C9.75482 6.24349 9.73498 6.44495 9.65914 6.62803C9.58331 6.81112 9.45489 6.9676 9.29011 7.0777C9.12534 7.1878 8.93162 7.24656 8.73345 7.24656C8.46772 7.24656 8.21286 7.141 8.02496 6.95309C7.83706 6.76519 7.73149 6.51034 7.73149 6.2446ZM15.7472 8.99999C15.7472 10.3376 15.3505 11.6452 14.6074 12.7574C13.8642 13.8697 12.8079 14.7365 11.5721 15.2484C10.3363 15.7603 8.97644 15.8942 7.6645 15.6333C6.35256 15.3723 5.14747 14.7282 4.20161 13.7823C3.25576 12.8365 2.61162 11.6314 2.35066 10.3194C2.0897 9.00749 2.22363 7.64763 2.73553 6.41181C3.24742 5.17599 4.11428 4.11972 5.22649 3.37657C6.3387 2.63341 7.6463 2.23676 8.98394 2.23676C10.7771 2.23874 12.4962 2.95194 13.7641 4.21986C15.032 5.48778 15.7452 7.20688 15.7472 8.99999ZM14.2442 8.99999C14.2442 7.9596 13.9357 6.94258 13.3577 6.07753C12.7797 5.21248 11.9582 4.53825 10.997 4.14011C10.0358 3.74197 8.97811 3.6378 7.95771 3.84077C6.93731 4.04374 6.00002 4.54474 5.26435 5.2804C4.52869 6.01607 4.02769 6.95336 3.82472 7.97376C3.62175 8.99416 3.72592 10.0518 4.12406 11.013C4.5222 11.9742 5.19643 12.7958 6.06148 13.3738C6.92653 13.9518 7.94356 14.2603 8.98394 14.2603C10.3786 14.2588 11.7157 13.7041 12.7019 12.7179C13.6881 11.7318 14.2427 10.3947 14.2442 8.99999ZM9.73541 11.297V9.25048C9.73541 8.91831 9.60346 8.59975 9.36858 8.36487C9.1337 8.12999 8.81513 7.99803 8.48296 7.99803C8.3055 7.99777 8.13366 8.06032 7.9979 8.17461C7.86213 8.2889 7.77119 8.44755 7.74119 8.62246C7.71119 8.79737 7.74406 8.97726 7.83398 9.13026C7.9239 9.28326 8.06506 9.3995 8.23247 9.45839V11.5049C8.23247 11.8371 8.36443 12.1556 8.59931 12.3905C8.83419 12.6254 9.15275 12.7573 9.48492 12.7573C9.66239 12.7576 9.83422 12.6951 9.96999 12.5808C10.1058 12.4665 10.1967 12.3078 10.2267 12.1329C10.2567 11.958 10.2238 11.7781 10.1339 11.6251C10.044 11.4721 9.90282 11.3559 9.73541 11.297Z" fill="#B3B3B3"/>
</svg>
