<svg width="25" height="24" viewBox="0 0 25 24" fill="none" xmlns="http://www.w3.org/2000/svg">
<path d="M22.43 6.76001L19.06 20.29C18.82 21.3 17.92 22 16.88 22H3.73998C2.22998 22 1.14999 20.5199 1.59999 19.0699L5.80998 5.55005C6.09998 4.61005 6.97 3.95996 7.95 3.95996H20.25C21.2 3.95996 21.99 4.53997 22.32 5.33997C22.51 5.76997 22.55 6.26001 22.43 6.76001Z" stroke="#0A0A0A" stroke-width="1.5" stroke-miterlimit="10"/>
<path d="M16.5 22H21.28C22.57 22 23.58 20.91 23.49 19.62L22.5 6" stroke="#0A0A0A" stroke-width="1.5" stroke-miterlimit="10" stroke-linecap="round" stroke-linejoin="round"/>
<path d="M10.18 6.38L11.22 2.06006" stroke="#0A0A0A" stroke-width="1.5" stroke-miterlimit="10" stroke-linecap="round" stroke-linejoin="round"/>
<path d="M16.88 6.38977L17.82 2.0498" stroke="#0A0A0A" stroke-width="1.5" stroke-miterlimit="10" stroke-linecap="round" stroke-linejoin="round"/>
<path d="M8.20001 12H16.2" stroke="#0A0A0A" stroke-width="1.5" stroke-miterlimit="10" stroke-linecap="round" stroke-linejoin="round"/>
<path d="M7.20001 16H15.2" stroke="#0A0A0A" stroke-width="1.5" stroke-miterlimit="10" stroke-linecap="round" stroke-linejoin="round"/>
</svg>
