<svg width="352" height="278" viewBox="0 0 352 278" fill="none" xmlns="http://www.w3.org/2000/svg">
<g filter="url(#filter0_d_8450_628)">
<rect x="29.2473" y="146" width="107" height="88" rx="4" transform="rotate(8 29.2473 146)" fill="#DFF1E4" shape-rendering="crispEdges"/>
<path d="M34.5658 198.139C33.9241 198.049 33.3389 197.815 32.8103 197.438C32.2816 197.061 31.8766 196.58 31.5953 195.995C31.3156 195.398 31.2284 194.725 31.3336 193.977C31.4221 193.347 31.671 192.697 32.0801 192.028C32.5029 191.348 33.0155 190.675 33.6182 190.008C34.2344 189.331 34.8863 188.702 35.574 188.12C36.2633 187.526 36.93 187.008 37.5738 186.565C38.2194 186.11 38.7837 185.759 39.2668 185.512C39.7499 185.265 40.0806 185.154 40.2588 185.179C40.4846 185.211 40.6715 185.304 40.8195 185.458C40.9811 185.602 41.0502 185.799 41.027 186.051C41.0103 186.169 40.9495 186.3 40.8447 186.443C40.7414 186.574 40.5601 186.7 40.3008 186.821C40.0159 186.951 39.6481 187.153 39.1973 187.429C38.7466 187.705 38.2569 188.042 37.7283 188.441C37.2014 188.827 36.6746 189.256 36.1479 189.727C35.6228 190.187 35.1309 190.669 34.6722 191.174C34.2151 191.667 33.8369 192.159 33.5376 192.65C33.2384 193.142 33.057 193.613 32.9935 194.064C32.895 194.766 33.0159 195.328 33.3563 195.751C33.6967 196.175 34.2115 196.435 34.9007 196.532C35.2572 196.582 35.6932 196.54 36.2088 196.407C36.7244 196.273 37.2611 196.076 37.8189 195.815C38.3885 195.556 38.9385 195.264 39.469 194.938C40.0011 194.601 40.461 194.26 40.8489 193.914C41.2486 193.571 41.5245 193.246 41.6765 192.94C41.3694 192.97 40.9843 192.994 40.521 193.014C40.0578 193.034 39.5775 193.045 39.0803 193.048C38.5949 193.052 38.1528 193.051 37.754 193.043C37.3552 193.035 37.0667 193.019 36.8884 192.994C36.52 192.942 36.2422 192.806 36.0551 192.586C35.8798 192.368 35.8055 192.163 35.8322 191.973C35.8506 191.842 35.9216 191.725 36.0452 191.621C36.1689 191.518 36.3461 191.464 36.5769 191.46C36.8433 191.461 37.1955 191.456 37.6333 191.445C38.0847 191.423 38.553 191.41 39.0384 191.406C39.5373 191.391 39.9929 191.382 40.4053 191.38C40.8296 191.379 41.1486 191.393 41.3625 191.424C41.9805 191.51 42.4121 191.759 42.6574 192.169C42.9044 192.567 42.9811 193.099 42.8876 193.765C42.8425 194.085 42.6269 194.455 42.241 194.873C41.855 195.292 41.3536 195.712 40.7368 196.134C40.1336 196.546 39.4692 196.919 38.7436 197.254C38.0299 197.59 37.3093 197.846 36.5816 198.022C35.8557 198.187 35.1837 198.226 34.5658 198.139ZM53.4459 192.231C53.3674 192.79 53.1268 193.337 52.7241 193.875C52.3231 194.4 51.7285 194.88 50.9404 195.314C50.1658 195.739 49.1789 196.079 47.9796 196.334C47.9069 197.196 48.0416 197.833 48.3836 198.245C48.7257 198.657 49.3542 198.927 50.2692 199.055C50.9822 199.156 51.689 199.128 52.3895 198.972C53.1019 198.817 53.7734 198.566 54.4039 198.219C54.3437 197.871 54.3115 197.497 54.3072 197.096C54.3029 196.696 54.3316 196.276 54.3934 195.836C54.527 194.885 54.7653 194.095 55.1084 193.464C55.4515 192.834 55.8433 192.374 56.2839 192.085C56.7363 191.797 57.1705 191.682 57.5864 191.741C58.1212 191.816 58.5282 192.067 58.8075 192.494C59.1003 192.911 59.1925 193.505 59.0839 194.278C58.962 195.145 58.6228 195.964 58.0662 196.734C57.5096 197.504 56.8331 198.178 56.0368 198.757C56.199 199.156 56.4101 199.464 56.6702 199.682C56.9423 199.902 57.2506 200.037 57.5952 200.085C58.0111 200.143 58.4786 200.094 58.9975 199.937C59.5283 199.781 60.0811 199.556 60.6557 199.261C61.2303 198.966 61.7913 198.639 62.3386 198.28C62.8876 197.908 63.3815 197.541 63.8202 197.179C63.932 197.074 64.0379 197.01 64.138 196.987C64.2397 196.953 64.3322 196.942 64.4154 196.954C64.6649 196.989 64.7705 197.143 64.7321 197.416C64.7037 197.618 64.5709 197.83 64.3339 198.051C63.8783 198.447 63.3412 198.863 62.7228 199.297C62.1162 199.733 61.4782 200.134 60.8087 200.5C60.1511 200.868 59.5051 201.153 58.8709 201.355C58.2485 201.558 57.6878 201.625 57.1887 201.555C56.6658 201.481 56.1927 201.269 55.7694 200.919C55.3579 200.57 55.0293 200.106 54.7836 199.526C53.9988 199.937 53.1756 200.233 52.3139 200.415C51.4522 200.597 50.6232 200.632 49.8271 200.52C48.5199 200.336 47.6075 199.845 47.0897 199.045C46.572 198.245 46.3992 197.233 46.5712 196.009C46.7048 195.058 46.9583 194.203 47.3316 193.444C47.7185 192.674 48.1675 192.022 48.6788 191.488C49.1918 190.942 49.7272 190.539 50.2849 190.278C50.8427 190.017 51.3651 189.921 51.8523 189.989C52.4822 190.078 52.9248 190.334 53.1803 190.758C53.4359 191.181 53.5244 191.673 53.4459 192.231ZM48.206 195.112C48.8419 194.898 49.4513 194.614 50.0343 194.26C50.6308 193.895 51.1221 193.504 51.5081 193.086C51.9059 192.669 52.1316 192.271 52.185 191.89C52.2084 191.724 52.1903 191.594 52.1307 191.501C52.0728 191.396 51.9487 191.33 51.7586 191.303C51.4734 191.263 51.1579 191.352 50.8122 191.57C50.4682 191.776 50.1244 192.067 49.7807 192.443C49.4387 192.807 49.1257 193.223 48.8417 193.692C48.5695 194.163 48.3576 194.636 48.206 195.112ZM55.751 197.299C56.315 196.821 56.7839 196.287 57.1576 195.697C57.5313 195.108 57.7616 194.504 57.8484 193.886C57.9219 193.363 57.8279 193.083 57.5665 193.046C57.1981 192.995 56.8456 193.218 56.5091 193.716C56.186 194.204 55.9661 194.863 55.8491 195.695C55.7673 196.278 55.7346 196.812 55.751 197.299ZM70.8709 204.314C70.0985 204.205 69.4113 203.921 68.8095 203.461C68.2196 203.002 67.7041 202.445 67.2631 201.789C66.834 201.135 66.4641 200.447 66.1536 199.725C65.8567 198.992 65.6074 198.309 65.4057 197.674C65.0684 198.609 64.7986 199.364 64.5962 199.942C64.4058 200.521 64.2532 200.96 64.1385 201.259C64.0356 201.56 63.947 201.759 63.8725 201.858C63.7981 201.956 63.7133 201.999 63.6183 201.986C63.3568 201.949 63.1273 201.771 62.9298 201.453C62.7322 201.134 62.6651 200.749 62.7286 200.297C62.7954 199.822 62.9671 199.204 63.2437 198.443C63.5219 197.67 63.8654 196.822 64.2739 195.898C64.6961 194.963 65.164 194.005 65.6777 193.023C66.193 192.029 66.7161 191.067 67.2468 190.135C67.7912 189.194 68.3229 188.342 68.8422 187.579C69.101 187.203 69.3101 186.966 69.4694 186.867C69.6405 186.77 69.8331 186.736 70.047 186.766C70.3916 186.815 70.5413 186.999 70.4963 187.32C70.4796 187.439 70.4255 187.565 70.3342 187.697C70.2547 187.832 70.1668 187.983 70.0705 188.151C69.7831 188.644 69.4628 189.199 69.1095 189.815C68.7681 190.434 68.4166 191.081 68.0549 191.758C67.7052 192.436 67.3681 193.109 67.0438 193.779C66.7195 194.448 66.4324 195.068 66.1825 195.639C66.7436 195.354 67.3938 195.082 68.1332 194.822C68.8725 194.563 69.6306 194.342 70.4074 194.16C71.1859 193.967 71.9145 193.827 72.5931 193.741C73.2718 193.654 73.825 193.641 74.2528 193.701C74.4785 193.733 74.6408 193.828 74.7396 193.988C74.852 194.137 74.8964 194.294 74.8731 194.461C74.8547 194.592 74.7947 194.716 74.6932 194.835C74.6052 194.944 74.4357 195.029 74.1846 195.091C73.3619 195.254 72.5443 195.424 71.7319 195.601C70.921 195.766 70.0712 195.949 69.1824 196.151C68.3072 196.343 67.3463 196.584 66.2999 196.873C66.5354 197.439 66.8185 198.055 67.1492 198.719C67.4816 199.372 67.8479 199.999 68.2481 200.601C68.65 201.19 69.0762 201.692 69.5269 202.107C69.9792 202.51 70.4549 202.747 70.954 202.817C71.6076 202.909 72.2566 202.86 72.9011 202.672C73.5455 202.484 74.1508 202.23 74.7169 201.91C75.2949 201.591 75.8058 201.275 76.2497 200.962C76.6953 200.637 77.046 200.383 77.3019 200.201C77.4357 200.11 77.5527 200.054 77.6528 200.032C77.7664 199.999 77.8648 199.989 77.948 200.001C78.1144 200.024 78.2147 200.129 78.2491 200.316C78.297 200.492 78.2117 200.668 77.9932 200.843C77.8272 200.99 77.5715 201.214 77.2259 201.517C76.8804 201.82 76.4645 202.149 75.9783 202.505C75.5056 202.851 74.987 203.178 74.4226 203.486C73.8701 203.796 73.286 204.029 72.6703 204.185C72.0648 204.354 71.465 204.397 70.8709 204.314ZM76.2289 198.287C75.9114 198.218 75.7921 197.989 75.8709 197.6C75.8962 197.507 75.9774 197.403 76.1146 197.289C76.2535 197.163 76.401 197.105 76.5572 197.115C76.9305 197.131 77.3896 197.141 77.9344 197.145C78.4927 197.139 79.1062 197.128 79.7748 197.113C79.9754 196.547 80.2041 195.955 80.4606 195.337C80.7172 194.719 80.989 194.121 81.2762 193.543C81.5651 192.954 81.8575 192.425 82.1534 191.958C82.4493 191.49 82.7421 191.132 83.0317 190.881C83.1808 190.769 83.3122 190.697 83.4258 190.664C83.5411 190.62 83.6403 190.603 83.7235 190.615C83.8899 190.639 84.0106 190.728 84.0856 190.884C84.1725 191.042 84.2034 191.21 84.1784 191.388C84.165 191.483 84.1338 191.576 84.0848 191.666C83.7536 192.298 83.3829 193.082 82.9726 194.018C82.5624 194.954 82.1218 195.976 81.6508 197.086C82.7691 197.061 83.8891 197.025 85.0107 196.976C86.1324 196.928 87.0971 196.876 87.9047 196.819C88.1439 196.756 88.3137 196.798 88.4141 196.946C88.5265 197.095 88.5735 197.235 88.5551 197.365C88.5317 197.532 88.4666 197.65 88.3599 197.72C88.265 197.791 88.1659 197.85 88.0625 197.896L88.0421 197.911C87.7911 197.973 87.4187 198.036 86.925 198.1C86.433 198.152 85.868 198.205 85.23 198.261C84.5937 198.305 83.9159 198.343 83.1964 198.375C82.4888 198.409 81.7888 198.432 81.0964 198.444C80.6761 199.451 80.2457 200.487 79.8052 201.552C79.3783 202.607 78.9538 203.644 78.5319 204.663C78.3529 205.074 78.1787 205.323 78.0092 205.408C77.8499 205.507 77.687 205.544 77.5207 205.521C77.3305 205.494 77.1742 205.4 77.0516 205.237C76.9409 205.076 76.964 204.782 77.1209 204.356L79.2764 198.461C78.5483 198.467 77.9077 198.456 77.3544 198.427C76.8129 198.399 76.4378 198.352 76.2289 198.287ZM90.32 207.53C90.118 207.501 89.9582 207.388 89.8407 207.19C89.7231 206.992 89.6886 206.72 89.737 206.375C89.7938 205.971 89.9342 205.403 90.1582 204.671C90.3942 203.941 90.7238 202.976 91.147 201.775C90.7193 202.49 90.2617 203.159 89.7744 203.781C89.2989 204.405 88.8172 204.901 88.3293 205.269C87.8414 205.636 87.3717 205.789 86.9201 205.725C86.4804 205.663 86.1125 205.436 85.8163 205.043C85.532 204.651 85.4508 204.022 85.5727 203.155C85.6412 202.667 85.7596 202.127 85.928 201.532C86.098 200.926 86.291 200.329 86.5069 199.741C86.7227 199.154 86.9294 198.631 87.127 198.174C87.3262 197.706 87.4951 197.366 87.6338 197.155C87.7437 196.977 87.8444 196.863 87.9359 196.816C88.0291 196.756 88.147 196.736 88.2896 196.756C88.456 196.78 88.6242 196.876 88.7943 197.045C88.9644 197.215 89.0261 197.466 88.9793 197.799C88.9676 197.882 88.8985 198.072 88.7719 198.369C88.6588 198.656 88.512 199.011 88.3313 199.434C88.1643 199.847 87.9862 200.295 87.7973 200.777C87.6083 201.259 87.4371 201.744 87.2838 202.232C87.1424 202.721 87.0424 203.173 86.984 203.589C86.9522 203.815 86.9501 204.002 86.9776 204.152C87.0051 204.301 87.1139 204.389 87.3041 204.416C87.4704 204.439 87.7018 204.302 87.9981 204.004C88.3063 203.708 88.6473 203.308 89.0212 202.803C89.4087 202.288 89.8104 201.714 90.2265 201.082C90.6544 200.451 91.0729 199.801 91.4821 199.132C91.9032 198.464 92.2895 197.827 92.6411 197.223C92.7662 197.022 92.8856 196.905 92.9992 196.873C93.1145 196.829 93.2375 196.816 93.3683 196.834C93.5822 196.864 93.7598 196.98 93.9011 197.181C94.0559 197.373 94.1142 197.605 94.0758 197.879C94.0507 198.057 93.9716 198.361 93.8385 198.79C93.7173 199.222 93.5556 199.726 93.3532 200.304C93.1644 200.871 92.9528 201.471 92.7184 202.105C92.4958 202.74 92.2741 203.369 92.0532 203.993C91.8339 204.604 91.6282 205.163 91.4358 205.669C91.2554 206.177 91.107 206.586 90.9906 206.897C90.8894 207.186 90.7795 207.364 90.6609 207.432C90.5525 207.514 90.4388 207.547 90.32 207.53ZM94.8196 200.9C94.5021 200.831 94.3828 200.602 94.4617 200.213C94.4869 200.12 94.5682 200.016 94.7054 199.902C94.8442 199.776 94.9917 199.718 95.1479 199.728C95.5213 199.744 95.9804 199.754 96.5251 199.758C97.0834 199.751 97.6969 199.741 98.3655 199.726C98.5662 199.16 98.7948 198.568 99.0513 197.95C99.3079 197.331 99.5798 196.733 99.8669 196.156C100.156 195.566 100.448 195.038 100.744 194.57C101.04 194.103 101.333 193.744 101.622 193.494C101.772 193.382 101.903 193.309 102.017 193.277C102.132 193.233 102.231 193.216 102.314 193.228C102.481 193.251 102.601 193.341 102.676 193.497C102.763 193.655 102.794 193.822 102.769 194.001C102.756 194.096 102.725 194.188 102.676 194.278C102.344 194.91 101.974 195.695 101.563 196.631C101.153 197.567 100.713 198.589 100.242 199.698C101.36 199.674 102.48 199.637 103.601 199.589C104.723 199.541 105.688 199.488 106.495 199.432C106.735 199.369 106.904 199.411 107.005 199.558C107.117 199.707 107.164 199.847 107.146 199.978C107.122 200.144 107.057 200.262 106.951 200.332C106.856 200.404 106.757 200.463 106.653 200.509L106.633 200.524C106.382 200.586 106.009 200.648 105.516 200.712C105.024 200.764 104.459 200.818 103.821 200.874C103.184 200.918 102.507 200.956 101.787 200.988C101.08 201.022 100.38 201.045 99.6872 201.056C99.2669 202.064 98.8365 203.1 98.396 204.165C97.969 205.22 97.5445 206.257 97.1226 207.276C96.9436 207.687 96.7694 207.935 96.5999 208.021C96.4406 208.119 96.2778 208.157 96.1114 208.134C95.9213 208.107 95.7649 208.012 95.6424 207.85C95.5317 207.689 95.5548 207.395 95.7116 206.969L97.8671 201.073C97.1391 201.08 96.4984 201.069 95.9451 201.04C95.4037 201.012 95.0285 200.965 94.8196 200.9ZM106.391 208.524C105.69 208.426 105.175 208.081 104.846 207.489C104.517 206.897 104.413 206.174 104.533 205.318C104.576 205.009 104.664 204.688 104.795 204.356C104.941 204.012 105.105 203.708 105.287 203.443C105.216 203.348 105.166 203.226 105.139 203.077C105.113 202.916 105.116 202.722 105.148 202.496C105.246 201.795 105.455 201.17 105.775 200.621C106.094 200.073 106.48 199.612 106.932 199.239C107.386 198.855 107.868 198.577 108.376 198.406C108.897 198.237 109.407 198.187 109.906 198.257C110.726 198.373 111.35 198.763 111.777 199.429C112.206 200.083 112.336 201.01 112.168 202.211C112.079 202.84 111.894 203.469 111.612 204.096C111.342 204.724 111.004 205.319 110.598 205.88C110.204 206.442 109.765 206.932 109.282 207.349C108.812 207.768 108.324 208.087 107.821 208.307C107.331 208.517 106.854 208.589 106.391 208.524ZM106.549 203.002C106.607 203.107 106.625 203.237 106.603 203.392C106.578 203.57 106.517 203.743 106.421 203.911C106.337 204.081 106.237 204.316 106.122 204.615C106.008 204.914 105.91 205.348 105.83 205.919C105.75 206.489 105.935 206.806 106.387 206.869C106.886 206.94 107.377 206.809 107.86 206.477C108.345 206.133 108.798 205.669 109.219 205.086C109.64 204.503 109.99 203.868 110.268 203.18C110.56 202.482 110.751 201.812 110.842 201.17C110.9 200.754 110.864 200.452 110.733 200.264C110.603 200.064 110.336 199.936 109.932 199.879C109.517 199.82 109.063 199.902 108.571 200.124C108.093 200.335 107.672 200.658 107.308 201.091C106.944 201.525 106.721 202.039 106.637 202.633C106.619 202.764 106.589 202.887 106.549 203.002ZM113.731 209.719C113.541 209.693 113.391 209.593 113.282 209.42C113.173 209.247 113.138 209.024 113.176 208.751C113.205 208.549 113.293 208.222 113.441 207.77C113.603 207.308 113.782 206.77 113.977 206.155C114.185 205.542 114.377 204.902 114.556 204.237C114.736 203.559 114.87 202.906 114.959 202.276C115.002 201.967 115.111 201.752 115.286 201.631C115.474 201.5 115.669 201.448 115.871 201.477C116.061 201.504 116.187 201.642 116.248 201.893C116.31 202.145 116.261 202.622 116.101 203.327C116.818 202.192 117.555 201.302 118.313 200.657C119.083 200.002 119.818 199.56 120.517 199.331C121.217 199.09 121.829 199.006 122.351 199.079C122.696 199.128 122.936 199.234 123.07 199.399C123.218 199.553 123.28 199.713 123.257 199.879C123.225 200.105 123.105 200.27 122.897 200.374C122.702 200.468 122.367 200.566 121.892 200.669C121.34 200.798 120.826 200.968 120.348 201.179C119.883 201.38 119.425 201.667 118.972 202.04C118.532 202.414 118.081 202.908 117.619 203.522C117.159 204.124 116.677 204.88 116.173 205.791C115.67 206.702 115.115 207.805 114.508 209.101C114.4 209.353 114.279 209.524 114.145 209.614C114.023 209.706 113.885 209.741 113.731 209.719Z" fill="black"/>
</g>
<g filter="url(#filter1_d_8450_628)">
<rect x="13" y="36.8906" width="107" height="88" rx="4" transform="rotate(-8 13 36.8906)" fill="#D4E3FC" shape-rendering="crispEdges"/>
<path d="M48.8341 83.3918C48.5846 83.4268 48.3498 83.3084 48.1298 83.0363C47.9098 82.7643 47.7372 82.1827 47.6119 81.2914C47.4967 80.4715 47.4116 79.4352 47.3568 78.1827C47.3121 76.9166 47.3085 75.5114 47.346 73.9671C47.3798 73.2595 47.5433 72.6549 47.8363 72.1533C48.1412 71.6499 48.5631 71.2029 49.102 70.8121C49.6527 70.4196 50.3095 70.0486 51.0722 69.699C51.835 69.3495 52.6249 69.0203 53.4419 68.7116C54.2691 68.3894 55.0486 68.1162 55.7806 67.8922C56.5227 67.6546 57.1374 67.5015 57.6246 67.433C57.9692 67.3846 58.2407 67.4192 58.439 67.5367C58.6373 67.6543 58.7473 67.7903 58.769 67.9448C58.789 68.0874 58.765 68.218 58.6968 68.3366C58.6389 68.4417 58.5071 68.539 58.3016 68.6285C58.1538 68.6977 57.8387 68.8268 57.3563 69.0158C56.8841 69.1912 56.3024 69.4063 55.6111 69.661C54.9317 69.914 54.2124 70.1847 53.4531 70.4732C52.6922 70.7498 51.9559 71.029 51.2442 71.3108C50.4339 71.667 49.8645 72.056 49.536 72.4779C49.2177 72.8861 49.0451 73.4254 49.0181 74.0957C49.0177 74.2654 49.0163 74.514 49.0139 74.8415C49.3283 74.664 49.7241 74.463 50.2015 74.2384C50.6789 74.0137 51.169 73.7934 51.6718 73.5773C52.1746 73.3612 52.64 73.1807 53.068 73.0357C53.4944 72.8789 53.8145 72.7854 54.0284 72.7553C54.1828 72.7336 54.3566 72.8062 54.5497 72.9729C54.7547 73.138 54.8714 73.3215 54.8997 73.5235C54.9131 73.6186 54.8968 73.7179 54.8507 73.8213C54.803 73.9128 54.7112 73.9924 54.5752 74.0599C54.4954 74.0954 54.2958 74.184 53.9764 74.3259C53.6673 74.4541 53.2902 74.6162 52.8451 74.812C52.4119 75.0062 51.9566 75.2156 51.4792 75.4402C51.0002 75.653 50.544 75.8564 50.1108 76.0506C49.6895 76.2431 49.337 76.4078 49.0533 76.5446C49.0741 77.1234 49.0922 77.7267 49.1077 78.3547C49.1233 78.9826 49.1406 79.58 49.1597 80.1469C49.189 80.7002 49.2133 81.1754 49.2328 81.5726C49.2506 81.9578 49.267 82.204 49.282 82.3109C49.3756 82.9764 49.2263 83.3366 48.8341 83.3918ZM59.0846 82.3874C58.633 82.4509 58.2295 82.2955 57.874 81.9213C57.5286 81.5336 57.3084 81.0011 57.2132 80.3238C57.1247 79.6939 57.1915 79.0484 57.4136 78.387C57.6476 77.724 57.9859 77.0706 58.4286 76.4267C58.8713 75.7828 59.3683 75.1798 59.9194 74.6176C60.4688 74.0435 61.0275 73.5348 61.5953 73.0915C62.175 72.6465 62.7121 72.2862 63.2066 72.0107C63.701 71.7352 64.1028 71.5758 64.4117 71.5324C64.5781 71.509 64.7197 71.5254 64.8367 71.5817C64.952 71.6261 65.0214 71.7315 65.0447 71.8978C65.0598 72.0048 65.0324 72.1116 64.9626 72.2184C64.9744 72.2167 64.9863 72.215 64.9982 72.2134C65.2596 72.1766 65.4121 72.3127 65.4555 72.6217C65.4705 72.7286 65.4598 72.9543 65.4234 73.2988C65.3853 73.6313 65.347 74.0487 65.3085 74.5509C65.2701 75.0532 65.251 75.6072 65.2513 76.2131C65.25 76.807 65.2919 77.407 65.3771 78.0131C65.4489 78.5241 65.6808 78.752 66.073 78.6969C66.5127 78.6351 66.9441 78.4715 67.3673 78.206C67.7904 77.9405 68.1959 77.6351 68.5836 77.2898C68.9696 76.9326 69.3209 76.5863 69.6373 76.251C69.952 75.9038 70.22 75.6117 70.4411 75.3746C70.6623 75.1375 70.8263 75.0115 70.9333 74.9964C71.0284 74.9831 71.1157 75.0011 71.1954 75.0505C71.275 75.0999 71.324 75.1899 71.3424 75.3207C71.3591 75.4395 71.2703 75.6701 71.0761 76.0125C70.8818 76.3548 70.6162 76.7496 70.2792 77.1969C69.9421 77.6442 69.5559 78.0862 69.1205 78.5231C68.685 78.9599 68.2285 79.3331 67.7509 79.6426C67.2734 79.952 66.8028 80.1393 66.3394 80.2045C65.9829 80.2546 65.6411 80.1936 65.3139 80.0214C64.997 79.8357 64.7118 79.488 64.4584 78.9783C64.2169 78.467 64.0302 77.7419 63.8983 76.8031L63.8356 76.3575C63.3886 77.4019 62.9002 78.3672 62.3704 79.2536C61.8525 80.1383 61.3121 80.8625 60.7491 81.4264C60.1979 81.9886 59.6431 82.3089 59.0846 82.3874ZM64.2534 72.8633C64.1973 72.8955 64.1192 72.9428 64.0189 73.0054C63.5073 73.3317 62.9804 73.7209 62.438 74.1727C61.9075 74.623 61.3947 75.1131 60.8996 75.6432C60.4165 76.1715 59.9893 76.7102 59.6181 77.2592C59.2469 77.8082 58.9656 78.3507 58.7744 78.8865C58.5831 79.4223 58.5208 79.9279 58.5876 80.4032C58.6093 80.5577 58.6557 80.6724 58.7269 80.7472C58.8098 80.8204 58.9345 80.8453 59.1009 80.8219C59.3385 80.7885 59.6266 80.5965 59.9651 80.246C60.302 79.8836 60.6611 79.4211 61.0425 78.8586C61.4358 78.2943 61.8216 77.6766 62.1999 77.0054C62.5782 76.3343 62.9318 75.6605 63.2609 74.9841C63.6019 74.3061 63.8901 73.6839 64.1256 73.1176C64.1614 73.0278 64.204 72.943 64.2534 72.8633ZM73.2377 80.3801C72.7029 80.4553 72.205 80.3617 71.744 80.0993C71.2932 79.8233 70.9149 79.416 70.6089 78.8774C70.303 78.3387 70.0974 77.695 69.9922 76.9464C69.882 76.1621 69.86 75.3593 69.9264 74.5381C69.9927 73.7169 70.1158 72.9543 70.2956 72.2505C70.4754 71.5466 70.6803 70.9785 70.9104 70.5463C71.1388 70.1022 71.3659 69.8643 71.5917 69.8326C71.7581 69.8092 71.9022 69.8434 72.0242 69.9354C72.1462 70.0273 72.2214 70.1742 72.2498 70.3763C72.2564 70.4238 72.2323 70.5968 72.1773 70.8954C72.1207 71.1821 72.0519 71.5553 71.9711 72.015C71.8886 72.4628 71.8129 72.9582 71.7437 73.5011C71.6746 74.044 71.6309 74.5954 71.6127 75.1554C71.5945 75.7154 71.6196 76.239 71.688 76.7262C71.805 77.5581 71.9649 78.1354 72.1678 78.4583C72.3809 78.7677 72.6657 78.8973 73.0222 78.8472C73.8897 78.7253 74.666 78.3859 75.3512 77.8292C76.0466 77.2588 76.6625 76.5542 77.199 75.7154C77.7457 74.863 78.2281 73.9409 78.6461 72.9491C78.2385 73.067 77.8412 73.1713 77.454 73.2621C77.0652 73.3409 76.6934 73.4114 76.3386 73.4733C75.9956 73.5337 75.764 73.5238 75.6437 73.4438C75.5234 73.3637 75.4491 73.2227 75.4207 73.0207C75.3837 72.8441 75.4325 72.6737 75.5669 72.5094C75.7132 72.3434 75.8747 72.2419 76.0513 72.205C76.5793 72.0823 77.1176 71.9461 77.6661 71.7963C78.2146 71.6465 78.7555 71.4856 79.2887 71.3137C79.4971 70.727 79.6928 70.1361 79.8757 69.5408C80.0586 68.9456 80.2212 68.3774 80.3632 67.8364C80.5042 67.0289 80.6646 66.2732 80.8444 65.5693C81.0225 64.8536 81.219 64.2685 81.4339 63.8142C81.6471 63.348 81.8725 63.0982 82.1102 63.0648C82.5142 63.008 82.7446 63.1816 82.8014 63.5857C82.8131 63.6689 82.7922 63.9081 82.7387 64.3034C82.6852 64.6987 82.6059 65.2127 82.501 65.8455C82.4079 66.4766 82.2968 67.195 82.1677 68.0008C82.0369 68.7948 81.906 69.6311 81.7751 70.5099C82.8145 70.1457 83.7597 69.8008 84.6107 69.4752C85.4718 69.136 86.1784 68.861 86.7305 68.6501C87.2808 68.4274 87.6095 68.3085 87.7164 68.2935C87.8709 68.2717 88.0065 68.3314 88.1233 68.4726C88.2384 68.6018 88.3052 68.7318 88.3235 68.8625C88.3386 68.9694 88.1625 69.1396 87.7954 69.373C87.4402 69.6047 86.939 69.875 86.2917 70.1841C85.6546 70.4797 84.9233 70.7945 84.0978 71.1287C83.2825 71.4492 82.4298 71.763 81.5399 72.0698C81.3848 73.1216 81.2398 74.1599 81.1051 75.1846C80.9704 76.2093 80.8657 77.145 80.7908 77.9917C80.7573 78.5296 80.5326 78.8278 80.1167 78.8862C79.9028 78.9163 79.7349 78.8854 79.6129 78.7934C79.5028 78.6998 79.4294 78.5223 79.3926 78.2609C79.3876 78.2253 79.3923 78.0428 79.4066 77.7136C79.4311 77.3709 79.4626 76.9484 79.5011 76.4461C79.5379 75.932 79.5782 75.3992 79.6218 74.8478C79.6638 74.2845 79.7058 73.7636 79.7476 73.2851C79.2747 74.4906 78.7224 75.6043 78.0904 76.6262C77.4585 77.6481 76.7353 78.495 75.9209 79.1669C75.1184 79.8371 74.224 80.2415 73.2377 80.3801ZM71.7205 68.0331C71.4353 68.0732 71.1851 68.0175 70.9699 67.8659C70.7666 67.7128 70.6466 67.5054 70.6099 67.244C70.5648 66.9232 70.6401 66.6399 70.8358 66.3943C71.0418 66.1351 71.2992 65.9838 71.6082 65.9404C71.9528 65.892 72.2284 65.9562 72.435 66.1332C72.64 66.2983 72.7642 66.5353 72.8076 66.8442C72.8427 67.0938 72.7564 67.3422 72.5488 67.5895C72.3412 67.8368 72.0651 67.9847 71.7205 68.0331ZM87.5569 78.7312C87.2955 78.768 87.0826 78.7191 86.9183 78.5847C86.7557 78.4621 86.6335 78.1097 86.5516 77.5274C86.4765 76.9927 86.4738 76.2842 86.5437 75.4018C86.6119 74.5076 86.7322 73.5092 86.9044 72.4065C87.0766 71.3038 87.2854 70.1596 87.5307 68.9739C87.7744 67.7763 88.0393 66.6 88.3253 65.445C88.6216 64.2764 88.9134 63.2054 89.2007 62.2319C89.3084 61.8774 89.4363 61.6232 89.5843 61.4691C89.7322 61.315 89.9191 61.2221 90.1449 61.1903C90.2994 61.1686 90.4368 61.1978 90.5571 61.2778C90.6876 61.3443 90.7671 61.4786 90.7955 61.6806C90.8055 61.7519 90.7608 61.9945 90.6614 62.4083C90.574 62.8205 90.4446 63.3658 90.2733 64.0442C90.114 64.721 89.9358 65.4792 89.7387 66.3188C89.5416 67.1584 89.3445 68.0404 89.1472 68.9649C88.9499 69.8893 88.7713 70.8172 88.6114 71.7485C88.4498 72.668 88.3248 73.5459 88.2363 74.3824C88.1479 75.2188 88.1131 75.9629 88.132 76.6146C88.3687 76.2299 88.6337 75.7443 88.927 75.1578C89.2202 74.5713 89.5313 73.9398 89.8604 73.2634C90.1895 72.5871 90.5253 71.9158 90.8679 71.2496C91.2106 70.5834 91.5547 69.9716 91.9005 69.414C92.2463 68.8565 92.5765 68.4041 92.8913 68.0569C93.2162 67.6962 93.5154 67.4966 93.7887 67.4582C94.2403 67.3948 94.6227 67.4864 94.9361 67.7332C95.2597 67.9664 95.4658 68.398 95.5543 69.0278C95.6044 69.3843 95.5932 69.8221 95.5208 70.3412C95.4602 70.8587 95.3792 71.4033 95.2778 71.9749C95.1764 72.5466 95.0894 73.092 95.017 73.6112C94.9564 74.1286 94.9512 74.5656 95.0013 74.9221C95.0697 75.4093 95.2882 75.627 95.6565 75.5753C96.2269 75.4951 96.7798 75.2902 97.3151 74.9605C97.8623 74.6291 98.3715 74.2424 98.8426 73.8006C99.312 73.3468 99.7398 72.8989 100.126 72.4569C100.511 72.0029 100.838 71.6176 101.109 71.3009C101.4 70.957 101.658 70.7692 101.884 70.7375C102.169 70.6974 102.333 70.8259 102.374 71.123C102.386 71.2062 102.382 71.3038 102.361 71.4157C102.34 71.5277 102.264 71.6777 102.133 71.8658C101.973 72.1064 101.739 72.4241 101.431 72.8188C101.135 73.2118 100.783 73.637 100.374 74.0943C99.9779 74.5499 99.5365 74.9876 99.0502 75.4073C98.5758 75.8254 98.0752 76.1866 97.5484 76.4909C97.0318 76.7816 96.5121 76.9637 95.9892 77.0372C95.2763 77.1374 94.6953 77.013 94.2464 76.6641C93.8076 76.3017 93.5374 75.758 93.4355 75.0331C93.372 74.5815 93.3665 74.0249 93.4189 73.3632C93.4713 72.7014 93.5544 71.999 93.6681 71.256C93.792 70.4994 93.9184 69.7606 94.0473 69.0396C93.7038 69.3545 93.343 69.8051 92.9649 70.3914C92.597 70.9642 92.2154 71.6116 91.8201 72.3337C91.423 73.0438 91.0277 73.7659 90.634 74.4998C90.2522 75.2321 89.8756 75.9151 89.5042 76.549C89.143 77.1693 88.7965 77.6785 88.4647 78.0765C88.1328 78.4746 87.8303 78.6928 87.5569 78.7312Z" fill="black"/>
</g>
<g filter="url(#filter2_d_8450_628)">
<rect x="171" y="120.891" width="107" height="88" rx="4" transform="rotate(-8 171 120.891)" fill="#FAD4D1" shape-rendering="crispEdges"/>
<path d="M216.759 166.507C216.462 166.549 216.178 166.51 215.907 166.39C215.637 166.283 215.38 166.046 215.135 165.681C214.888 165.304 214.66 164.76 214.451 164.05C214.252 163.327 214.07 162.377 213.905 161.2C213.88 161.022 213.855 160.844 213.83 160.666C213.803 160.476 213.782 160.285 213.768 160.093C213.549 160.863 213.284 161.609 212.973 162.331C212.675 163.052 212.342 163.698 211.974 164.271C211.618 164.842 211.241 165.307 210.843 165.666C210.457 166.023 210.068 166.229 209.676 166.285C208.974 166.383 208.366 166.196 207.852 165.723C207.349 165.248 207.011 164.399 206.839 163.175C206.737 162.45 206.682 161.67 206.674 160.835C206.678 159.999 206.719 159.175 206.799 158.364C206.879 157.553 206.981 156.811 207.105 156.14C207.24 155.466 207.394 154.923 207.567 154.511C207.739 154.099 207.914 153.881 208.092 153.856C208.389 153.814 208.62 153.861 208.784 153.995C208.959 154.116 209.063 154.295 209.096 154.533C209.12 154.699 209.099 155.023 209.033 155.505C208.967 155.987 208.886 156.568 208.787 157.248C208.687 157.917 208.588 158.633 208.49 159.399C208.403 160.162 208.345 160.915 208.317 161.659C208.286 162.39 208.312 163.053 208.396 163.647C208.481 164.253 208.767 164.522 209.255 164.453C209.825 164.373 210.325 164.054 210.756 163.497C211.185 162.928 211.556 162.203 211.868 161.323C212.181 160.443 212.444 159.473 212.659 158.413C212.884 157.339 213.07 156.252 213.219 155.153C213.192 155.048 213.169 154.93 213.151 154.799C213.133 154.668 213.109 154.502 213.081 154.3C213.044 154.039 213.076 153.749 213.177 153.432C213.288 153.102 213.435 152.808 213.617 152.552C213.799 152.297 213.997 152.154 214.211 152.124C214.615 152.067 214.857 152.324 214.937 152.894C214.957 153.037 214.954 153.273 214.928 153.604C214.914 153.933 214.901 154.408 214.892 155.027C214.894 155.645 214.928 156.452 214.996 157.448C215.075 158.443 215.219 159.683 215.427 161.168C215.604 162.428 215.794 163.304 215.997 163.797C216.21 164.276 216.453 164.496 216.726 164.458C217.082 164.407 217.398 164.151 217.672 163.688C217.958 163.224 218.197 162.597 218.389 161.806C218.593 161.014 218.743 160.102 218.841 159.071C218.948 158.026 219.009 156.902 219.022 155.701C219.045 154.486 219.02 153.235 218.949 151.948C218.935 151.417 218.995 151.027 219.129 150.778C219.264 150.529 219.421 150.392 219.599 150.367C219.706 150.352 219.829 150.365 219.968 150.406C220.117 150.433 220.251 150.523 220.369 150.676C220.488 150.829 220.572 151.084 220.622 151.441C220.881 153.283 220.98 154.977 220.919 156.525C220.868 158.059 220.703 159.433 220.426 160.648C220.146 161.85 219.8 162.88 219.388 163.738C218.973 164.584 218.533 165.246 218.067 165.723C217.611 166.187 217.175 166.448 216.759 166.507ZM226.144 164.733C225.918 164.765 225.705 164.71 225.503 164.569C225.3 164.416 225.172 164.155 225.12 163.787C225.084 163.525 225.068 163.158 225.074 162.684C225.079 162.199 225.101 161.669 225.142 161.094C225.182 160.518 225.229 159.948 225.283 159.383C225.347 158.805 225.42 158.286 225.5 157.826C225.581 157.366 225.66 157.022 225.737 156.793C225.809 156.613 225.883 156.494 225.959 156.434C226.048 156.374 226.133 156.337 226.217 156.326C226.383 156.302 226.533 156.336 226.667 156.426C226.813 156.514 226.907 156.713 226.951 157.022C226.976 157.2 226.982 157.503 226.969 157.928C226.966 158.341 226.95 158.828 226.92 159.389C226.9 159.938 226.871 160.505 226.832 161.092C226.804 161.666 226.772 162.216 226.737 162.742C226.701 163.268 226.678 163.707 226.667 164.06C226.647 164.257 226.584 164.417 226.481 164.541C226.387 164.651 226.275 164.715 226.144 164.733ZM226.506 154.631C226.232 154.669 225.959 154.623 225.686 154.492C225.425 154.359 225.269 154.108 225.217 153.74C225.174 153.431 225.21 153.171 225.326 152.961C225.453 152.749 225.612 152.587 225.803 152.476C226.003 152.351 226.181 152.277 226.335 152.255C226.49 152.234 226.667 152.245 226.867 152.29C227.078 152.321 227.267 152.415 227.434 152.574C227.6 152.72 227.707 152.959 227.753 153.292C227.785 153.518 227.736 153.731 227.607 153.931C227.476 154.119 227.304 154.276 227.092 154.403C226.891 154.528 226.696 154.604 226.506 154.631ZM233.922 164.277C233.007 164.405 232.246 164.209 231.64 163.688C231.044 163.154 230.67 162.346 230.518 161.265C230.424 160.6 230.404 159.809 230.457 158.892C230.52 157.963 230.624 156.978 230.769 155.94C230.924 154.888 231.105 153.845 231.311 152.81C231.517 151.776 231.721 150.814 231.923 149.925C232.136 149.023 232.327 148.269 232.496 147.663C232.594 147.322 232.773 147.134 233.034 147.097C233.391 147.047 233.6 147.242 233.662 147.681C233.682 147.824 233.658 148.124 233.589 148.582C233.52 149.04 233.424 149.611 233.302 150.295C233.178 150.967 233.047 151.712 232.908 152.531C232.768 153.351 232.626 154.195 232.482 155.063C232.347 155.918 232.23 156.765 232.13 157.603C232.028 158.429 231.961 159.202 231.929 159.922C231.896 160.641 231.915 161.25 231.986 161.749C232.031 162.07 232.15 162.314 232.343 162.481C232.546 162.634 232.796 162.69 233.093 162.648C233.64 162.571 234.172 162.387 234.688 162.097C235.215 161.792 235.711 161.444 236.177 161.051C236.641 160.647 237.059 160.255 237.43 159.876C237.811 159.483 238.135 159.158 238.402 158.903C238.667 158.635 238.859 158.493 238.978 158.476C239.239 158.44 239.39 158.564 239.43 158.849C239.444 158.944 239.374 159.136 239.22 159.424C239.065 159.7 238.851 160.033 238.579 160.423C238.307 160.813 237.982 161.222 237.606 161.65C237.241 162.065 236.849 162.466 236.43 162.852C236.022 163.224 235.6 163.538 235.163 163.793C234.74 164.059 234.326 164.22 233.922 164.277ZM242.173 163.117C241.258 163.246 240.497 163.05 239.891 162.529C239.295 161.995 238.921 161.187 238.769 160.105C238.675 159.44 238.655 158.649 238.708 157.733C238.771 156.803 238.875 155.819 239.02 154.781C239.175 153.729 239.356 152.686 239.562 151.651C239.768 150.616 239.972 149.654 240.174 148.765C240.387 147.863 240.578 147.109 240.747 146.504C240.845 146.163 241.024 145.974 241.285 145.937C241.642 145.887 241.851 146.082 241.913 146.522C241.933 146.664 241.908 146.965 241.84 147.423C241.771 147.881 241.675 148.452 241.553 149.135C241.429 149.807 241.298 150.552 241.159 151.372C241.019 152.191 240.877 153.035 240.733 153.904C240.598 154.759 240.481 155.605 240.381 156.443C240.279 157.27 240.212 158.043 240.18 158.762C240.147 159.481 240.166 160.091 240.236 160.59C240.282 160.911 240.401 161.155 240.594 161.321C240.797 161.474 241.047 161.53 241.344 161.488C241.891 161.412 242.423 161.228 242.939 160.937C243.466 160.633 243.962 160.284 244.428 159.892C244.892 159.487 245.31 159.095 245.681 158.716C246.062 158.323 246.386 157.999 246.653 157.743C246.918 157.476 247.11 157.334 247.229 157.317C247.49 157.28 247.641 157.404 247.681 157.69C247.695 157.785 247.625 157.976 247.471 158.264C247.316 158.541 247.102 158.874 246.83 159.263C246.558 159.653 246.233 160.062 245.857 160.491C245.492 160.906 245.099 161.306 244.681 161.692C244.273 162.064 243.851 162.378 243.414 162.634C242.991 162.899 242.577 163.06 242.173 163.117ZM250.203 165.933C249.609 166.016 249.057 166.052 248.546 166.038C248.049 166.036 247.551 165.984 247.052 165.885C246.555 165.797 246.009 165.668 245.416 165.497C245.238 165.437 245.075 165.357 244.928 165.256C244.782 165.168 244.699 165.052 244.679 164.91C244.654 164.731 244.74 164.525 244.938 164.292C245.125 164.071 245.313 163.948 245.503 163.921C245.706 163.893 245.965 163.929 246.282 164.03C246.611 164.129 246.991 164.245 247.422 164.379C247.854 164.524 248.324 164.634 248.831 164.708C249.35 164.78 249.895 164.776 250.466 164.696C251.084 164.609 251.63 164.272 252.105 163.684C252.58 163.096 252.922 162.297 253.131 161.286C253.342 160.287 253.353 159.116 253.164 157.773C253.108 157.369 253.033 156.925 252.941 156.441C252.859 155.944 252.762 155.424 252.649 154.883C252.451 155.541 252.216 156.198 251.945 156.854C251.685 157.509 251.4 158.106 251.088 158.647C250.788 159.186 250.457 159.632 250.094 159.986C249.742 160.326 249.364 160.525 248.96 160.582C248.449 160.653 248.063 160.575 247.8 160.345C247.538 160.115 247.368 159.727 247.291 159.18C247.211 158.61 247.166 157.986 247.155 157.309C247.145 156.632 247.158 155.945 247.193 155.25C247.239 154.54 247.313 153.864 247.417 153.219C247.52 152.574 247.647 152.011 247.797 151.529C247.883 151.275 248.044 151.131 248.282 151.098C248.448 151.074 248.621 151.141 248.801 151.298C248.99 151.441 249.105 151.649 249.143 151.922C249.173 152.136 249.168 152.446 249.128 152.851C249.088 153.257 249.032 153.719 248.959 154.238C248.887 154.757 248.818 155.3 248.752 155.867C248.685 156.422 248.64 156.967 248.619 157.503C248.595 158.028 248.614 158.504 248.674 158.931C248.699 159.11 248.83 159.182 249.068 159.149C249.199 159.13 249.366 158.986 249.57 158.715C249.785 158.43 250.013 158.071 250.255 157.637C250.507 157.189 250.754 156.706 250.997 156.188C251.249 155.655 251.49 155.131 251.721 154.613C251.949 154.084 252.142 153.603 252.299 153.169C252.274 153.075 252.255 152.987 252.244 152.904C252.232 152.821 252.221 152.744 252.211 152.672C252.129 152.09 252.138 151.719 252.237 151.56C252.346 151.387 252.501 151.286 252.703 151.258C253.048 151.21 253.302 151.253 253.467 151.387C253.631 151.521 253.74 151.779 253.793 152.159C253.813 152.302 253.817 152.459 253.805 152.63C253.791 152.79 253.763 153.024 253.722 153.332C253.949 154.258 254.145 155.091 254.309 155.831C254.486 156.57 254.627 157.319 254.734 158.08C254.936 159.518 254.88 160.798 254.565 161.921C254.262 163.042 253.736 163.952 252.986 164.651C252.248 165.349 251.32 165.776 250.203 165.933Z" fill="black"/>
</g>
<g filter="url(#filter3_d_8450_628)">
<rect x="225" y="74.8906" width="107" height="88" rx="4" transform="rotate(-8 225 74.8906)" fill="#DFF1E4" shape-rendering="crispEdges"/>
<path d="M254.622 123.464C254.42 123.492 254.232 123.404 254.057 123.198C253.885 123.004 253.778 122.765 253.738 122.479C253.721 122.361 253.73 122.25 253.764 122.148C253.81 122.045 253.89 121.961 254.002 121.897C254.124 121.819 254.247 121.747 254.371 121.681C254.506 121.602 254.64 121.523 254.774 121.443C254.725 121.353 254.679 121.244 254.637 121.117C254.595 120.99 254.562 120.837 254.537 120.659C254.518 120.528 254.507 120.275 254.503 119.9C254.509 119.511 254.522 119.049 254.544 118.513C254.566 117.976 254.589 117.41 254.614 116.812C254.649 116.201 254.681 115.609 254.71 115.036C254.748 114.449 254.783 113.923 254.815 113.458C254.892 112.453 255.031 111.543 255.231 110.727C255.443 109.91 255.786 109.244 256.259 108.729C256.742 108.2 257.429 107.873 258.321 107.748C258.998 107.653 259.684 107.708 260.38 107.913C261.087 108.117 261.746 108.454 262.358 108.926C262.98 109.384 263.502 109.953 263.925 110.632C264.347 111.312 264.619 112.08 264.739 112.935C264.843 113.672 264.769 114.398 264.518 115.111C264.265 115.813 263.888 116.497 263.388 117.161C262.887 117.825 262.298 118.459 261.619 119.063C260.953 119.666 260.245 120.232 259.495 120.761C258.756 121.277 258.022 121.744 257.293 122.162C256.565 122.591 255.89 122.959 255.266 123.264C255.186 123.3 255.089 123.338 254.973 123.378C254.858 123.419 254.741 123.447 254.622 123.464ZM255.969 120.766C256.943 120.193 257.885 119.612 258.796 119.024C259.719 118.434 260.534 117.81 261.242 117.153C261.948 116.484 262.484 115.773 262.85 115.019C263.217 114.264 263.338 113.441 263.212 112.55C263.147 112.087 262.977 111.65 262.701 111.241C262.426 110.831 262.073 110.481 261.645 110.189C261.226 109.885 260.765 109.665 260.261 109.529C259.768 109.381 259.266 109.342 258.755 109.414C258.291 109.479 257.892 109.656 257.557 109.946C257.232 110.222 256.98 110.669 256.8 111.288C256.621 111.907 256.509 112.747 256.464 113.808C256.411 114.469 256.361 115.185 256.311 115.956C256.26 116.714 256.205 117.443 256.146 118.142C256.097 118.828 256.057 119.409 256.027 119.886C255.996 120.35 255.979 120.619 255.977 120.692C255.981 120.716 255.978 120.741 255.969 120.766ZM274.431 111.61C274.484 111.99 274.418 112.381 274.232 112.783C274.045 113.173 273.778 113.562 273.433 113.949C273.086 114.325 272.695 114.689 272.259 115.041C271.824 115.393 271.384 115.71 270.939 115.99C270.493 116.271 270.084 116.504 269.71 116.69C269.68 117.167 269.69 117.584 269.74 117.94C269.772 118.166 269.848 118.319 269.968 118.399C270.089 118.479 270.262 118.503 270.487 118.471C270.987 118.401 271.503 118.238 272.036 117.981C272.57 117.724 273.108 117.412 273.65 117.045C274.192 116.678 274.708 116.297 275.198 115.901C275.687 115.505 276.132 115.133 276.531 114.786C276.943 114.438 277.285 114.153 277.557 113.933C277.829 113.713 278.012 113.597 278.107 113.583C278.25 113.563 278.364 113.596 278.448 113.681C278.543 113.752 278.599 113.847 278.616 113.966C278.629 114.061 278.506 114.266 278.248 114.581C278.001 114.895 277.66 115.27 277.224 115.707C276.787 116.132 276.292 116.577 275.74 117.042C275.187 117.508 274.607 117.953 274.001 118.377C273.406 118.8 272.819 119.155 272.242 119.443C271.676 119.728 271.155 119.904 270.68 119.971C270.062 120.058 269.548 119.894 269.139 119.479C268.729 119.064 268.455 118.369 268.319 117.395C268.227 116.741 268.217 116.07 268.29 115.381C268.375 114.691 268.523 114.021 268.735 113.374C268.957 112.712 269.219 112.118 269.521 111.591C269.832 111.05 270.177 110.614 270.554 110.282C270.93 109.939 271.314 109.739 271.706 109.684C272.455 109.579 273.073 109.704 273.559 110.06C274.045 110.416 274.336 110.932 274.431 111.61ZM269.891 115.265C270.228 114.987 270.575 114.696 270.932 114.392C271.289 114.087 271.616 113.781 271.912 113.472C272.208 113.164 272.437 112.853 272.599 112.54C272.771 112.213 272.835 111.895 272.792 111.586C272.73 111.146 272.461 110.959 271.986 111.026C271.689 111.068 271.401 111.302 271.121 111.729C270.852 112.143 270.611 112.668 270.397 113.304C270.184 113.939 270.015 114.593 269.891 115.265ZM277.545 123.914C276.963 123.996 276.455 123.873 276.021 123.547C275.587 123.22 275.333 122.789 275.258 122.254C275.199 121.838 275.357 121.453 275.731 121.097C276.107 120.753 276.632 120.395 277.307 120.021C277.971 119.661 278.702 119.256 279.499 118.804C279.59 118.077 279.662 117.206 279.713 116.193C279.763 115.168 279.806 113.963 279.841 112.576C279.828 111.875 279.83 111.33 279.848 110.939C279.864 110.537 279.896 110.248 279.944 110.071C279.992 109.895 280.055 109.783 280.133 109.736C280.223 109.687 280.321 109.655 280.428 109.64C280.535 109.625 280.679 109.659 280.861 109.743C281.054 109.825 281.235 109.951 281.405 110.121C281.574 110.291 281.675 110.495 281.709 110.732C281.731 110.887 281.733 111.117 281.715 111.422C281.709 111.726 281.666 112.065 281.585 112.44C281.517 112.813 281.392 113.176 281.211 113.529C281.165 114.408 281.121 115.214 281.078 115.947C281.036 116.68 280.985 117.353 280.926 117.968C281.594 117.547 282.246 117.097 282.882 116.62C283.518 116.143 284.094 115.632 284.611 115.087C285.127 114.53 285.545 113.931 285.868 113.292C285.963 113.109 286.07 113.009 286.189 112.993C286.248 112.984 286.313 113.012 286.382 113.075C286.464 113.136 286.516 113.25 286.539 113.416C286.603 113.868 286.483 114.351 286.18 114.866C285.875 115.37 285.439 115.891 284.873 116.431C284.305 116.96 283.665 117.492 282.952 118.028C282.238 118.553 281.498 119.063 280.732 119.558C280.568 120.635 280.352 121.472 280.085 122.067C279.83 122.672 279.492 123.107 279.068 123.373C278.659 123.648 278.151 123.829 277.545 123.914ZM280.413 107.588C280.187 107.62 279.987 107.575 279.812 107.454C279.638 107.333 279.527 107.107 279.48 106.774C279.425 106.382 279.519 106.017 279.763 105.68C280.016 105.329 280.316 105.13 280.66 105.081C280.993 105.034 281.28 105.097 281.523 105.269C281.777 105.439 281.927 105.685 281.972 106.006C282.01 106.279 281.959 106.522 281.82 106.736C281.678 106.938 281.477 107.057 281.216 107.093C281.156 107.102 281.108 107.103 281.071 107.096C280.928 107.285 280.812 107.411 280.723 107.472C280.635 107.533 280.532 107.571 280.413 107.588ZM279.24 120.458C278.736 120.747 278.24 121.011 277.752 121.249C277.266 121.499 276.841 121.711 276.478 121.883C276.615 122.167 276.78 122.349 276.973 122.431C277.156 122.527 277.384 122.555 277.658 122.517C278.026 122.465 278.342 122.299 278.606 122.02C278.857 121.742 279.069 121.222 279.24 120.458ZM287.507 118.079C287.056 118.142 286.652 117.987 286.296 117.613C285.951 117.225 285.731 116.693 285.636 116.015C285.547 115.385 285.614 114.74 285.836 114.078C286.07 113.415 286.408 112.762 286.851 112.118C287.294 111.474 287.791 110.871 288.342 110.309C288.891 109.735 289.45 109.226 290.018 108.783C290.598 108.338 291.135 107.978 291.629 107.702C292.124 107.427 292.525 107.267 292.834 107.224C293.001 107.2 293.142 107.217 293.259 107.273C293.375 107.317 293.444 107.423 293.467 107.589C293.482 107.696 293.455 107.803 293.385 107.91C293.397 107.908 293.409 107.906 293.421 107.905C293.682 107.868 293.835 108.004 293.878 108.313C293.893 108.42 293.882 108.646 293.846 108.99C293.808 109.323 293.77 109.74 293.731 110.242C293.693 110.745 293.674 111.299 293.674 111.904C293.672 112.498 293.714 113.098 293.8 113.704C293.871 114.215 294.103 114.443 294.496 114.388C294.935 114.326 295.367 114.163 295.79 113.897C296.213 113.632 296.618 113.326 297.006 112.981C297.392 112.624 297.743 112.278 298.06 111.942C298.375 111.595 298.642 111.303 298.864 111.066C299.085 110.829 299.249 110.703 299.356 110.688C299.451 110.674 299.538 110.693 299.618 110.742C299.698 110.791 299.747 110.881 299.765 111.012C299.782 111.131 299.693 111.361 299.499 111.704C299.304 112.046 299.039 112.441 298.702 112.888C298.365 113.336 297.978 113.778 297.543 114.214C297.108 114.651 296.651 115.024 296.173 115.334C295.696 115.643 295.225 115.831 294.762 115.896C294.405 115.946 294.064 115.885 293.736 115.713C293.42 115.527 293.134 115.179 292.881 114.67C292.639 114.158 292.453 113.433 292.321 112.495L292.258 112.049C291.811 113.093 291.323 114.059 290.793 114.945C290.275 115.83 289.735 116.554 289.172 117.118C288.62 117.68 288.066 118 287.507 118.079ZM292.676 108.555C292.62 108.587 292.542 108.634 292.441 108.697C291.93 109.023 291.403 109.412 290.86 109.864C290.33 110.314 289.817 110.804 289.322 111.335C288.839 111.863 288.412 112.402 288.041 112.951C287.669 113.5 287.388 114.042 287.197 114.578C287.006 115.114 286.943 115.619 287.01 116.095C287.032 116.249 287.078 116.364 287.149 116.439C287.232 116.512 287.357 116.537 287.523 116.513C287.761 116.48 288.049 116.288 288.388 115.937C288.725 115.575 289.084 115.113 289.465 114.55C289.858 113.986 290.244 113.368 290.622 112.697C291.001 112.026 291.354 111.352 291.683 110.676C292.024 109.997 292.313 109.375 292.548 108.809C292.584 108.719 292.627 108.634 292.676 108.555ZM300.947 115.263C300.768 115.288 300.572 115.182 300.357 114.946C300.154 114.708 299.977 114.357 299.827 113.893C299.674 113.406 299.516 112.846 299.355 112.215C299.193 111.583 299.046 110.962 298.911 110.35C298.777 109.739 298.664 109.198 298.574 108.726C298.483 108.254 298.426 107.934 298.403 107.768C298.316 107.15 298.347 106.679 298.495 106.355C298.654 106.018 298.888 105.828 299.196 105.784C299.41 105.754 299.573 105.792 299.685 105.897C299.795 105.991 299.878 106.234 299.933 106.626C299.97 106.887 300.023 107.225 300.093 107.64C300.164 108.054 300.245 108.503 300.337 108.987C300.443 109.566 300.553 110.18 300.669 110.83C300.783 111.469 300.89 112.102 300.991 112.73C301.209 112.215 301.461 111.64 301.748 111.006C302.046 110.37 302.349 109.722 302.656 109.061C302.961 108.388 303.259 107.746 303.549 107.136C303.839 106.525 304.097 105.992 304.324 105.536C304.551 105.08 304.728 104.746 304.856 104.535C305.024 104.268 305.185 104.076 305.338 103.958C305.503 103.838 305.651 103.768 305.781 103.75C305.96 103.725 306.111 103.77 306.237 103.886C306.374 104 306.459 104.176 306.493 104.414C306.513 104.556 306.506 104.721 306.471 104.907C306.447 105.08 306.382 105.265 306.277 105.462C306.024 105.994 305.718 106.619 305.358 107.336C304.999 108.053 304.624 108.796 304.236 109.566C303.847 110.335 303.468 111.085 303.098 111.816C302.726 112.535 302.403 113.168 302.129 113.715C301.65 114.704 301.256 115.22 300.947 115.263ZM314.365 114.268C314.163 114.296 313.979 114.231 313.811 114.073C313.643 113.915 313.535 113.663 313.487 113.319C313.43 112.915 313.408 112.33 313.422 111.565C313.448 110.798 313.498 109.779 313.574 108.508C313.36 109.313 313.105 110.082 312.808 110.815C312.523 111.546 312.196 112.155 311.829 112.643C311.461 113.131 311.051 113.407 310.6 113.47C310.16 113.532 309.744 113.415 309.351 113.118C308.969 112.821 308.718 112.238 308.596 111.371C308.528 110.883 308.492 110.331 308.49 109.713C308.487 109.083 308.508 108.456 308.553 107.832C308.599 107.208 308.653 106.649 308.717 106.155C308.78 105.649 308.848 105.276 308.923 105.035C308.98 104.833 309.046 104.697 309.12 104.626C309.194 104.543 309.301 104.491 309.444 104.471C309.61 104.448 309.799 104.494 310.009 104.61C310.219 104.726 310.348 104.95 310.394 105.283C310.406 105.366 310.392 105.568 310.352 105.889C310.323 106.196 310.279 106.578 310.222 107.034C310.175 107.477 310.128 107.956 310.079 108.472C310.03 108.988 309.999 109.501 309.986 110.012C309.985 110.521 310.014 110.983 310.072 111.399C310.104 111.625 310.154 111.806 310.221 111.942C310.289 112.078 310.418 112.132 310.608 112.106C310.774 112.082 310.959 111.887 311.162 111.519C311.376 111.149 311.594 110.67 311.814 110.082C312.044 109.48 312.273 108.818 312.498 108.096C312.736 107.371 312.959 106.631 313.168 105.875C313.388 105.117 313.584 104.398 313.755 103.72C313.82 103.493 313.903 103.348 314.003 103.285C314.102 103.211 314.217 103.164 314.347 103.146C314.561 103.116 314.764 103.178 314.955 103.333C315.157 103.475 315.277 103.682 315.315 103.955C315.34 104.133 315.348 104.447 315.339 104.897C315.341 105.345 315.325 105.875 315.289 106.485C315.264 107.083 315.226 107.718 315.175 108.392C315.137 109.064 315.097 109.73 315.056 110.39C315.014 111.038 314.97 111.632 314.925 112.171C314.892 112.709 314.862 113.144 314.836 113.475C314.818 113.78 314.761 113.982 314.666 114.08C314.584 114.188 314.484 114.251 314.365 114.268Z" fill="black"/>
</g>
<g filter="url(#filter4_d_8450_628)">
<path d="M57 110C57 107.791 58.7909 106 61 106H160C162.209 106 164 107.791 164 110V190C164 192.209 162.209 194 160 194H61C58.7909 194 57 192.209 57 190V110Z" fill="#FFEDC7" shape-rendering="crispEdges"/>
<path d="M78.9127 154.336C79.0447 154.336 79.1707 154.39 79.2907 154.498C79.4107 154.606 79.4707 154.78 79.4707 155.02C79.4707 155.212 79.3267 155.44 79.0387 155.704C78.7507 155.956 78.3787 156.202 77.9227 156.442C77.4787 156.682 76.9987 156.88 76.4827 157.036C75.9667 157.204 75.4807 157.288 75.0247 157.288C74.3767 157.288 73.7647 157.12 73.1887 156.784C72.6247 156.448 72.1627 155.962 71.8027 155.326C71.4427 154.678 71.2627 153.892 71.2627 152.968C71.2627 152.152 71.4127 151.336 71.7127 150.52C72.0127 149.704 72.4087 148.918 72.9007 148.162C73.4047 147.406 73.9567 146.704 74.5567 146.056C75.1687 145.408 75.7807 144.844 76.3927 144.364C77.0047 143.884 77.5747 143.512 78.1027 143.248C78.6427 142.972 79.0867 142.834 79.4347 142.834C79.6747 142.834 79.8667 142.924 80.0107 143.104C80.1667 143.272 80.2447 143.458 80.2447 143.662C80.2447 143.782 80.2087 143.902 80.1367 144.022C80.0767 144.142 79.9687 144.238 79.8127 144.31C79.0327 144.694 78.2407 145.186 77.4367 145.786C76.6327 146.386 75.8887 147.07 75.2047 147.838C74.5207 148.594 73.9687 149.416 73.5487 150.304C73.1287 151.18 72.9187 152.104 72.9187 153.076C72.9187 153.916 73.1167 154.558 73.5127 155.002C73.9087 155.434 74.4487 155.65 75.1327 155.65C75.4927 155.65 75.8647 155.584 76.2487 155.452C76.6447 155.32 77.0167 155.17 77.3647 155.002C77.7247 154.822 78.0367 154.666 78.3007 154.534C78.5767 154.402 78.7807 154.336 78.9127 154.336ZM84.0678 157.81C83.8038 157.81 83.5998 157.732 83.4558 157.576C83.3118 157.432 83.2398 157.066 83.2398 156.478C83.2398 155.938 83.3358 155.236 83.5278 154.372C83.7198 153.496 83.9778 152.524 84.3018 151.456C84.6258 150.388 84.9918 149.284 85.3998 148.144C85.8078 146.992 86.2338 145.864 86.6778 144.76C87.1338 143.644 87.5718 142.624 87.9918 141.7C88.1478 141.364 88.3098 141.13 88.4778 140.998C88.6458 140.866 88.8438 140.8 89.0718 140.8C89.2278 140.8 89.3598 140.848 89.4678 140.944C89.5878 141.028 89.6478 141.172 89.6478 141.376C89.6478 141.448 89.5698 141.682 89.4138 142.078C89.2698 142.474 89.0658 142.996 88.8018 143.644C88.5498 144.292 88.2678 145.018 87.9558 145.822C87.6438 146.626 87.3258 147.472 87.0018 148.36C86.6778 149.248 86.3718 150.142 86.0838 151.042C85.7958 151.93 85.5498 152.782 85.3458 153.598C85.1418 154.414 85.0038 155.146 84.9318 155.794C85.2198 155.446 85.5498 155.002 85.9218 154.462C86.2938 153.922 86.6898 153.34 87.1098 152.716C87.5298 152.092 87.9558 151.474 88.3878 150.862C88.8198 150.25 89.2458 149.692 89.6658 149.188C90.0858 148.684 90.4758 148.282 90.8358 147.982C91.2078 147.67 91.5318 147.514 91.8078 147.514C92.2638 147.514 92.6298 147.658 92.9058 147.946C93.1938 148.222 93.3378 148.678 93.3378 149.314C93.3378 149.674 93.2658 150.106 93.1218 150.61C92.9898 151.114 92.8338 151.642 92.6538 152.194C92.4738 152.746 92.3118 153.274 92.1678 153.778C92.0358 154.282 91.9698 154.714 91.9698 155.074C91.9698 155.566 92.1558 155.812 92.5278 155.812C93.1038 155.812 93.6798 155.686 94.2558 155.434C94.8438 155.182 95.4018 154.87 95.9298 154.498C96.4578 154.114 96.9438 153.73 97.3878 153.346C97.8318 152.95 98.2098 152.614 98.5218 152.338C98.8578 152.038 99.1398 151.888 99.3678 151.888C99.6558 151.888 99.7998 152.038 99.7998 152.338C99.7998 152.422 99.7818 152.518 99.7458 152.626C99.7098 152.734 99.6138 152.872 99.4578 153.04C99.2658 153.256 98.9898 153.538 98.6298 153.886C98.2818 154.234 97.8738 154.606 97.4058 155.002C96.9498 155.398 96.4518 155.77 95.9118 156.118C95.3838 156.466 94.8378 156.754 94.2738 156.982C93.7218 157.198 93.1818 157.306 92.6538 157.306C91.9338 157.306 91.3758 157.102 90.9798 156.694C90.5958 156.274 90.4038 155.698 90.4038 154.966C90.4038 154.51 90.4758 153.958 90.6198 153.31C90.7638 152.662 90.9438 151.978 91.1598 151.258C91.3878 150.526 91.6158 149.812 91.8438 149.116C91.4598 149.38 91.0398 149.776 90.5838 150.304C90.1398 150.82 89.6718 151.408 89.1798 152.068C88.6878 152.716 88.1958 153.376 87.7038 154.048C87.2238 154.72 86.7558 155.344 86.2998 155.92C85.8558 156.484 85.4418 156.94 85.0578 157.288C84.6738 157.636 84.3438 157.81 84.0678 157.81ZM99.2566 157.09C99.0286 157.09 98.8246 157.006 98.6446 156.838C98.4646 156.658 98.3746 156.382 98.3746 156.01C98.3746 155.746 98.4106 155.38 98.4826 154.912C98.5546 154.432 98.6506 153.91 98.7706 153.346C98.8906 152.782 99.0166 152.224 99.1486 151.672C99.2926 151.108 99.4366 150.604 99.5806 150.16C99.7246 149.716 99.8506 149.386 99.9586 149.17C100.055 149.002 100.145 148.894 100.229 148.846C100.325 148.798 100.415 148.774 100.499 148.774C100.667 148.774 100.811 148.828 100.931 148.936C101.063 149.044 101.129 149.254 101.129 149.566C101.129 149.746 101.093 150.046 101.021 150.466C100.961 150.874 100.877 151.354 100.769 151.906C100.673 152.446 100.565 153.004 100.445 153.58C100.337 154.144 100.229 154.684 100.121 155.2C100.013 155.716 99.9286 156.148 99.8686 156.496C99.8206 156.688 99.7366 156.838 99.6166 156.946C99.5086 157.042 99.3886 157.09 99.2566 157.09ZM101.021 147.136C100.745 147.136 100.481 147.052 100.229 146.884C99.9886 146.716 99.8686 146.446 99.8686 146.074C99.8686 145.762 99.9406 145.51 100.085 145.318C100.241 145.126 100.421 144.988 100.625 144.904C100.841 144.808 101.027 144.76 101.183 144.76C101.339 144.76 101.513 144.796 101.705 144.868C101.909 144.928 102.083 145.048 102.227 145.228C102.371 145.396 102.443 145.648 102.443 145.984C102.443 146.212 102.365 146.416 102.209 146.596C102.053 146.764 101.861 146.896 101.633 146.992C101.417 147.088 101.213 147.136 101.021 147.136ZM105.078 156.586C104.73 156.586 104.418 156.388 104.142 155.992C103.866 155.596 103.728 155.086 103.728 154.462C103.728 153.778 103.818 153.046 103.998 152.266C104.19 151.486 104.424 150.694 104.7 149.89C104.976 149.074 105.246 148.288 105.51 147.532C105.57 147.376 105.654 147.262 105.762 147.19C105.882 147.106 106.062 147.064 106.302 147.064C106.734 147.064 106.95 147.274 106.95 147.694C106.95 147.79 106.902 148.006 106.806 148.342C106.71 148.678 106.584 149.092 106.428 149.584C106.284 150.076 106.134 150.61 105.978 151.186C105.822 151.75 105.684 152.32 105.564 152.896C105.444 153.472 105.36 154.006 105.312 154.498C105.504 154.294 105.72 153.982 105.96 153.562C106.212 153.142 106.482 152.668 106.77 152.14C107.058 151.6 107.358 151.06 107.67 150.52C107.982 149.968 108.294 149.464 108.606 149.008C108.93 148.54 109.242 148.168 109.542 147.892C109.854 147.604 110.142 147.46 110.406 147.46C110.79 147.46 111.114 147.58 111.378 147.82C111.654 148.048 111.864 148.456 112.008 149.044C112.164 149.62 112.242 150.436 112.242 151.492C112.242 152.056 112.296 152.584 112.404 153.076C112.524 153.568 112.71 153.964 112.962 154.264C113.226 154.552 113.562 154.696 113.97 154.696C114.582 154.696 115.128 154.588 115.608 154.372C116.088 154.144 116.502 153.892 116.85 153.616C117.21 153.328 117.51 153.076 117.75 152.86C117.99 152.632 118.176 152.518 118.308 152.518C118.584 152.518 118.722 152.662 118.722 152.95C118.722 153.07 118.632 153.262 118.452 153.526C118.284 153.778 118.044 154.066 117.732 154.39C117.432 154.702 117.084 155.008 116.688 155.308C116.304 155.596 115.89 155.836 115.446 156.028C115.014 156.22 114.576 156.316 114.132 156.316C113.304 156.316 112.626 156.154 112.098 155.83C111.582 155.506 111.198 154.972 110.946 154.228C110.706 153.484 110.586 152.488 110.586 151.24C110.586 150.556 110.544 150.058 110.46 149.746C110.388 149.422 110.25 149.206 110.046 149.098C109.902 149.35 109.716 149.71 109.488 150.178C109.26 150.634 108.996 151.144 108.696 151.708C108.408 152.272 108.102 152.842 107.778 153.418C107.466 153.982 107.148 154.504 106.824 154.984C106.5 155.464 106.188 155.854 105.888 156.154C105.588 156.442 105.318 156.586 105.078 156.586ZM118.522 157.468C118.066 157.468 117.688 157.258 117.388 156.838C117.1 156.406 116.956 155.848 116.956 155.164C116.956 154.528 117.112 153.898 117.424 153.274C117.748 152.65 118.174 152.05 118.702 151.474C119.23 150.898 119.806 150.37 120.43 149.89C121.054 149.398 121.678 148.972 122.302 148.612C122.938 148.252 123.52 147.97 124.048 147.766C124.576 147.562 124.996 147.46 125.308 147.46C125.476 147.46 125.614 147.496 125.722 147.568C125.83 147.628 125.884 147.742 125.884 147.91C125.884 148.018 125.842 148.12 125.758 148.216C125.77 148.216 125.782 148.216 125.794 148.216C126.058 148.216 126.19 148.372 126.19 148.684C126.19 148.792 126.148 149.014 126.064 149.35C125.98 149.674 125.884 150.082 125.776 150.574C125.668 151.066 125.572 151.612 125.488 152.212C125.404 152.8 125.362 153.4 125.362 154.012C125.362 154.528 125.56 154.786 125.956 154.786C126.4 154.786 126.85 154.684 127.306 154.48C127.762 154.276 128.206 154.03 128.638 153.742C129.07 153.442 129.466 153.148 129.826 152.86C130.186 152.56 130.492 152.308 130.744 152.104C130.996 151.9 131.176 151.798 131.284 151.798C131.38 151.798 131.464 151.828 131.536 151.888C131.608 151.948 131.644 152.044 131.644 152.176C131.644 152.296 131.524 152.512 131.284 152.824C131.044 153.136 130.726 153.49 130.33 153.886C129.934 154.282 129.49 154.666 128.998 155.038C128.506 155.41 128.002 155.716 127.486 155.956C126.97 156.196 126.478 156.316 126.01 156.316C125.65 156.316 125.32 156.208 125.02 155.992C124.732 155.764 124.498 155.38 124.318 154.84C124.15 154.3 124.066 153.556 124.066 152.608L124.066 152.158C123.478 153.13 122.86 154.018 122.212 154.822C121.576 155.626 120.94 156.268 120.304 156.748C119.68 157.228 119.086 157.468 118.522 157.468ZM124.966 148.756C124.906 148.78 124.822 148.816 124.714 148.864C124.162 149.116 123.586 149.428 122.986 149.8C122.398 150.172 121.822 150.586 121.258 151.042C120.706 151.498 120.208 151.972 119.764 152.464C119.32 152.956 118.966 153.454 118.702 153.958C118.438 154.462 118.306 154.954 118.306 155.434C118.306 155.59 118.336 155.71 118.396 155.794C118.468 155.878 118.588 155.92 118.756 155.92C118.996 155.92 119.308 155.77 119.692 155.47C120.076 155.158 120.496 154.75 120.952 154.246C121.42 153.742 121.888 153.184 122.356 152.572C122.824 151.96 123.268 151.342 123.688 150.718C124.12 150.094 124.492 149.518 124.804 148.99C124.852 148.906 124.906 148.828 124.966 148.756ZM137.175 157.198C137.067 157.198 136.851 157.192 136.527 157.18C136.215 157.168 135.843 157.15 135.411 157.126C134.979 157.102 134.529 157.078 134.061 157.054C133.605 157.03 133.173 157.012 132.765 157C132.369 156.988 132.039 156.982 131.775 156.982C131.451 156.982 131.181 156.874 130.965 156.658C130.761 156.442 130.659 156.142 130.659 155.758C130.659 155.506 130.773 155.182 131.001 154.786C131.229 154.39 131.535 153.952 131.919 153.472C132.303 152.98 132.729 152.476 133.197 151.96C133.677 151.444 134.163 150.94 134.655 150.448C135.147 149.956 135.621 149.5 136.077 149.08C136.533 148.66 136.929 148.318 137.265 148.054C136.473 148.15 135.699 148.276 134.943 148.432C134.187 148.576 133.527 148.708 132.963 148.828C132.411 148.948 132.039 149.008 131.847 149.008C131.607 149.008 131.415 148.942 131.271 148.81C131.127 148.666 131.055 148.474 131.055 148.234C131.055 148.102 131.199 147.97 131.487 147.838C131.787 147.706 132.183 147.58 132.675 147.46C133.167 147.34 133.707 147.238 134.295 147.154C134.895 147.058 135.501 146.986 136.113 146.938C136.725 146.89 137.295 146.866 137.823 146.866C138.183 146.866 138.471 146.974 138.687 147.19C138.915 147.406 139.029 147.634 139.029 147.874C139.029 147.97 138.891 148.186 138.615 148.522C138.339 148.858 137.979 149.266 137.535 149.746C137.091 150.226 136.605 150.742 136.077 151.294C135.549 151.846 135.033 152.398 134.529 152.95C134.025 153.49 133.575 153.994 133.179 154.462C132.783 154.918 132.495 155.296 132.315 155.596C132.639 155.584 133.023 155.572 133.467 155.56C133.911 155.548 134.373 155.536 134.853 155.524C135.333 155.5 135.789 155.482 136.221 155.47C136.653 155.446 137.019 155.428 137.319 155.416C137.631 155.404 137.835 155.398 137.931 155.398C138.411 155.398 138.651 155.596 138.651 155.992C138.651 156.292 138.513 156.568 138.237 156.82C137.961 157.072 137.607 157.198 137.175 157.198ZM141.743 157.468C141.287 157.468 140.909 157.258 140.609 156.838C140.321 156.406 140.177 155.848 140.177 155.164C140.177 154.528 140.333 153.898 140.645 153.274C140.969 152.65 141.395 152.05 141.923 151.474C142.451 150.898 143.027 150.37 143.651 149.89C144.275 149.398 144.899 148.972 145.523 148.612C146.159 148.252 146.741 147.97 147.269 147.766C147.797 147.562 148.217 147.46 148.529 147.46C148.697 147.46 148.835 147.496 148.943 147.568C149.051 147.628 149.105 147.742 149.105 147.91C149.105 148.018 149.063 148.12 148.979 148.216C148.991 148.216 149.003 148.216 149.015 148.216C149.279 148.216 149.411 148.372 149.411 148.684C149.411 148.792 149.369 149.014 149.285 149.35C149.201 149.674 149.105 150.082 148.997 150.574C148.889 151.066 148.793 151.612 148.709 152.212C148.625 152.8 148.583 153.4 148.583 154.012C148.583 154.528 148.781 154.786 149.177 154.786C149.621 154.786 150.071 154.684 150.527 154.48C150.983 154.276 151.427 154.03 151.859 153.742C152.291 153.442 152.687 153.148 153.047 152.86C153.407 152.56 153.713 152.308 153.965 152.104C154.217 151.9 154.397 151.798 154.505 151.798C154.601 151.798 154.685 151.828 154.757 151.888C154.829 151.948 154.865 152.044 154.865 152.176C154.865 152.296 154.745 152.512 154.505 152.824C154.265 153.136 153.947 153.49 153.551 153.886C153.155 154.282 152.711 154.666 152.219 155.038C151.727 155.41 151.223 155.716 150.707 155.956C150.191 156.196 149.699 156.316 149.231 156.316C148.871 156.316 148.541 156.208 148.241 155.992C147.953 155.764 147.719 155.38 147.539 154.84C147.371 154.3 147.287 153.556 147.287 152.608L147.287 152.158C146.699 153.13 146.081 154.018 145.433 154.822C144.797 155.626 144.161 156.268 143.525 156.748C142.901 157.228 142.307 157.468 141.743 157.468ZM148.187 148.756C148.127 148.78 148.043 148.816 147.935 148.864C147.383 149.116 146.807 149.428 146.207 149.8C145.619 150.172 145.043 150.586 144.479 151.042C143.927 151.498 143.429 151.972 142.985 152.464C142.541 152.956 142.187 153.454 141.923 153.958C141.659 154.462 141.527 154.954 141.527 155.434C141.527 155.59 141.557 155.71 141.617 155.794C141.689 155.878 141.809 155.92 141.977 155.92C142.217 155.92 142.529 155.77 142.913 155.47C143.297 155.158 143.717 154.75 144.173 154.246C144.641 153.742 145.109 153.184 145.577 152.572C146.045 151.96 146.489 151.342 146.909 150.718C147.341 150.094 147.713 149.518 148.025 148.99C148.073 148.906 148.127 148.828 148.187 148.756Z" fill="black"/>
</g>
<g filter="url(#filter5_d_8450_628)">
<path d="M119 179C119 176.791 120.791 175 123 175H222C224.209 175 226 176.791 226 179V259C226 261.209 224.209 263 222 263H123C120.791 263 119 261.209 119 259V179Z" fill="#D4E3FC" shape-rendering="crispEdges"/>
<path d="M153.554 212.284C153.89 212.284 154.058 212.422 154.058 212.698C154.058 212.89 153.998 213.094 153.878 213.31C153.77 213.514 153.638 213.748 153.482 214.012C153.326 214.276 153.188 214.576 153.068 214.912C152.96 215.248 152.906 215.638 152.906 216.082C152.906 216.382 152.918 216.688 152.942 217C152.978 217.3 152.996 217.57 152.996 217.81C152.996 218.086 152.924 218.326 152.78 218.53C152.648 218.734 152.456 218.836 152.204 218.836C151.988 218.836 151.784 218.728 151.592 218.512C151.412 218.296 151.322 217.894 151.322 217.306C151.322 216.778 151.4 216.226 151.556 215.65C151.724 215.062 151.928 214.516 152.168 214.012C152.42 213.496 152.672 213.082 152.924 212.77C153.176 212.446 153.386 212.284 153.554 212.284ZM158.909 226.864C158.525 226.864 158.123 226.768 157.703 226.576C157.295 226.396 156.947 226.096 156.659 225.676C156.383 225.244 156.245 224.674 156.245 223.966C156.245 223.138 156.317 222.262 156.461 221.338C156.605 220.414 156.791 219.49 157.019 218.566C157.259 217.63 157.523 216.742 157.811 215.902C158.099 215.062 158.387 214.312 158.675 213.652C158.975 212.992 159.251 212.476 159.503 212.104C159.755 211.72 159.965 211.528 160.133 211.528C160.361 211.528 160.553 211.618 160.709 211.798C160.877 211.978 160.961 212.23 160.961 212.554C160.961 212.686 160.883 212.998 160.727 213.49C160.571 213.97 160.373 214.576 160.133 215.308C159.893 216.04 159.635 216.832 159.359 217.684C159.095 218.536 158.843 219.394 158.603 220.258C158.363 221.122 158.165 221.938 158.009 222.706C157.853 223.474 157.775 224.128 157.775 224.668C157.775 224.824 157.817 224.974 157.901 225.118C157.985 225.25 158.123 225.316 158.315 225.316C158.579 225.316 158.957 225.256 159.449 225.136C159.953 225.016 160.499 224.872 161.087 224.704C161.675 224.524 162.239 224.35 162.779 224.182C163.319 224.014 163.775 223.87 164.147 223.75C164.519 223.63 164.729 223.57 164.777 223.57C164.921 223.57 165.041 223.612 165.137 223.696C165.233 223.768 165.281 223.882 165.281 224.038C165.281 224.23 165.137 224.452 164.849 224.704C164.573 224.956 164.201 225.208 163.733 225.46C163.277 225.712 162.767 225.94 162.203 226.144C161.639 226.36 161.069 226.534 160.493 226.666C159.929 226.798 159.401 226.864 158.909 226.864ZM175.107 217.954C175.107 218.722 174.741 219.466 174.009 220.186C173.277 220.906 172.161 221.566 170.661 222.166C170.613 222.466 170.589 222.718 170.589 222.922C170.589 223.402 170.649 223.75 170.769 223.966C170.901 224.182 171.117 224.29 171.417 224.29C171.861 224.29 172.359 224.152 172.911 223.876C173.463 223.588 174.033 223.222 174.621 222.778C175.209 222.322 175.785 221.842 176.349 221.338C176.925 220.834 177.453 220.36 177.933 219.916C178.413 219.46 178.821 219.094 179.157 218.818C179.493 218.53 179.721 218.386 179.841 218.386C180.009 218.386 180.147 218.464 180.255 218.62C180.363 218.764 180.417 218.962 180.417 219.214C180.417 219.526 180.399 219.886 180.363 220.294C180.327 220.69 180.285 221.11 180.237 221.554C180.549 220.678 180.939 219.916 181.407 219.268C181.887 218.608 182.397 218.062 182.937 217.63C183.477 217.198 184.005 216.874 184.521 216.658C185.037 216.442 185.481 216.334 185.853 216.334C186.201 216.334 186.459 216.4 186.627 216.532C186.795 216.664 186.879 216.82 186.879 217C186.879 217.168 186.801 217.324 186.645 217.468C186.501 217.6 186.165 217.774 185.637 217.99C185.025 218.23 184.449 218.512 183.909 218.836C183.381 219.16 182.889 219.604 182.433 220.168C181.977 220.72 181.569 221.458 181.209 222.382C180.849 223.306 180.543 224.494 180.291 225.946C180.243 226.234 180.159 226.438 180.039 226.558C179.919 226.69 179.775 226.756 179.607 226.756C179.487 226.756 179.367 226.702 179.247 226.594C179.127 226.498 179.031 226.264 178.959 225.892C178.887 225.508 178.851 224.908 178.851 224.092C178.851 223.54 178.875 222.94 178.923 222.292C178.983 221.644 179.067 220.966 179.175 220.258C178.623 220.858 178.011 221.488 177.339 222.148C176.667 222.796 175.971 223.402 175.251 223.966C174.531 224.518 173.823 224.968 173.127 225.316C172.431 225.664 171.783 225.838 171.183 225.838C170.547 225.838 170.037 225.616 169.653 225.172C169.269 224.728 169.077 224.068 169.077 223.192C169.077 222.184 169.209 221.26 169.473 220.42C169.737 219.58 170.079 218.854 170.499 218.242C170.919 217.618 171.369 217.138 171.849 216.802C172.329 216.466 172.791 216.298 173.235 216.298C173.835 216.298 174.297 216.454 174.621 216.766C174.945 217.066 175.107 217.462 175.107 217.954ZM170.949 220.852C171.309 220.6 171.699 220.318 172.119 220.006C172.551 219.694 172.917 219.376 173.217 219.052C173.529 218.716 173.685 218.41 173.685 218.134C173.685 217.966 173.643 217.846 173.559 217.774C173.475 217.702 173.331 217.666 173.127 217.666C172.803 217.666 172.503 217.828 172.227 218.152C171.951 218.464 171.705 218.866 171.489 219.358C171.273 219.838 171.093 220.336 170.949 220.852ZM194.199 218.242C194.199 218.626 194.079 219.004 193.839 219.376C193.599 219.736 193.281 220.084 192.885 220.42C192.489 220.744 192.051 221.05 191.571 221.338C191.091 221.626 190.611 221.878 190.131 222.094C189.651 222.31 189.213 222.484 188.817 222.616C188.721 223.084 188.673 223.498 188.673 223.858C188.673 224.086 188.727 224.248 188.835 224.344C188.943 224.44 189.111 224.488 189.339 224.488C189.843 224.488 190.377 224.398 190.941 224.218C191.505 224.038 192.081 223.804 192.669 223.516C193.257 223.228 193.821 222.922 194.361 222.598C194.901 222.274 195.393 221.968 195.837 221.68C196.293 221.392 196.671 221.158 196.971 220.978C197.271 220.798 197.469 220.708 197.565 220.708C197.709 220.708 197.817 220.756 197.889 220.852C197.973 220.936 198.015 221.038 198.015 221.158C198.015 221.254 197.865 221.44 197.565 221.716C197.277 221.992 196.887 222.316 196.395 222.688C195.903 223.048 195.351 223.42 194.739 223.804C194.127 224.188 193.491 224.548 192.831 224.884C192.183 225.22 191.553 225.49 190.941 225.694C190.341 225.898 189.801 226 189.321 226C188.697 226 188.211 225.766 187.863 225.298C187.515 224.83 187.341 224.104 187.341 223.12C187.341 222.46 187.425 221.794 187.593 221.122C187.773 220.45 188.013 219.808 188.313 219.196C188.625 218.572 188.967 218.02 189.339 217.54C189.723 217.048 190.125 216.664 190.545 216.388C190.965 216.1 191.373 215.956 191.769 215.956C192.525 215.956 193.119 216.166 193.551 216.586C193.983 217.006 194.199 217.558 194.199 218.242ZM189.195 221.23C189.567 221.002 189.951 220.762 190.347 220.51C190.743 220.258 191.109 220 191.445 219.736C191.781 219.472 192.051 219.196 192.255 218.908C192.471 218.608 192.579 218.302 192.579 217.99C192.579 217.546 192.339 217.324 191.859 217.324C191.559 217.324 191.241 217.516 190.905 217.9C190.581 218.272 190.269 218.758 189.969 219.358C189.669 219.958 189.411 220.582 189.195 221.23Z" fill="black"/>
</g>
<g filter="url(#filter6_d_8450_628)">
<rect x="105.247" y="55" width="107" height="88" rx="4" transform="rotate(8 105.247 55)" fill="#DFF1E4" shape-rendering="crispEdges"/>
<path d="M137.614 111.049C137.597 111.168 137.515 111.278 137.368 111.378C137.22 111.479 137.009 111.516 136.734 111.489C136.39 111.441 136.023 111.25 135.633 110.916C135.254 110.596 134.864 110.178 134.465 109.661C134.066 109.133 133.675 108.551 133.292 107.915C132.909 107.28 132.546 106.629 132.203 105.963C131.862 105.285 131.56 104.636 131.295 104.017C130.838 105.201 130.461 106.202 130.164 107.021C129.879 107.841 129.629 108.461 129.412 108.879C129.21 109.286 129.001 109.475 128.787 109.445C128.597 109.418 128.429 109.28 128.282 109.029C128.149 108.768 128.129 108.31 128.221 107.657C128.269 107.312 128.342 106.965 128.44 106.615C128.539 106.253 128.683 105.831 128.872 105.349C129.063 104.855 129.313 104.236 129.624 103.492C129.508 103.366 129.44 103.248 129.42 103.136C129.399 103.024 129.398 102.902 129.416 102.772C129.44 102.605 129.511 102.446 129.629 102.293C129.747 102.14 129.949 102.041 130.234 101.996C130.845 100.664 131.333 99.6116 131.696 98.8387C132.061 98.0538 132.362 97.5024 132.601 97.1845C132.853 96.8564 133.092 96.7082 133.318 96.74C133.805 96.8084 134.008 97.1338 133.926 97.7161C133.896 97.93 133.728 98.3911 133.422 99.0995C133.118 99.796 132.652 100.87 132.024 102.32C133.058 101.775 134.035 101.203 134.956 100.606C135.876 100.008 136.72 99.4356 137.487 98.8891C138.256 98.3308 138.932 97.832 139.515 97.3928C140.098 96.9537 140.571 96.6081 140.933 96.3561C141.296 96.1041 141.531 95.9856 141.638 96.0007C141.84 96.029 141.997 96.1178 142.109 96.2669C142.233 96.4176 142.284 96.5762 142.26 96.7426C142.232 96.9446 142.121 97.129 141.928 97.2957C141.596 97.5884 141.155 97.9686 140.604 98.4366C140.054 98.9045 139.438 99.4057 138.757 99.9401C138.078 100.463 137.371 100.969 136.635 101.46C135.912 101.952 135.197 102.378 134.492 102.74C133.789 103.089 133.145 103.314 132.561 103.414C132.701 103.627 132.84 103.847 132.978 104.072C133.116 104.297 133.243 104.515 133.359 104.725C133.708 105.344 134.112 106.007 134.57 106.713C135.04 107.422 135.52 108.101 136.01 108.752C136.502 109.39 136.954 109.926 137.366 110.36C137.563 110.594 137.646 110.823 137.614 111.049ZM141.609 111.956C141.419 111.929 141.269 111.829 141.16 111.657C141.051 111.484 141.016 111.261 141.054 110.987C141.083 110.785 141.171 110.458 141.319 110.007C141.481 109.545 141.66 109.006 141.855 108.392C142.063 107.778 142.255 107.139 142.434 106.473C142.614 105.796 142.748 105.142 142.837 104.512C142.88 104.203 142.989 103.988 143.164 103.868C143.352 103.737 143.547 103.685 143.749 103.714C143.939 103.74 144.065 103.879 144.126 104.13C144.188 104.381 144.139 104.859 143.979 105.564C144.696 104.428 145.433 103.538 146.191 102.893C146.961 102.238 147.696 101.796 148.395 101.567C149.095 101.326 149.707 101.243 150.229 101.316C150.574 101.365 150.814 101.471 150.948 101.635C151.096 101.789 151.158 101.95 151.135 102.116C151.103 102.342 150.983 102.507 150.775 102.611C150.58 102.704 150.245 102.803 149.77 102.906C149.218 103.034 148.704 103.204 148.226 103.416C147.761 103.617 147.303 103.904 146.851 104.277C146.41 104.651 145.959 105.145 145.497 105.759C145.037 106.361 144.555 107.117 144.051 108.028C143.548 108.938 142.993 110.042 142.386 111.338C142.278 111.59 142.157 111.76 142.023 111.851C141.901 111.943 141.763 111.978 141.609 111.956ZM154.648 113.879C154.446 113.851 154.287 113.738 154.169 113.539C154.051 113.341 154.017 113.07 154.065 112.725C154.122 112.321 154.262 111.753 154.487 111.021C154.722 110.291 155.052 109.325 155.475 108.124C155.048 108.84 154.59 109.509 154.103 110.131C153.627 110.755 153.146 111.251 152.658 111.618C152.17 111.986 151.7 112.138 151.248 112.075C150.809 112.013 150.441 111.785 150.145 111.392C149.86 111.001 149.779 110.372 149.901 109.504C149.97 109.017 150.088 108.476 150.256 107.882C150.426 107.276 150.619 106.679 150.835 106.091C151.051 105.503 151.258 104.981 151.455 104.524C151.654 104.055 151.823 103.715 151.962 103.505C152.072 103.326 152.173 103.213 152.264 103.165C152.357 103.106 152.475 103.086 152.618 103.106C152.784 103.129 152.953 103.226 153.123 103.395C153.293 103.564 153.354 103.815 153.308 104.148C153.296 104.231 153.227 104.422 153.1 104.719C152.987 105.006 152.84 105.361 152.66 105.784C152.493 106.197 152.315 106.644 152.126 107.127C151.937 107.609 151.765 108.094 151.612 108.581C151.471 109.07 151.371 109.523 151.312 109.939C151.281 110.165 151.278 110.352 151.306 110.501C151.333 110.651 151.442 110.739 151.632 110.765C151.799 110.789 152.03 110.652 152.326 110.354C152.635 110.058 152.976 109.658 153.35 109.153C153.737 108.638 154.139 108.064 154.555 107.432C154.983 106.801 155.401 106.151 155.81 105.481C156.231 104.814 156.618 104.177 156.969 103.572C157.095 103.372 157.214 103.255 157.328 103.223C157.443 103.178 157.566 103.165 157.697 103.184C157.91 103.214 158.088 103.329 158.229 103.531C158.384 103.722 158.442 103.955 158.404 104.228C158.379 104.406 158.3 104.71 158.167 105.14C158.046 105.571 157.884 106.076 157.682 106.653C157.493 107.22 157.281 107.821 157.047 108.454C156.824 109.09 156.602 109.719 156.381 110.342C156.162 110.954 155.956 111.512 155.764 112.019C155.584 112.526 155.435 112.936 155.319 113.247C155.218 113.535 155.108 113.714 154.989 113.782C154.881 113.864 154.767 113.896 154.648 113.879ZM161.879 114.859C161.617 114.822 161.426 114.717 161.305 114.542C161.195 114.381 161.153 114.206 161.179 114.016C161.203 113.849 161.296 113.705 161.458 113.582C161.635 113.45 161.862 113.342 162.14 113.26C162.65 113.077 163.131 112.89 163.582 112.699C164.045 112.51 164.427 112.291 164.729 112.042C165.03 111.794 165.203 111.509 165.248 111.188C165.287 110.915 165.227 110.695 165.069 110.527C164.912 110.347 164.679 110.236 164.371 110.193C164.192 110.168 163.938 110.168 163.607 110.194C163.278 110.209 162.917 110.231 162.525 110.26C162.147 110.28 161.774 110.3 161.408 110.322C161.043 110.331 160.736 110.318 160.486 110.283C160.035 110.219 159.711 110.065 159.515 109.819C159.321 109.562 159.251 109.243 159.304 108.863C159.331 108.672 159.484 108.403 159.763 108.055C160.042 107.706 160.399 107.326 160.832 106.914C161.279 106.492 161.762 106.076 162.28 105.664C162.799 105.252 163.318 104.876 163.838 104.537C164.37 104.2 164.856 103.935 165.295 103.743C165.746 103.551 166.108 103.475 166.382 103.513C166.655 103.552 166.85 103.67 166.968 103.869C167.085 104.067 167.125 104.303 167.087 104.576C167.057 104.79 166.995 104.969 166.902 105.113C166.811 105.246 166.646 105.338 166.409 105.39C166.183 105.443 165.844 105.443 165.391 105.392C164.875 105.695 164.323 106.048 163.733 106.449C163.157 106.841 162.62 107.256 162.122 107.695C161.638 108.124 161.269 108.551 161.015 108.976C161.426 108.9 161.917 108.854 162.489 108.838C163.074 108.811 163.658 108.838 164.24 108.92C165.155 109.049 165.803 109.352 166.185 109.83C166.579 110.297 166.73 110.864 166.637 111.529C166.576 111.957 166.377 112.383 166.039 112.808C165.714 113.223 165.31 113.596 164.827 113.928C164.344 114.261 163.842 114.511 163.322 114.68C162.799 114.861 162.318 114.921 161.879 114.859ZM176.282 108.649C176.229 109.03 176.057 109.387 175.768 109.722C175.48 110.045 175.117 110.346 174.678 110.623C174.24 110.889 173.764 111.131 173.249 111.349C172.733 111.568 172.223 111.751 171.717 111.898C171.212 112.045 170.754 112.156 170.344 112.232C170.183 112.682 170.078 113.085 170.028 113.442C169.996 113.667 170.027 113.835 170.121 113.945C170.215 114.056 170.374 114.126 170.6 114.158C171.099 114.228 171.64 114.213 172.224 114.114C172.808 114.014 173.41 113.862 174.033 113.659C174.655 113.456 175.256 113.231 175.836 112.985C176.416 112.74 176.946 112.505 177.426 112.282C177.917 112.06 178.324 111.881 178.646 111.744C178.968 111.608 179.177 111.546 179.272 111.56C179.415 111.58 179.515 111.642 179.573 111.747C179.644 111.842 179.672 111.949 179.655 112.068C179.642 112.163 179.467 112.326 179.132 112.558C178.808 112.791 178.377 113.058 177.838 113.358C177.301 113.646 176.702 113.937 176.043 114.232C175.383 114.527 174.703 114.795 174.003 115.036C173.314 115.279 172.653 115.459 172.019 115.575C171.396 115.694 170.847 115.72 170.372 115.653C169.754 115.566 169.305 115.267 169.026 114.755C168.746 114.243 168.675 113.5 168.812 112.525C168.904 111.872 169.08 111.224 169.339 110.582C169.611 109.942 169.938 109.339 170.32 108.775C170.716 108.2 171.132 107.701 171.567 107.278C172.016 106.844 172.467 106.52 172.922 106.305C173.378 106.078 173.802 105.992 174.194 106.047C174.942 106.153 175.501 106.443 175.871 106.919C176.24 107.395 176.377 107.972 176.282 108.649ZM170.911 110.912C171.311 110.738 171.725 110.554 172.152 110.359C172.579 110.165 172.977 109.96 173.347 109.746C173.716 109.531 174.022 109.295 174.264 109.038C174.52 108.771 174.669 108.483 174.713 108.174C174.775 107.735 174.568 107.481 174.092 107.415C173.795 107.373 173.454 107.519 173.068 107.852C172.695 108.176 172.318 108.613 171.938 109.166C171.557 109.718 171.215 110.3 170.911 110.912Z" fill="black"/>
</g>
<g filter="url(#filter7_d_8450_628)">
<rect x="178.247" y="7" width="107" height="88" rx="4" transform="rotate(8 178.247 7)" fill="#FFEDC7" shape-rendering="crispEdges"/>
<path d="M208.255 63.3178C207.958 63.2761 207.726 63.1586 207.559 62.9655C207.403 62.786 207.338 62.6012 207.365 62.411C207.395 62.1972 207.447 62.0409 207.521 61.9423C207.609 61.8335 207.77 61.7712 208.002 61.7554C208.579 61.7032 209.177 61.6297 209.796 61.5349C210.429 61.43 211.021 61.3132 211.572 61.1847C212.125 61.0443 212.576 60.8956 212.926 60.7387C213.287 60.5834 213.478 60.4286 213.5 60.2741C213.52 60.1315 213.408 59.9765 213.165 59.809C212.924 59.6297 212.613 59.4284 212.232 59.2053C211.852 58.9821 211.444 58.737 211.009 58.4698C210.574 58.2027 210.172 57.91 209.805 57.5918C209.438 57.2736 209.147 56.9297 208.932 56.5603C208.719 56.1789 208.644 55.7684 208.705 55.3287C208.802 54.6395 209.059 54.0212 209.475 53.4738C209.905 52.9162 210.429 52.4203 211.047 51.9861C211.666 51.552 212.332 51.1669 213.046 50.831C213.773 50.4848 214.481 50.1905 215.169 49.9479C215.871 49.6952 216.496 49.474 217.044 49.2844C217.223 49.2127 217.393 49.1699 217.553 49.1559C217.712 49.142 217.851 49.1434 217.97 49.1601C218.315 49.2085 218.553 49.3208 218.686 49.497C218.819 49.6732 218.871 49.8623 218.843 50.0643C218.819 50.2307 218.703 50.4142 218.493 50.615C218.284 50.8038 218.002 50.958 217.646 51.0776C217.29 51.1972 216.88 51.2245 216.417 51.1593L216.274 51.1393C215.84 51.2964 215.364 51.4901 214.847 51.7204C214.33 51.9507 213.815 52.2115 213.301 52.5029C212.788 52.7942 212.308 53.1025 211.863 53.4276C211.431 53.7426 211.072 54.0556 210.785 54.3668C210.511 54.6797 210.354 54.9788 210.314 55.264C210.266 55.6086 210.353 55.9359 210.576 56.246C210.799 56.556 211.097 56.8464 211.471 57.1171C211.857 57.3894 212.262 57.6583 212.685 57.9238C213.12 58.191 213.525 58.4599 213.898 58.7306C214.286 58.991 214.593 59.2644 214.819 59.5507C215.047 59.8251 215.139 60.1227 215.094 60.4436C215.042 60.812 214.862 61.1441 214.554 61.4401C214.257 61.7378 213.881 62 213.425 62.2267C212.971 62.4416 212.478 62.6268 211.948 62.7825C211.43 62.9279 210.923 63.0445 210.426 63.1321C209.929 63.2198 209.485 63.2785 209.093 63.3083C208.713 63.3397 208.433 63.3429 208.255 63.3178ZM226.14 57.3972C226.086 57.7775 225.915 58.1351 225.625 58.4701C225.338 58.7932 224.974 59.0935 224.535 59.3712C224.098 59.6369 223.622 59.879 223.106 60.0974C222.591 60.3158 222.081 60.4985 221.575 60.6456C221.07 60.7927 220.612 60.904 220.201 60.9796C220.041 61.4297 219.936 61.833 219.886 62.1895C219.854 62.4153 219.885 62.5832 219.979 62.6933C220.072 62.8034 220.232 62.8743 220.458 62.9061C220.957 62.9762 221.498 62.9614 222.082 62.8616C222.665 62.7619 223.268 62.6103 223.891 62.407C224.513 62.2036 225.114 61.9791 225.694 61.7334C226.274 61.4877 226.804 61.2531 227.283 61.0297C227.775 60.808 228.182 60.6289 228.504 60.4924C228.826 60.3559 229.035 60.2943 229.13 60.3077C229.272 60.3277 229.373 60.3903 229.431 60.4954C229.502 60.5903 229.529 60.6971 229.513 60.8159C229.499 60.911 229.325 61.0743 228.989 61.3059C228.666 61.5391 228.235 61.8057 227.696 62.1056C227.158 62.3936 226.56 62.6852 225.9 62.9803C225.241 63.2753 224.561 63.5433 223.861 63.7842C223.172 64.0268 222.511 64.2064 221.876 64.3233C221.254 64.4418 220.705 64.4677 220.229 64.4008C219.612 64.314 219.163 64.0146 218.883 63.5028C218.604 62.9909 218.533 62.2477 218.67 61.2733C218.761 60.6197 218.937 59.9719 219.197 59.3298C219.469 58.6894 219.796 58.0871 220.178 57.5228C220.574 56.9483 220.99 56.4492 221.425 56.0257C221.873 55.5919 222.325 55.2676 222.779 55.0527C223.235 54.826 223.659 54.7402 224.052 54.7953C224.8 54.9005 225.359 55.1911 225.728 55.6672C226.098 56.1432 226.235 56.7199 226.14 57.3972ZM220.769 59.6597C221.169 59.4857 221.582 59.3015 222.01 59.1071C222.437 58.9126 222.835 58.7081 223.205 58.4934C223.574 58.2787 223.88 58.043 224.122 57.7862C224.378 57.5192 224.527 57.2312 224.571 56.9222C224.632 56.4825 224.426 56.2293 223.95 56.1625C223.653 56.1208 223.312 56.2666 222.925 56.6001C222.553 56.9234 222.176 57.3613 221.796 57.9137C221.415 58.4661 221.073 59.0481 220.769 59.6597ZM229.332 65.6984C228.821 65.6265 228.473 65.4746 228.288 65.2425C228.102 65.0104 228.037 64.6983 228.092 64.3062C228.369 62.3336 229.016 60.3219 230.031 58.2713C231.048 56.2087 232.351 54.1803 233.94 52.1861C234.145 51.9361 234.299 51.7822 234.405 51.7243C234.522 51.668 234.651 51.6499 234.794 51.6699C234.96 51.6933 235.1 51.7736 235.214 51.9108C235.329 52.048 235.371 52.2176 235.343 52.4196C235.328 52.5266 235.18 52.8027 234.899 53.248C234.62 53.6813 234.263 54.243 233.826 54.933C233.39 55.623 232.918 56.3988 232.409 57.2604C231.913 58.1117 231.43 59.0072 230.959 59.9467C230.487 60.8863 230.082 61.8291 229.743 62.7751C230.073 62.4095 230.461 62.0217 230.906 61.6117C231.364 61.2033 231.845 60.7983 232.35 60.3967C232.854 59.995 233.359 59.6358 233.864 59.319C234.381 59.0039 234.869 58.7635 235.329 58.5978C235.788 58.4322 236.196 58.3744 236.553 58.4245C237.016 58.4896 237.393 58.7425 237.682 59.183C237.985 59.6134 238.083 60.2148 237.974 60.9872C237.882 61.6408 237.61 62.2871 237.156 62.9263C236.705 63.5535 236.093 64.1098 235.322 64.5952C234.565 65.0704 233.68 65.4187 232.667 65.6399C231.656 65.8492 230.544 65.8687 229.332 65.6984ZM229.594 64.3537C230.58 64.4923 231.501 64.452 232.356 64.2329C233.211 64.0137 233.959 63.6887 234.601 63.2579C235.257 62.8169 235.779 62.3388 236.166 61.8237C236.567 61.2984 236.8 60.804 236.865 60.3406C236.912 60.0079 236.823 59.8256 236.597 59.7939C236.324 59.7555 235.955 59.8369 235.49 60.0383C235.026 60.2396 234.514 60.519 233.954 60.8767C233.407 61.236 232.855 61.631 232.297 62.0616C231.742 62.4803 231.223 62.8922 230.742 63.2972C230.273 63.7039 229.89 64.056 229.594 64.3537ZM238.79 67.282C238.528 67.2452 238.284 67.1261 238.058 66.9247C237.844 66.7249 237.763 66.4349 237.817 66.0546C237.86 65.7457 237.973 65.507 238.154 65.3386C238.335 65.1701 238.533 65.0585 238.746 65.0038C238.962 64.9371 239.147 64.9146 239.301 64.9363C239.456 64.958 239.623 65.0179 239.803 65.1159C239.995 65.2156 240.15 65.3646 240.267 65.5629C240.386 65.7493 240.423 66.0088 240.376 66.3416C240.329 66.6743 240.148 66.9276 239.833 67.1014C239.518 67.2752 239.17 67.3354 238.79 67.282Z" fill="black"/>
</g>
<defs>
<filter id="filter0_d_8450_628" x="4.00002" y="139" width="140.206" height="124.035" filterUnits="userSpaceOnUse" color-interpolation-filters="sRGB">
<feFlood flood-opacity="0" result="BackgroundImageFix"/>
<feColorMatrix in="SourceAlpha" type="matrix" values="0 0 0 0 0 0 0 0 0 0 0 0 0 0 0 0 0 0 127 0" result="hardAlpha"/>
<feMorphology radius="4" operator="dilate" in="SourceAlpha" result="effect1_dropShadow_8450_628"/>
<feOffset dx="-2" dy="4"/>
<feGaussianBlur stdDeviation="3.5"/>
<feComposite in2="hardAlpha" operator="out"/>
<feColorMatrix type="matrix" values="0 0 0 0 0 0 0 0 0 0 0 0 0 0 0 0 0 0 0.16 0"/>
<feBlend mode="normal" in2="BackgroundImageFix" result="effect1_dropShadow_8450_628"/>
<feBlend mode="normal" in="SourceGraphic" in2="effect1_dropShadow_8450_628" result="shape"/>
</filter>
<filter id="filter1_d_8450_628" x="0" y="15" width="140.206" height="124.035" filterUnits="userSpaceOnUse" color-interpolation-filters="sRGB">
<feFlood flood-opacity="0" result="BackgroundImageFix"/>
<feColorMatrix in="SourceAlpha" type="matrix" values="0 0 0 0 0 0 0 0 0 0 0 0 0 0 0 0 0 0 127 0" result="hardAlpha"/>
<feMorphology radius="4" operator="dilate" in="SourceAlpha" result="effect1_dropShadow_8450_628"/>
<feOffset dx="-2" dy="4"/>
<feGaussianBlur stdDeviation="3.5"/>
<feComposite in2="hardAlpha" operator="out"/>
<feColorMatrix type="matrix" values="0 0 0 0 0 0 0 0 0 0 0 0 0 0 0 0 0 0 0.16 0"/>
<feBlend mode="normal" in2="BackgroundImageFix" result="effect1_dropShadow_8450_628"/>
<feBlend mode="normal" in="SourceGraphic" in2="effect1_dropShadow_8450_628" result="shape"/>
</filter>
<filter id="filter2_d_8450_628" x="158" y="99" width="140.206" height="124.035" filterUnits="userSpaceOnUse" color-interpolation-filters="sRGB">
<feFlood flood-opacity="0" result="BackgroundImageFix"/>
<feColorMatrix in="SourceAlpha" type="matrix" values="0 0 0 0 0 0 0 0 0 0 0 0 0 0 0 0 0 0 127 0" result="hardAlpha"/>
<feMorphology radius="4" operator="dilate" in="SourceAlpha" result="effect1_dropShadow_8450_628"/>
<feOffset dx="-2" dy="4"/>
<feGaussianBlur stdDeviation="3.5"/>
<feComposite in2="hardAlpha" operator="out"/>
<feColorMatrix type="matrix" values="0 0 0 0 0 0 0 0 0 0 0 0 0 0 0 0 0 0 0.16 0"/>
<feBlend mode="normal" in2="BackgroundImageFix" result="effect1_dropShadow_8450_628"/>
<feBlend mode="normal" in="SourceGraphic" in2="effect1_dropShadow_8450_628" result="shape"/>
</filter>
<filter id="filter3_d_8450_628" x="212" y="53" width="140.206" height="124.035" filterUnits="userSpaceOnUse" color-interpolation-filters="sRGB">
<feFlood flood-opacity="0" result="BackgroundImageFix"/>
<feColorMatrix in="SourceAlpha" type="matrix" values="0 0 0 0 0 0 0 0 0 0 0 0 0 0 0 0 0 0 127 0" result="hardAlpha"/>
<feMorphology radius="4" operator="dilate" in="SourceAlpha" result="effect1_dropShadow_8450_628"/>
<feOffset dx="-2" dy="4"/>
<feGaussianBlur stdDeviation="3.5"/>
<feComposite in2="hardAlpha" operator="out"/>
<feColorMatrix type="matrix" values="0 0 0 0 0 0 0 0 0 0 0 0 0 0 0 0 0 0 0.16 0"/>
<feBlend mode="normal" in2="BackgroundImageFix" result="effect1_dropShadow_8450_628"/>
<feBlend mode="normal" in="SourceGraphic" in2="effect1_dropShadow_8450_628" result="shape"/>
</filter>
<filter id="filter4_d_8450_628" x="44" y="99" width="129" height="110" filterUnits="userSpaceOnUse" color-interpolation-filters="sRGB">
<feFlood flood-opacity="0" result="BackgroundImageFix"/>
<feColorMatrix in="SourceAlpha" type="matrix" values="0 0 0 0 0 0 0 0 0 0 0 0 0 0 0 0 0 0 127 0" result="hardAlpha"/>
<feMorphology radius="4" operator="dilate" in="SourceAlpha" result="effect1_dropShadow_8450_628"/>
<feOffset dx="-2" dy="4"/>
<feGaussianBlur stdDeviation="3.5"/>
<feComposite in2="hardAlpha" operator="out"/>
<feColorMatrix type="matrix" values="0 0 0 0 0 0 0 0 0 0 0 0 0 0 0 0 0 0 0.16 0"/>
<feBlend mode="normal" in2="BackgroundImageFix" result="effect1_dropShadow_8450_628"/>
<feBlend mode="normal" in="SourceGraphic" in2="effect1_dropShadow_8450_628" result="shape"/>
</filter>
<filter id="filter5_d_8450_628" x="106" y="168" width="129" height="110" filterUnits="userSpaceOnUse" color-interpolation-filters="sRGB">
<feFlood flood-opacity="0" result="BackgroundImageFix"/>
<feColorMatrix in="SourceAlpha" type="matrix" values="0 0 0 0 0 0 0 0 0 0 0 0 0 0 0 0 0 0 127 0" result="hardAlpha"/>
<feMorphology radius="4" operator="dilate" in="SourceAlpha" result="effect1_dropShadow_8450_628"/>
<feOffset dx="-2" dy="4"/>
<feGaussianBlur stdDeviation="3.5"/>
<feComposite in2="hardAlpha" operator="out"/>
<feColorMatrix type="matrix" values="0 0 0 0 0 0 0 0 0 0 0 0 0 0 0 0 0 0 0.16 0"/>
<feBlend mode="normal" in2="BackgroundImageFix" result="effect1_dropShadow_8450_628"/>
<feBlend mode="normal" in="SourceGraphic" in2="effect1_dropShadow_8450_628" result="shape"/>
</filter>
<filter id="filter6_d_8450_628" x="79.9998" y="48" width="140.206" height="124.035" filterUnits="userSpaceOnUse" color-interpolation-filters="sRGB">
<feFlood flood-opacity="0" result="BackgroundImageFix"/>
<feColorMatrix in="SourceAlpha" type="matrix" values="0 0 0 0 0 0 0 0 0 0 0 0 0 0 0 0 0 0 127 0" result="hardAlpha"/>
<feMorphology radius="4" operator="dilate" in="SourceAlpha" result="effect1_dropShadow_8450_628"/>
<feOffset dx="-2" dy="4"/>
<feGaussianBlur stdDeviation="3.5"/>
<feComposite in2="hardAlpha" operator="out"/>
<feColorMatrix type="matrix" values="0 0 0 0 0 0 0 0 0 0 0 0 0 0 0 0 0 0 0.16 0"/>
<feBlend mode="normal" in2="BackgroundImageFix" result="effect1_dropShadow_8450_628"/>
<feBlend mode="normal" in="SourceGraphic" in2="effect1_dropShadow_8450_628" result="shape"/>
</filter>
<filter id="filter7_d_8450_628" x="153" y="0" width="140.206" height="124.035" filterUnits="userSpaceOnUse" color-interpolation-filters="sRGB">
<feFlood flood-opacity="0" result="BackgroundImageFix"/>
<feColorMatrix in="SourceAlpha" type="matrix" values="0 0 0 0 0 0 0 0 0 0 0 0 0 0 0 0 0 0 127 0" result="hardAlpha"/>
<feMorphology radius="4" operator="dilate" in="SourceAlpha" result="effect1_dropShadow_8450_628"/>
<feOffset dx="-2" dy="4"/>
<feGaussianBlur stdDeviation="3.5"/>
<feComposite in2="hardAlpha" operator="out"/>
<feColorMatrix type="matrix" values="0 0 0 0 0 0 0 0 0 0 0 0 0 0 0 0 0 0 0.16 0"/>
<feBlend mode="normal" in2="BackgroundImageFix" result="effect1_dropShadow_8450_628"/>
<feBlend mode="normal" in="SourceGraphic" in2="effect1_dropShadow_8450_628" result="shape"/>
</filter>
</defs>
</svg>
