<svg width="268" height="241" viewBox="0 0 268 241" fill="none" xmlns="http://www.w3.org/2000/svg">
<g filter="url(#filter0_d_7777_1387)">
<rect width="80.6068" height="75.9265" rx="3.45946" transform="matrix(0.987153 0.159777 -0.121134 0.992636 23.7915 126.217)" fill="#DFF1E4" shape-rendering="crispEdges"/>
<path d="M29.4176 171.242C28.8644 171.152 28.3576 170.939 27.8973 170.602C27.437 170.264 27.0814 169.839 26.8306 169.326C26.5811 168.802 26.4959 168.216 26.5751 167.567C26.6418 167.021 26.846 166.46 27.1878 165.885C27.5411 165.302 27.9719 164.725 28.4801 164.156C28.9998 163.578 29.551 163.043 30.1337 162.549C30.7176 162.044 31.2831 161.605 31.8302 161.232C32.3785 160.848 32.8585 160.552 33.2703 160.346C33.6821 160.139 33.9648 160.049 34.1184 160.073C34.3131 160.105 34.4752 160.189 34.6048 160.326C34.7459 160.453 34.8084 160.626 34.7922 160.844C34.7797 160.947 34.7294 161.06 34.6413 161.182C34.5545 161.294 34.4005 161.401 34.1792 161.502C33.9362 161.609 33.623 161.779 33.2395 162.011C32.8559 162.243 32.4399 162.528 31.9913 162.865C31.5439 163.192 31.0973 163.556 30.6515 163.956C30.2068 164.346 29.791 164.757 29.4041 165.188C29.0184 165.609 28.7006 166.03 28.4507 166.452C28.2007 166.874 28.0518 167.281 28.004 167.672C27.9299 168.28 28.0423 168.771 28.3415 169.145C28.6406 169.519 29.0872 169.754 29.6814 169.85C29.9888 169.9 30.3632 169.871 30.8046 169.764C31.246 169.657 31.7046 169.495 32.1803 169.278C32.6663 169.062 33.1349 168.818 33.5862 168.544C34.0388 168.26 34.4292 167.971 34.7576 167.678C35.0962 167.386 35.3285 167.108 35.4547 166.845C35.191 166.866 34.8601 166.88 34.462 166.889C34.0639 166.898 33.6511 166.9 33.2235 166.894C32.8061 166.889 32.4259 166.88 32.0828 166.867C31.7397 166.853 31.4913 166.834 31.3376 166.809C31.02 166.758 30.779 166.635 30.6148 166.44C30.4607 166.247 30.3937 166.068 30.4138 165.903C30.4277 165.79 30.487 165.689 30.5918 165.601C30.6965 165.513 30.8481 165.469 31.0466 165.47C31.2757 165.475 31.5785 165.477 31.9549 165.475C32.3427 165.464 32.7453 165.461 33.1627 165.466C33.5915 165.462 33.9832 165.462 34.3379 165.467C34.7027 165.473 34.9774 165.491 35.1618 165.521C35.6945 165.608 36.0695 165.831 36.2866 166.192C36.505 166.542 36.579 167.006 36.5086 167.583C36.4747 167.861 36.2949 168.179 35.9693 168.536C35.6436 168.893 35.2187 169.249 34.6947 169.606C34.1821 169.954 33.6163 170.267 32.9973 170.545C32.3886 170.824 31.7727 171.034 31.1496 171.175C30.5277 171.306 29.9504 171.328 29.4176 171.242ZM45.5659 166.433C45.5068 166.917 45.3082 167.389 44.97 167.849C44.633 168.299 44.1289 168.706 43.4576 169.07C42.7978 169.426 41.9542 169.704 40.9267 169.905C40.8771 170.654 41.0026 171.21 41.3029 171.574C41.6033 171.937 42.1479 172.183 42.9368 172.311C43.5515 172.41 44.1589 172.398 44.759 172.275C45.3694 172.153 45.9431 171.947 46.4801 171.655C46.4231 171.352 46.3897 171.026 46.38 170.678C46.3703 170.33 46.3886 169.965 46.4352 169.584C46.5357 168.76 46.7288 168.076 47.0143 167.534C47.2999 166.992 47.6299 166.599 48.0045 166.355C48.3893 166.113 48.7609 166.021 49.1195 166.079C49.5805 166.153 49.9344 166.379 50.181 166.755C50.4391 167.122 50.5274 167.641 50.4456 168.31C50.3539 169.062 50.0744 169.768 49.6074 170.428C49.1403 171.088 48.5687 171.662 47.8926 172.152C48.038 172.501 48.2243 172.773 48.4513 172.967C48.6886 173.163 48.9557 173.285 49.2529 173.333C49.6114 173.391 50.0127 173.356 50.4566 173.229C50.9108 173.103 51.3828 172.916 51.8725 172.67C52.3623 172.423 52.8398 172.149 53.3051 171.846C53.7717 171.533 54.1909 171.222 54.5627 170.915C54.6572 170.825 54.7474 170.771 54.8331 170.754C54.9201 170.726 54.9994 170.718 55.0712 170.729C55.2863 170.764 55.3794 170.9 55.3505 171.137C55.3291 171.312 55.2182 171.494 55.0176 171.682C54.6317 172.019 54.1761 172.37 53.6508 172.737C53.1357 173.105 52.5931 173.443 52.0228 173.75C51.4628 174.059 50.9115 174.295 50.3691 174.459C49.8369 174.625 49.3557 174.674 48.9254 174.604C48.4746 174.531 48.0645 174.338 47.6952 174.027C47.336 173.716 47.0464 173.307 46.8264 172.799C46.1576 173.142 45.4541 173.385 44.7157 173.529C43.9774 173.672 43.265 173.688 42.5786 173.577C41.4516 173.394 40.6595 172.951 40.2022 172.246C39.7449 171.542 39.581 170.659 39.7105 169.598C39.811 168.774 40.0161 168.035 40.3258 167.381C40.6469 166.719 41.0233 166.16 41.455 165.705C41.8879 165.239 42.3422 164.898 42.818 164.68C43.2937 164.463 43.7416 164.389 44.1617 164.457C44.7046 164.545 45.0892 164.775 45.3153 165.148C45.5415 165.52 45.625 165.949 45.5659 166.433ZM41.1029 168.847C41.6466 168.672 42.1664 168.436 42.6625 168.138C43.17 167.831 43.5866 167.5 43.9123 167.143C44.2481 166.787 44.4362 166.445 44.4764 166.115C44.494 165.971 44.4765 165.858 44.4238 165.776C44.3724 165.683 44.2648 165.624 44.1008 165.597C43.855 165.557 43.585 165.629 43.291 165.813C42.9982 165.986 42.7069 166.233 42.417 166.554C42.1284 166.864 41.8654 167.221 41.6282 167.624C41.4013 168.028 41.2262 168.436 41.1029 168.847ZM47.6248 170.879C48.1026 170.473 48.4978 170.017 48.8103 169.511C49.1229 169.005 49.3118 168.484 49.3772 167.948C49.4325 167.495 49.3474 167.25 49.1221 167.214C48.8045 167.162 48.5047 167.35 48.2227 167.777C47.9523 168.196 47.773 168.765 47.685 169.487C47.6234 169.991 47.6033 170.456 47.6248 170.879ZM60.734 177.24C60.0681 177.132 59.4728 176.873 58.9483 176.463C58.4341 176.054 57.9824 175.56 57.5932 174.983C57.2142 174.406 56.8858 173.802 56.6079 173.168C56.3415 172.527 56.1167 171.928 55.9337 171.373C55.6577 172.179 55.4371 172.832 55.2718 173.33C55.1167 173.831 54.9921 174.21 54.8979 174.467C54.814 174.727 54.7408 174.899 54.6782 174.983C54.6157 175.068 54.5435 175.103 54.4615 175.09C54.2361 175.054 54.036 174.895 53.8613 174.615C53.6866 174.334 53.6231 173.999 53.6709 173.607C53.7212 173.195 53.8595 172.661 54.0859 172.004C54.3136 171.337 54.5961 170.605 54.9336 169.809C55.2826 169.004 55.6705 168.179 56.0975 167.334C56.5257 166.479 56.9611 165.651 57.4035 164.851C57.8574 164.042 58.3019 163.31 58.737 162.656C58.9539 162.334 59.1301 162.131 59.2656 162.048C59.4114 161.966 59.5765 161.941 59.7609 161.97C60.058 162.019 60.1896 162.182 60.1556 162.46C60.1431 162.563 60.0985 162.671 60.022 162.785C59.9556 162.9 59.8823 163.03 59.802 163.175C59.5623 163.598 59.2951 164.075 59.0006 164.605C58.7163 165.137 58.4238 165.694 58.1229 166.275C57.8324 166.859 57.5527 167.438 57.2838 168.015C57.015 168.591 56.7774 169.125 56.5712 169.617C57.0494 169.379 57.6045 169.154 58.2364 168.941C58.8683 168.728 59.517 168.549 60.1824 168.405C60.849 168.25 61.4735 168.141 62.0558 168.078C62.6381 168.015 63.1137 168.013 63.4825 168.072C63.6772 168.104 63.8182 168.19 63.9056 168.33C64.0044 168.462 64.0451 168.599 64.0275 168.744C64.0136 168.857 63.9639 168.965 63.8784 169.066C63.8044 169.159 63.6599 169.23 63.4449 169.28C62.7398 169.407 62.0392 169.541 61.3431 169.68C60.6483 169.809 59.9202 169.954 59.1588 170.115C58.409 170.266 57.5863 170.459 56.6907 170.692C56.9017 171.188 57.1545 171.728 57.449 172.312C57.7447 172.885 58.0692 173.436 58.4224 173.966C58.7769 174.486 59.151 174.93 59.5449 175.298C59.94 175.657 60.3526 175.87 60.7829 175.94C61.3464 176.031 61.9039 176.001 62.4553 175.848C63.0067 175.696 63.5234 175.485 64.0054 175.217C64.4977 174.95 64.9324 174.684 65.3094 174.419C65.6877 174.144 65.9855 173.93 66.2028 173.776C66.3166 173.7 66.4163 173.653 66.5021 173.635C66.5993 173.609 66.6838 173.602 66.7555 173.613C66.8989 173.636 66.9868 173.73 67.0192 173.892C67.063 174.046 66.9923 174.198 66.807 174.346C66.6665 174.471 66.4499 174.662 66.1574 174.919C65.8648 175.176 65.5121 175.455 65.0992 175.756C64.6979 176.048 64.2569 176.324 63.7761 176.582C63.3056 176.842 62.8068 177.034 62.2796 177.159C61.7614 177.296 61.2462 177.323 60.734 177.24ZM65.2512 172.093C64.9771 172.028 64.871 171.827 64.933 171.49C64.9533 171.41 65.0216 171.321 65.1379 171.224C65.2554 171.117 65.3814 171.069 65.5158 171.08C65.8372 171.101 66.2322 171.118 66.7007 171.13C67.1808 171.135 67.7082 171.136 68.283 171.134C68.4471 170.646 68.6348 170.135 68.8461 169.602C69.0574 169.069 69.2822 168.554 69.5205 168.057C69.76 167.549 70.0035 167.095 70.251 166.694C70.4984 166.293 70.7448 165.986 70.9901 165.774C71.1167 165.678 71.2285 165.618 71.3258 165.591C71.4243 165.555 71.5094 165.542 71.5811 165.554C71.7245 165.577 71.8297 165.657 71.8965 165.794C71.9737 165.933 72.0028 166.079 71.9839 166.234C71.9739 166.316 71.9485 166.396 71.9077 166.474C71.6324 167.017 71.3253 167.692 70.9866 168.499C70.6479 169.306 70.2844 170.187 69.8961 171.143C70.8575 171.141 71.8201 171.129 72.784 171.106C73.7479 171.084 74.5768 171.055 75.2706 171.02C75.4753 170.97 75.6219 171.009 75.7106 171.139C75.8094 171.27 75.852 171.393 75.8381 171.506C75.8205 171.65 75.7663 171.752 75.6756 171.811C75.5951 171.871 75.5107 171.921 75.4224 171.959L75.4052 171.972C75.1902 172.021 74.8709 172.069 74.4473 172.116C74.0249 172.153 73.5398 172.19 72.992 172.227C72.4454 172.255 71.863 172.276 71.2447 172.291C70.6367 172.308 70.035 172.316 69.4397 172.314C69.0935 173.183 68.7389 174.076 68.3761 174.994C68.0248 175.904 67.6754 176.798 67.3279 177.677C67.1802 178.031 67.0341 178.244 66.8896 178.315C66.7541 178.398 66.6146 178.428 66.4712 178.405C66.3073 178.378 66.1714 178.293 66.0635 178.15C65.9659 178.008 65.9813 177.753 66.1098 177.385L67.8747 172.297C67.2487 172.291 66.6975 172.27 66.2212 172.235C65.7552 172.201 65.4318 172.154 65.2512 172.093ZM77.4929 180.508C77.3187 180.48 77.1796 180.378 77.0755 180.204C76.9714 180.029 76.9376 179.793 76.974 179.494C77.0168 179.144 77.129 178.652 77.3106 178.02C77.5025 177.389 77.7714 176.556 78.1173 175.519C77.7602 176.134 77.3768 176.707 76.9671 177.24C76.5676 177.774 76.1608 178.196 75.7467 178.508C75.3326 178.819 74.931 178.943 74.5416 178.88C74.1626 178.818 73.8427 178.614 73.5821 178.268C73.3317 177.922 73.2523 177.374 73.3441 176.622C73.3957 176.199 73.4894 175.731 73.6252 175.217C73.7623 174.693 73.9192 174.178 74.096 173.671C74.2728 173.163 74.4427 172.713 74.6057 172.319C74.77 171.915 74.9101 171.622 75.0262 171.442C75.118 171.288 75.203 171.192 75.281 171.152C75.3602 171.102 75.4613 171.087 75.5843 171.106C75.7277 171.13 75.8738 171.216 76.0227 171.367C76.1715 171.517 76.2283 171.736 76.1931 172.024C76.1843 172.097 76.1277 172.261 76.0233 172.517C75.9304 172.765 75.8095 173.071 75.6605 173.435C75.523 173.791 75.3767 174.177 75.2214 174.593C75.0662 175.009 74.9263 175.428 74.8018 175.849C74.6875 176.272 74.6084 176.663 74.5644 177.024C74.5405 177.22 74.5415 177.383 74.5674 177.513C74.5933 177.643 74.6882 177.722 74.8521 177.748C74.9955 177.771 75.1924 177.656 75.4428 177.403C75.7034 177.151 75.9906 176.808 76.3046 176.376C76.6301 175.935 76.9669 175.443 77.3152 174.901C77.6737 174.36 78.0239 173.802 78.3657 173.227C78.7177 172.654 79.0404 172.107 79.3337 171.587C79.4383 171.415 79.5392 171.316 79.6364 171.29C79.7349 171.253 79.8405 171.244 79.9532 171.262C80.1376 171.292 80.2921 171.396 80.4167 171.573C80.5527 171.743 80.6063 171.946 80.5774 172.183C80.5585 172.337 80.4951 172.6 80.3871 172.971C80.2894 173.344 80.1579 173.78 79.9926 174.278C79.8388 174.768 79.6658 175.286 79.4737 175.833C79.2919 176.381 79.1107 176.925 78.9301 177.463C78.7508 177.991 78.5822 178.473 78.4245 178.909C78.2769 179.348 78.1555 179.701 78.0601 179.969C77.9774 180.219 77.8856 180.372 77.7846 180.429C77.6925 180.498 77.5953 180.524 77.4929 180.508ZM81.2791 174.688C81.005 174.622 80.8989 174.421 80.9609 174.085C80.9812 174.004 81.0495 173.915 81.1657 173.818C81.2833 173.711 81.4093 173.663 81.5437 173.675C81.8651 173.695 82.26 173.712 82.7286 173.725C83.2087 173.729 83.7361 173.73 84.3109 173.729C84.475 173.24 84.6626 172.73 84.874 172.197C85.0853 171.664 85.3101 171.148 85.5484 170.651C85.7879 170.144 86.0314 169.689 86.2789 169.288C86.5263 168.887 86.7727 168.58 87.018 168.368C87.1445 168.273 87.2564 168.212 87.3537 168.186C87.4521 168.149 87.5372 168.137 87.609 168.148C87.7524 168.171 87.8575 168.251 87.9244 168.388C88.0015 168.527 88.0307 168.673 88.0118 168.828C88.0018 168.91 87.9763 168.99 87.9355 169.068C87.6602 169.612 87.3532 170.287 87.0145 171.093C86.6758 171.9 86.3123 172.781 85.9239 173.738C86.8853 173.736 87.848 173.723 88.8119 173.701C89.7758 173.678 90.6047 173.649 91.2984 173.615C91.5032 173.564 91.6498 173.603 91.7384 173.733C91.8373 173.865 91.8798 173.987 91.866 174.1C91.8484 174.245 91.7942 174.346 91.7035 174.405C91.6229 174.466 91.5386 174.515 91.4503 174.553L91.4331 174.566C91.2181 174.615 90.8988 174.664 90.4752 174.711C90.0528 174.747 89.5677 174.784 89.0199 174.822C88.4733 174.849 87.8909 174.87 87.2726 174.886C86.6646 174.903 86.0629 174.91 85.4676 174.909C85.1213 175.777 84.7668 176.67 84.404 177.589C84.0527 178.498 83.7033 179.392 83.3558 180.271C83.2081 180.625 83.062 180.838 82.9175 180.909C82.782 180.992 82.6425 181.022 82.4991 180.999C82.3351 180.973 82.1993 180.888 82.0914 180.744C81.9938 180.602 82.0092 180.347 82.1377 179.979L83.9026 174.892C83.2766 174.885 82.7254 174.864 82.2491 174.829C81.783 174.795 81.4597 174.748 81.2791 174.688ZM91.3455 181.517C90.741 181.419 90.2929 181.11 90.0012 180.59C89.7094 180.07 89.6088 179.44 89.6993 178.698C89.732 178.43 89.8024 178.152 89.9106 177.865C90.0303 177.57 90.1667 177.308 90.3198 177.081C90.2569 176.997 90.2125 176.89 90.1866 176.76C90.1619 176.619 90.1615 176.451 90.1854 176.255C90.2596 175.647 90.4299 175.108 90.6964 174.636C90.9629 174.164 91.2879 173.771 91.6712 173.454C92.0558 173.128 92.4656 172.895 92.9005 172.755C93.3457 172.617 93.7835 172.583 94.2138 172.653C94.9207 172.767 95.463 173.117 95.8406 173.704C96.2196 174.28 96.3456 175.088 96.2186 176.129C96.152 176.675 96.0021 177.218 95.769 177.758C95.5462 178.3 95.2644 178.811 94.9237 179.291C94.5932 179.774 94.2235 180.192 93.8147 180.546C93.4161 180.901 93.0019 181.171 92.5722 181.353C92.1539 181.527 91.745 181.582 91.3455 181.517ZM91.3981 176.719C91.4496 176.812 91.4671 176.925 91.4508 177.059C91.4319 177.213 91.3823 177.363 91.302 177.507C91.2319 177.654 91.1498 177.856 91.0556 178.114C90.9615 178.372 90.8842 178.748 90.8239 179.242C90.7635 179.737 90.928 180.016 91.3173 180.079C91.7476 180.148 92.1679 180.043 92.5782 179.763C92.9898 179.472 93.3723 179.077 93.7258 178.577C94.0793 178.078 94.3706 177.531 94.5997 176.938C94.8403 176.336 94.9946 175.757 95.0624 175.201C95.1064 174.84 95.0706 174.577 94.9551 174.411C94.8407 174.235 94.6094 174.119 94.2611 174.063C93.9025 174.005 93.5135 174.068 93.094 174.252C92.686 174.428 92.3288 174.701 92.0224 175.071C91.716 175.442 91.5313 175.885 91.4685 176.4C91.4547 176.513 91.4312 176.62 91.3981 176.719ZM97.676 182.684C97.5121 182.657 97.382 182.568 97.2856 182.416C97.1893 182.263 97.1556 182.069 97.1845 181.832C97.2058 181.657 97.2769 181.374 97.3977 180.984C97.5299 180.585 97.6754 180.12 97.8343 179.589C98.0034 179.06 98.1596 178.507 98.303 177.932C98.4476 177.346 98.5532 176.78 98.6198 176.234C98.6525 175.966 98.743 175.781 98.8913 175.679C99.0511 175.568 99.218 175.527 99.3922 175.555C99.5561 175.582 99.6665 175.704 99.7233 175.924C99.7801 176.143 99.7452 176.558 99.6185 177.167C100.218 176.193 100.839 175.432 101.48 174.884C102.133 174.328 102.758 173.957 103.355 173.77C103.954 173.572 104.479 173.51 104.93 173.583C105.227 173.631 105.434 173.728 105.552 173.873C105.682 174.01 105.738 174.15 105.72 174.294C105.697 174.49 105.596 174.631 105.418 174.718C105.252 174.796 104.965 174.876 104.558 174.957C104.086 175.059 103.646 175.198 103.238 175.374C102.842 175.541 102.452 175.782 102.068 176.098C101.695 176.416 101.315 176.838 100.927 177.363C100.54 177.879 100.137 178.528 99.7174 179.311C99.298 180.094 98.8373 181.044 98.3354 182.16C98.2463 182.377 98.1449 182.523 98.0311 182.599C97.9276 182.677 97.8092 182.705 97.676 182.684Z" fill="black"/>
</g>
<g filter="url(#filter1_d_7777_1387)">
<rect width="80.6068" height="75.9265" rx="3.45946" transform="matrix(0.987153 -0.159777 0.121134 0.992636 11.5903 31.8496)" fill="#D4E3FC" shape-rendering="crispEdges"/>
<path d="M41.4418 71.2582C41.2266 71.2931 41.0265 71.1941 40.8414 70.9615C40.6563 70.7288 40.5166 70.2261 40.4223 69.4535C40.3356 68.7426 40.2781 67.8432 40.2498 66.7552C40.2305 65.6553 40.2486 64.4337 40.304 63.0906C40.3438 62.4748 40.4935 61.9463 40.7531 61.5051C41.0229 61.0622 41.3925 60.6662 41.8618 60.3171C42.3414 59.9664 42.9118 59.6324 43.5731 59.3153C44.2343 58.9981 44.9186 58.6983 45.6259 58.4157C46.3422 58.1212 47.0167 57.8702 47.6496 57.6627C48.2914 57.4433 48.8224 57.2995 49.2424 57.2316C49.5395 57.1835 49.7725 57.2088 49.9412 57.3075C50.11 57.4063 50.2026 57.5226 50.2189 57.6566C50.234 57.7802 50.2113 57.8942 50.1509 57.9985C50.0995 58.0908 49.9847 58.1777 49.8066 58.2591C49.6785 58.3218 49.4055 58.4395 48.9878 58.6122C48.5791 58.7729 48.0755 58.97 47.4772 59.2034C46.8891 59.4352 46.2663 59.683 45.609 59.947C44.9505 60.2007 44.313 60.4562 43.6967 60.7135C42.9944 61.0373 42.4989 61.3854 42.21 61.7578C41.9301 62.1183 41.7735 62.5901 41.7402 63.1733C41.7373 63.3208 41.7323 63.537 41.7253 63.8218C41.9983 63.662 42.3418 63.4804 42.7558 63.2768C43.1697 63.0732 43.5946 62.8731 44.0302 62.6766C44.4659 62.48 44.8689 62.3149 45.2392 62.1815C45.6082 62.0377 45.8849 61.9509 46.0693 61.9211C46.2025 61.8995 46.3509 61.9595 46.5144 62.1011C46.6882 62.2411 46.7858 62.3986 46.8072 62.5738C46.8172 62.6562 46.8017 62.7428 46.7605 62.8335C46.7181 62.9139 46.6379 62.9846 46.52 63.0457C46.4508 63.0779 46.2778 63.1585 46.001 63.2873C45.7332 63.4042 45.4064 63.5516 45.0207 63.7296C44.6452 63.906 44.2505 64.0959 43.8365 64.2995C43.4213 64.4928 43.026 64.6776 42.6505 64.8539C42.2853 65.0286 41.9796 65.1778 41.7335 65.3017C41.7426 65.8045 41.7492 66.3287 41.7531 66.8744C41.757 67.42 41.7628 67.9391 41.7707 68.4316C41.7876 68.9121 41.8014 69.3248 41.8121 69.6698C41.8216 70.0044 41.832 70.2181 41.8433 70.3108C41.9137 70.8877 41.7799 71.2035 41.4418 71.2582ZM50.2726 70.2071C49.8833 70.2701 49.5386 70.1421 49.2385 69.823C48.9473 69.4919 48.7659 69.0327 48.6943 68.4455C48.6276 67.8995 48.6948 67.3371 48.8958 66.7583C49.1071 66.1778 49.4079 65.6039 49.7983 65.0364C50.1888 64.469 50.6252 63.9361 51.1077 63.4378C51.5889 62.9292 52.077 62.4772 52.572 62.0819C53.0773 61.685 53.5446 61.3625 53.974 61.1144C54.4034 60.8663 54.7513 60.7207 55.0177 60.6776C55.1611 60.6543 55.2827 60.6662 55.3825 60.7131C55.481 60.7496 55.539 60.8401 55.5566 60.9843C55.5679 61.077 55.5428 61.1704 55.4811 61.2644C55.4913 61.2627 55.5016 61.2611 55.5118 61.2594C55.7372 61.2229 55.8663 61.3386 55.8989 61.6065C55.9103 61.6992 55.8977 61.8956 55.8611 62.1956C55.8234 62.4854 55.7842 62.8489 55.7435 63.2862C55.7028 63.7235 55.6781 64.2055 55.6692 64.7322C55.6591 65.2487 55.6861 65.7696 55.7502 66.295C55.8043 66.7379 56.0004 66.9321 56.3384 66.8773C56.7175 66.816 57.091 66.6662 57.4589 66.4281C57.8269 66.1899 58.1802 65.9174 58.5188 65.6105C58.8562 65.2932 59.1635 64.9861 59.4407 64.6891C59.7166 64.3818 59.9515 64.1232 60.1452 63.9132C60.339 63.7033 60.482 63.5908 60.5742 63.5759C60.6562 63.5626 60.731 63.5768 60.7988 63.6183C60.8665 63.6599 60.9073 63.7373 60.9212 63.8507C60.9337 63.9537 60.8539 64.1557 60.6817 64.4567C60.5095 64.7577 60.2751 65.1056 59.9785 65.5003C59.6819 65.895 59.343 66.286 58.962 66.6733C58.5809 67.0607 58.1826 67.393 57.7673 67.6704C57.3519 67.9477 56.9444 68.1187 56.5448 68.1834C56.2375 68.2331 55.9444 68.186 55.6657 68.042C55.3959 67.8861 55.1559 67.5888 54.9456 67.1501C54.7456 66.7097 54.596 66.0826 54.4967 65.2687L54.4495 64.8824C54.0493 65.7981 53.6148 66.6458 53.1458 67.4256C52.687 68.2037 52.2113 68.8428 51.7186 69.3427C51.2361 69.841 50.7541 70.1292 50.2726 70.2071ZM54.8615 61.8374C54.8128 61.8663 54.7448 61.9088 54.6577 61.965C54.2128 62.2576 53.7537 62.605 53.2804 63.0073C52.8174 63.4079 52.369 63.8429 51.9353 64.3123C51.5118 64.7801 51.1363 65.2558 50.8087 65.7396C50.4812 66.2233 50.2312 66.6997 50.0586 67.1689C49.886 67.6381 49.8248 68.0787 49.8751 68.4908C49.8915 68.6247 49.9296 68.7236 49.9897 68.7874C50.0599 68.8496 50.1668 68.869 50.3102 68.8458C50.5151 68.8126 50.7658 68.6408 51.0622 68.3301C51.3573 68.0092 51.6732 67.6009 52.0097 67.1052C52.3564 66.6079 52.6975 66.0642 53.033 65.4741C53.3684 64.884 53.6827 64.2921 53.9759 63.6984C54.2794 63.103 54.5366 62.5571 54.7477 62.0607C54.7799 61.9819 54.8178 61.9075 54.8615 61.8374ZM62.4748 68.2163C62.0138 68.2909 61.587 68.2182 61.1945 67.9981C60.811 67.766 60.4917 67.4185 60.2367 66.9555C59.9817 66.4925 59.8146 65.9365 59.7354 65.2875C59.6525 64.6076 59.6457 63.91 59.7151 63.1949C59.7846 62.4798 59.9019 61.8148 60.0672 61.1997C60.2324 60.5847 60.4172 60.0873 60.6216 59.7075C60.8247 59.3174 61.0236 59.1066 61.2183 59.0751C61.3617 59.0519 61.4852 59.0792 61.5887 59.157C61.6922 59.2348 61.7547 59.3613 61.7761 59.5364C61.7811 59.5776 61.7577 59.7285 61.7059 59.989C61.6529 60.2392 61.5881 60.5648 61.5117 60.9659C61.434 61.3567 61.3614 61.7886 61.2937 62.2618C61.2261 62.735 61.1802 63.2152 61.1561 63.7023C61.132 64.1895 61.1457 64.6443 61.1972 65.0666C61.2852 65.7878 61.4141 66.2869 61.5837 66.5641C61.7623 66.8294 62.0053 66.9371 62.3127 66.8874C63.0606 66.7663 63.7333 66.4578 64.331 65.9619C64.9377 65.454 65.478 64.8308 65.952 64.0922C66.435 63.3417 66.8638 62.5316 67.2383 61.6621C66.886 61.7717 66.5427 61.8692 66.2084 61.9549C65.8728 62.0302 65.5519 62.0979 65.2459 62.1579C64.95 62.2163 64.7509 62.2118 64.6487 62.1443C64.5464 62.0768 64.4846 61.9555 64.4632 61.7803C64.4341 61.6275 64.4786 61.4784 64.5967 61.3333C64.7251 61.1864 64.8655 61.0954 65.0179 61.0602C65.4739 60.9444 65.9389 60.8166 66.4128 60.6769C66.8868 60.5371 67.3544 60.3879 67.8156 60.2292C68.0037 59.7155 68.1808 59.1983 68.3471 58.6777C68.5135 58.157 68.6618 57.6602 68.7921 57.1874C68.9256 56.483 69.0749 55.8232 69.2401 55.2082C69.4041 54.5828 69.5819 54.0708 69.7735 53.6721C69.9639 53.2631 70.1616 53.042 70.3665 53.0088C70.7148 52.9524 70.9103 53.0994 70.9531 53.4497C70.9619 53.5218 70.9403 53.7301 70.8883 54.0747C70.8363 54.4193 70.7604 54.8676 70.6606 55.4195C70.5711 55.9698 70.4647 56.5963 70.3415 57.2991C70.2171 57.9916 70.0919 58.7209 69.966 59.4872C70.8655 59.1525 71.6835 58.8363 72.4203 58.5384C73.1661 58.2286 73.7779 57.9773 74.2558 57.7843C74.7325 57.5811 75.0169 57.4721 75.1092 57.4571C75.2423 57.4356 75.3581 57.4851 75.4564 57.6058C75.5534 57.7161 75.6089 57.828 75.6227 57.9413C75.634 58.034 75.4801 58.185 75.1608 58.3943C74.8518 58.6019 74.4167 58.8456 73.8553 59.1256C73.303 59.3936 72.6693 59.68 71.9543 59.9848C71.2483 60.2777 70.5103 60.5652 69.7402 60.8474C69.591 61.7645 69.4507 62.6697 69.3194 63.5629C69.1881 64.4561 69.0839 65.2714 69.0067 66.0088C68.9698 66.477 68.7721 66.7401 68.4135 66.7981C68.2291 66.828 68.0851 66.804 67.9816 66.7262C67.8883 66.6468 67.8279 66.4937 67.8002 66.2671C67.7964 66.2362 67.8032 66.0775 67.8205 65.791C67.8468 65.4926 67.8802 65.1248 67.9209 64.6875C67.9603 64.2399 68.0029 63.776 68.0488 63.2958C68.0934 62.8054 68.1373 62.3518 68.1805 61.9351C67.7557 62.9913 67.2638 63.9692 66.705 64.8685C66.1461 65.7679 65.5114 66.5167 64.8008 67.115C64.1005 67.7116 63.3252 68.0787 62.4748 68.2163ZM61.3562 57.5085C61.1103 57.5483 60.896 57.5042 60.7132 57.3762C60.5407 57.2466 60.4406 57.0684 60.4129 56.8418C60.379 56.5636 60.448 56.3161 60.6201 56.0991C60.8011 55.8702 61.0248 55.7342 61.2911 55.6911C61.5882 55.643 61.8243 55.6941 61.9994 55.8444C62.1732 55.9843 62.2764 56.1882 62.3091 56.4561C62.3355 56.6724 62.2575 56.8899 62.0753 57.1085C61.893 57.3271 61.6533 57.4604 61.3562 57.5085ZM74.8147 66.5342C74.5893 66.5707 74.4069 66.5319 74.2676 66.4179C74.1296 66.3142 74.0298 66.0099 73.9682 65.5051C73.9116 65.0415 73.92 64.4256 73.9934 63.6573C74.0656 62.8788 74.184 62.0086 74.3488 61.047C74.5135 60.0854 74.7103 59.087 74.9392 58.0519C75.1668 57.0066 75.4124 55.9793 75.6758 54.9702C75.9482 53.9491 76.2153 53.0129 76.477 52.1616C76.575 51.8516 76.6888 51.6283 76.8184 51.4918C76.948 51.3553 77.1101 51.2712 77.3048 51.2397C77.438 51.2182 77.5557 51.2411 77.658 51.3086C77.7692 51.3642 77.8355 51.4795 77.8569 51.6546C77.8644 51.7164 77.8224 51.9281 77.7307 52.2896C77.6492 52.6495 77.5297 53.1258 77.3722 53.7186C77.225 54.3097 77.0603 54.972 76.8781 55.7053C76.696 56.4387 76.5131 57.2089 76.3295 58.016C76.146 58.8231 75.9784 59.6329 75.8268 60.4453C75.6739 61.2475 75.5532 62.0129 75.4645 62.7416C75.3758 63.4704 75.3347 64.1178 75.3411 64.6841C75.5505 64.3455 75.7857 63.9188 76.0468 63.4038C76.3078 62.8888 76.5849 62.3344 76.8781 61.7407C77.1713 61.1469 77.4703 60.5575 77.775 59.9724C78.0797 59.3873 78.3849 58.8494 78.6907 58.3587C78.9965 57.868 79.2873 57.469 79.5632 57.1617C79.8481 56.8424 80.1084 56.6637 80.3441 56.6256C80.7334 56.5626 81.0609 56.6356 81.3267 56.8447C81.6015 57.0419 81.7722 57.4135 81.8389 57.9595C81.8766 58.2685 81.8604 58.6493 81.7902 59.1019C81.7303 59.5528 81.6525 60.0277 81.5566 60.5264C81.4608 61.0252 81.3778 61.5009 81.3076 61.9535C81.2478 62.4044 81.2367 62.7844 81.2744 63.0934C81.3259 63.5158 81.5105 63.7013 81.8281 63.6499C82.3198 63.5703 82.7984 63.3825 83.2638 63.0866C83.7394 62.789 84.1831 62.444 84.5949 62.0517C85.0054 61.6491 85.3801 61.2523 85.719 60.8613C86.0566 60.4599 86.3441 60.1193 86.5815 59.8392C86.837 59.5352 87.062 59.3675 87.2567 59.336C87.5025 59.2962 87.6412 59.405 87.6726 59.6626C87.6814 59.7347 87.6761 59.8196 87.6567 59.9173C87.6373 60.015 87.5698 60.1467 87.4542 60.3125C87.3129 60.5245 87.1068 60.8047 86.8359 61.1532C86.5753 61.5001 86.2659 61.8758 85.9078 62.2804C85.56 62.6834 85.1738 63.0716 84.7492 63.445C84.3349 63.8167 83.8989 64.1394 83.4413 64.4131C82.9927 64.6748 82.543 64.8421 82.0922 64.9151C81.4775 65.0146 80.9797 64.9165 80.5989 64.621C80.227 64.3135 80.0028 63.8455 79.9261 63.2171C79.8783 62.8256 79.882 62.3418 79.937 61.7656C79.9921 61.1894 80.0741 60.5773 80.1831 59.9293C80.301 59.2694 80.4209 58.6249 80.5426 57.9959C80.2424 58.2756 79.9253 58.6736 79.5913 59.1899C79.2663 59.6943 78.9284 60.2637 78.5775 60.8983C78.2253 61.5226 77.8744 62.1572 77.5248 62.8021C77.1854 63.4453 76.8512 64.0457 76.5222 64.6032C76.2022 65.1488 75.8966 65.5975 75.6052 65.9493C75.3138 66.3011 75.0503 66.4961 74.8147 66.5342Z" fill="black"/>
</g>
<g filter="url(#filter2_d_7777_1387)">
<rect width="80.6068" height="75.9265" rx="3.45946" transform="matrix(0.987153 -0.159777 0.121134 0.992636 130.243 104.5)" fill="#FAD4D1" shape-rendering="crispEdges"/>
<path d="M168.937 142.92C168.681 142.961 168.437 142.932 168.205 142.833C167.975 142.744 167.757 142.543 167.552 142.23C167.345 141.906 167.158 141.437 166.989 140.824C166.829 140.198 166.687 139.376 166.562 138.356C166.543 138.201 166.524 138.047 166.506 137.892C166.485 137.727 166.47 137.562 166.461 137.395C166.261 138.069 166.022 138.722 165.744 139.355C165.476 139.987 165.18 140.555 164.855 141.059C164.54 141.562 164.209 141.972 163.861 142.291C163.524 142.609 163.186 142.795 162.848 142.849C162.243 142.947 161.723 142.795 161.288 142.393C160.862 141.989 160.585 141.256 160.455 140.195C160.379 139.567 160.343 138.89 160.349 138.164C160.364 137.437 160.413 136.72 160.494 136.013C160.574 135.307 160.673 134.66 160.79 134.074C160.917 133.486 161.057 133.012 161.212 132.651C161.366 132.29 161.52 132.097 161.674 132.072C161.93 132.03 162.128 132.067 162.267 132.181C162.415 132.283 162.502 132.437 162.527 132.643C162.545 132.787 162.522 133.069 162.458 133.489C162.394 133.909 162.315 134.416 162.22 135.009C162.124 135.592 162.028 136.217 161.932 136.883C161.846 137.549 161.785 138.205 161.749 138.851C161.712 139.488 161.724 140.063 161.787 140.578C161.851 141.104 162.093 141.333 162.513 141.265C163.005 141.185 163.44 140.899 163.819 140.407C164.197 139.905 164.526 139.268 164.809 138.498C165.091 137.727 165.332 136.879 165.532 135.954C165.742 135.017 165.919 134.069 166.063 133.11C166.041 133.019 166.024 132.917 166.01 132.804C165.996 132.691 165.978 132.546 165.957 132.371C165.929 132.145 165.961 131.892 166.053 131.615C166.153 131.326 166.284 131.068 166.444 130.843C166.605 130.617 166.777 130.489 166.962 130.459C167.31 130.403 167.514 130.622 167.575 131.117C167.59 131.24 167.584 131.446 167.556 131.734C167.539 132.021 167.521 132.433 167.503 132.972C167.496 133.509 167.514 134.21 167.556 135.075C167.61 135.938 167.715 137.014 167.872 138.301C168.005 139.393 168.155 140.152 168.322 140.577C168.498 140.989 168.703 141.177 168.939 141.139C169.246 141.089 169.521 140.86 169.764 140.453C170.017 140.045 170.232 139.495 170.409 138.805C170.596 138.113 170.74 137.317 170.839 136.419C170.947 135.508 171.016 134.531 171.045 133.486C171.083 132.429 171.081 131.342 171.039 130.225C171.035 129.763 171.093 129.423 171.212 129.204C171.332 128.985 171.468 128.863 171.622 128.838C171.714 128.823 171.82 128.833 171.939 128.866C172.067 128.887 172.181 128.963 172.28 129.094C172.38 129.225 172.448 129.445 172.486 129.754C172.681 131.351 172.74 132.823 172.664 134.169C172.597 135.504 172.435 136.701 172.178 137.762C171.92 138.812 171.607 139.714 171.239 140.467C170.87 141.209 170.481 141.792 170.073 142.216C169.674 142.627 169.295 142.862 168.937 142.92ZM177.035 141.215C176.84 141.246 176.657 141.203 176.486 141.083C176.313 140.954 176.207 140.729 176.168 140.41C176.141 140.183 176.133 139.864 176.146 139.452C176.157 139.03 176.184 138.569 176.227 138.068C176.271 137.567 176.32 137.071 176.375 136.579C176.439 136.074 176.509 135.622 176.585 135.221C176.662 134.82 176.735 134.519 176.804 134.319C176.869 134.161 176.934 134.056 177.001 134.003C177.078 133.949 177.152 133.916 177.224 133.904C177.367 133.881 177.496 133.907 177.61 133.983C177.734 134.058 177.812 134.229 177.845 134.497C177.863 134.651 177.864 134.914 177.847 135.285C177.838 135.643 177.817 136.067 177.782 136.556C177.757 137.032 177.723 137.526 177.681 138.037C177.648 138.537 177.612 139.015 177.574 139.473C177.536 139.931 177.51 140.313 177.495 140.62C177.474 140.792 177.418 140.932 177.327 141.042C177.245 141.139 177.147 141.197 177.035 141.215ZM177.498 132.426C177.262 132.464 177.028 132.428 176.795 132.319C176.573 132.208 176.442 131.993 176.403 131.673C176.37 131.405 176.405 131.179 176.508 130.994C176.621 130.808 176.761 130.665 176.926 130.564C177.1 130.452 177.254 130.385 177.387 130.364C177.52 130.342 177.673 130.349 177.844 130.384C178.025 130.407 178.186 130.486 178.328 130.621C178.468 130.745 178.556 130.952 178.591 131.24C178.615 131.436 178.57 131.622 178.456 131.798C178.34 131.964 178.19 132.104 178.005 132.218C177.831 132.33 177.662 132.399 177.498 132.426ZM183.731 140.683C182.942 140.81 182.291 140.653 181.777 140.211C181.272 139.757 180.963 139.061 180.848 138.124C180.778 137.547 180.773 136.86 180.832 136.062C180.9 135.253 181.005 134.395 181.145 133.49C181.294 132.573 181.465 131.663 181.658 130.76C181.851 129.856 182.041 129.017 182.228 128.241C182.424 127.452 182.6 126.794 182.755 126.264C182.844 125.966 183.001 125.799 183.226 125.763C183.534 125.713 183.711 125.879 183.757 126.26C183.772 126.383 183.747 126.645 183.681 127.044C183.614 127.444 183.524 127.942 183.408 128.538C183.292 129.124 183.168 129.775 183.035 130.489C182.903 131.204 182.768 131.94 182.631 132.698C182.503 133.444 182.389 134.182 182.29 134.912C182.19 135.632 182.12 136.305 182.082 136.931C182.043 137.557 182.051 138.087 182.103 138.519C182.137 138.797 182.236 139.007 182.4 139.149C182.572 139.279 182.786 139.323 183.043 139.281C183.514 139.205 183.974 139.036 184.422 138.774C184.88 138.501 185.312 138.189 185.719 137.84C186.124 137.48 186.489 137.132 186.814 136.796C187.147 136.448 187.431 136.16 187.664 135.933C187.897 135.696 188.064 135.569 188.166 135.552C188.392 135.516 188.52 135.621 188.55 135.869C188.56 135.951 188.497 136.119 188.361 136.372C188.223 136.615 188.034 136.908 187.794 137.252C187.554 137.595 187.269 137.956 186.939 138.335C186.618 138.703 186.275 139.058 185.909 139.4C185.553 139.731 185.185 140.011 184.805 140.241C184.437 140.479 184.079 140.626 183.731 140.683ZM190.844 139.531C190.055 139.659 189.404 139.502 188.89 139.06C188.386 138.606 188.076 137.91 187.962 136.972C187.892 136.395 187.886 135.708 187.945 134.911C188.014 134.101 188.118 133.244 188.258 132.339C188.408 131.422 188.579 130.511 188.771 129.608C188.964 128.705 189.154 127.865 189.342 127.089C189.538 126.301 189.714 125.642 189.868 125.113C189.957 124.815 190.115 124.648 190.34 124.611C190.647 124.561 190.824 124.727 190.871 125.108C190.886 125.232 190.86 125.493 190.794 125.893C190.728 126.292 190.637 126.79 190.522 127.387C190.405 127.973 190.281 128.623 190.149 129.338C190.017 130.053 189.882 130.789 189.744 131.547C189.616 132.292 189.502 133.03 189.404 133.761C189.303 134.481 189.234 135.154 189.195 135.78C189.157 136.406 189.164 136.935 189.217 137.368C189.251 137.646 189.35 137.856 189.513 137.998C189.686 138.127 189.9 138.171 190.156 138.13C190.627 138.054 191.087 137.885 191.536 137.623C191.994 137.349 192.426 137.038 192.832 136.688C193.238 136.328 193.603 135.98 193.927 135.644C194.261 135.296 194.544 135.009 194.778 134.782C195.01 134.545 195.178 134.418 195.28 134.401C195.505 134.365 195.633 134.47 195.663 134.717C195.673 134.8 195.61 134.967 195.474 135.221C195.336 135.463 195.148 135.757 194.907 136.1C194.667 136.444 194.382 136.805 194.052 137.184C193.732 137.551 193.388 137.906 193.023 138.249C192.666 138.58 192.298 138.86 191.919 139.09C191.551 139.328 191.193 139.475 190.844 139.531ZM197.708 141.84C197.196 141.923 196.72 141.963 196.281 141.961C195.853 141.967 195.426 141.931 194.998 141.853C194.572 141.785 194.105 141.682 193.597 141.544C193.445 141.495 193.306 141.428 193.181 141.343C193.057 141.269 192.988 141.17 192.972 141.046C192.954 140.892 193.031 140.711 193.204 140.505C193.368 140.31 193.533 140.199 193.696 140.173C193.871 140.145 194.093 140.172 194.365 140.254C194.646 140.334 194.971 140.429 195.339 140.537C195.709 140.656 196.111 140.743 196.547 140.799C196.992 140.853 197.461 140.84 197.952 140.76C198.485 140.674 198.96 140.371 199.377 139.852C199.794 139.333 200.101 138.632 200.296 137.749C200.493 136.877 200.52 135.859 200.378 134.695C200.335 134.345 200.278 133.96 200.206 133.541C200.142 133.11 200.067 132.66 199.978 132.191C199.798 132.766 199.586 133.342 199.343 133.917C199.11 134.49 198.855 135.015 198.579 135.49C198.313 135.964 198.021 136.358 197.704 136.672C197.396 136.974 197.068 137.153 196.72 137.209C196.279 137.281 195.948 137.219 195.725 137.024C195.503 136.828 195.363 136.494 195.305 136.02C195.245 135.526 195.215 134.984 195.217 134.396C195.218 133.807 195.239 133.21 195.28 132.605C195.33 131.987 195.405 131.397 195.503 130.835C195.602 130.273 195.719 129.781 195.856 129.36C195.933 129.137 196.074 129.009 196.279 128.976C196.423 128.953 196.57 129.008 196.722 129.141C196.883 129.262 196.978 129.441 197.007 129.678C197.03 129.863 197.021 130.132 196.981 130.486C196.94 130.839 196.885 131.242 196.815 131.694C196.745 132.147 196.677 132.62 196.612 133.114C196.545 133.597 196.499 134.072 196.472 134.539C196.444 134.995 196.453 135.409 196.498 135.78C196.517 135.934 196.629 135.995 196.834 135.962C196.947 135.944 197.093 135.815 197.273 135.576C197.461 135.324 197.663 135.008 197.878 134.627C198.101 134.233 198.321 133.809 198.537 133.354C198.762 132.887 198.978 132.426 199.184 131.973C199.388 131.509 199.561 131.087 199.703 130.707C199.683 130.626 199.668 130.55 199.659 130.478C199.651 130.405 199.642 130.339 199.635 130.277C199.573 129.772 199.586 129.449 199.673 129.309C199.77 129.157 199.905 129.067 200.079 129.039C200.376 128.991 200.595 129.024 200.734 129.138C200.873 129.252 200.963 129.473 201.003 129.803C201.018 129.927 201.019 130.063 201.006 130.212C200.992 130.351 200.964 130.555 200.924 130.824C201.105 131.625 201.261 132.346 201.392 132.986C201.532 133.625 201.643 134.275 201.723 134.934C201.875 136.181 201.808 137.295 201.52 138.276C201.243 139.256 200.776 140.056 200.12 140.677C199.475 141.296 198.671 141.684 197.708 141.84Z" fill="black"/>
</g>
<g filter="url(#filter3_d_7777_1387)">
<rect width="80.6068" height="75.9265" rx="3.45946" transform="matrix(0.987153 -0.159777 0.121134 0.992636 170.795 64.7168)" fill="#DFF1E4" shape-rendering="crispEdges"/>
<path d="M195.513 105.997C195.339 106.025 195.178 105.951 195.031 105.775C194.886 105.61 194.798 105.403 194.768 105.156C194.755 105.053 194.764 104.957 194.795 104.868C194.836 104.777 194.906 104.703 195.003 104.645C195.11 104.576 195.217 104.511 195.324 104.452C195.441 104.38 195.558 104.309 195.674 104.237C195.633 104.16 195.596 104.066 195.562 103.956C195.527 103.846 195.501 103.714 195.482 103.559C195.468 103.446 195.462 103.226 195.464 102.9C195.475 102.562 195.494 102.16 195.52 101.694C195.547 101.227 195.576 100.734 195.606 100.214C195.646 99.6826 195.682 99.1672 195.715 98.6681C195.758 98.157 195.796 97.6991 195.83 97.2943C195.911 96.4197 196.044 95.6261 196.229 94.9133C196.424 94.1989 196.728 93.6138 197.143 93.158C197.566 92.6903 198.162 92.3942 198.931 92.2699C199.515 92.1753 200.104 92.2112 200.699 92.3776C201.304 92.5423 201.866 92.8243 202.385 93.2235C202.913 93.6108 203.353 94.0963 203.707 94.68C204.06 95.2636 204.282 95.9263 204.373 96.668C204.45 97.3068 204.376 97.9386 204.149 98.5636C203.921 99.1783 203.587 99.7787 203.147 100.365C202.706 100.951 202.19 101.512 201.597 102.05C201.015 102.585 200.397 103.089 199.745 103.563C199.101 104.024 198.463 104.443 197.829 104.818C197.197 105.204 196.611 105.535 196.07 105.812C196.001 105.844 195.916 105.879 195.816 105.916C195.716 105.953 195.615 105.98 195.513 105.997ZM196.712 103.628C197.559 103.113 198.378 102.592 199.17 102.064C199.973 101.535 200.683 100.979 201.301 100.396C201.918 99.8019 202.39 99.174 202.717 98.5118C203.044 97.8496 203.16 97.1322 203.066 96.3596C203.016 95.9578 202.877 95.5812 202.646 95.2299C202.415 94.8786 202.117 94.5801 201.753 94.3344C201.397 94.0767 201.004 93.8935 200.573 93.7847C200.151 93.6639 199.719 93.6392 199.279 93.7105C198.879 93.7752 198.533 93.9362 198.241 94.1937C197.957 94.4392 197.734 94.8326 197.57 95.3738C197.406 95.9151 197.297 96.6471 197.243 97.5699C197.187 98.1462 197.133 98.7695 197.079 99.4401C197.024 100.1 196.965 100.735 196.904 101.344C196.851 101.94 196.809 102.446 196.776 102.861C196.741 103.266 196.723 103.5 196.72 103.564C196.723 103.584 196.72 103.606 196.712 103.628ZM212.728 95.3472C212.768 95.6769 212.705 96.0179 212.539 96.3705C212.372 96.7127 212.137 97.0554 211.834 97.3986C211.53 97.7314 211.188 98.0547 210.809 98.3682C210.429 98.6818 210.045 98.9645 209.658 99.2163C209.271 99.468 208.915 99.6779 208.591 99.846C208.558 100.261 208.561 100.623 208.598 100.932C208.622 101.128 208.685 101.259 208.788 101.327C208.89 101.394 209.038 101.412 209.233 101.381C209.663 101.311 210.11 101.16 210.572 100.928C211.035 100.695 211.502 100.415 211.974 100.086C212.446 99.7578 212.895 99.4172 213.323 99.0644C213.75 98.7116 214.138 98.381 214.486 98.0724C214.846 97.7621 215.144 97.509 215.381 97.313C215.618 97.117 215.778 97.0124 215.86 96.9991C215.983 96.9792 216.08 97.0055 216.152 97.078C216.232 97.1385 216.279 97.2202 216.291 97.3233C216.301 97.4057 216.193 97.5861 215.966 97.8645C215.749 98.1412 215.45 98.4733 215.068 98.8606C214.686 99.2377 214.254 99.6333 213.772 100.048C213.289 100.462 212.784 100.859 212.256 101.238C211.738 101.616 211.228 101.935 210.727 102.195C210.236 102.453 209.786 102.615 209.376 102.681C208.843 102.768 208.404 102.634 208.058 102.28C207.712 101.927 207.487 101.327 207.384 100.483C207.315 99.916 207.317 99.3326 207.39 98.7325C207.473 98.1307 207.611 97.5464 207.803 96.9796C208.004 96.4007 208.238 95.8796 208.505 95.4161C208.781 94.9407 209.084 94.5555 209.414 94.2605C209.742 93.9552 210.076 93.7752 210.414 93.7205C211.059 93.616 211.588 93.7142 212.001 94.0151C212.414 94.3159 212.656 94.76 212.728 95.3472ZM208.769 98.6039C209.062 98.3567 209.365 98.0976 209.677 97.8266C209.988 97.5555 210.274 97.2834 210.533 97.0103C210.792 96.7373 210.994 96.463 211.138 96.1876C211.291 95.9002 211.351 95.6226 211.318 95.3547C211.272 94.9735 211.044 94.8161 210.634 94.8824C210.378 94.9239 210.126 95.1327 209.88 95.5088C209.642 95.8729 209.427 96.3332 209.233 96.8898C209.04 97.4464 208.885 98.0177 208.769 98.6039ZM215.22 105.99C214.718 106.071 214.283 105.974 213.915 105.697C213.547 105.421 213.335 105.05 213.278 104.587C213.234 104.226 213.376 103.888 213.703 103.573C214.031 103.267 214.489 102.947 215.074 102.61C215.651 102.286 216.286 101.92 216.978 101.514C217.068 100.88 217.142 100.122 217.202 99.2402C217.26 98.3483 217.315 97.2994 217.366 96.0934C217.365 95.4843 217.375 95.01 217.396 94.6703C217.416 94.3204 217.448 94.0684 217.492 93.9142C217.536 93.76 217.592 93.6617 217.66 93.6192C217.738 93.575 217.823 93.5455 217.915 93.5305C218.008 93.5156 218.131 93.5429 218.286 93.6124C218.451 93.6802 218.605 93.7866 218.748 93.9316C218.891 94.0765 218.975 94.252 219 94.458C219.017 94.5919 219.015 94.7918 218.995 95.0577C218.986 95.3219 218.943 95.6176 218.868 95.9449C218.804 96.2705 218.691 96.5882 218.53 96.8978C218.477 97.6628 218.427 98.3643 218.379 99.0023C218.332 99.6403 218.278 100.227 218.218 100.762C218.799 100.384 219.366 99.9824 219.92 99.5566C220.474 99.1307 220.978 98.6763 221.431 98.1933C221.882 97.7 222.252 97.1727 222.538 96.6115C222.623 96.4507 222.717 96.362 222.819 96.3454C222.871 96.3371 222.926 96.3598 222.984 96.4133C223.053 96.4651 223.097 96.5632 223.114 96.7074C223.162 97.0989 223.052 97.5212 222.783 97.9744C222.513 98.4173 222.131 98.8784 221.635 99.3578C221.139 99.8268 220.58 100.301 219.96 100.779C219.338 101.248 218.694 101.704 218.027 102.148C217.87 103.087 217.672 103.818 217.432 104.34C217.205 104.871 216.907 105.255 216.539 105.493C216.182 105.74 215.743 105.906 215.22 105.99ZM217.933 91.747C217.738 91.7786 217.567 91.7433 217.419 91.6412C217.27 91.5391 217.179 91.3439 217.143 91.0554C217.102 90.7155 217.188 90.3968 217.403 90.0995C217.626 89.7902 217.886 89.6115 218.184 89.5634C218.47 89.5169 218.717 89.5664 218.923 89.7116C219.139 89.8553 219.264 90.0662 219.298 90.3443C219.326 90.5813 219.279 90.7938 219.156 90.9818C219.031 91.1595 218.856 91.2667 218.631 91.3031C218.58 91.3114 218.538 91.3129 218.506 91.3076C218.38 91.475 218.279 91.586 218.202 91.6405C218.125 91.6949 218.035 91.7305 217.933 91.747ZM216.731 102.957C216.292 103.217 215.862 103.454 215.439 103.67C215.017 103.896 214.649 104.087 214.333 104.243C214.447 104.487 214.586 104.643 214.751 104.711C214.907 104.791 215.103 104.812 215.338 104.773C215.656 104.722 215.93 104.573 216.161 104.325C216.382 104.079 216.572 103.623 216.731 102.957ZM223.876 100.744C223.487 100.807 223.142 100.679 222.842 100.36C222.551 100.029 222.369 99.5699 222.298 98.9827C222.231 98.4367 222.298 97.8742 222.499 97.2954C222.711 96.715 223.011 96.141 223.402 95.5735C223.792 95.0061 224.229 94.4732 224.711 93.9749C225.192 93.4663 225.681 93.0143 226.176 92.6191C226.681 92.2221 227.148 91.8996 227.578 91.6515C228.007 91.4034 228.355 91.2578 228.621 91.2147C228.765 91.1915 228.886 91.2033 228.986 91.2502C229.085 91.2868 229.143 91.3772 229.16 91.5214C229.171 91.6141 229.146 91.7075 229.085 91.8015C229.095 91.7999 229.105 91.7982 229.115 91.7965C229.341 91.7601 229.47 91.8758 229.503 92.1436C229.514 92.2363 229.501 92.4327 229.465 92.7328C229.427 93.0225 229.388 93.3861 229.347 93.8234C229.306 94.2607 229.282 94.7427 229.273 95.2694C229.263 95.7858 229.29 96.3067 229.354 96.8321C229.408 97.2751 229.604 97.4692 229.942 97.4145C230.321 97.3531 230.695 97.2034 231.063 96.9652C231.43 96.7271 231.784 96.4545 232.122 96.1476C232.46 95.8303 232.767 95.5232 233.044 95.2262C233.32 94.9189 233.555 94.6603 233.749 94.4504C233.943 94.2404 234.086 94.128 234.178 94.113C234.26 94.0998 234.335 94.1139 234.402 94.1555C234.47 94.197 234.511 94.2745 234.525 94.3878C234.537 94.4908 234.457 94.6928 234.285 94.9939C234.113 95.2949 233.879 95.6427 233.582 96.0374C233.285 96.4321 232.947 96.8231 232.566 97.2105C232.184 97.5978 231.786 97.9301 231.371 98.2075C230.955 98.4848 230.548 98.6558 230.148 98.7205C229.841 98.7703 229.548 98.7231 229.269 98.5792C228.999 98.4232 228.759 98.1259 228.549 97.6872C228.349 97.2468 228.2 96.6197 228.1 95.8058L228.053 95.4195C227.653 96.3352 227.218 97.183 226.749 97.9627C226.291 98.7409 225.815 99.3799 225.322 99.8799C224.84 100.378 224.358 100.666 223.876 100.744ZM228.465 92.3746C228.416 92.4034 228.348 92.446 228.261 92.5021C227.816 92.7947 227.357 93.1422 226.884 93.5444C226.421 93.945 225.973 94.3801 225.539 94.8495C225.115 95.3172 224.74 95.793 224.412 96.2767C224.085 96.7604 223.835 97.2369 223.662 97.706C223.49 98.1752 223.428 98.6158 223.479 99.0279C223.495 99.1618 223.533 99.2607 223.593 99.3245C223.663 99.3867 223.77 99.4062 223.914 99.3829C224.119 99.3498 224.369 99.1779 224.666 98.8673C224.961 98.5464 225.277 98.1381 225.613 97.6424C225.96 97.145 226.301 96.6013 226.637 96.0112C226.972 95.4212 227.286 94.8293 227.58 94.2355C227.883 93.6401 228.14 93.0942 228.351 92.5978C228.383 92.5191 228.421 92.4447 228.465 92.3746ZM235.477 98.0629C235.323 98.0878 235.156 97.9993 234.974 97.7976C234.803 97.5941 234.657 97.2922 234.535 96.8917C234.41 96.4706 234.283 95.9869 234.154 95.4406C234.025 94.8942 233.907 94.3565 233.8 93.8274C233.694 93.2984 233.606 92.8294 233.535 92.4207C233.464 92.0119 233.42 91.7354 233.402 91.5912C233.337 91.0555 233.37 90.6456 233.503 90.3615C233.644 90.0655 233.848 89.8959 234.115 89.8528C234.299 89.8229 234.439 89.8529 234.533 89.9427C234.626 90.0221 234.694 90.2318 234.735 90.5718C234.763 90.7984 234.804 91.0912 234.858 91.4501C234.912 91.809 234.975 92.198 235.047 92.6171C235.13 93.1185 235.215 93.6509 235.305 94.2142C235.393 94.7672 235.476 95.3159 235.553 95.8602C235.749 95.4083 235.974 94.9043 236.23 94.3481C236.497 93.7902 236.767 93.2213 237.041 92.6411C237.313 92.0507 237.579 91.4877 237.837 90.9521C238.096 90.4165 238.326 89.9485 238.528 89.5482C238.73 89.1478 238.887 88.8544 239 88.668C239.15 88.4338 239.291 88.2639 239.424 88.1582C239.568 88.051 239.696 87.9882 239.809 87.97C239.962 87.9451 240.092 87.9818 240.198 88.0802C240.314 88.177 240.385 88.3284 240.41 88.5344C240.425 88.658 240.417 88.8013 240.384 88.9641C240.361 89.1149 240.302 89.2767 240.209 89.4495C239.983 89.9167 239.711 90.4651 239.391 91.0947C239.07 91.7243 238.737 92.377 238.392 93.0528C238.046 93.7286 237.708 94.3873 237.379 95.0289C237.049 95.6602 236.761 96.2162 236.517 96.697C236.09 97.5645 235.743 98.0198 235.477 98.0629ZM247.032 96.9647C246.858 96.9929 246.7 96.9397 246.558 96.8051C246.417 96.6704 246.328 96.4537 246.291 96.155C246.248 95.8047 246.239 95.2968 246.262 94.6312C246.295 93.9639 246.354 93.0772 246.439 91.9709C246.243 92.675 246.011 93.3481 245.745 93.99C245.489 94.6303 245.199 95.1657 244.875 95.5963C244.552 96.0268 244.195 96.2736 243.806 96.3366C243.427 96.398 243.07 96.3033 242.737 96.0527C242.414 95.8003 242.206 95.2981 242.114 94.5461C242.063 94.1237 242.041 93.644 242.048 93.107C242.055 92.5597 242.082 92.0142 242.131 91.4706C242.179 90.927 242.235 90.44 242.297 90.0097C242.358 89.569 242.423 89.2434 242.491 89.0327C242.543 88.8563 242.602 88.7365 242.667 88.6734C242.731 88.6 242.825 88.5533 242.948 88.5334C243.091 88.5102 243.252 88.5472 243.431 88.6442C243.61 88.7413 243.717 88.9341 243.753 89.2226C243.761 89.2947 243.746 89.4705 243.707 89.7499C243.677 90.0174 243.634 90.35 243.578 90.7478C243.531 91.1336 243.483 91.5511 243.433 92.0004C243.384 92.4496 243.349 92.8964 243.331 93.3407C243.322 93.7833 243.34 94.1849 243.384 94.5455C243.407 94.7412 243.447 94.8976 243.503 95.0146C243.56 95.1316 243.67 95.1768 243.833 95.1503C243.977 95.1271 244.139 94.9538 244.319 94.6306C244.509 94.3056 244.703 93.8855 244.901 93.3701C245.109 92.8428 245.315 92.2632 245.52 91.6312C245.735 90.9976 245.938 90.3501 246.129 89.6889C246.33 89.026 246.509 88.3982 246.667 87.8054C246.726 87.6067 246.799 87.4793 246.887 87.4231C246.973 87.3567 247.072 87.3144 247.185 87.2961C247.369 87.2663 247.542 87.317 247.705 87.4483C247.876 87.5677 247.976 87.7458 248.005 87.9828C248.024 88.1373 248.026 88.4101 248.011 88.8012C248.006 89.1907 247.984 89.6513 247.944 90.183C247.914 90.7027 247.871 91.2558 247.818 91.8423C247.774 92.4271 247.73 93.0068 247.685 93.5814C247.639 94.1456 247.592 94.6627 247.545 95.1326C247.508 95.6008 247.476 95.9789 247.449 96.267C247.429 96.5329 247.377 96.7093 247.294 96.7963C247.222 96.892 247.135 96.9481 247.032 96.9647Z" fill="black"/>
</g>
<g filter="url(#filter4_d_7777_1387)">
<path d="M44.6333 95.0825C44.6333 93.1719 46.1822 91.623 48.0928 91.623H121.527C123.438 91.623 124.987 93.1719 124.987 95.0825V164.272C124.987 166.182 123.438 167.731 121.527 167.731H48.0928C46.1822 167.731 44.6333 166.182 44.6333 164.272V95.0825Z" fill="#FFEDC7" shape-rendering="crispEdges"/>
<path d="M63.6935 132.993C63.8076 132.993 63.9166 133.04 64.0204 133.133C64.1242 133.226 64.1761 133.377 64.1761 133.584C64.1761 133.75 64.0515 133.948 63.8024 134.176C63.5534 134.394 63.2316 134.607 62.8372 134.814C62.4533 135.022 62.0381 135.193 61.5918 135.328C61.1456 135.473 60.7253 135.546 60.3309 135.546C59.7704 135.546 59.2411 135.401 58.743 135.11C58.2552 134.819 57.8556 134.399 57.5443 133.849C57.2329 133.289 57.0773 132.609 57.0773 131.81C57.0773 131.104 57.207 130.398 57.4664 129.693C57.7259 128.987 58.0684 128.307 58.4939 127.653C58.9298 126.999 59.4072 126.392 59.9261 125.832C60.4554 125.271 60.9847 124.784 61.514 124.368C62.0433 123.953 62.5363 123.632 62.9929 123.403C63.46 123.165 63.844 123.045 64.1449 123.045C64.3525 123.045 64.5185 123.123 64.6431 123.279C64.778 123.424 64.8455 123.585 64.8455 123.761C64.8455 123.865 64.8143 123.969 64.7521 124.073C64.7002 124.176 64.6068 124.259 64.4718 124.322C63.7972 124.654 63.1123 125.079 62.4169 125.598C61.7216 126.117 61.0781 126.709 60.4865 127.373C59.895 128.027 59.4176 128.738 59.0543 129.506C58.6911 130.263 58.5095 131.063 58.5095 131.903C58.5095 132.63 58.6807 133.185 59.0232 133.569C59.3657 133.942 59.8327 134.129 60.4243 134.129C60.7356 134.129 61.0574 134.072 61.3895 133.958C61.732 133.844 62.0537 133.714 62.3547 133.569C62.666 133.413 62.9358 133.278 63.1642 133.164C63.4029 133.05 63.5793 132.993 63.6935 132.993ZM68.152 135.997C67.9237 135.997 67.7472 135.93 67.6227 135.795C67.4982 135.67 67.4359 135.354 67.4359 134.845C67.4359 134.378 67.5189 133.771 67.685 133.024C67.851 132.266 68.0741 131.426 68.3544 130.502C68.6346 129.578 68.9511 128.624 69.304 127.638C69.6569 126.641 70.0253 125.666 70.4093 124.711C70.8037 123.746 71.1825 122.864 71.5457 122.064C71.6806 121.774 71.8207 121.571 71.966 121.457C72.1113 121.343 72.2826 121.286 72.4798 121.286C72.6147 121.286 72.7288 121.328 72.8223 121.411C72.926 121.483 72.9779 121.608 72.9779 121.784C72.9779 121.847 72.9105 122.049 72.7756 122.391C72.651 122.734 72.4746 123.185 72.2463 123.746C72.0283 124.306 71.7844 124.934 71.5146 125.629C71.2447 126.325 70.9697 127.056 70.6895 127.824C70.4093 128.592 70.1446 129.366 69.8956 130.144C69.6465 130.912 69.4337 131.649 69.2573 132.355C69.0809 133.06 68.9615 133.693 68.8992 134.254C69.1483 133.953 69.4337 133.569 69.7554 133.102C70.0772 132.635 70.4197 132.131 70.7829 131.592C71.1461 131.052 71.5146 130.518 71.8882 129.988C72.2618 129.459 72.6303 128.976 72.9935 128.541C73.3567 128.105 73.694 127.757 74.0054 127.498C74.3271 127.228 74.6073 127.093 74.846 127.093C75.2404 127.093 75.557 127.217 75.7957 127.466C76.0447 127.705 76.1693 128.099 76.1693 128.65C76.1693 128.961 76.107 129.335 75.9825 129.77C75.8683 130.206 75.7334 130.663 75.5777 131.14C75.422 131.618 75.2819 132.074 75.1574 132.51C75.0432 132.946 74.9861 133.32 74.9861 133.631C74.9861 134.057 75.147 134.269 75.4687 134.269C75.9669 134.269 76.4651 134.16 76.9632 133.942C77.4718 133.725 77.9544 133.455 78.411 133.133C78.8677 132.801 79.288 132.469 79.672 132.137C80.056 131.794 80.3829 131.504 80.6527 131.265C80.9433 131.005 81.1872 130.876 81.3844 130.876C81.6335 130.876 81.758 131.005 81.758 131.265C81.758 131.338 81.7425 131.421 81.7113 131.514C81.6802 131.607 81.5972 131.727 81.4622 131.872C81.2962 132.059 81.0575 132.303 80.7461 132.604C80.4452 132.905 80.0923 133.226 79.6875 133.569C79.2932 133.911 78.8625 134.233 78.3954 134.534C77.9388 134.835 77.4666 135.084 76.9788 135.281C76.5014 135.468 76.0344 135.562 75.5777 135.562C74.955 135.562 74.4724 135.385 74.1299 135.032C73.7978 134.669 73.6318 134.171 73.6318 133.538C73.6318 133.143 73.694 132.666 73.8186 132.106C73.9431 131.545 74.0988 130.954 74.2856 130.331C74.4828 129.698 74.68 129.08 74.8772 128.478C74.5451 128.707 74.1818 129.049 73.7874 129.506C73.4034 129.952 72.9987 130.461 72.5732 131.031C72.1477 131.592 71.7221 132.163 71.2966 132.744C70.8815 133.325 70.4767 133.865 70.0824 134.363C69.6984 134.851 69.3403 135.245 69.0082 135.546C68.6761 135.847 68.3907 135.997 68.152 135.997ZM81.2882 135.375C81.091 135.375 80.9146 135.302 80.7589 135.157C80.6032 135.001 80.5254 134.762 80.5254 134.441C80.5254 134.212 80.5565 133.896 80.6188 133.491C80.6811 133.076 80.7641 132.624 80.8679 132.137C80.9717 131.649 81.0806 131.166 81.1948 130.689C81.3193 130.201 81.4439 129.765 81.5684 129.381C81.693 128.997 81.8019 128.712 81.8953 128.525C81.9784 128.38 82.0562 128.286 82.1289 128.245C82.2119 128.203 82.2897 128.183 82.3624 128.183C82.5077 128.183 82.6322 128.229 82.736 128.323C82.8501 128.416 82.9072 128.598 82.9072 128.867C82.9072 129.023 82.8761 129.283 82.8138 129.646C82.7619 129.999 82.6893 130.414 82.5959 130.891C82.5129 131.358 82.4194 131.841 82.3157 132.339C82.2223 132.827 82.1289 133.294 82.0354 133.74C81.942 134.186 81.8694 134.56 81.8175 134.861C81.776 135.027 81.7033 135.157 81.5996 135.25C81.5062 135.333 81.4024 135.375 81.2882 135.375ZM82.8138 126.766C82.5751 126.766 82.3468 126.693 82.1289 126.548C81.9213 126.403 81.8175 126.169 81.8175 125.847C81.8175 125.578 81.8798 125.36 82.0043 125.194C82.1392 125.027 82.2949 124.908 82.4713 124.835C82.6581 124.752 82.819 124.711 82.9539 124.711C83.0889 124.711 83.2393 124.742 83.4054 124.804C83.5818 124.856 83.7323 124.96 83.8569 125.116C83.9814 125.261 84.0437 125.479 84.0437 125.77C84.0437 125.967 83.9762 126.143 83.8413 126.299C83.7064 126.444 83.5403 126.558 83.3431 126.641C83.1563 126.724 82.9799 126.766 82.8138 126.766ZM86.3233 134.939C86.0224 134.939 85.7525 134.768 85.5138 134.425C85.2751 134.083 85.1558 133.642 85.1558 133.102C85.1558 132.51 85.2336 131.877 85.3893 131.203C85.5553 130.528 85.7577 129.843 85.9964 129.148C86.2351 128.442 86.4686 127.762 86.697 127.108C86.7488 126.973 86.8215 126.875 86.9149 126.813C87.0187 126.74 87.1744 126.704 87.3819 126.704C87.7555 126.704 87.9424 126.885 87.9424 127.248C87.9424 127.331 87.9008 127.518 87.8178 127.809C87.7348 128.099 87.6258 128.458 87.4909 128.883C87.3664 129.309 87.2366 129.77 87.1017 130.269C86.9668 130.756 86.8474 131.249 86.7437 131.747C86.6399 132.246 86.5672 132.707 86.5257 133.133C86.6918 132.957 86.8786 132.687 87.0861 132.323C87.3041 131.96 87.5376 131.55 87.7867 131.094C88.0358 130.627 88.2952 130.16 88.5651 129.693C88.8349 129.215 89.1047 128.779 89.3746 128.385C89.6548 127.98 89.9246 127.658 90.1841 127.42C90.4539 127.171 90.703 127.046 90.9313 127.046C91.2634 127.046 91.5437 127.15 91.772 127.357C92.0107 127.555 92.1923 127.907 92.3168 128.416C92.4518 128.914 92.5192 129.62 92.5192 130.533C92.5192 131.021 92.5659 131.478 92.6593 131.903C92.7631 132.329 92.924 132.671 93.1419 132.931C93.3702 133.18 93.6608 133.304 94.0137 133.304C94.543 133.304 95.0152 133.211 95.4304 133.024C95.8455 132.827 96.2035 132.609 96.5045 132.37C96.8159 132.121 97.0753 131.903 97.2829 131.716C97.4905 131.519 97.6513 131.421 97.7655 131.421C98.0042 131.421 98.1235 131.545 98.1235 131.794C98.1235 131.898 98.0457 132.064 97.89 132.292C97.7447 132.51 97.5372 132.759 97.2673 133.04C97.0079 133.309 96.7069 133.574 96.3644 133.834C96.0323 134.083 95.6742 134.29 95.2902 134.456C94.9166 134.622 94.5378 134.705 94.1538 134.705C93.4377 134.705 92.8513 134.565 92.3947 134.285C91.9484 134.005 91.6163 133.543 91.3984 132.899C91.1908 132.256 91.087 131.395 91.087 130.315C91.087 129.724 91.0507 129.293 90.978 129.023C90.9158 128.743 90.7964 128.556 90.62 128.463C90.4954 128.681 90.3346 128.992 90.1374 129.397C89.9402 129.791 89.7119 130.232 89.4524 130.72C89.2033 131.208 88.9387 131.701 88.6585 132.199C88.3886 132.687 88.1136 133.138 87.8334 133.553C87.5532 133.968 87.2833 134.306 87.0239 134.565C86.7644 134.814 86.5309 134.939 86.3233 134.939ZM97.9501 135.702C97.5557 135.702 97.2288 135.52 96.9694 135.157C96.7203 134.783 96.5957 134.301 96.5957 133.709C96.5957 133.159 96.7306 132.614 97.0005 132.074C97.2807 131.535 97.6491 131.016 98.1058 130.518C98.5624 130.019 99.0606 129.563 99.6003 129.148C100.14 128.722 100.68 128.354 101.219 128.042C101.769 127.731 102.273 127.487 102.729 127.311C103.186 127.134 103.549 127.046 103.819 127.046C103.964 127.046 104.084 127.077 104.177 127.139C104.271 127.191 104.317 127.29 104.317 127.435C104.317 127.529 104.281 127.617 104.208 127.7C104.219 127.7 104.229 127.7 104.239 127.7C104.468 127.7 104.582 127.835 104.582 128.105C104.582 128.198 104.546 128.39 104.473 128.681C104.4 128.961 104.317 129.314 104.224 129.739C104.13 130.165 104.047 130.637 103.975 131.156C103.902 131.664 103.866 132.183 103.866 132.713C103.866 133.159 104.037 133.382 104.38 133.382C104.764 133.382 105.153 133.294 105.547 133.117C105.941 132.941 106.325 132.728 106.699 132.479C107.073 132.22 107.415 131.965 107.727 131.716C108.038 131.457 108.303 131.239 108.52 131.063C108.738 130.886 108.894 130.798 108.988 130.798C109.071 130.798 109.143 130.824 109.205 130.876C109.268 130.928 109.299 131.011 109.299 131.125C109.299 131.229 109.195 131.415 108.988 131.685C108.78 131.955 108.505 132.261 108.162 132.604C107.82 132.946 107.436 133.278 107.01 133.6C106.585 133.922 106.149 134.186 105.703 134.394C105.256 134.602 104.831 134.705 104.426 134.705C104.115 134.705 103.829 134.612 103.57 134.425C103.321 134.228 103.119 133.896 102.963 133.429C102.818 132.962 102.745 132.318 102.745 131.498L102.745 131.109C102.236 131.95 101.702 132.718 101.141 133.413C100.591 134.109 100.041 134.664 99.4913 135.079C98.9516 135.494 98.4379 135.702 97.9501 135.702ZM103.523 128.167C103.471 128.188 103.399 128.219 103.305 128.26C102.828 128.478 102.33 128.748 101.811 129.07C101.302 129.392 100.804 129.75 100.316 130.144C99.839 130.538 99.4083 130.948 99.0243 131.374C98.6403 131.799 98.3341 132.23 98.1058 132.666C97.8775 133.102 97.7633 133.527 97.7633 133.942C97.7633 134.077 97.7892 134.181 97.8411 134.254C97.9034 134.326 98.0072 134.363 98.1525 134.363C98.3601 134.363 98.6299 134.233 98.962 133.974C99.2941 133.704 99.6573 133.351 100.052 132.915C100.456 132.479 100.861 131.997 101.266 131.467C101.671 130.938 102.055 130.403 102.418 129.864C102.792 129.324 103.113 128.826 103.383 128.369C103.425 128.297 103.471 128.229 103.523 128.167ZM114.082 135.468C113.989 135.468 113.802 135.463 113.522 135.453C113.252 135.442 112.93 135.427 112.557 135.406C112.183 135.385 111.794 135.364 111.389 135.344C110.995 135.323 110.621 135.307 110.268 135.297C109.926 135.286 109.64 135.281 109.412 135.281C109.132 135.281 108.898 135.188 108.711 135.001C108.535 134.814 108.447 134.555 108.447 134.223C108.447 134.005 108.545 133.725 108.743 133.382C108.94 133.04 109.204 132.661 109.536 132.246C109.869 131.82 110.237 131.384 110.642 130.938C111.057 130.492 111.477 130.056 111.903 129.63C112.328 129.205 112.738 128.81 113.133 128.447C113.527 128.084 113.869 127.788 114.16 127.56C113.475 127.643 112.806 127.752 112.152 127.887C111.498 128.011 110.927 128.125 110.439 128.229C109.962 128.333 109.64 128.385 109.474 128.385C109.267 128.385 109.101 128.328 108.976 128.214C108.852 128.089 108.789 127.923 108.789 127.715C108.789 127.601 108.914 127.487 109.163 127.373C109.422 127.259 109.765 127.15 110.19 127.046C110.616 126.942 111.083 126.854 111.591 126.781C112.11 126.698 112.634 126.636 113.164 126.595C113.693 126.553 114.186 126.532 114.643 126.532C114.954 126.532 115.203 126.626 115.39 126.813C115.587 126.999 115.686 127.197 115.686 127.404C115.686 127.487 115.566 127.674 115.328 127.965C115.089 128.255 114.778 128.608 114.394 129.023C114.01 129.438 113.589 129.885 113.133 130.362C112.676 130.839 112.23 131.317 111.794 131.794C111.358 132.261 110.969 132.697 110.626 133.102C110.284 133.496 110.035 133.823 109.879 134.083C110.159 134.072 110.491 134.062 110.875 134.051C111.259 134.041 111.659 134.031 112.074 134.02C112.489 134 112.884 133.984 113.257 133.974C113.631 133.953 113.947 133.937 114.207 133.927C114.477 133.917 114.653 133.911 114.736 133.911C115.151 133.911 115.359 134.083 115.359 134.425C115.359 134.685 115.239 134.923 115.001 135.141C114.762 135.359 114.456 135.468 114.082 135.468ZM118.033 135.702C117.638 135.702 117.312 135.52 117.052 135.157C116.803 134.783 116.678 134.301 116.678 133.709C116.678 133.159 116.813 132.614 117.083 132.074C117.363 131.535 117.732 131.016 118.189 130.518C118.645 130.019 119.143 129.563 119.683 129.148C120.223 128.722 120.762 128.354 121.302 128.042C121.852 127.731 122.355 127.487 122.812 127.311C123.269 127.134 123.632 127.046 123.902 127.046C124.047 127.046 124.166 127.077 124.26 127.139C124.353 127.191 124.4 127.29 124.4 127.435C124.4 127.529 124.364 127.617 124.291 127.7C124.301 127.7 124.312 127.7 124.322 127.7C124.55 127.7 124.665 127.835 124.665 128.105C124.665 128.198 124.628 128.39 124.556 128.681C124.483 128.961 124.4 129.314 124.307 129.739C124.213 130.165 124.13 130.637 124.057 131.156C123.985 131.664 123.949 132.183 123.949 132.713C123.949 133.159 124.12 133.382 124.462 133.382C124.846 133.382 125.235 133.294 125.63 133.117C126.024 132.941 126.408 132.728 126.782 132.479C127.155 132.22 127.498 131.965 127.809 131.716C128.121 131.457 128.385 131.239 128.603 131.063C128.821 130.886 128.977 130.798 129.07 130.798C129.153 130.798 129.226 130.824 129.288 130.876C129.35 130.928 129.382 131.011 129.382 131.125C129.382 131.229 129.278 131.415 129.07 131.685C128.863 131.955 128.588 132.261 128.245 132.604C127.903 132.946 127.519 133.278 127.093 133.6C126.668 133.922 126.232 134.186 125.785 134.394C125.339 134.602 124.914 134.705 124.509 134.705C124.198 134.705 123.912 134.612 123.653 134.425C123.404 134.228 123.201 133.896 123.046 133.429C122.9 132.962 122.828 132.318 122.828 131.498L122.828 131.109C122.319 131.95 121.785 132.718 121.224 133.413C120.674 134.109 120.124 134.664 119.574 135.079C119.034 135.494 118.521 135.702 118.033 135.702ZM123.606 128.167C123.554 128.188 123.481 128.219 123.388 128.26C122.911 128.478 122.413 128.748 121.894 129.07C121.385 129.392 120.887 129.75 120.399 130.144C119.922 130.538 119.491 130.948 119.107 131.374C118.723 131.799 118.417 132.23 118.189 132.666C117.96 133.102 117.846 133.527 117.846 133.942C117.846 134.077 117.872 134.181 117.924 134.254C117.986 134.326 118.09 134.363 118.235 134.363C118.443 134.363 118.713 134.233 119.045 133.974C119.377 133.704 119.74 133.351 120.134 132.915C120.539 132.479 120.944 131.997 121.349 131.467C121.753 130.938 122.137 130.403 122.501 129.864C122.874 129.324 123.196 128.826 123.466 128.369C123.507 128.297 123.554 128.229 123.606 128.167Z" fill="black"/>
</g>
<g filter="url(#filter5_d_7777_1387)">
<path d="M91.1924 154.756C91.1924 152.846 92.7412 151.297 94.6518 151.297H168.086C169.997 151.297 171.546 152.846 171.546 154.756V223.945C171.546 225.856 169.997 227.405 168.086 227.405H94.6518C92.7412 227.405 91.1924 225.856 91.1924 223.945V154.756Z" fill="#D4E3FC" shape-rendering="crispEdges"/>
<path d="M121.117 183.11C121.408 183.11 121.553 183.23 121.553 183.468C121.553 183.634 121.501 183.811 121.397 183.998C121.304 184.174 121.19 184.376 121.055 184.605C120.92 184.833 120.801 185.092 120.697 185.383C120.603 185.674 120.557 186.011 120.557 186.395C120.557 186.654 120.567 186.919 120.588 187.189C120.619 187.448 120.635 187.682 120.635 187.889C120.635 188.128 120.572 188.336 120.448 188.512C120.334 188.689 120.168 188.777 119.95 188.777C119.763 188.777 119.586 188.683 119.42 188.497C119.265 188.31 119.187 187.962 119.187 187.454C119.187 186.997 119.254 186.519 119.389 186.021C119.534 185.513 119.711 185.041 119.918 184.605C120.136 184.158 120.354 183.8 120.572 183.531C120.79 183.25 120.972 183.11 121.117 183.11ZM125.748 195.72C125.416 195.72 125.068 195.637 124.705 195.471C124.352 195.315 124.051 195.056 123.802 194.692C123.564 194.319 123.444 193.826 123.444 193.214C123.444 192.497 123.506 191.74 123.631 190.941C123.756 190.142 123.916 189.342 124.114 188.543C124.321 187.734 124.549 186.966 124.799 186.239C125.048 185.513 125.297 184.864 125.546 184.293C125.805 183.723 126.044 183.276 126.262 182.955C126.48 182.622 126.661 182.456 126.807 182.456C127.004 182.456 127.17 182.534 127.305 182.69C127.45 182.846 127.523 183.063 127.523 183.344C127.523 183.458 127.455 183.728 127.32 184.153C127.186 184.568 127.014 185.092 126.807 185.726C126.599 186.359 126.376 187.044 126.137 187.78C125.909 188.517 125.691 189.259 125.484 190.007C125.276 190.754 125.105 191.46 124.97 192.124C124.835 192.788 124.767 193.354 124.767 193.821C124.767 193.956 124.804 194.085 124.876 194.21C124.949 194.324 125.068 194.381 125.234 194.381C125.463 194.381 125.79 194.329 126.215 194.225C126.651 194.122 127.123 193.997 127.632 193.852C128.14 193.696 128.628 193.546 129.095 193.4C129.562 193.255 129.957 193.13 130.278 193.027C130.6 192.923 130.782 192.871 130.823 192.871C130.948 192.871 131.051 192.907 131.135 192.98C131.218 193.042 131.259 193.141 131.259 193.276C131.259 193.442 131.135 193.634 130.885 193.852C130.647 194.07 130.325 194.288 129.92 194.506C129.526 194.724 129.085 194.921 128.597 195.097C128.109 195.284 127.616 195.434 127.118 195.549C126.63 195.663 126.174 195.72 125.748 195.72ZM139.758 188.014C139.758 188.678 139.441 189.322 138.808 189.944C138.175 190.567 137.21 191.138 135.913 191.657C135.871 191.916 135.85 192.134 135.85 192.311C135.85 192.726 135.902 193.027 136.006 193.214C136.12 193.4 136.307 193.494 136.567 193.494C136.951 193.494 137.381 193.374 137.859 193.136C138.336 192.887 138.829 192.57 139.338 192.186C139.846 191.792 140.344 191.377 140.832 190.941C141.33 190.505 141.787 190.095 142.202 189.711C142.617 189.316 142.97 189 143.261 188.761C143.551 188.512 143.748 188.388 143.852 188.388C143.997 188.388 144.117 188.455 144.21 188.59C144.304 188.714 144.35 188.886 144.35 189.104C144.35 189.374 144.335 189.685 144.304 190.038C144.272 190.38 144.236 190.743 144.195 191.127C144.464 190.37 144.802 189.711 145.206 189.15C145.622 188.58 146.063 188.107 146.53 187.734C146.997 187.36 147.453 187.08 147.9 186.893C148.346 186.706 148.73 186.613 149.052 186.613C149.353 186.613 149.576 186.67 149.721 186.784C149.866 186.898 149.939 187.033 149.939 187.189C149.939 187.334 149.872 187.469 149.737 187.594C149.612 187.708 149.322 187.858 148.865 188.045C148.336 188.253 147.837 188.497 147.37 188.777C146.914 189.057 146.488 189.441 146.094 189.929C145.699 190.406 145.347 191.044 145.035 191.844C144.724 192.643 144.459 193.67 144.241 194.926C144.2 195.175 144.127 195.351 144.023 195.455C143.92 195.569 143.795 195.626 143.65 195.626C143.546 195.626 143.442 195.58 143.338 195.486C143.235 195.403 143.152 195.201 143.089 194.879C143.027 194.547 142.996 194.028 142.996 193.322C142.996 192.845 143.017 192.326 143.058 191.766C143.11 191.205 143.183 190.619 143.276 190.007C142.799 190.526 142.269 191.07 141.688 191.641C141.107 192.202 140.505 192.726 139.882 193.214C139.26 193.691 138.647 194.08 138.045 194.381C137.443 194.682 136.883 194.833 136.364 194.833C135.814 194.833 135.373 194.641 135.041 194.257C134.709 193.873 134.543 193.302 134.543 192.544C134.543 191.672 134.657 190.873 134.885 190.147C135.114 189.42 135.409 188.792 135.773 188.263C136.136 187.723 136.525 187.308 136.94 187.018C137.355 186.727 137.755 186.582 138.139 186.582C138.658 186.582 139.057 186.717 139.338 186.987C139.618 187.246 139.758 187.588 139.758 188.014ZM136.162 190.52C136.473 190.302 136.81 190.058 137.174 189.789C137.547 189.519 137.864 189.244 138.123 188.964C138.393 188.673 138.528 188.408 138.528 188.17C138.528 188.024 138.492 187.921 138.419 187.858C138.346 187.796 138.222 187.765 138.045 187.765C137.765 187.765 137.506 187.905 137.267 188.185C137.028 188.455 136.816 188.803 136.629 189.228C136.442 189.643 136.286 190.074 136.162 190.52ZM156.27 188.263C156.27 188.595 156.166 188.922 155.958 189.244C155.751 189.555 155.476 189.856 155.133 190.147C154.791 190.427 154.412 190.692 153.997 190.941C153.582 191.19 153.166 191.408 152.751 191.594C152.336 191.781 151.957 191.932 151.615 192.046C151.532 192.451 151.49 192.809 151.49 193.12C151.49 193.317 151.537 193.457 151.63 193.54C151.724 193.623 151.869 193.665 152.066 193.665C152.502 193.665 152.964 193.587 153.452 193.431C153.94 193.276 154.438 193.073 154.946 192.824C155.455 192.575 155.943 192.311 156.41 192.03C156.877 191.75 157.302 191.486 157.686 191.236C158.081 190.987 158.407 190.785 158.667 190.629C158.926 190.474 159.098 190.396 159.181 190.396C159.305 190.396 159.399 190.437 159.461 190.52C159.534 190.593 159.57 190.681 159.57 190.785C159.57 190.868 159.44 191.029 159.181 191.268C158.932 191.506 158.594 191.786 158.169 192.108C157.743 192.42 157.266 192.741 156.737 193.073C156.207 193.406 155.657 193.717 155.086 194.007C154.526 194.298 153.981 194.532 153.452 194.708C152.933 194.884 152.466 194.973 152.051 194.973C151.511 194.973 151.091 194.77 150.79 194.366C150.489 193.961 150.338 193.333 150.338 192.482C150.338 191.911 150.411 191.335 150.556 190.754C150.712 190.173 150.92 189.617 151.179 189.088C151.449 188.548 151.745 188.071 152.066 187.656C152.398 187.23 152.746 186.898 153.109 186.66C153.473 186.411 153.825 186.286 154.168 186.286C154.822 186.286 155.336 186.468 155.709 186.831C156.083 187.194 156.27 187.671 156.27 188.263ZM151.942 190.847C152.264 190.65 152.596 190.442 152.938 190.225C153.281 190.007 153.597 189.783 153.888 189.555C154.178 189.327 154.412 189.088 154.588 188.839C154.775 188.58 154.868 188.315 154.868 188.045C154.868 187.661 154.661 187.469 154.246 187.469C153.986 187.469 153.711 187.635 153.421 187.967C153.14 188.289 152.871 188.709 152.611 189.228C152.352 189.747 152.129 190.287 151.942 190.847Z" fill="black"/>
</g>
<g filter="url(#filter6_d_7777_1387)">
<rect width="80.6068" height="75.9265" rx="3.45946" transform="matrix(0.987153 0.159777 -0.121134 0.992636 80.8647 47.5137)" fill="#DFF1E4" shape-rendering="crispEdges"/>
<path d="M109.612 96.3772C109.599 96.4802 109.53 96.5741 109.405 96.6589C109.28 96.7437 109.099 96.7721 108.862 96.7443C108.565 96.6962 108.246 96.5238 107.906 96.2272C107.575 95.9425 107.234 95.5721 106.882 95.116C106.532 94.6495 106.187 94.1367 105.847 93.5775C105.508 93.0184 105.186 92.4463 104.882 91.8612C104.578 91.2658 104.308 90.6968 104.071 90.1542C103.696 91.1755 103.387 92.0394 103.144 92.746C102.911 93.4542 102.705 93.9881 102.525 94.3477C102.357 94.6987 102.181 94.8593 101.996 94.8294C101.832 94.8029 101.686 94.6793 101.556 94.4587C101.437 94.2295 101.413 93.8315 101.482 93.2649C101.519 92.9662 101.576 92.6656 101.655 92.3632C101.735 92.0504 101.852 91.686 102.008 91.2699C102.164 90.8435 102.37 90.3096 102.626 89.6682C102.525 89.5572 102.464 89.4529 102.445 89.3552C102.426 89.2575 102.423 89.152 102.437 89.0387C102.454 88.8944 102.513 88.7568 102.612 88.6259C102.712 88.4949 102.884 88.4124 103.128 88.3785C103.634 87.2312 104.037 86.3247 104.338 85.659C104.64 84.983 104.891 84.5088 105.091 84.2366C105.303 83.9558 105.506 83.8311 105.701 83.8626C106.121 83.9306 106.3 84.217 106.239 84.7218C106.216 84.9072 106.079 85.3052 105.827 85.9157C105.576 86.5159 105.191 87.4412 104.673 88.6915C105.554 88.2353 106.386 87.7553 107.168 87.2516C107.95 86.7479 108.667 86.2652 109.319 85.8034C109.972 85.3313 110.546 84.9094 111.041 84.5378C111.535 84.1661 111.937 83.8739 112.245 83.6611C112.553 83.4483 112.753 83.3494 112.845 83.3643C113.019 83.3925 113.156 83.4724 113.255 83.6039C113.364 83.7371 113.41 83.8759 113.392 84.0201C113.371 84.1952 113.278 84.3536 113.115 84.4952C112.833 84.7439 112.46 85.0668 111.993 85.4641C111.527 85.8614 111.005 86.2864 110.427 86.7392C109.851 87.1817 109.25 87.6097 108.625 88.0233C108.01 88.4385 107.402 88.7971 106.801 89.0991C106.202 89.3907 105.652 89.5748 105.151 89.6514C105.275 89.8394 105.397 90.0326 105.519 90.231C105.641 90.4293 105.754 90.6209 105.857 90.8056C106.166 91.3495 106.524 91.9326 106.928 92.5549C107.343 93.1788 107.766 93.7778 108.198 94.3519C108.63 94.9157 109.027 95.3896 109.388 95.7736C109.561 95.9803 109.636 96.1814 109.612 96.3772ZM113.061 97.2349C112.897 97.2083 112.767 97.119 112.671 96.9668C112.574 96.8147 112.54 96.6201 112.569 96.3832C112.591 96.208 112.662 95.9254 112.783 95.5352C112.915 95.1364 113.06 94.6715 113.219 94.1404C113.388 93.611 113.544 93.0584 113.688 92.4828C113.832 91.8969 113.938 91.331 114.005 90.785C114.037 90.5171 114.128 90.3322 114.276 90.2301C114.436 90.1194 114.603 90.0781 114.777 90.1063C114.941 90.1329 115.051 90.2558 115.108 90.4751C115.165 90.6944 115.13 91.1089 115.003 91.7188C115.603 90.7442 116.223 89.9832 116.865 89.4357C117.518 88.8796 118.143 88.508 118.74 88.321C119.339 88.1238 119.864 88.0616 120.315 88.1346C120.612 88.1827 120.819 88.2793 120.937 88.4245C121.067 88.561 121.123 88.7014 121.105 88.8457C121.081 89.0414 120.981 89.1827 120.803 89.2694C120.637 89.3476 120.35 89.4273 119.943 89.5085C119.471 89.6107 119.031 89.7495 118.623 89.9251C118.226 90.0921 117.837 90.3336 117.453 90.6498C117.08 90.9676 116.7 91.3892 116.312 91.9147C115.925 92.4299 115.522 93.0791 115.102 93.8621C114.683 94.6452 114.222 95.5949 113.72 96.7113C113.631 96.928 113.53 97.0744 113.416 97.1505C113.312 97.2283 113.194 97.2564 113.061 97.2349ZM124.304 99.1335C124.13 99.1053 123.991 99.004 123.887 98.8295C123.783 98.6551 123.749 98.4185 123.785 98.1198C123.828 97.7695 123.94 97.2782 124.122 96.6457C124.314 96.0149 124.583 95.1812 124.929 94.1447C124.572 94.7592 124.188 95.3327 123.778 95.8652C123.379 96.3994 122.972 96.822 122.558 97.1332C122.144 97.4444 121.742 97.5685 121.353 97.5055C120.974 97.4441 120.654 97.24 120.393 96.8932C120.143 96.548 120.064 95.9994 120.156 95.2473C120.207 94.8249 120.301 94.3568 120.437 93.8431C120.574 93.319 120.731 92.8033 120.907 92.2962C121.084 91.789 121.254 91.3385 121.417 90.9447C121.581 90.5405 121.722 90.2481 121.838 90.0673C121.929 89.914 122.014 89.8175 122.092 89.7776C122.172 89.7274 122.273 89.7122 122.396 89.7321C122.539 89.7553 122.685 89.842 122.834 89.9922C122.983 90.1423 123.04 90.3616 123.005 90.6501C122.996 90.7222 122.939 90.8864 122.835 91.1426C122.742 91.3902 122.621 91.6963 122.472 92.0609C122.334 92.4168 122.188 92.8029 122.033 93.219C121.878 93.6351 121.738 94.0537 121.613 94.4747C121.499 94.8975 121.42 95.2891 121.376 95.6497C121.352 95.8454 121.353 96.0084 121.379 96.1387C121.405 96.2689 121.5 96.3473 121.664 96.3738C121.807 96.3971 122.004 96.2819 122.254 96.0282C122.515 95.7762 122.802 95.434 123.116 95.0016C123.441 94.5605 123.778 94.0688 124.127 93.5263C124.485 92.9856 124.835 92.4277 125.177 91.8527C125.529 91.2793 125.852 90.7327 126.145 90.2129C126.25 90.0407 126.351 89.9415 126.448 89.9152C126.546 89.8786 126.652 89.8695 126.765 89.8877C126.949 89.9176 127.103 90.0214 127.228 90.1991C127.364 90.3682 127.418 90.5712 127.389 90.8082C127.37 90.9627 127.307 91.2256 127.199 91.5968C127.101 91.9697 126.969 92.4054 126.804 92.9039C126.65 93.3938 126.477 93.9121 126.285 94.4588C126.103 95.0071 125.922 95.5503 125.741 96.0884C125.562 96.6162 125.394 97.0984 125.236 97.5351C125.088 97.9735 124.967 98.3267 124.871 98.595C124.789 98.8442 124.697 98.9974 124.596 99.0546C124.504 99.1238 124.407 99.1501 124.304 99.1335ZM130.537 100.111C130.312 100.074 130.146 99.9792 130.039 99.8254C129.942 99.6835 129.903 99.5302 129.923 99.3653C129.941 99.2211 130.019 99.0971 130.157 98.9934C130.306 98.881 130.5 98.7916 130.738 98.725C131.174 98.575 131.585 98.4209 131.97 98.2626C132.365 98.1059 132.69 97.9222 132.946 97.7115C133.201 97.5007 133.346 97.2562 133.38 96.9781C133.409 96.7411 133.354 96.5484 133.216 96.3999C133.078 96.2411 132.876 96.1402 132.61 96.0971C132.456 96.0722 132.237 96.0683 131.953 96.0853C131.67 96.092 131.361 96.1049 131.024 96.124C130.699 96.1344 130.379 96.1456 130.064 96.1577C129.75 96.1595 129.486 96.1429 129.271 96.1081C128.881 96.0451 128.601 95.9051 128.429 95.6882C128.258 95.4609 128.193 95.1825 128.233 94.8528C128.253 94.688 128.381 94.4565 128.615 94.1583C128.85 93.8602 129.151 93.5359 129.518 93.1855C129.896 92.8265 130.305 92.4725 130.744 92.1234C131.184 91.7744 131.625 91.457 132.067 91.1714C132.52 90.8875 132.933 90.6655 133.308 90.5056C133.693 90.3473 134.003 90.2872 134.239 90.3253C134.475 90.3635 134.644 90.4698 134.749 90.6442C134.853 90.8186 134.89 91.0243 134.861 91.2612C134.839 91.4467 134.788 91.6014 134.711 91.7254C134.634 91.839 134.494 91.9162 134.291 91.9568C134.097 91.9991 133.805 91.9938 133.415 91.9411C132.976 92.1958 132.507 92.4927 132.006 92.8318C131.516 93.1623 131.06 93.514 130.639 93.887C130.229 94.2514 129.918 94.616 129.706 94.9809C130.058 94.9223 130.48 94.8908 130.971 94.8863C131.474 94.8732 131.977 94.9073 132.479 94.9885C133.268 95.1162 133.83 95.391 134.165 95.8129C134.511 96.2262 134.649 96.7213 134.579 97.2982C134.534 97.6691 134.369 98.0363 134.084 98.4C133.811 98.755 133.469 99.0726 133.059 99.3529C132.649 99.6331 132.221 99.8423 131.776 99.9803C131.329 100.129 130.916 100.172 130.537 100.111ZM142.831 94.9622C142.791 95.2918 142.649 95.5998 142.405 95.886C142.162 96.1619 141.854 96.4167 141.481 96.6504C141.109 96.8738 140.703 97.076 140.263 97.2569C139.823 97.4378 139.387 97.5879 138.954 97.707C138.522 97.8261 138.13 97.9149 137.778 97.9735C137.647 98.362 137.562 98.7108 137.525 99.0199C137.501 99.2156 137.53 99.3621 137.612 99.4595C137.694 99.5568 137.833 99.6213 138.027 99.6528C138.458 99.7224 138.923 99.7189 139.423 99.6423C139.924 99.5657 140.44 99.4445 140.972 99.2785C141.504 99.1125 142.018 98.9277 142.513 98.7242C143.008 98.5206 143.46 98.3259 143.869 98.14C144.289 97.9558 144.636 97.8071 144.911 97.6941C145.186 97.581 145.364 97.5311 145.446 97.5444C145.569 97.5643 145.656 97.6204 145.708 97.7128C145.771 97.7965 145.796 97.8898 145.783 97.9929C145.773 98.0753 145.626 98.2142 145.341 98.4097C145.066 98.6069 144.699 98.8311 144.24 99.0825C143.782 99.3236 143.272 99.5667 142.709 99.8117C142.146 100.057 141.566 100.278 140.967 100.475C140.379 100.674 139.813 100.819 139.269 100.909C138.735 101.002 138.263 101.015 137.854 100.948C137.321 100.862 136.93 100.594 136.682 100.144C136.434 99.6943 136.362 99.047 136.465 98.2022C136.534 97.6356 136.675 97.0755 136.889 96.5218C137.113 95.9698 137.386 95.4518 137.706 94.9678C138.037 94.4752 138.387 94.0486 138.755 93.6879C139.135 93.3186 139.518 93.0445 139.906 92.8656C140.294 92.6764 140.658 92.6091 140.996 92.6639C141.641 92.7683 142.126 93.0307 142.451 93.451C142.776 93.8712 142.903 94.375 142.831 94.9622ZM138.246 96.8359C138.587 96.6915 138.94 96.5386 139.305 96.377C139.669 96.2153 140.009 96.0444 140.323 95.8642C140.638 95.684 140.897 95.4844 141.101 95.2653C141.317 95.0376 141.442 94.7898 141.474 94.522C141.521 94.1408 141.339 93.9171 140.929 93.8507C140.673 93.8093 140.382 93.9302 140.054 94.2134C139.739 94.488 139.422 94.8621 139.103 95.3357C138.784 95.8094 138.498 96.3094 138.246 96.8359Z" fill="black"/>
</g>
<g filter="url(#filter7_d_7777_1387)">
<rect width="80.6068" height="75.9265" rx="3.45946" transform="matrix(0.987153 0.159777 -0.121134 0.992636 135.686 6)" fill="#FFEDC7" shape-rendering="crispEdges"/>
<path d="M162.461 55.0639C162.205 55.0224 162.004 54.9163 161.857 54.7456C161.72 54.5868 161.661 54.425 161.682 54.2601C161.704 54.0747 161.747 53.9398 161.809 53.8553C161.883 53.7623 162.02 53.7109 162.22 53.7012C162.715 53.6658 163.229 53.6123 163.76 53.5407C164.302 53.4604 164.81 53.3692 165.282 53.267C165.755 53.1546 166.141 53.0331 166.439 52.9028C166.747 52.7741 166.909 52.6428 166.926 52.5088C166.941 52.3852 166.843 52.2485 166.631 52.0987C166.421 51.9386 166.15 51.7582 165.819 51.5576C165.489 51.357 165.134 51.1368 164.756 50.897C164.378 50.6572 164.028 50.3958 163.708 50.1128C163.387 49.8298 163.132 49.5258 162.942 49.2008C162.753 48.8656 162.681 48.5074 162.728 48.1262C162.801 47.5287 163.012 46.9956 163.362 46.527C163.723 46.0497 164.166 45.6276 164.692 45.2609C165.217 44.8942 165.784 44.571 166.393 44.2914C167.013 44.0031 167.617 43.7595 168.206 43.5605C168.806 43.353 169.34 43.1715 169.808 43.0162C169.961 42.957 170.107 42.9227 170.244 42.9134C170.381 42.904 170.5 42.9077 170.603 42.9242C170.9 42.9723 171.107 43.0741 171.224 43.2296C171.341 43.3851 171.388 43.5504 171.367 43.7255C171.349 43.8697 171.252 44.0273 171.074 44.1981C170.898 44.3587 170.657 44.4879 170.353 44.5857C170.049 44.6835 169.697 44.7 169.297 44.6354L169.174 44.6155C168.803 44.7445 168.397 44.9047 167.956 45.0959C167.514 45.2871 167.075 45.5049 166.638 45.7493C166.201 45.9937 165.793 46.2534 165.415 46.5283C165.048 46.7946 164.744 47.0605 164.502 47.3261C164.271 47.5934 164.141 47.8506 164.11 48.0979C164.074 48.3966 164.154 48.6827 164.35 48.9561C164.547 49.2296 164.808 49.4872 165.134 49.729C165.47 49.9725 165.822 50.2133 166.19 50.4514C166.568 50.6912 166.92 50.932 167.245 51.1739C167.583 51.407 167.851 51.65 168.05 51.9028C168.25 52.1454 168.333 52.4057 168.299 52.6839C168.26 53.0032 168.11 53.2889 167.85 53.5409C167.599 53.7945 167.28 54.0159 166.891 54.2051C166.504 54.384 166.083 54.5365 165.629 54.6626C165.186 54.7801 164.752 54.8726 164.325 54.9402C163.899 55.0078 163.518 55.0511 163.181 55.0702C162.855 55.0909 162.615 55.0888 162.461 55.0639ZM177.753 50.2272C177.713 50.5569 177.571 50.8648 177.327 51.151C177.084 51.4269 176.776 51.6817 176.403 51.9155C176.031 52.1389 175.625 52.3411 175.185 52.522C174.745 52.7029 174.309 52.8529 173.876 52.972C173.444 53.0911 173.052 53.18 172.7 53.2386C172.569 53.6271 172.485 53.9759 172.447 54.2849C172.423 54.4807 172.452 54.6272 172.534 54.7245C172.616 54.8219 172.755 54.8863 172.949 54.9178C173.38 54.9875 173.845 54.984 174.345 54.9074C174.846 54.8308 175.362 54.7095 175.894 54.5435C176.426 54.3775 176.94 54.1928 177.435 53.9892C177.93 53.7857 178.382 53.591 178.791 53.4051C179.211 53.2208 179.558 53.0722 179.833 52.9591C180.108 52.846 180.286 52.7961 180.368 52.8094C180.491 52.8293 180.579 52.8854 180.63 52.9778C180.693 53.0615 180.718 53.1549 180.705 53.2579C180.695 53.3403 180.548 53.4793 180.263 53.6748C179.988 53.8719 179.621 54.0962 179.162 54.3476C178.704 54.5886 178.194 54.8317 177.631 55.0768C177.069 55.3219 176.488 55.5431 175.889 55.7403C175.301 55.9392 174.735 56.084 174.191 56.1745C173.657 56.2667 173.185 56.2797 172.776 56.2134C172.243 56.1271 171.852 55.8591 171.604 55.4092C171.356 54.9594 171.284 54.312 171.387 53.4673C171.456 52.9007 171.598 52.3405 171.811 51.7868C172.035 51.2348 172.308 50.7168 172.628 50.2329C172.96 49.7403 173.309 49.3137 173.677 48.953C174.057 48.5837 174.44 48.3096 174.828 48.1306C175.216 47.9414 175.58 47.8742 175.918 47.9289C176.563 48.0334 177.048 48.2957 177.373 48.716C177.698 49.1363 177.825 49.64 177.753 50.2272ZM173.168 52.1009C173.509 51.9566 173.862 51.8036 174.227 51.642C174.591 51.4804 174.931 51.3095 175.245 51.1293C175.56 50.949 175.819 50.7494 176.024 50.5304C176.239 50.3027 176.364 50.0549 176.396 49.787C176.443 49.4059 176.261 49.1821 175.851 49.1158C175.595 49.0743 175.304 49.1952 174.977 49.4784C174.661 49.753 174.344 50.1271 174.025 50.6008C173.706 51.0744 173.42 51.5745 173.168 52.1009ZM180.624 57.4994C180.183 57.4281 179.882 57.29 179.719 57.085C179.556 56.88 179.495 56.6075 179.536 56.2676C179.745 54.5575 180.27 52.8198 181.113 51.0547C181.956 49.2792 183.046 47.5384 184.383 45.8322C184.555 45.6185 184.686 45.4873 184.775 45.4388C184.875 45.3919 184.987 45.3784 185.11 45.3983C185.253 45.4215 185.375 45.4938 185.475 45.615C185.575 45.7363 185.614 45.8845 185.593 46.0596C185.582 46.1523 185.459 46.3898 185.224 46.772C184.991 47.144 184.691 47.6261 184.327 48.2184C183.962 48.8107 183.567 49.4769 183.142 50.2171C182.729 50.9486 182.327 51.7187 181.936 52.5273C181.545 53.336 181.21 54.1486 180.933 54.9651C181.212 54.653 181.539 54.3226 181.916 53.9739C182.303 53.6268 182.711 53.2831 183.139 52.9427C183.567 52.6022 183.996 52.2987 184.425 52.0321C184.865 51.7671 185.281 51.5666 185.674 51.4305C186.067 51.2945 186.417 51.2513 186.724 51.3011C187.124 51.3657 187.451 51.5921 187.707 51.9802C187.974 52.3596 188.067 52.8841 187.985 53.5537C187.916 54.1203 187.691 54.6775 187.311 55.2253C186.932 55.7627 186.415 56.2358 185.759 56.6444C185.114 57.0444 184.358 57.3317 183.491 57.5065C182.625 57.6709 181.669 57.6686 180.624 57.4994ZM180.829 56.3349C181.679 56.4726 182.47 56.4535 183.202 56.2779C183.934 56.1022 184.573 55.8326 185.119 55.4692C185.676 55.0972 186.117 54.6906 186.443 54.2496C186.78 53.7998 186.973 53.3741 187.022 52.9723C187.057 52.6839 186.977 52.5239 186.783 52.4924C186.547 52.4542 186.231 52.5186 185.834 52.6856C185.438 52.8525 185.002 53.0866 184.526 53.3878C184.061 53.6907 183.592 54.0245 183.119 54.3892C182.647 54.7436 182.208 55.0927 181.8 55.4364C181.403 55.7818 181.079 56.0813 180.829 56.3349ZM188.781 59.0403C188.556 59.0039 188.344 58.8961 188.147 58.7171C187.96 58.5397 187.886 58.2861 187.926 57.9565C187.959 57.6886 188.052 57.4831 188.205 57.3398C188.359 57.1965 188.527 57.1029 188.71 57.059C188.894 57.0048 189.053 56.9884 189.186 57.01C189.319 57.0315 189.464 57.0865 189.62 57.1748C189.787 57.2648 189.922 57.397 190.026 57.5715C190.131 57.7356 190.167 57.9619 190.131 58.2503C190.096 58.5388 189.944 58.7558 189.676 58.9015C189.407 59.0471 189.109 59.0934 188.781 59.0403Z" fill="black"/>
</g>
<defs>
<filter id="filter0_d_7777_1387" x="3.35101" y="120.163" width="110.738" height="107.273" filterUnits="userSpaceOnUse" color-interpolation-filters="sRGB">
<feFlood flood-opacity="0" result="BackgroundImageFix"/>
<feColorMatrix in="SourceAlpha" type="matrix" values="0 0 0 0 0 0 0 0 0 0 0 0 0 0 0 0 0 0 127 0" result="hardAlpha"/>
<feMorphology radius="3.45946" operator="dilate" in="SourceAlpha" result="effect1_dropShadow_7777_1387"/>
<feOffset dx="-1.72973" dy="3.45946"/>
<feGaussianBlur stdDeviation="3.02702"/>
<feComposite in2="hardAlpha" operator="out"/>
<feColorMatrix type="matrix" values="0 0 0 0 0 0 0 0 0 0 0 0 0 0 0 0 0 0 0.16 0"/>
<feBlend mode="normal" in2="BackgroundImageFix" result="effect1_dropShadow_7777_1387"/>
<feBlend mode="normal" in="SourceGraphic" in2="effect1_dropShadow_7777_1387" result="shape"/>
</filter>
<filter id="filter1_d_7777_1387" x="0.3471" y="12.9167" width="107.796" height="107.273" filterUnits="userSpaceOnUse" color-interpolation-filters="sRGB">
<feFlood flood-opacity="0" result="BackgroundImageFix"/>
<feColorMatrix in="SourceAlpha" type="matrix" values="0 0 0 0 0 0 0 0 0 0 0 0 0 0 0 0 0 0 127 0" result="hardAlpha"/>
<feMorphology radius="3.45946" operator="dilate" in="SourceAlpha" result="effect1_dropShadow_7777_1387"/>
<feOffset dx="-1.72973" dy="3.45946"/>
<feGaussianBlur stdDeviation="3.02702"/>
<feComposite in2="hardAlpha" operator="out"/>
<feColorMatrix type="matrix" values="0 0 0 0 0 0 0 0 0 0 0 0 0 0 0 0 0 0 0.16 0"/>
<feBlend mode="normal" in2="BackgroundImageFix" result="effect1_dropShadow_7777_1387"/>
<feBlend mode="normal" in="SourceGraphic" in2="effect1_dropShadow_7777_1387" result="shape"/>
</filter>
<filter id="filter2_d_7777_1387" x="118.999" y="85.567" width="107.796" height="107.273" filterUnits="userSpaceOnUse" color-interpolation-filters="sRGB">
<feFlood flood-opacity="0" result="BackgroundImageFix"/>
<feColorMatrix in="SourceAlpha" type="matrix" values="0 0 0 0 0 0 0 0 0 0 0 0 0 0 0 0 0 0 127 0" result="hardAlpha"/>
<feMorphology radius="3.45946" operator="dilate" in="SourceAlpha" result="effect1_dropShadow_7777_1387"/>
<feOffset dx="-1.72973" dy="3.45946"/>
<feGaussianBlur stdDeviation="3.02702"/>
<feComposite in2="hardAlpha" operator="out"/>
<feColorMatrix type="matrix" values="0 0 0 0 0 0 0 0 0 0 0 0 0 0 0 0 0 0 0.16 0"/>
<feBlend mode="normal" in2="BackgroundImageFix" result="effect1_dropShadow_7777_1387"/>
<feBlend mode="normal" in="SourceGraphic" in2="effect1_dropShadow_7777_1387" result="shape"/>
</filter>
<filter id="filter3_d_7777_1387" x="159.552" y="45.7838" width="107.796" height="107.273" filterUnits="userSpaceOnUse" color-interpolation-filters="sRGB">
<feFlood flood-opacity="0" result="BackgroundImageFix"/>
<feColorMatrix in="SourceAlpha" type="matrix" values="0 0 0 0 0 0 0 0 0 0 0 0 0 0 0 0 0 0 127 0" result="hardAlpha"/>
<feMorphology radius="3.45946" operator="dilate" in="SourceAlpha" result="effect1_dropShadow_7777_1387"/>
<feOffset dx="-1.72973" dy="3.45946"/>
<feGaussianBlur stdDeviation="3.02702"/>
<feComposite in2="hardAlpha" operator="out"/>
<feColorMatrix type="matrix" values="0 0 0 0 0 0 0 0 0 0 0 0 0 0 0 0 0 0 0.16 0"/>
<feBlend mode="normal" in2="BackgroundImageFix" result="effect1_dropShadow_7777_1387"/>
<feBlend mode="normal" in="SourceGraphic" in2="effect1_dropShadow_7777_1387" result="shape"/>
</filter>
<filter id="filter4_d_7777_1387" x="33.3901" y="85.569" width="103.776" height="95.1344" filterUnits="userSpaceOnUse" color-interpolation-filters="sRGB">
<feFlood flood-opacity="0" result="BackgroundImageFix"/>
<feColorMatrix in="SourceAlpha" type="matrix" values="0 0 0 0 0 0 0 0 0 0 0 0 0 0 0 0 0 0 127 0" result="hardAlpha"/>
<feMorphology radius="3.45946" operator="dilate" in="SourceAlpha" result="effect1_dropShadow_7777_1387"/>
<feOffset dx="-1.72973" dy="3.45946"/>
<feGaussianBlur stdDeviation="3.02702"/>
<feComposite in2="hardAlpha" operator="out"/>
<feColorMatrix type="matrix" values="0 0 0 0 0 0 0 0 0 0 0 0 0 0 0 0 0 0 0.16 0"/>
<feBlend mode="normal" in2="BackgroundImageFix" result="effect1_dropShadow_7777_1387"/>
<feBlend mode="normal" in="SourceGraphic" in2="effect1_dropShadow_7777_1387" result="shape"/>
</filter>
<filter id="filter5_d_7777_1387" x="79.9492" y="145.243" width="99.3805" height="95.1344" filterUnits="userSpaceOnUse" color-interpolation-filters="sRGB">
<feFlood flood-opacity="0" result="BackgroundImageFix"/>
<feColorMatrix in="SourceAlpha" type="matrix" values="0 0 0 0 0 0 0 0 0 0 0 0 0 0 0 0 0 0 127 0" result="hardAlpha"/>
<feMorphology radius="3.45946" operator="dilate" in="SourceAlpha" result="effect1_dropShadow_7777_1387"/>
<feOffset dx="-1.72973" dy="3.45946"/>
<feGaussianBlur stdDeviation="3.02702"/>
<feComposite in2="hardAlpha" operator="out"/>
<feColorMatrix type="matrix" values="0 0 0 0 0 0 0 0 0 0 0 0 0 0 0 0 0 0 0.16 0"/>
<feBlend mode="normal" in2="BackgroundImageFix" result="effect1_dropShadow_7777_1387"/>
<feBlend mode="normal" in="SourceGraphic" in2="effect1_dropShadow_7777_1387" result="shape"/>
</filter>
<filter id="filter6_d_7777_1387" x="60.4242" y="41.4596" width="107.796" height="107.273" filterUnits="userSpaceOnUse" color-interpolation-filters="sRGB">
<feFlood flood-opacity="0" result="BackgroundImageFix"/>
<feColorMatrix in="SourceAlpha" type="matrix" values="0 0 0 0 0 0 0 0 0 0 0 0 0 0 0 0 0 0 127 0" result="hardAlpha"/>
<feMorphology radius="3.45946" operator="dilate" in="SourceAlpha" result="effect1_dropShadow_7777_1387"/>
<feOffset dx="-1.72973" dy="3.45946"/>
<feGaussianBlur stdDeviation="3.02702"/>
<feComposite in2="hardAlpha" operator="out"/>
<feColorMatrix type="matrix" values="0 0 0 0 0 0 0 0 0 0 0 0 0 0 0 0 0 0 0.16 0"/>
<feBlend mode="normal" in2="BackgroundImageFix" result="effect1_dropShadow_7777_1387"/>
<feBlend mode="normal" in="SourceGraphic" in2="effect1_dropShadow_7777_1387" result="shape"/>
</filter>
<filter id="filter7_d_7777_1387" x="115.245" y="-0.0540476" width="107.796" height="107.273" filterUnits="userSpaceOnUse" color-interpolation-filters="sRGB">
<feFlood flood-opacity="0" result="BackgroundImageFix"/>
<feColorMatrix in="SourceAlpha" type="matrix" values="0 0 0 0 0 0 0 0 0 0 0 0 0 0 0 0 0 0 127 0" result="hardAlpha"/>
<feMorphology radius="3.45946" operator="dilate" in="SourceAlpha" result="effect1_dropShadow_7777_1387"/>
<feOffset dx="-1.72973" dy="3.45946"/>
<feGaussianBlur stdDeviation="3.02702"/>
<feComposite in2="hardAlpha" operator="out"/>
<feColorMatrix type="matrix" values="0 0 0 0 0 0 0 0 0 0 0 0 0 0 0 0 0 0 0.16 0"/>
<feBlend mode="normal" in2="BackgroundImageFix" result="effect1_dropShadow_7777_1387"/>
<feBlend mode="normal" in="SourceGraphic" in2="effect1_dropShadow_7777_1387" result="shape"/>
</filter>
</defs>
</svg>
