<svg width="25" height="24" viewBox="0 0 25 24" fill="none" xmlns="http://www.w3.org/2000/svg">
<path d="M9.625 22H15.625C20.625 22 22.625 20 22.625 15V9C22.625 4 20.625 2 15.625 2H9.625C4.625 2 2.625 4 2.625 9V15C2.625 20 4.625 22 9.625 22Z" stroke="#050505" stroke-width="1.5" stroke-linecap="round" stroke-linejoin="round"/>
<path d="M12.625 15.5C14.558 15.5 16.125 13.933 16.125 12C16.125 10.067 14.558 8.5 12.625 8.5C10.692 8.5 9.125 10.067 9.125 12C9.125 13.933 10.692 15.5 12.625 15.5Z" stroke="#050505" stroke-width="1.5" stroke-linecap="round" stroke-linejoin="round"/>
<path d="M18.2611 7H18.2727" stroke="#050505" stroke-width="2" stroke-linecap="round" stroke-linejoin="round"/>
</svg>
