<svg width="25" height="24" viewBox="0 0 25 24" fill="none" xmlns="http://www.w3.org/2000/svg">
<path d="M6.80123 8.54151H2.70288V21.6562H6.80123V8.54151ZM7.17008 4.0333C7.17224 3.7233 7.11332 3.41591 6.99667 3.12866C6.88004 2.84143 6.70796 2.57998 6.49027 2.35926C6.27258 2.13852 6.01356 1.96282 5.72797 1.84221C5.44238 1.72159 5.13583 1.6584 4.82583 1.65625H4.75204C4.12162 1.65625 3.51701 1.90669 3.07122 2.35247C2.62544 2.79826 2.375 3.40288 2.375 4.0333C2.375 4.66374 2.62544 5.26835 3.07122 5.71414C3.51701 6.15992 4.12162 6.41036 4.75204 6.41036C5.06208 6.41798 5.37058 6.36445 5.6599 6.2528C5.94923 6.14118 6.21374 5.97362 6.43829 5.75972C6.66284 5.54583 6.84306 5.28977 6.96862 5.0062C7.09418 4.72264 7.16264 4.41711 7.17008 4.10708V4.0333ZM22.375 13.6891C22.375 9.74648 19.8668 8.21365 17.3751 8.21365C16.5592 8.17279 15.7468 8.34655 15.019 8.71763C14.2914 9.08863 13.6735 9.64406 13.2275 10.3284H13.1127V8.54151H9.26025V21.6562H13.3586V14.6808C13.2994 13.9665 13.5244 13.2575 13.9848 12.7081C14.4452 12.1587 15.1039 11.8131 15.8176 11.7465H15.9734C17.2767 11.7465 18.2439 12.5661 18.2439 14.6316V21.6562H22.3423L22.375 13.6891Z" stroke="#050505" stroke-width="1.5" stroke-linejoin="round"/>
</svg>
