<svg width="25" height="24" viewBox="0 0 25 24" fill="none" xmlns="http://www.w3.org/2000/svg">
<g clip-path="url(#clip0_7627_373)">
<path d="M12.6667 0C6.04266 0 0.666656 5.376 0.666656 12C0.666656 18.624 6.04266 24 12.6667 24C19.2907 24 24.6667 18.624 24.6667 12C24.6667 5.376 19.2907 0 12.6667 0ZM12.6667 19.104C8.74266 19.104 5.56266 15.924 5.56266 12C5.56266 8.076 8.74266 4.896 12.6667 4.896C16.5907 4.896 19.7707 8.076 19.7707 12C19.7707 15.924 16.5907 19.104 12.6667 19.104ZM12.6667 5.772C9.23466 5.772 6.43866 8.568 6.43866 12C6.43866 15.432 9.23466 18.228 12.6667 18.228C16.0987 18.228 18.8947 15.432 18.8947 12C18.8947 8.568 16.0987 5.772 12.6667 5.772ZM10.3507 15.54V8.46L16.4827 12L10.3507 15.54Z" fill="#EA4335"/>
</g>
<defs>
<clipPath id="clip0_7627_373">
<rect width="24" height="24" fill="white" transform="translate(0.666656)"/>
</clipPath>
</defs>
</svg>
