<svg width="137" height="49" viewBox="0 0 137 49" fill="none" xmlns="http://www.w3.org/2000/svg">
<rect x="-0.137571" y="0.763798" width="19.4577" height="8.21783" rx="4.10892" transform="matrix(-0.821252 0.570566 0.570566 0.821252 38.5511 18.8615)" fill="#F8AD00" stroke="black" stroke-width="1.09755"/>
<rect x="27.9733" y="12.4669" width="19.4577" height="8.21783" rx="4.10892" transform="rotate(34.7897 27.9733 12.4669)" fill="#38A952" stroke="black" stroke-width="1.09755"/>
<rect x="0.137571" y="-0.763798" width="19.4577" height="8.21783" rx="4.10892" transform="matrix(0.821252 -0.570566 -0.570566 -0.821252 5.0678 29.7499)" fill="#E8443D" stroke="black" stroke-width="1.09755"/>
<rect x="16.7434" y="37.244" width="19.4577" height="8.21783" rx="4.10892" transform="rotate(-145.21 16.7434 37.244)" fill="#3F86F9" stroke="black" stroke-width="1.09755"/>
<path d="M54.6826 23.707H49.0851V7.94616H54.6826C59.6874 7.94616 62.7167 11.151 62.7167 15.7388C62.7167 20.3266 59.5777 23.707 54.6826 23.707ZM52.4216 10.8217V20.8314H54.507C57.646 20.8314 59.2923 19.0095 59.2923 15.7388C59.2923 12.5998 57.646 10.8217 54.507 10.8217H52.4216Z" fill="black"/>
<path d="M69.9143 23.9046C66.4021 23.9046 64.0534 21.468 64.0534 17.8022C64.0534 14.312 66.4899 11.7656 69.8704 11.7656C73.5801 11.7656 76.0387 14.7729 75.4899 18.5924H67.1704C67.368 20.5022 68.2899 21.5558 69.8485 21.5558C71.1875 21.5558 72.0875 20.8973 72.4387 19.7339H75.4679C74.8094 22.39 72.768 23.9046 69.9143 23.9046ZM69.8046 14.0047C68.3777 14.0047 67.4777 14.9266 67.2143 16.6607H72.2631C72.1753 15.0364 71.2533 14.0047 69.8046 14.0047Z" fill="black"/>
<path d="M88.3801 11.9852L84.0777 23.707H80.7412L76.4168 11.9852H79.7095L82.4972 20.2388L85.307 11.9852H88.3801Z" fill="black"/>
<path d="M93.4216 23.707H90.0851V7.94616H100.27V10.8437H93.4216V14.8168H99.1948V17.6924H93.4216V23.707Z" fill="black"/>
<path d="M107.914 23.9046C104.402 23.9046 102.053 21.468 102.053 17.8022C102.053 14.312 104.49 11.7656 107.87 11.7656C111.58 11.7656 114.039 14.7729 113.49 18.5924H105.17C105.368 20.5022 106.29 21.5558 107.848 21.5558C109.187 21.5558 110.087 20.8973 110.439 19.7339H113.468C112.809 22.39 110.768 23.9046 107.914 23.9046ZM107.805 14.0047C106.378 14.0047 105.478 14.9266 105.214 16.6607H110.263C110.175 15.0364 109.253 14.0047 107.805 14.0047Z" fill="black"/>
<path d="M125.722 19.9534C125.722 22.4119 123.856 23.9265 120.519 23.9265C117.183 23.9265 115.317 22.3241 115.075 19.7119H117.995C118.017 20.9192 119.048 21.6875 120.563 21.6875C121.748 21.6875 122.648 21.3144 122.648 20.4802C122.648 19.7339 122.166 19.4266 121.046 19.2071L118.939 18.8119C116.831 18.4388 115.558 17.2754 115.558 15.4534C115.558 13.2803 117.424 11.7656 120.344 11.7656C123.285 11.7656 125.305 13.3242 125.524 15.8485H122.605C122.495 14.7071 121.639 14.0047 120.344 14.0047C119.224 14.0047 118.478 14.4217 118.478 15.1681C118.478 15.8705 118.961 16.1559 120.014 16.3534L122.275 16.7705C124.558 17.2095 125.722 18.2632 125.722 19.9534Z" fill="black"/>
<path d="M135.109 20.7436V23.3997C134.363 23.7729 133.661 23.9265 132.761 23.9265C130.346 23.9265 128.831 22.5436 128.831 19.9095V14.5973H126.461V11.9852H128.831V8.51688H131.861V11.9852H135.219V14.5973H131.861V19.2071C131.861 20.568 132.475 21.1168 133.573 21.1168C134.144 21.1168 134.67 20.9851 135.109 20.7436Z" fill="black"/>
<rect x="50.8938" y="30.9814" width="82.1338" height="17.7439" rx="8.87194" stroke="#1D1D1D" stroke-width="0.548777"/>
<path d="M82.3497 44.3535H77.8497V36.4731H78.6729V43.6182H82.3497V44.3535ZM86.9647 44.3535V43.2999C86.6245 44.0242 85.922 44.4633 85.0221 44.4633C83.8257 44.4633 83.0465 43.7938 83.0465 42.7511C83.0465 41.6206 83.9465 41.0279 85.7025 41.0279C86.0538 41.0279 86.3172 41.0499 86.8879 41.0938V40.6109C86.8879 39.645 86.372 39.0743 85.494 39.0743C84.5501 39.0743 83.9574 39.656 83.9465 40.5999H83.244C83.2769 39.3157 84.166 38.4597 85.483 38.4597C86.833 38.4597 87.6233 39.2499 87.6233 40.5889V44.3535H86.9647ZM83.7818 42.7291C83.7818 43.4316 84.3196 43.9035 85.1318 43.9035C86.2074 43.9035 86.8879 43.2011 86.8879 42.1145V41.5987C86.394 41.5548 86.0538 41.5438 85.7355 41.5438C84.4184 41.5438 83.7818 41.9279 83.7818 42.7291ZM91.3138 46.5925C89.8431 46.5925 88.9211 45.8242 88.8553 44.5291H89.5906C89.6565 45.473 90.2711 45.9779 91.3028 45.9779C92.4443 45.9779 93.0479 45.3742 93.0479 44.2328V43.0255C92.6967 43.8377 91.9943 44.3096 91.1382 44.3096C89.6784 44.3096 88.7016 43.1352 88.7016 41.3791C88.7016 39.6231 89.6675 38.4597 91.1272 38.4597C91.9943 38.4597 92.7187 38.9536 93.0918 39.7987V38.5694H93.8052V44.2218C93.8052 45.7145 92.8943 46.5925 91.3138 46.5925ZM89.4699 41.3791C89.4699 42.795 90.1394 43.6511 91.2479 43.6511C92.3345 43.6511 93.0589 42.773 93.0589 41.434C93.0589 40.0182 92.3455 39.1182 91.2479 39.1182C90.1504 39.1182 89.4699 39.9743 89.4699 41.3791ZM97.681 44.4633C96.0895 44.4633 94.9371 43.2011 94.9371 41.456C94.9371 39.7218 96.0895 38.4706 97.681 38.4706C99.2834 38.4706 100.436 39.7218 100.436 41.456C100.436 43.2011 99.2834 44.4633 97.681 44.4633ZM97.681 43.7938C98.8114 43.7938 99.6566 42.8938 99.6566 41.456C99.6566 40.0401 98.8114 39.1401 97.681 39.1401C96.5615 39.1401 95.7163 40.0401 95.7163 41.456C95.7163 42.8938 96.5615 43.7938 97.681 43.7938ZM105.893 42.7401C105.893 43.8047 105.037 44.4633 103.61 44.4633C102.172 44.4633 101.294 43.7389 101.184 42.5426H101.92C101.975 43.3657 102.622 43.8816 103.61 43.8816C104.554 43.8816 105.125 43.5194 105.125 42.8608C105.125 42.2901 104.795 42.0267 103.917 41.8511L103.083 41.6865C101.986 41.4779 101.404 40.9401 101.404 40.106C101.404 39.1401 102.26 38.4597 103.522 38.4597C104.85 38.4597 105.728 39.1731 105.816 40.3255H105.092C105.015 39.5243 104.433 39.0523 103.522 39.0523C102.71 39.0523 102.15 39.4365 102.15 40.0401C102.15 40.6109 102.501 40.8852 103.357 41.0499L104.225 41.2145C105.377 41.434 105.893 41.9169 105.893 42.7401Z" fill="#353535"/>
</svg>
