<svg width="24" height="24" viewBox="0 0 24 24" fill="none" xmlns="http://www.w3.org/2000/svg">
<path d="M6.42623 8.54151H2.32788V21.6562H6.42623V8.54151ZM6.79508 4.0333C6.79724 3.7233 6.73832 3.41591 6.62167 3.12866C6.50504 2.84143 6.33296 2.57998 6.11527 2.35926C5.89758 2.13852 5.63856 1.96282 5.35297 1.84221C5.06738 1.72159 4.76083 1.6584 4.45083 1.65625H4.37704C3.74662 1.65625 3.14201 1.90669 2.69622 2.35247C2.25044 2.79826 2 3.40288 2 4.0333C2 4.66374 2.25044 5.26835 2.69622 5.71414C3.14201 6.15992 3.74662 6.41036 4.37704 6.41036C4.68708 6.41798 4.99558 6.36445 5.2849 6.2528C5.57423 6.14118 5.83874 5.97362 6.06329 5.75972C6.28784 5.54583 6.46806 5.28977 6.59362 5.0062C6.71918 4.72264 6.78764 4.41711 6.79508 4.10708V4.0333ZM22 13.6891C22 9.74648 19.4918 8.21365 17.0001 8.21365C16.1842 8.17279 15.3718 8.34655 14.644 8.71763C13.9164 9.08863 13.2985 9.64406 12.8525 10.3284H12.7377V8.54151H8.88525V21.6562H12.9836V14.6808C12.9244 13.9665 13.1494 13.2575 13.6098 12.7081C14.0702 12.1587 14.7289 11.8131 15.4426 11.7465H15.5984C16.9017 11.7465 17.8689 12.5661 17.8689 14.6316V21.6562H21.9673L22 13.6891Z" stroke="#050505" stroke-width="1.5" stroke-linejoin="round"/>
</svg>
