<svg width="126" height="122" viewBox="0 0 126 122" fill="none" xmlns="http://www.w3.org/2000/svg">
<path d="M53.6514 66.564L68.3405 70.2005L72.6416 55.3696L57.9524 51.733L53.6514 66.564ZM13.6812 38.8925L21.2429 12.8183C21.524 11.8492 22.5294 11.2569 23.4888 11.4944L37.2324 14.8969L41.0163 1.84927C41.2972 0.880652 42.3028 0.287886 43.2622 0.525392L69.087 6.91881C70.0464 7.15632 70.5964 8.13421 70.3155 9.10283L66.5316 22.1505L81.2212 25.7871L85.0051 12.7395C85.286 11.7709 86.2911 11.178 87.2509 11.4156L113.076 17.809C114.035 18.0466 114.585 19.0244 114.304 19.9931L110.52 33.0407L124.264 36.4431C125.223 36.6807 125.773 37.6581 125.492 38.6271L117.93 64.7013C117.649 65.6699 116.644 66.2628 115.685 66.0252L101.941 62.6228L97.6401 77.4542L111.383 80.8566C112.343 81.0942 112.893 82.0716 112.612 83.0406L105.05 109.115C104.769 110.083 103.764 110.676 102.804 110.439L89.0611 107.036L85.2773 120.084C84.9964 121.052 83.9908 121.645 83.0315 121.407L57.2066 115.014C56.2468 114.776 55.6972 113.799 55.9781 112.83L59.7619 99.7828L45.0723 96.1461L41.2885 109.193C41.0076 110.162 40.0021 110.755 39.0427 110.517L13.2179 104.124C12.2585 103.886 11.7084 102.908 11.9894 101.94L15.7731 88.8925L2.02948 85.49C1.07012 85.2525 0.520056 84.2746 0.800963 83.306L8.36268 57.2318C8.64371 56.2627 9.64916 55.6704 10.6085 55.9079L24.3522 59.3104L28.6534 44.479L14.9097 41.0765C13.9504 40.839 13.4003 39.8611 13.6812 38.8925Z" fill="#F9AB00"/>
</svg>
