<svg width="124" height="125" viewBox="0 0 124 125" fill="none" xmlns="http://www.w3.org/2000/svg">
<path d="M52.5587 67.9021L67.2478 71.9079L71.1838 56.9579L56.4947 52.952L52.5587 67.9021ZM12.1802 38.9717L19.1 12.6881C19.3571 11.7113 20.3433 11.1322 21.3026 11.3938L35.0463 15.1418L38.5089 1.98945C38.766 1.01306 39.7522 0.433542 40.7116 0.695166L66.5364 7.73782C67.4958 7.99944 68.0652 9.0032 67.8081 9.97959L64.3455 23.132L79.035 27.1379L82.4977 13.9856C82.7548 13.0092 83.7406 12.4295 84.7003 12.6913L110.525 19.7339C111.485 19.9956 112.054 20.9993 111.797 21.9757L108.334 35.1281L122.077 38.876C123.037 39.1377 123.606 40.1409 123.349 41.1178L116.429 67.4013C116.172 68.3777 115.187 68.9573 114.227 68.6956L100.484 64.9477L96.5475 79.8982L110.291 83.6461C111.25 83.9078 111.82 84.911 111.562 85.8878L104.643 112.171C104.386 113.148 103.4 113.727 102.44 113.466L88.6968 109.718L85.2342 122.87C84.9772 123.846 83.9909 124.426 83.0316 124.164L57.2067 117.121C56.2469 116.86 55.678 115.856 55.935 114.88L59.3976 101.728L44.708 97.7217L41.2455 110.874C40.9884 111.85 40.0022 112.43 39.0428 112.168L13.218 105.125C12.2586 104.864 11.6892 103.86 11.9463 102.883L15.4088 89.7315L1.66518 85.9835C0.705821 85.7219 0.136417 84.7181 0.393475 83.7417L7.31322 57.4582C7.5704 56.4814 8.55652 55.9023 9.51587 56.1639L23.2595 59.9119L27.1956 44.9615L13.4519 41.2134C12.4926 40.9518 11.9232 39.9481 12.1802 38.9717Z" fill="#F9AB00"/>
</svg>
