<svg width="112" height="91" viewBox="0 0 112 91" fill="none" xmlns="http://www.w3.org/2000/svg">
<path d="M89.1145 64.8162L89.8525 21.7592C89.8635 21.0791 89.3222 20.5186 88.6421 20.5058L71.3653 20.2051C70.6853 20.1924 70.1238 20.7346 70.1119 21.4156L69.8949 33.8468L20.3112 -17.4986L6.10911 -3.78381L55.6981 47.5671L43.0294 47.3469C42.3493 47.3341 41.7878 47.8763 41.7759 48.5573L41.8782 66.2512C41.8663 66.9322 42.4076 67.4928 43.0886 67.5047L85.9673 67.8448C86.1832 67.8494 86.394 67.8305 86.598 67.7916C88.0083 67.5308 89.0885 66.3065 89.1145 64.8162Z" fill="#C3ECF6"/>
<path d="M89.114 64.8162L89.852 21.7592C89.863 21.0791 89.3217 20.5186 88.6416 20.5058L71.3649 20.2052C70.6848 20.1924 70.1234 20.7346 70.1115 21.4156L69.8945 33.8468L20.3108 -17.4986L6.10866 -3.7838L55.6977 47.5671L43.0289 47.3469C42.3488 47.3341 41.7874 47.8763 41.7755 48.5573L41.8777 66.2512C41.8658 66.9322 42.4071 67.4928 43.0881 67.5047L85.9669 67.8448C86.1827 67.8494 86.3935 67.8305 86.5975 67.7916C88.0078 67.5308 89.088 66.3065 89.114 64.8162Z" stroke="#1E1E1E" stroke-width="1.63516" stroke-miterlimit="10" stroke-linejoin="round"/>
</svg>
