<svg width="42" height="43" viewBox="0 0 42 43" fill="none" xmlns="http://www.w3.org/2000/svg">
<rect x="0.666" y="1.52" width="39.9611" height="39.9611" rx="19.9806" stroke="black" stroke-width="1.332"/>
<path d="M30.3446 29.7848C30.4374 29.8776 30.511 29.9878 30.5613 30.1091C30.6115 30.2303 30.6374 30.3603 30.6374 30.4916C30.6374 30.6228 30.6115 30.7528 30.5613 30.8741C30.511 30.9954 30.4374 31.1055 30.3446 31.1984C30.2518 31.2912 30.1416 31.3648 30.0203 31.415C29.899 31.4653 29.7691 31.4911 29.6378 31.4911C29.5065 31.4911 29.3766 31.4653 29.2553 31.415C29.134 31.3648 29.0238 31.2912 28.931 31.1984L20.6468 22.9129L12.3626 31.1984C12.1751 31.3858 11.9209 31.4911 11.6558 31.4911C11.3907 31.4911 11.1365 31.3858 10.949 31.1984C10.7616 31.0109 10.6563 30.7567 10.6562 30.4916C10.6562 30.2265 10.7616 29.9722 10.949 29.7848L19.2345 21.5006L10.949 13.2164C10.7616 13.0289 10.6562 12.7747 10.6562 12.5096C10.6563 12.2445 10.7616 11.9902 10.949 11.8028C11.1365 11.6153 11.3907 11.51 11.6558 11.51C11.9209 11.51 12.1751 11.6153 12.3626 11.8028L20.6468 20.0882L28.931 11.8028C29.1185 11.6153 29.3727 11.51 29.6378 11.51C29.9029 11.51 30.1571 11.6153 30.3446 11.8028C30.5321 11.9902 30.6374 12.2445 30.6374 12.5096C30.6374 12.7747 30.5321 13.0289 30.3446 13.2164L22.0591 21.5006L30.3446 29.7848Z" fill="black"/>
</svg>
