<svg width="122" height="48" viewBox="0 0 122 48" fill="none" xmlns="http://www.w3.org/2000/svg">
<path d="M35.7984 26.992C36.9136 36.0743 30.4561 44.3425 21.3751 45.4575C12.2928 46.5726 4.02306 40.1128 2.9079 31.0305C1.79273 21.9482 8.25417 13.6808 17.3365 12.5657C26.4175 11.4507 34.6833 17.9097 35.7984 26.992Z" fill="#F8D8D8"/>
<path d="M35.7989 26.9921C36.914 36.0744 30.4566 44.3425 21.3755 45.4575C12.2932 46.5727 4.02352 40.1128 2.90835 31.0305C1.79319 21.9482 8.25463 13.6809 17.3369 12.5657C26.418 11.4507 34.6837 17.9098 35.7989 26.9921Z" stroke="#1E1E1E" stroke-width="1.6368" stroke-miterlimit="10" stroke-linejoin="round"/>
<path d="M77.7821 21.8371C78.8973 30.9194 72.436 39.188 63.3537 40.3031C54.2714 41.4183 46.0055 34.958 44.8903 25.8757C43.7752 16.7934 50.2328 8.52652 59.3151 7.41135C68.3974 6.29619 76.6669 12.7548 77.7821 21.8371Z" fill="#F8D8D8"/>
<path d="M77.7826 21.8371C78.8977 30.9194 72.4364 39.188 63.3542 40.3032C54.2719 41.4184 46.0059 34.958 44.8908 25.8757C43.7756 16.7934 50.2332 8.52657 59.3155 7.4114C68.3978 6.29624 76.6674 12.7548 77.7826 21.8371Z" stroke="#1E1E1E" stroke-width="1.6368" stroke-miterlimit="10" stroke-linejoin="round"/>
<path d="M119.763 16.6826C120.878 25.7649 114.421 34.033 105.339 35.1482C96.2538 36.2636 87.9879 29.8033 86.8727 20.721C85.7576 11.6387 92.2152 3.37185 101.3 2.25638C110.382 1.14121 118.648 7.60027 119.763 16.6826Z" fill="#F8D8D8"/>
<path d="M119.762 16.6826C120.877 25.7649 114.419 34.0331 105.337 35.1482C96.2523 36.2637 87.9864 29.8034 86.8712 20.7211C85.7561 11.6388 92.2137 3.37191 101.299 2.25643C110.381 1.14126 118.647 7.60032 119.762 16.6826Z" stroke="#1E1E1E" stroke-width="1.6368" stroke-miterlimit="10" stroke-linejoin="round"/>
</svg>
