<svg width="29" height="30" viewBox="0 0 29 30" fill="none" xmlns="http://www.w3.org/2000/svg">
<path d="M16.7794 15.9189L14.2409 13.3804C13.896 13.0343 13.7223 12.8618 13.5357 12.7697C13.3606 12.6825 13.1678 12.6372 12.9722 12.6372C12.7767 12.6372 12.5838 12.6825 12.4088 12.7697C12.2221 12.8618 12.0497 13.0343 11.7036 13.3804C11.3574 13.7265 11.185 13.9002 11.0928 14.0856C10.9157 14.4412 10.9157 14.8582 11.0928 15.2125C11.185 15.3992 11.3574 15.5728 11.7036 15.9189L14.2421 18.4562M16.7794 15.9189L24.3925 23.5321C24.7386 23.877 24.9111 24.0506 25.0032 24.2373C25.1804 24.5917 25.1804 25.0086 25.0032 25.3642C24.9111 25.5497 24.7386 25.7233 24.3925 26.0694C24.0464 26.4155 23.8728 26.588 23.6873 26.6801C23.3318 26.8573 22.9148 26.8573 22.5604 26.6801C22.3738 26.588 22.2001 26.4155 21.854 26.0694L14.2421 18.4562M16.7794 15.9189L14.2421 18.4562M20.4105 3.18741L20.759 4.12886C21.215 5.36209 21.4441 5.9787 21.893 6.42876C22.3443 6.87881 22.9609 7.10798 24.1941 7.56394L25.1355 7.91241L24.1941 8.26088C22.9609 8.71684 22.3443 8.946 21.8942 9.39488C21.4441 9.84611 21.215 10.4627 20.759 11.696L20.4105 12.6374L20.0621 11.696C19.6061 10.4627 19.377 9.84611 18.9281 9.39606C18.4768 8.946 17.8602 8.71684 16.627 8.26088L15.6855 7.91241L16.627 7.56394C17.8602 7.10798 18.4768 6.87881 18.9269 6.42994C19.377 5.9787 19.6061 5.36209 20.0621 4.12886L20.4105 3.18741ZM7.4168 5.54991L7.67785 6.25511C8.02042 7.18121 8.1917 7.64426 8.52835 7.98092C8.86619 8.31876 9.32924 8.49004 10.2553 8.83142L10.9605 9.09366L10.2553 9.35471C9.32924 9.69728 8.86619 9.86856 8.52953 10.2052C8.1917 10.5431 8.02042 11.0061 7.67903 11.9322L7.4168 12.6374L7.15574 11.9322C6.81318 11.0061 6.6419 10.5431 6.30524 10.2064C5.9674 9.86856 5.50435 9.69728 4.57825 9.3559L3.87305 9.09366L4.57825 8.8326C5.50435 8.49004 5.9674 8.31876 6.30406 7.9821C6.6419 7.64426 6.81318 7.18121 7.15456 6.25511L7.4168 5.54991Z" stroke="#1E1E1E" stroke-width="1.77187" stroke-linecap="round" stroke-linejoin="round"/>
</svg>
