<svg width="97" height="75" viewBox="0 0 97 75" fill="none" xmlns="http://www.w3.org/2000/svg">
<path d="M55.1427 59.6642L66.2951 46.646C62.6969 45.5191 59.7074 43.1195 57.3079 39.452C54.9008 35.787 54.0365 31.6055 54.6971 26.9052C55.4428 21.5991 57.9684 17.327 62.2795 14.0752C66.5825 10.8295 71.5021 9.59567 77.0137 10.3703C82.5181 11.1439 86.8964 13.6844 90.1452 17.9915C94.0109 23.1257 95.0506 28.9644 93.2494 35.5092C92.6042 37.8639 91.6072 40.1005 90.2916 42.1623C88.4262 45.104 85.7895 48.3925 82.3954 52.0332L66.7643 69.7534C65.4883 71.1995 63.2862 71.3451 61.8275 70.0817L55.5146 64.6C54.0524 63.3361 53.8926 61.132 55.1427 59.6642Z" fill="#CCF6C5"/>
<path d="M55.1441 59.6643L66.2964 46.6461C62.6983 45.5192 59.7088 43.1196 57.3093 39.4521C54.9022 35.7871 54.0378 31.6056 54.6984 26.9052C55.4441 21.5992 57.9698 17.3271 62.2809 14.0753C66.5839 10.8296 71.5035 9.59575 77.015 10.3703C82.5194 11.1439 86.8978 13.6845 90.1466 17.9915C94.0123 23.1258 95.0519 28.9645 93.2508 35.5093C92.6056 37.864 91.6086 40.1006 90.293 42.1624C88.4275 45.1041 85.7909 48.3926 82.3968 52.0333L66.7657 69.7534C65.4897 71.1995 63.2875 71.3452 61.8288 70.0818L55.516 64.6001C54.0537 63.3362 53.8939 61.1321 55.1441 59.6643Z" stroke="#1E1E1E" stroke-width="1.6368" stroke-miterlimit="10"/>
<path d="M7.25962 52.9344L18.4013 39.9147C14.8138 38.7892 11.8208 36.3892 9.4248 32.7221C7.01773 29.0571 6.15334 24.8757 6.81393 20.1753C7.55965 14.8693 10.0853 10.5972 14.3964 7.34536C18.6994 4.09965 23.6084 2.86434 29.1199 3.63893C34.635 4.41402 39.0098 6.95409 42.2621 11.2616C46.1278 16.3959 47.1568 22.2331 45.3663 28.7793C44.7211 31.134 43.7135 33.3692 42.405 35.432C40.5324 38.3727 37.9064 41.6627 34.5088 45.3029L18.8706 63.022C17.5946 64.4681 15.3924 64.6137 13.9408 63.3514L7.62795 57.8696C6.16924 56.6063 6.00945 54.4022 7.25962 52.9344Z" fill="#CCF6C5"/>
<path d="M7.25708 52.9344L18.3988 39.9148C14.8112 38.7893 11.8182 36.3893 9.42226 32.7222C7.01519 29.0572 6.1508 24.8758 6.81139 20.1754C7.55711 14.8693 10.0827 10.5972 14.3938 7.34543C18.6968 4.09972 23.6059 2.86441 29.1174 3.639C34.6324 4.41409 39.0072 6.95416 42.2595 11.2617C46.1253 16.3959 47.1543 22.2332 45.3638 28.7794C44.7186 31.1341 43.711 33.3692 42.4024 35.432C40.5299 38.3728 37.9039 41.6627 34.5062 45.303L18.8681 63.0221C17.592 64.4682 15.3899 64.6138 13.9383 63.3515L7.62541 57.8697C6.1667 56.6064 6.00691 54.4022 7.25708 52.9344Z" stroke="#1E1E1E" stroke-width="1.6368" stroke-miterlimit="10"/>
</svg>
