<svg width="37" height="36" viewBox="0 0 37 36" fill="none" xmlns="http://www.w3.org/2000/svg">
<path d="M9.5 3C10.75 3 11.8125 3.4375 12.6875 4.3125C13.5625 5.1875 14 6.25 14 7.5C14 7.675 13.9875 7.8565 13.9625 8.0445C13.9375 8.2325 13.9 8.401 13.85 8.55L24.425 14.7C24.85 14.325 25.325 14.031 25.85 13.818C26.375 13.605 26.925 13.499 27.5 13.5C28.75 13.5 29.8125 13.9375 30.6875 14.8125C31.5625 15.6875 32 16.75 32 18C32 19.25 31.5625 20.3125 30.6875 21.1875C29.8125 22.0625 28.75 22.5 27.5 22.5C26.925 22.5 26.375 22.3935 25.85 22.1805C25.325 21.9675 24.85 21.674 24.425 21.3L13.85 27.45C13.9 27.6 13.9375 27.7685 13.9625 27.9555C13.9875 28.1425 14 28.324 14 28.5C14 29.75 13.5625 30.8125 12.6875 31.6875C11.8125 32.5625 10.75 33 9.5 33C8.25 33 7.1875 32.5625 6.3125 31.6875C5.4375 30.8125 5 29.75 5 28.5C5 27.25 5.4375 26.1875 6.3125 25.3125C7.1875 24.4375 8.25 24 9.5 24C10.075 24 10.625 24.106 11.15 24.318C11.675 24.53 12.15 24.824 12.575 25.2L23.15 19.05C23.1 18.9 23.0625 18.731 23.0375 18.543C23.0125 18.355 23 18.174 23 18C23 17.825 23.0125 17.6435 23.0375 17.4555C23.0625 17.2675 23.1 17.099 23.15 16.95L12.575 10.8C12.15 11.175 11.675 11.4685 11.15 11.6805C10.625 11.8925 10.075 11.999 9.5 12C8.25 12 7.1875 11.5625 6.3125 10.6875C5.4375 9.8125 5 8.75 5 7.5C5 6.25 5.4375 5.1875 6.3125 4.3125C7.1875 3.4375 8.25 3 9.5 3Z" fill="#FFFAEB"/>
</svg>
